%TF.GenerationSoftware,KiCad,Pcbnew,(6.0.1-0)*%
%TF.CreationDate,2022-09-05T12:17:55-04:00*%
%TF.ProjectId,Summing Circuit V5,53756d6d-696e-4672-9043-697263756974,003*%
%TF.SameCoordinates,Original*%
%TF.FileFunction,Copper,L2,Inr*%
%TF.FilePolarity,Positive*%
%FSLAX46Y46*%
G04 Gerber Fmt 4.6, Leading zero omitted, Abs format (unit mm)*
G04 Created by KiCad (PCBNEW (6.0.1-0)) date 2022-09-05 12:17:55*
%MOMM*%
%LPD*%
G01*
G04 APERTURE LIST*
G04 Aperture macros list*
%AMRoundRect*
0 Rectangle with rounded corners*
0 $1 Rounding radius*
0 $2 $3 $4 $5 $6 $7 $8 $9 X,Y pos of 4 corners*
0 Add a 4 corners polygon primitive as box body*
4,1,4,$2,$3,$4,$5,$6,$7,$8,$9,$2,$3,0*
0 Add four circle primitives for the rounded corners*
1,1,$1+$1,$2,$3*
1,1,$1+$1,$4,$5*
1,1,$1+$1,$6,$7*
1,1,$1+$1,$8,$9*
0 Add four rect primitives between the rounded corners*
20,1,$1+$1,$2,$3,$4,$5,0*
20,1,$1+$1,$4,$5,$6,$7,0*
20,1,$1+$1,$6,$7,$8,$9,0*
20,1,$1+$1,$8,$9,$2,$3,0*%
G04 Aperture macros list end*
%TA.AperFunction,ComponentPad*%
%ADD10O,1.740000X2.190000*%
%TD*%
%TA.AperFunction,ComponentPad*%
%ADD11RoundRect,0.250000X-0.620000X-0.845000X0.620000X-0.845000X0.620000X0.845000X-0.620000X0.845000X0*%
%TD*%
%TA.AperFunction,ComponentPad*%
%ADD12RoundRect,0.250000X0.845000X-0.620000X0.845000X0.620000X-0.845000X0.620000X-0.845000X-0.620000X0*%
%TD*%
%TA.AperFunction,ComponentPad*%
%ADD13O,2.190000X1.740000*%
%TD*%
%TA.AperFunction,ComponentPad*%
%ADD14RoundRect,0.250000X-0.845000X0.620000X-0.845000X-0.620000X0.845000X-0.620000X0.845000X0.620000X0*%
%TD*%
%TA.AperFunction,ViaPad*%
%ADD15C,0.762000*%
%TD*%
G04 APERTURE END LIST*
D10*
%TO.N,/To OPA549*%
%TO.C,J3*%
X116205000Y-49149000D03*
%TO.N,/From Shunt Ground*%
X113665000Y-49149000D03*
D11*
%TO.N,/From Coil*%
X111125000Y-49149000D03*
%TD*%
D12*
%TO.N,/GND_AC Correction*%
%TO.C,J7*%
X81935000Y-69850000D03*
D13*
%TO.N,/SIG_AC Correction*%
X81935000Y-67310000D03*
%TD*%
D12*
%TO.N,/Vin_RV*%
%TO.C,J4*%
X89789000Y-90805000D03*
D13*
%TO.N,/SIG_Coarse*%
X89789000Y-88265000D03*
%TO.N,GND*%
X89789000Y-85725000D03*
%TD*%
D12*
%TO.N,/GND_DC Correction*%
%TO.C,J8*%
X81935000Y-63309500D03*
D13*
%TO.N,/SIG_DC Correction*%
X81935000Y-60769500D03*
%TD*%
D14*
%TO.N,+15V*%
%TO.C,J2*%
X122154000Y-76581000D03*
D13*
%TO.N,GND*%
X122154000Y-79121000D03*
%TO.N,-15V*%
X122154000Y-81661000D03*
%TD*%
D12*
%TO.N,/GND_Coarse*%
%TO.C,J1*%
X81955000Y-82931000D03*
D13*
%TO.N,/SIG_Coarse*%
X81955000Y-80391000D03*
%TD*%
D12*
%TO.N,GND*%
%TO.C,J9*%
X81935000Y-56769000D03*
D13*
%TO.N,/From Coil*%
X81935000Y-54229000D03*
%TD*%
D12*
%TO.N,/GND_Fine Tuning*%
%TO.C,J6*%
X81935000Y-76390500D03*
D13*
%TO.N,/SIG_Fine Tuning*%
X81935000Y-73850500D03*
%TD*%
D15*
%TO.N,GND*%
X107950000Y-84963000D03*
X96139000Y-76454000D03*
X96139000Y-57658000D03*
X98679000Y-82804000D03*
X114300000Y-89535000D03*
X116713000Y-61976000D03*
X122301000Y-70612000D03*
X106807000Y-48514000D03*
X107950000Y-57658000D03*
X93218000Y-91313000D03*
X107950000Y-75311000D03*
X96139000Y-48387000D03*
X106807000Y-57785000D03*
X91186000Y-56769000D03*
X91186000Y-83439000D03*
X107950000Y-65913000D03*
X107061000Y-76581000D03*
X103378000Y-87376000D03*
X96139000Y-67056000D03*
X91186000Y-66040000D03*
X91186000Y-75438000D03*
X112776000Y-90043000D03*
X106680000Y-67183000D03*
%TO.N,-15V*%
X96139000Y-61468000D03*
X96139000Y-70866000D03*
X117983000Y-72517000D03*
X96139000Y-52324000D03*
X94361000Y-84582000D03*
%TO.N,+15V*%
X103886000Y-48514000D03*
X109220000Y-88265000D03*
X103886000Y-76581000D03*
X122682000Y-61976000D03*
X103886000Y-67183000D03*
X103886000Y-57785000D03*
%TD*%
%TA.AperFunction,Conductor*%
%TO.N,GND*%
G36*
X119322121Y-44470002D02*
G01*
X119368614Y-44523658D01*
X119380000Y-44576000D01*
X119380000Y-50419000D01*
X125604000Y-50419000D01*
X125672121Y-50439002D01*
X125718614Y-50492658D01*
X125730000Y-50545000D01*
X125730000Y-86361000D01*
X125709998Y-86429121D01*
X125656342Y-86475614D01*
X125604000Y-86487000D01*
X119126000Y-86487000D01*
X119126000Y-92584000D01*
X119105998Y-92652121D01*
X119052342Y-92698614D01*
X119000000Y-92710000D01*
X84200000Y-92710000D01*
X84131879Y-92689998D01*
X84085386Y-92636342D01*
X84074000Y-92584000D01*
X84074000Y-88199829D01*
X88182052Y-88199829D01*
X88182252Y-88205158D01*
X88182252Y-88205160D01*
X88184745Y-88271565D01*
X88190828Y-88433604D01*
X88238868Y-88662559D01*
X88324797Y-88880146D01*
X88446159Y-89080144D01*
X88599483Y-89256834D01*
X88603609Y-89260217D01*
X88636770Y-89287407D01*
X88676764Y-89346067D01*
X88678695Y-89417038D01*
X88641950Y-89477786D01*
X88619610Y-89492733D01*
X88620054Y-89493450D01*
X88469652Y-89586522D01*
X88344695Y-89711697D01*
X88251885Y-89862262D01*
X88196203Y-90030139D01*
X88185500Y-90134600D01*
X88185500Y-91475400D01*
X88196474Y-91581166D01*
X88252450Y-91748946D01*
X88345522Y-91899348D01*
X88470697Y-92024305D01*
X88476927Y-92028145D01*
X88476928Y-92028146D01*
X88614090Y-92112694D01*
X88621262Y-92117115D01*
X88701005Y-92143564D01*
X88782611Y-92170632D01*
X88782613Y-92170632D01*
X88789139Y-92172797D01*
X88795975Y-92173497D01*
X88795978Y-92173498D01*
X88839031Y-92177909D01*
X88893600Y-92183500D01*
X90684400Y-92183500D01*
X90687646Y-92183163D01*
X90687650Y-92183163D01*
X90783308Y-92173238D01*
X90783312Y-92173237D01*
X90790166Y-92172526D01*
X90796702Y-92170345D01*
X90796704Y-92170345D01*
X90928806Y-92126272D01*
X90957946Y-92116550D01*
X91108348Y-92023478D01*
X91233305Y-91898303D01*
X91326115Y-91747738D01*
X91381797Y-91579861D01*
X91392500Y-91475400D01*
X91392500Y-90134600D01*
X91381526Y-90028834D01*
X91325550Y-89861054D01*
X91232478Y-89710652D01*
X91107303Y-89585695D01*
X90956738Y-89492885D01*
X90958062Y-89490738D01*
X90913710Y-89451688D01*
X90894248Y-89383411D01*
X90914788Y-89315451D01*
X90933272Y-89293239D01*
X91046306Y-89185410D01*
X91046316Y-89185398D01*
X91050168Y-89181724D01*
X91189813Y-88994035D01*
X91220567Y-88933548D01*
X91293420Y-88790256D01*
X91293420Y-88790255D01*
X91295838Y-88785500D01*
X91365210Y-88562083D01*
X91382239Y-88433604D01*
X91395248Y-88335455D01*
X91395248Y-88335451D01*
X91395948Y-88330171D01*
X91393502Y-88265000D01*
X108325600Y-88265000D01*
X108326290Y-88271565D01*
X108331890Y-88324840D01*
X108345145Y-88450956D01*
X108402925Y-88628785D01*
X108406228Y-88634507D01*
X108406229Y-88634508D01*
X108422424Y-88662559D01*
X108496415Y-88790715D01*
X108500833Y-88795622D01*
X108500834Y-88795623D01*
X108581048Y-88884709D01*
X108621530Y-88929669D01*
X108626869Y-88933548D01*
X108703578Y-88989280D01*
X108772800Y-89039573D01*
X108778828Y-89042257D01*
X108778830Y-89042258D01*
X108872984Y-89084178D01*
X108943615Y-89115625D01*
X109035063Y-89135063D01*
X109120053Y-89153128D01*
X109120057Y-89153128D01*
X109126510Y-89154500D01*
X109313490Y-89154500D01*
X109319943Y-89153128D01*
X109319947Y-89153128D01*
X109404937Y-89135063D01*
X109496385Y-89115625D01*
X109567016Y-89084178D01*
X109661170Y-89042258D01*
X109661172Y-89042257D01*
X109667200Y-89039573D01*
X109736423Y-88989280D01*
X109813131Y-88933548D01*
X109818470Y-88929669D01*
X109858953Y-88884709D01*
X109939166Y-88795623D01*
X109939167Y-88795622D01*
X109943585Y-88790715D01*
X110017576Y-88662559D01*
X110033771Y-88634508D01*
X110033772Y-88634507D01*
X110037075Y-88628785D01*
X110094855Y-88450956D01*
X110108111Y-88324840D01*
X110113710Y-88271565D01*
X110114400Y-88265000D01*
X110113710Y-88258435D01*
X110095545Y-88085608D01*
X110095545Y-88085607D01*
X110094855Y-88079044D01*
X110037075Y-87901215D01*
X110020594Y-87872668D01*
X109946888Y-87745006D01*
X109943585Y-87739285D01*
X109863061Y-87649854D01*
X109822885Y-87605234D01*
X109822883Y-87605233D01*
X109818470Y-87600331D01*
X109807751Y-87592543D01*
X109672542Y-87494308D01*
X109672541Y-87494307D01*
X109667200Y-87490427D01*
X109661172Y-87487743D01*
X109661170Y-87487742D01*
X109502416Y-87417060D01*
X109502414Y-87417060D01*
X109496385Y-87414375D01*
X109404937Y-87394937D01*
X109319947Y-87376872D01*
X109319943Y-87376872D01*
X109313490Y-87375500D01*
X109126510Y-87375500D01*
X109120057Y-87376872D01*
X109120053Y-87376872D01*
X109035063Y-87394937D01*
X108943615Y-87414375D01*
X108937586Y-87417060D01*
X108937584Y-87417060D01*
X108778830Y-87487742D01*
X108778828Y-87487743D01*
X108772800Y-87490427D01*
X108767459Y-87494307D01*
X108767458Y-87494308D01*
X108632249Y-87592543D01*
X108621530Y-87600331D01*
X108617117Y-87605233D01*
X108617115Y-87605234D01*
X108576939Y-87649854D01*
X108496415Y-87739285D01*
X108493112Y-87745006D01*
X108419407Y-87872668D01*
X108402925Y-87901215D01*
X108345145Y-88079044D01*
X108344455Y-88085607D01*
X108344455Y-88085608D01*
X108326290Y-88258435D01*
X108325600Y-88265000D01*
X91393502Y-88265000D01*
X91387372Y-88101727D01*
X91387172Y-88096396D01*
X91339132Y-87867441D01*
X91253203Y-87649854D01*
X91131841Y-87449856D01*
X90978517Y-87273166D01*
X90797614Y-87124835D01*
X90792978Y-87122196D01*
X90792975Y-87122194D01*
X90759999Y-87103423D01*
X90710693Y-87052341D01*
X90696831Y-86982711D01*
X90722814Y-86916640D01*
X90751964Y-86889401D01*
X90876155Y-86805790D01*
X90884441Y-86799129D01*
X91045930Y-86645076D01*
X91052979Y-86637108D01*
X91186203Y-86458048D01*
X91191802Y-86449018D01*
X91292953Y-86250069D01*
X91296956Y-86240208D01*
X91363138Y-86027071D01*
X91365420Y-86016691D01*
X91368036Y-85996957D01*
X91365840Y-85982793D01*
X91352655Y-85979000D01*
X88227373Y-85979000D01*
X88213842Y-85982973D01*
X88212317Y-85993580D01*
X88238252Y-86117188D01*
X88241312Y-86127384D01*
X88323284Y-86334952D01*
X88328018Y-86344489D01*
X88443796Y-86535285D01*
X88450062Y-86543878D01*
X88596333Y-86712441D01*
X88603964Y-86719861D01*
X88776542Y-86861368D01*
X88785309Y-86867393D01*
X88817978Y-86885989D01*
X88867285Y-86937071D01*
X88881146Y-87006702D01*
X88855163Y-87072773D01*
X88826013Y-87100011D01*
X88759399Y-87144858D01*
X88697104Y-87186798D01*
X88527832Y-87348276D01*
X88388187Y-87535965D01*
X88385771Y-87540716D01*
X88385769Y-87540720D01*
X88327756Y-87654823D01*
X88282162Y-87744500D01*
X88212790Y-87967917D01*
X88212089Y-87973204D01*
X88212089Y-87973205D01*
X88195055Y-88101727D01*
X88182052Y-88199829D01*
X84074000Y-88199829D01*
X84074000Y-86487000D01*
X77596000Y-86487000D01*
X77527879Y-86466998D01*
X77481386Y-86413342D01*
X77470000Y-86361000D01*
X77470000Y-85453043D01*
X88209964Y-85453043D01*
X88212160Y-85467207D01*
X88225345Y-85471000D01*
X89516885Y-85471000D01*
X89532124Y-85466525D01*
X89533329Y-85465135D01*
X89535000Y-85457452D01*
X89535000Y-85452885D01*
X90043000Y-85452885D01*
X90047475Y-85468124D01*
X90048865Y-85469329D01*
X90056548Y-85471000D01*
X91350627Y-85471000D01*
X91364158Y-85467027D01*
X91365683Y-85456420D01*
X91339748Y-85332812D01*
X91336688Y-85322616D01*
X91254716Y-85115048D01*
X91249982Y-85105511D01*
X91134204Y-84914715D01*
X91127938Y-84906122D01*
X90981667Y-84737559D01*
X90974036Y-84730139D01*
X90801458Y-84588632D01*
X90792691Y-84582607D01*
X90791625Y-84582000D01*
X93466600Y-84582000D01*
X93486145Y-84767956D01*
X93488185Y-84774234D01*
X93488185Y-84774235D01*
X93519861Y-84871722D01*
X93543925Y-84945785D01*
X93637415Y-85107715D01*
X93641833Y-85112622D01*
X93641834Y-85112623D01*
X93729326Y-85209792D01*
X93762530Y-85246669D01*
X93913800Y-85356573D01*
X93919828Y-85359257D01*
X93919830Y-85359258D01*
X94078584Y-85429940D01*
X94084615Y-85432625D01*
X94176062Y-85452062D01*
X94261053Y-85470128D01*
X94261057Y-85470128D01*
X94267510Y-85471500D01*
X94454490Y-85471500D01*
X94460943Y-85470128D01*
X94460947Y-85470128D01*
X94545938Y-85452062D01*
X94637385Y-85432625D01*
X94643416Y-85429940D01*
X94802170Y-85359258D01*
X94802172Y-85359257D01*
X94808200Y-85356573D01*
X94959470Y-85246669D01*
X94992675Y-85209792D01*
X95080166Y-85112623D01*
X95080167Y-85112622D01*
X95084585Y-85107715D01*
X95178075Y-84945785D01*
X95202139Y-84871722D01*
X95233815Y-84774235D01*
X95233815Y-84774234D01*
X95235855Y-84767956D01*
X95255400Y-84582000D01*
X95235855Y-84396044D01*
X95233508Y-84388819D01*
X95180117Y-84224500D01*
X95178075Y-84218215D01*
X95084585Y-84056285D01*
X95061387Y-84030521D01*
X94963885Y-83922234D01*
X94963883Y-83922233D01*
X94959470Y-83917331D01*
X94808200Y-83807427D01*
X94802172Y-83804743D01*
X94802170Y-83804742D01*
X94643416Y-83734060D01*
X94643414Y-83734060D01*
X94637385Y-83731375D01*
X94545937Y-83711937D01*
X94460947Y-83693872D01*
X94460943Y-83693872D01*
X94454490Y-83692500D01*
X94267510Y-83692500D01*
X94261057Y-83693872D01*
X94261053Y-83693872D01*
X94176063Y-83711937D01*
X94084615Y-83731375D01*
X94078586Y-83734060D01*
X94078584Y-83734060D01*
X93919830Y-83804742D01*
X93919828Y-83804743D01*
X93913800Y-83807427D01*
X93762530Y-83917331D01*
X93758117Y-83922233D01*
X93758115Y-83922234D01*
X93660613Y-84030521D01*
X93637415Y-84056285D01*
X93543925Y-84218215D01*
X93541883Y-84224500D01*
X93488493Y-84388819D01*
X93486145Y-84396044D01*
X93466600Y-84582000D01*
X90791625Y-84582000D01*
X90598738Y-84472203D01*
X90589074Y-84467738D01*
X90379289Y-84391590D01*
X90369021Y-84388819D01*
X90148234Y-84348894D01*
X90140005Y-84347961D01*
X90121126Y-84347070D01*
X90118151Y-84347000D01*
X90061115Y-84347000D01*
X90045876Y-84351475D01*
X90044671Y-84352865D01*
X90043000Y-84360548D01*
X90043000Y-85452885D01*
X89535000Y-85452885D01*
X89535000Y-84365115D01*
X89530525Y-84349876D01*
X89529135Y-84348671D01*
X89521452Y-84347000D01*
X89507946Y-84347000D01*
X89502637Y-84347225D01*
X89336293Y-84361339D01*
X89325821Y-84363129D01*
X89109798Y-84419198D01*
X89099758Y-84422734D01*
X88896268Y-84514399D01*
X88886982Y-84519568D01*
X88701845Y-84644210D01*
X88693559Y-84650871D01*
X88532070Y-84804924D01*
X88525021Y-84812892D01*
X88391797Y-84991952D01*
X88386198Y-85000982D01*
X88285047Y-85199931D01*
X88281044Y-85209792D01*
X88214862Y-85422929D01*
X88212580Y-85433309D01*
X88209964Y-85453043D01*
X77470000Y-85453043D01*
X77470000Y-80325829D01*
X80348052Y-80325829D01*
X80356828Y-80559604D01*
X80404868Y-80788559D01*
X80490797Y-81006146D01*
X80612159Y-81206144D01*
X80765483Y-81382834D01*
X80769609Y-81386217D01*
X80802770Y-81413407D01*
X80842764Y-81472067D01*
X80844695Y-81543038D01*
X80807950Y-81603786D01*
X80785610Y-81618733D01*
X80786054Y-81619450D01*
X80635652Y-81712522D01*
X80510695Y-81837697D01*
X80506855Y-81843927D01*
X80506854Y-81843928D01*
X80433348Y-81963177D01*
X80417885Y-81988262D01*
X80362203Y-82156139D01*
X80361503Y-82162975D01*
X80361502Y-82162978D01*
X80359117Y-82186256D01*
X80351500Y-82260600D01*
X80351500Y-83601400D01*
X80351837Y-83604646D01*
X80351837Y-83604650D01*
X80361095Y-83693872D01*
X80362474Y-83707166D01*
X80364655Y-83713702D01*
X80364655Y-83713704D01*
X80395028Y-83804742D01*
X80418450Y-83874946D01*
X80511522Y-84025348D01*
X80636697Y-84150305D01*
X80642927Y-84154145D01*
X80642928Y-84154146D01*
X80780090Y-84238694D01*
X80787262Y-84243115D01*
X80867005Y-84269564D01*
X80948611Y-84296632D01*
X80948613Y-84296632D01*
X80955139Y-84298797D01*
X80961975Y-84299497D01*
X80961978Y-84299498D01*
X81005031Y-84303909D01*
X81059600Y-84309500D01*
X82850400Y-84309500D01*
X82853646Y-84309163D01*
X82853650Y-84309163D01*
X82949308Y-84299238D01*
X82949312Y-84299237D01*
X82956166Y-84298526D01*
X82962702Y-84296345D01*
X82962704Y-84296345D01*
X83094806Y-84252272D01*
X83123946Y-84242550D01*
X83274348Y-84149478D01*
X83399305Y-84024303D01*
X83492115Y-83873738D01*
X83538444Y-83734060D01*
X83545632Y-83712389D01*
X83545632Y-83712387D01*
X83547797Y-83705861D01*
X83549026Y-83693872D01*
X83558172Y-83604598D01*
X83558500Y-83601400D01*
X83558500Y-82260600D01*
X83558163Y-82257350D01*
X83548238Y-82161692D01*
X83548237Y-82161688D01*
X83547526Y-82154834D01*
X83491550Y-81987054D01*
X83398478Y-81836652D01*
X83273303Y-81711695D01*
X83122738Y-81618885D01*
X83124062Y-81616738D01*
X83100314Y-81595829D01*
X120547052Y-81595829D01*
X120547252Y-81601158D01*
X120547252Y-81601160D01*
X120547939Y-81619450D01*
X120555828Y-81829604D01*
X120556923Y-81834822D01*
X120588865Y-81987054D01*
X120603868Y-82058559D01*
X120689797Y-82276146D01*
X120811159Y-82476144D01*
X120964483Y-82652834D01*
X121145386Y-82801165D01*
X121348695Y-82916896D01*
X121568596Y-82996716D01*
X121573845Y-82997665D01*
X121573848Y-82997666D01*
X121655040Y-83012348D01*
X121798803Y-83038344D01*
X121802942Y-83038539D01*
X121802949Y-83038540D01*
X121821828Y-83039430D01*
X121821835Y-83039430D01*
X121823316Y-83039500D01*
X122437738Y-83039500D01*
X122505641Y-83033738D01*
X122606791Y-83025156D01*
X122606795Y-83025155D01*
X122612102Y-83024705D01*
X122617259Y-83023367D01*
X122617262Y-83023366D01*
X122833371Y-82967275D01*
X122833375Y-82967274D01*
X122838540Y-82965933D01*
X122843406Y-82963741D01*
X122843409Y-82963740D01*
X123046964Y-82872045D01*
X123051837Y-82869850D01*
X123245896Y-82739202D01*
X123415168Y-82577724D01*
X123554813Y-82390035D01*
X123610398Y-82280709D01*
X123658420Y-82186256D01*
X123658420Y-82186255D01*
X123660838Y-82181500D01*
X123730210Y-81958083D01*
X123730911Y-81952795D01*
X123760248Y-81731455D01*
X123760248Y-81731451D01*
X123760948Y-81726171D01*
X123752172Y-81492396D01*
X123704132Y-81263441D01*
X123618203Y-81045854D01*
X123496841Y-80845856D01*
X123343517Y-80669166D01*
X123162614Y-80520835D01*
X123157978Y-80518196D01*
X123157975Y-80518194D01*
X123124999Y-80499423D01*
X123075693Y-80448341D01*
X123061831Y-80378711D01*
X123087814Y-80312640D01*
X123116964Y-80285401D01*
X123241155Y-80201790D01*
X123249441Y-80195129D01*
X123410930Y-80041076D01*
X123417979Y-80033108D01*
X123551203Y-79854048D01*
X123556802Y-79845018D01*
X123657953Y-79646069D01*
X123661956Y-79636208D01*
X123728138Y-79423071D01*
X123730420Y-79412691D01*
X123733036Y-79392957D01*
X123730840Y-79378793D01*
X123717655Y-79375000D01*
X120592373Y-79375000D01*
X120578842Y-79378973D01*
X120577317Y-79389580D01*
X120603252Y-79513188D01*
X120606312Y-79523384D01*
X120688284Y-79730952D01*
X120693018Y-79740489D01*
X120808796Y-79931285D01*
X120815062Y-79939878D01*
X120961333Y-80108441D01*
X120968964Y-80115861D01*
X121141542Y-80257368D01*
X121150309Y-80263393D01*
X121182978Y-80281989D01*
X121232285Y-80333071D01*
X121246146Y-80402702D01*
X121220163Y-80468773D01*
X121191013Y-80496011D01*
X121124399Y-80540858D01*
X121062104Y-80582798D01*
X120892832Y-80744276D01*
X120753187Y-80931965D01*
X120750771Y-80936716D01*
X120750769Y-80936720D01*
X120657567Y-81120035D01*
X120647162Y-81140500D01*
X120577790Y-81363917D01*
X120577089Y-81369204D01*
X120577089Y-81369205D01*
X120555623Y-81531165D01*
X120547052Y-81595829D01*
X83100314Y-81595829D01*
X83079710Y-81577688D01*
X83060248Y-81509411D01*
X83080788Y-81441451D01*
X83099272Y-81419239D01*
X83212306Y-81311410D01*
X83212316Y-81311398D01*
X83216168Y-81307724D01*
X83355813Y-81120035D01*
X83391003Y-81050823D01*
X83459420Y-80916256D01*
X83459420Y-80916255D01*
X83461838Y-80911500D01*
X83531210Y-80688083D01*
X83548239Y-80559604D01*
X83561248Y-80461455D01*
X83561248Y-80461451D01*
X83561948Y-80456171D01*
X83553172Y-80222396D01*
X83505132Y-79993441D01*
X83419203Y-79775854D01*
X83347495Y-79657683D01*
X83300609Y-79580417D01*
X83300607Y-79580414D01*
X83297841Y-79575856D01*
X83144517Y-79399166D01*
X82963614Y-79250835D01*
X82760305Y-79135104D01*
X82540404Y-79055284D01*
X82535155Y-79054335D01*
X82535152Y-79054334D01*
X82453960Y-79039652D01*
X82310197Y-79013656D01*
X82306058Y-79013461D01*
X82306051Y-79013460D01*
X82287172Y-79012570D01*
X82287165Y-79012570D01*
X82285684Y-79012500D01*
X81671262Y-79012500D01*
X81603359Y-79018262D01*
X81502209Y-79026844D01*
X81502205Y-79026845D01*
X81496898Y-79027295D01*
X81491741Y-79028633D01*
X81491738Y-79028634D01*
X81275629Y-79084725D01*
X81275625Y-79084726D01*
X81270460Y-79086067D01*
X81265594Y-79088259D01*
X81265591Y-79088260D01*
X81155739Y-79137745D01*
X81057163Y-79182150D01*
X80863104Y-79312798D01*
X80693832Y-79474276D01*
X80690649Y-79478554D01*
X80633964Y-79554741D01*
X80554187Y-79661965D01*
X80551771Y-79666716D01*
X80551769Y-79666720D01*
X80493756Y-79780823D01*
X80448162Y-79870500D01*
X80378790Y-80093917D01*
X80378089Y-80099204D01*
X80378089Y-80099205D01*
X80353642Y-80283656D01*
X80348052Y-80325829D01*
X77470000Y-80325829D01*
X77470000Y-73785329D01*
X80328052Y-73785329D01*
X80336828Y-74019104D01*
X80384868Y-74248059D01*
X80470797Y-74465646D01*
X80592159Y-74665644D01*
X80745483Y-74842334D01*
X80749609Y-74845717D01*
X80782770Y-74872907D01*
X80822764Y-74931567D01*
X80824695Y-75002538D01*
X80787950Y-75063286D01*
X80765610Y-75078233D01*
X80766054Y-75078950D01*
X80615652Y-75172022D01*
X80490695Y-75297197D01*
X80486855Y-75303427D01*
X80486854Y-75303428D01*
X80447234Y-75367704D01*
X80397885Y-75447762D01*
X80342203Y-75615639D01*
X80331500Y-75720100D01*
X80331500Y-77060900D01*
X80331837Y-77064146D01*
X80331837Y-77064150D01*
X80336254Y-77106715D01*
X80342474Y-77166666D01*
X80344655Y-77173202D01*
X80344655Y-77173204D01*
X80371828Y-77254650D01*
X80398450Y-77334446D01*
X80491522Y-77484848D01*
X80616697Y-77609805D01*
X80622927Y-77613645D01*
X80622928Y-77613646D01*
X80760090Y-77698194D01*
X80767262Y-77702615D01*
X80847005Y-77729064D01*
X80928611Y-77756132D01*
X80928613Y-77756132D01*
X80935139Y-77758297D01*
X80941975Y-77758997D01*
X80941978Y-77758998D01*
X80985031Y-77763409D01*
X81039600Y-77769000D01*
X82830400Y-77769000D01*
X82833646Y-77768663D01*
X82833650Y-77768663D01*
X82929308Y-77758738D01*
X82929312Y-77758737D01*
X82936166Y-77758026D01*
X82942702Y-77755845D01*
X82942704Y-77755845D01*
X83074806Y-77711772D01*
X83103946Y-77702050D01*
X83254348Y-77608978D01*
X83379305Y-77483803D01*
X83388351Y-77469128D01*
X83468275Y-77339468D01*
X83468276Y-77339466D01*
X83472115Y-77333238D01*
X83527797Y-77165361D01*
X83538500Y-77060900D01*
X83538500Y-76581000D01*
X102991600Y-76581000D01*
X103011145Y-76766956D01*
X103068925Y-76944785D01*
X103162415Y-77106715D01*
X103287530Y-77245669D01*
X103438800Y-77355573D01*
X103444828Y-77358257D01*
X103444830Y-77358258D01*
X103457062Y-77363704D01*
X103609615Y-77431625D01*
X103701062Y-77451062D01*
X103786053Y-77469128D01*
X103786057Y-77469128D01*
X103792510Y-77470500D01*
X103979490Y-77470500D01*
X103985943Y-77469128D01*
X103985947Y-77469128D01*
X104070938Y-77451062D01*
X104162385Y-77431625D01*
X104314938Y-77363704D01*
X104327170Y-77358258D01*
X104327172Y-77358257D01*
X104333200Y-77355573D01*
X104476582Y-77251400D01*
X120550500Y-77251400D01*
X120550837Y-77254646D01*
X120550837Y-77254650D01*
X120559638Y-77339468D01*
X120561474Y-77357166D01*
X120563655Y-77363702D01*
X120563655Y-77363704D01*
X120586773Y-77432997D01*
X120617450Y-77524946D01*
X120710522Y-77675348D01*
X120835697Y-77800305D01*
X120841927Y-77804145D01*
X120841928Y-77804146D01*
X120986262Y-77893115D01*
X120985018Y-77895132D01*
X121029775Y-77934537D01*
X121049239Y-78002813D01*
X121028700Y-78070774D01*
X121010215Y-78092989D01*
X120897070Y-78200924D01*
X120890021Y-78208892D01*
X120756797Y-78387952D01*
X120751198Y-78396982D01*
X120650047Y-78595931D01*
X120646044Y-78605792D01*
X120579862Y-78818929D01*
X120577580Y-78829309D01*
X120574964Y-78849043D01*
X120577160Y-78863207D01*
X120590345Y-78867000D01*
X123715627Y-78867000D01*
X123729158Y-78863027D01*
X123730683Y-78852420D01*
X123704748Y-78728812D01*
X123701688Y-78718616D01*
X123619716Y-78511048D01*
X123614982Y-78501511D01*
X123499204Y-78310715D01*
X123492938Y-78302122D01*
X123346667Y-78133559D01*
X123339035Y-78126138D01*
X123305728Y-78098827D01*
X123265734Y-78040167D01*
X123263803Y-77969197D01*
X123300548Y-77908449D01*
X123323346Y-77893196D01*
X123322946Y-77892550D01*
X123467120Y-77803332D01*
X123473348Y-77799478D01*
X123598305Y-77674303D01*
X123635695Y-77613646D01*
X123687275Y-77529968D01*
X123687276Y-77529966D01*
X123691115Y-77523738D01*
X123746797Y-77355861D01*
X123757500Y-77251400D01*
X123757500Y-75910600D01*
X123746526Y-75804834D01*
X123721685Y-75730375D01*
X123692868Y-75644002D01*
X123690550Y-75637054D01*
X123597478Y-75486652D01*
X123472303Y-75361695D01*
X123376077Y-75302380D01*
X123327968Y-75272725D01*
X123327966Y-75272724D01*
X123321738Y-75268885D01*
X123161254Y-75215655D01*
X123160389Y-75215368D01*
X123160387Y-75215368D01*
X123153861Y-75213203D01*
X123147025Y-75212503D01*
X123147022Y-75212502D01*
X123103969Y-75208091D01*
X123049400Y-75202500D01*
X121258600Y-75202500D01*
X121255354Y-75202837D01*
X121255350Y-75202837D01*
X121159692Y-75212762D01*
X121159688Y-75212763D01*
X121152834Y-75213474D01*
X121146298Y-75215655D01*
X121146296Y-75215655D01*
X121014194Y-75259728D01*
X120985054Y-75269450D01*
X120834652Y-75362522D01*
X120709695Y-75487697D01*
X120705855Y-75493927D01*
X120705854Y-75493928D01*
X120635665Y-75607796D01*
X120616885Y-75638262D01*
X120561203Y-75806139D01*
X120550500Y-75910600D01*
X120550500Y-77251400D01*
X104476582Y-77251400D01*
X104484470Y-77245669D01*
X104609585Y-77106715D01*
X104703075Y-76944785D01*
X104760855Y-76766956D01*
X104780400Y-76581000D01*
X104760855Y-76395044D01*
X104703075Y-76217215D01*
X104609585Y-76055285D01*
X104484470Y-75916331D01*
X104333200Y-75806427D01*
X104327172Y-75803743D01*
X104327170Y-75803742D01*
X104168416Y-75733060D01*
X104168414Y-75733060D01*
X104162385Y-75730375D01*
X104070938Y-75710938D01*
X103985947Y-75692872D01*
X103985943Y-75692872D01*
X103979490Y-75691500D01*
X103792510Y-75691500D01*
X103786057Y-75692872D01*
X103786053Y-75692872D01*
X103701062Y-75710938D01*
X103609615Y-75730375D01*
X103603586Y-75733060D01*
X103603584Y-75733060D01*
X103444830Y-75803742D01*
X103444828Y-75803743D01*
X103438800Y-75806427D01*
X103287530Y-75916331D01*
X103162415Y-76055285D01*
X103068925Y-76217215D01*
X103011145Y-76395044D01*
X102991600Y-76581000D01*
X83538500Y-76581000D01*
X83538500Y-75720100D01*
X83530730Y-75645209D01*
X83528238Y-75621192D01*
X83528237Y-75621188D01*
X83527526Y-75614334D01*
X83471550Y-75446554D01*
X83378478Y-75296152D01*
X83253303Y-75171195D01*
X83102738Y-75078385D01*
X83104062Y-75076238D01*
X83059710Y-75037188D01*
X83040248Y-74968911D01*
X83060788Y-74900951D01*
X83079272Y-74878739D01*
X83192306Y-74770910D01*
X83192316Y-74770898D01*
X83196168Y-74767224D01*
X83335813Y-74579535D01*
X83391398Y-74470209D01*
X83439420Y-74375756D01*
X83439420Y-74375755D01*
X83441838Y-74371000D01*
X83511210Y-74147583D01*
X83528239Y-74019104D01*
X83541248Y-73920955D01*
X83541248Y-73920951D01*
X83541948Y-73915671D01*
X83533172Y-73681896D01*
X83485132Y-73452941D01*
X83399203Y-73235354D01*
X83277841Y-73035356D01*
X83124517Y-72858666D01*
X82943614Y-72710335D01*
X82740305Y-72594604D01*
X82526509Y-72517000D01*
X117088600Y-72517000D01*
X117108145Y-72702956D01*
X117110185Y-72709234D01*
X117110185Y-72709235D01*
X117141861Y-72806722D01*
X117165925Y-72880785D01*
X117259415Y-73042715D01*
X117384530Y-73181669D01*
X117535800Y-73291573D01*
X117541828Y-73294257D01*
X117541830Y-73294258D01*
X117700584Y-73364940D01*
X117706615Y-73367625D01*
X117798063Y-73387063D01*
X117883053Y-73405128D01*
X117883057Y-73405128D01*
X117889510Y-73406500D01*
X118076490Y-73406500D01*
X118082943Y-73405128D01*
X118082947Y-73405128D01*
X118167937Y-73387063D01*
X118259385Y-73367625D01*
X118265416Y-73364940D01*
X118424170Y-73294258D01*
X118424172Y-73294257D01*
X118430200Y-73291573D01*
X118581470Y-73181669D01*
X118706585Y-73042715D01*
X118800075Y-72880785D01*
X118824139Y-72806722D01*
X118855815Y-72709235D01*
X118855815Y-72709234D01*
X118857855Y-72702956D01*
X118877400Y-72517000D01*
X118857855Y-72331044D01*
X118800075Y-72153215D01*
X118706585Y-71991285D01*
X118581470Y-71852331D01*
X118570751Y-71844543D01*
X118435542Y-71746308D01*
X118435541Y-71746307D01*
X118430200Y-71742427D01*
X118424172Y-71739743D01*
X118424170Y-71739742D01*
X118265416Y-71669060D01*
X118265414Y-71669060D01*
X118259385Y-71666375D01*
X118150627Y-71643258D01*
X118082947Y-71628872D01*
X118082943Y-71628872D01*
X118076490Y-71627500D01*
X117889510Y-71627500D01*
X117883057Y-71628872D01*
X117883053Y-71628872D01*
X117815373Y-71643258D01*
X117706615Y-71666375D01*
X117700586Y-71669060D01*
X117700584Y-71669060D01*
X117541830Y-71739742D01*
X117541828Y-71739743D01*
X117535800Y-71742427D01*
X117530459Y-71746307D01*
X117530458Y-71746308D01*
X117395249Y-71844543D01*
X117384530Y-71852331D01*
X117259415Y-71991285D01*
X117165925Y-72153215D01*
X117108145Y-72331044D01*
X117088600Y-72517000D01*
X82526509Y-72517000D01*
X82520404Y-72514784D01*
X82515155Y-72513835D01*
X82515152Y-72513834D01*
X82433960Y-72499152D01*
X82290197Y-72473156D01*
X82286058Y-72472961D01*
X82286051Y-72472960D01*
X82267172Y-72472070D01*
X82267165Y-72472070D01*
X82265684Y-72472000D01*
X81651262Y-72472000D01*
X81583359Y-72477762D01*
X81482209Y-72486344D01*
X81482205Y-72486345D01*
X81476898Y-72486795D01*
X81471741Y-72488133D01*
X81471738Y-72488134D01*
X81255629Y-72544225D01*
X81255625Y-72544226D01*
X81250460Y-72545567D01*
X81245594Y-72547759D01*
X81245591Y-72547760D01*
X81135739Y-72597245D01*
X81037163Y-72641650D01*
X80843104Y-72772298D01*
X80673832Y-72933776D01*
X80534187Y-73121465D01*
X80531771Y-73126216D01*
X80531769Y-73126220D01*
X80447699Y-73291573D01*
X80428162Y-73330000D01*
X80358790Y-73553417D01*
X80358089Y-73558704D01*
X80358089Y-73558705D01*
X80341055Y-73687227D01*
X80328052Y-73785329D01*
X77470000Y-73785329D01*
X77470000Y-67244829D01*
X80328052Y-67244829D01*
X80336828Y-67478604D01*
X80384868Y-67707559D01*
X80470797Y-67925146D01*
X80592159Y-68125144D01*
X80745483Y-68301834D01*
X80749609Y-68305217D01*
X80782770Y-68332407D01*
X80822764Y-68391067D01*
X80824695Y-68462038D01*
X80787950Y-68522786D01*
X80765610Y-68537733D01*
X80766054Y-68538450D01*
X80615652Y-68631522D01*
X80490695Y-68756697D01*
X80397885Y-68907262D01*
X80342203Y-69075139D01*
X80331500Y-69179600D01*
X80331500Y-70520400D01*
X80342474Y-70626166D01*
X80398450Y-70793946D01*
X80491522Y-70944348D01*
X80616697Y-71069305D01*
X80622927Y-71073145D01*
X80622928Y-71073146D01*
X80760090Y-71157694D01*
X80767262Y-71162115D01*
X80847005Y-71188564D01*
X80928611Y-71215632D01*
X80928613Y-71215632D01*
X80935139Y-71217797D01*
X80941975Y-71218497D01*
X80941978Y-71218498D01*
X80985031Y-71222909D01*
X81039600Y-71228500D01*
X82830400Y-71228500D01*
X82833646Y-71228163D01*
X82833650Y-71228163D01*
X82929308Y-71218238D01*
X82929312Y-71218237D01*
X82936166Y-71217526D01*
X82942702Y-71215345D01*
X82942704Y-71215345D01*
X83074806Y-71171272D01*
X83103946Y-71161550D01*
X83254348Y-71068478D01*
X83379305Y-70943303D01*
X83422909Y-70872565D01*
X83426956Y-70866000D01*
X95244600Y-70866000D01*
X95245290Y-70872565D01*
X95253379Y-70949521D01*
X95264145Y-71051956D01*
X95266185Y-71058234D01*
X95266185Y-71058235D01*
X95271030Y-71073146D01*
X95321925Y-71229785D01*
X95415415Y-71391715D01*
X95540530Y-71530669D01*
X95545869Y-71534548D01*
X95673807Y-71627500D01*
X95691800Y-71640573D01*
X95697828Y-71643257D01*
X95697830Y-71643258D01*
X95856584Y-71713940D01*
X95862615Y-71716625D01*
X95954062Y-71736062D01*
X96039053Y-71754128D01*
X96039057Y-71754128D01*
X96045510Y-71755500D01*
X96232490Y-71755500D01*
X96238943Y-71754128D01*
X96238947Y-71754128D01*
X96323938Y-71736062D01*
X96415385Y-71716625D01*
X96421416Y-71713940D01*
X96580170Y-71643258D01*
X96580172Y-71643257D01*
X96586200Y-71640573D01*
X96604194Y-71627500D01*
X96732131Y-71534548D01*
X96737470Y-71530669D01*
X96862585Y-71391715D01*
X96956075Y-71229785D01*
X97006970Y-71073146D01*
X97011815Y-71058235D01*
X97011815Y-71058234D01*
X97013855Y-71051956D01*
X97024622Y-70949521D01*
X97032710Y-70872565D01*
X97033400Y-70866000D01*
X97025700Y-70792738D01*
X97014545Y-70686608D01*
X97014545Y-70686607D01*
X97013855Y-70680044D01*
X96956075Y-70502215D01*
X96862585Y-70340285D01*
X96737470Y-70201331D01*
X96586200Y-70091427D01*
X96580172Y-70088743D01*
X96580170Y-70088742D01*
X96421416Y-70018060D01*
X96421414Y-70018060D01*
X96415385Y-70015375D01*
X96323938Y-69995938D01*
X96238947Y-69977872D01*
X96238943Y-69977872D01*
X96232490Y-69976500D01*
X96045510Y-69976500D01*
X96039057Y-69977872D01*
X96039053Y-69977872D01*
X95954062Y-69995938D01*
X95862615Y-70015375D01*
X95856586Y-70018060D01*
X95856584Y-70018060D01*
X95697830Y-70088742D01*
X95697828Y-70088743D01*
X95691800Y-70091427D01*
X95540530Y-70201331D01*
X95415415Y-70340285D01*
X95321925Y-70502215D01*
X95264145Y-70680044D01*
X95263455Y-70686607D01*
X95263455Y-70686608D01*
X95252300Y-70792738D01*
X95244600Y-70866000D01*
X83426956Y-70866000D01*
X83468275Y-70798968D01*
X83468276Y-70798966D01*
X83472115Y-70792738D01*
X83527797Y-70624861D01*
X83538500Y-70520400D01*
X83538500Y-69179600D01*
X83527526Y-69073834D01*
X83471550Y-68906054D01*
X83378478Y-68755652D01*
X83253303Y-68630695D01*
X83102738Y-68537885D01*
X83104062Y-68535738D01*
X83059710Y-68496688D01*
X83040248Y-68428411D01*
X83060788Y-68360451D01*
X83079272Y-68338239D01*
X83192306Y-68230410D01*
X83192316Y-68230398D01*
X83196168Y-68226724D01*
X83335813Y-68039035D01*
X83375866Y-67960258D01*
X83439420Y-67835256D01*
X83439420Y-67835255D01*
X83441838Y-67830500D01*
X83511210Y-67607083D01*
X83511911Y-67601795D01*
X83541248Y-67380455D01*
X83541248Y-67380451D01*
X83541948Y-67375171D01*
X83534734Y-67183000D01*
X102991600Y-67183000D01*
X103011145Y-67368956D01*
X103068925Y-67546785D01*
X103162415Y-67708715D01*
X103287530Y-67847669D01*
X103438800Y-67957573D01*
X103444828Y-67960257D01*
X103444830Y-67960258D01*
X103603584Y-68030940D01*
X103609615Y-68033625D01*
X103701063Y-68053063D01*
X103786053Y-68071128D01*
X103786057Y-68071128D01*
X103792510Y-68072500D01*
X103979490Y-68072500D01*
X103985943Y-68071128D01*
X103985947Y-68071128D01*
X104070937Y-68053063D01*
X104162385Y-68033625D01*
X104168416Y-68030940D01*
X104327170Y-67960258D01*
X104327172Y-67960257D01*
X104333200Y-67957573D01*
X104484470Y-67847669D01*
X104609585Y-67708715D01*
X104703075Y-67546785D01*
X104760855Y-67368956D01*
X104780400Y-67183000D01*
X104760855Y-66997044D01*
X104703075Y-66819215D01*
X104609585Y-66657285D01*
X104605166Y-66652377D01*
X104488885Y-66523234D01*
X104488883Y-66523233D01*
X104484470Y-66518331D01*
X104333200Y-66408427D01*
X104327172Y-66405743D01*
X104327170Y-66405742D01*
X104168416Y-66335060D01*
X104168414Y-66335060D01*
X104162385Y-66332375D01*
X104070937Y-66312937D01*
X103985947Y-66294872D01*
X103985943Y-66294872D01*
X103979490Y-66293500D01*
X103792510Y-66293500D01*
X103786057Y-66294872D01*
X103786053Y-66294872D01*
X103701063Y-66312937D01*
X103609615Y-66332375D01*
X103603586Y-66335060D01*
X103603584Y-66335060D01*
X103444830Y-66405742D01*
X103444828Y-66405743D01*
X103438800Y-66408427D01*
X103287530Y-66518331D01*
X103283117Y-66523233D01*
X103283115Y-66523234D01*
X103166834Y-66652377D01*
X103162415Y-66657285D01*
X103068925Y-66819215D01*
X103011145Y-66997044D01*
X102991600Y-67183000D01*
X83534734Y-67183000D01*
X83533172Y-67141396D01*
X83485132Y-66912441D01*
X83399203Y-66694854D01*
X83277841Y-66494856D01*
X83124517Y-66318166D01*
X82943614Y-66169835D01*
X82740305Y-66054104D01*
X82520404Y-65974284D01*
X82515155Y-65973335D01*
X82515152Y-65973334D01*
X82433960Y-65958652D01*
X82290197Y-65932656D01*
X82286058Y-65932461D01*
X82286051Y-65932460D01*
X82267172Y-65931570D01*
X82267165Y-65931570D01*
X82265684Y-65931500D01*
X81651262Y-65931500D01*
X81583359Y-65937262D01*
X81482209Y-65945844D01*
X81482205Y-65945845D01*
X81476898Y-65946295D01*
X81471741Y-65947633D01*
X81471738Y-65947634D01*
X81255629Y-66003725D01*
X81255625Y-66003726D01*
X81250460Y-66005067D01*
X81245594Y-66007259D01*
X81245591Y-66007260D01*
X81135739Y-66056745D01*
X81037163Y-66101150D01*
X80843104Y-66231798D01*
X80673832Y-66393276D01*
X80534187Y-66580965D01*
X80531771Y-66585716D01*
X80531769Y-66585720D01*
X80473756Y-66699823D01*
X80428162Y-66789500D01*
X80358790Y-67012917D01*
X80358089Y-67018204D01*
X80358089Y-67018205D01*
X80335377Y-67189565D01*
X80328052Y-67244829D01*
X77470000Y-67244829D01*
X77470000Y-60704329D01*
X80328052Y-60704329D01*
X80336828Y-60938104D01*
X80337923Y-60943322D01*
X80373001Y-61110500D01*
X80384868Y-61167059D01*
X80470797Y-61384646D01*
X80473566Y-61389209D01*
X80521378Y-61468000D01*
X80592159Y-61584644D01*
X80745483Y-61761334D01*
X80780498Y-61790044D01*
X80782770Y-61791907D01*
X80822764Y-61850567D01*
X80824695Y-61921538D01*
X80787950Y-61982286D01*
X80765610Y-61997233D01*
X80766054Y-61997950D01*
X80615652Y-62091022D01*
X80490695Y-62216197D01*
X80486855Y-62222427D01*
X80486854Y-62222428D01*
X80474437Y-62242573D01*
X80397885Y-62366762D01*
X80342203Y-62534639D01*
X80331500Y-62639100D01*
X80331500Y-63979900D01*
X80342474Y-64085666D01*
X80398450Y-64253446D01*
X80491522Y-64403848D01*
X80616697Y-64528805D01*
X80622927Y-64532645D01*
X80622928Y-64532646D01*
X80760090Y-64617194D01*
X80767262Y-64621615D01*
X80847005Y-64648064D01*
X80928611Y-64675132D01*
X80928613Y-64675132D01*
X80935139Y-64677297D01*
X80941975Y-64677997D01*
X80941978Y-64677998D01*
X80985031Y-64682409D01*
X81039600Y-64688000D01*
X82830400Y-64688000D01*
X82833646Y-64687663D01*
X82833650Y-64687663D01*
X82929308Y-64677738D01*
X82929312Y-64677737D01*
X82936166Y-64677026D01*
X82942702Y-64674845D01*
X82942704Y-64674845D01*
X83074806Y-64630772D01*
X83103946Y-64621050D01*
X83254348Y-64527978D01*
X83379305Y-64402803D01*
X83472115Y-64252238D01*
X83527797Y-64084361D01*
X83538500Y-63979900D01*
X83538500Y-62639100D01*
X83527526Y-62533334D01*
X83518615Y-62506623D01*
X83473868Y-62372502D01*
X83471550Y-62365554D01*
X83378478Y-62215152D01*
X83253303Y-62090195D01*
X83102738Y-61997385D01*
X83104062Y-61995238D01*
X83059710Y-61956188D01*
X83040248Y-61887911D01*
X83060788Y-61819951D01*
X83079272Y-61797739D01*
X83192306Y-61689910D01*
X83192316Y-61689898D01*
X83196168Y-61686224D01*
X83335813Y-61498535D01*
X83351338Y-61468000D01*
X95244600Y-61468000D01*
X95245290Y-61474565D01*
X95256381Y-61580083D01*
X95264145Y-61653956D01*
X95321925Y-61831785D01*
X95325228Y-61837507D01*
X95325229Y-61837508D01*
X95332769Y-61850567D01*
X95415415Y-61993715D01*
X95419833Y-61998622D01*
X95419834Y-61998623D01*
X95507697Y-62096204D01*
X95540530Y-62132669D01*
X95545869Y-62136548D01*
X95655497Y-62216197D01*
X95691800Y-62242573D01*
X95697828Y-62245257D01*
X95697830Y-62245258D01*
X95856584Y-62315940D01*
X95862615Y-62318625D01*
X95954063Y-62338063D01*
X96039053Y-62356128D01*
X96039057Y-62356128D01*
X96045510Y-62357500D01*
X96232490Y-62357500D01*
X96238943Y-62356128D01*
X96238947Y-62356128D01*
X96323937Y-62338063D01*
X96415385Y-62318625D01*
X96421416Y-62315940D01*
X96580170Y-62245258D01*
X96580172Y-62245257D01*
X96586200Y-62242573D01*
X96622504Y-62216197D01*
X96732131Y-62136548D01*
X96737470Y-62132669D01*
X96770304Y-62096204D01*
X96858166Y-61998623D01*
X96858167Y-61998622D01*
X96862585Y-61993715D01*
X96872813Y-61976000D01*
X121787600Y-61976000D01*
X121788290Y-61982565D01*
X121799603Y-62090195D01*
X121807145Y-62161956D01*
X121809185Y-62168234D01*
X121809185Y-62168235D01*
X121823086Y-62211017D01*
X121864925Y-62339785D01*
X121868228Y-62345507D01*
X121868229Y-62345508D01*
X121875153Y-62357500D01*
X121958415Y-62501715D01*
X122083530Y-62640669D01*
X122234800Y-62750573D01*
X122240828Y-62753257D01*
X122240830Y-62753258D01*
X122399584Y-62823940D01*
X122405615Y-62826625D01*
X122497063Y-62846063D01*
X122582053Y-62864128D01*
X122582057Y-62864128D01*
X122588510Y-62865500D01*
X122775490Y-62865500D01*
X122781943Y-62864128D01*
X122781947Y-62864128D01*
X122866937Y-62846063D01*
X122958385Y-62826625D01*
X122964416Y-62823940D01*
X123123170Y-62753258D01*
X123123172Y-62753257D01*
X123129200Y-62750573D01*
X123280470Y-62640669D01*
X123405585Y-62501715D01*
X123488847Y-62357500D01*
X123495771Y-62345508D01*
X123495772Y-62345507D01*
X123499075Y-62339785D01*
X123540914Y-62211017D01*
X123554815Y-62168235D01*
X123554815Y-62168234D01*
X123556855Y-62161956D01*
X123564398Y-62090195D01*
X123575710Y-61982565D01*
X123576400Y-61976000D01*
X123556855Y-61790044D01*
X123499075Y-61612215D01*
X123405585Y-61450285D01*
X123350592Y-61389209D01*
X123284885Y-61316234D01*
X123284883Y-61316233D01*
X123280470Y-61311331D01*
X123129200Y-61201427D01*
X123123172Y-61198743D01*
X123123170Y-61198742D01*
X122964416Y-61128060D01*
X122964414Y-61128060D01*
X122958385Y-61125375D01*
X122858834Y-61104215D01*
X122781947Y-61087872D01*
X122781943Y-61087872D01*
X122775490Y-61086500D01*
X122588510Y-61086500D01*
X122582057Y-61087872D01*
X122582053Y-61087872D01*
X122505166Y-61104215D01*
X122405615Y-61125375D01*
X122399586Y-61128060D01*
X122399584Y-61128060D01*
X122240830Y-61198742D01*
X122240828Y-61198743D01*
X122234800Y-61201427D01*
X122083530Y-61311331D01*
X122079117Y-61316233D01*
X122079115Y-61316234D01*
X122013408Y-61389209D01*
X121958415Y-61450285D01*
X121864925Y-61612215D01*
X121807145Y-61790044D01*
X121787600Y-61976000D01*
X96872813Y-61976000D01*
X96945231Y-61850567D01*
X96952771Y-61837508D01*
X96952772Y-61837507D01*
X96956075Y-61831785D01*
X97013855Y-61653956D01*
X97021620Y-61580083D01*
X97032710Y-61474565D01*
X97033400Y-61468000D01*
X97013855Y-61282044D01*
X96956075Y-61104215D01*
X96946640Y-61087872D01*
X96865888Y-60948006D01*
X96862585Y-60942285D01*
X96858166Y-60937377D01*
X96741885Y-60808234D01*
X96741883Y-60808233D01*
X96737470Y-60803331D01*
X96608543Y-60709660D01*
X96591542Y-60697308D01*
X96591541Y-60697307D01*
X96586200Y-60693427D01*
X96580172Y-60690743D01*
X96580170Y-60690742D01*
X96421416Y-60620060D01*
X96421414Y-60620060D01*
X96415385Y-60617375D01*
X96323938Y-60597938D01*
X96238947Y-60579872D01*
X96238943Y-60579872D01*
X96232490Y-60578500D01*
X96045510Y-60578500D01*
X96039057Y-60579872D01*
X96039053Y-60579872D01*
X95954062Y-60597938D01*
X95862615Y-60617375D01*
X95856586Y-60620060D01*
X95856584Y-60620060D01*
X95697830Y-60690742D01*
X95697828Y-60690743D01*
X95691800Y-60693427D01*
X95686459Y-60697307D01*
X95686458Y-60697308D01*
X95669457Y-60709660D01*
X95540530Y-60803331D01*
X95536117Y-60808233D01*
X95536115Y-60808234D01*
X95419834Y-60937377D01*
X95415415Y-60942285D01*
X95412112Y-60948006D01*
X95331361Y-61087872D01*
X95321925Y-61104215D01*
X95264145Y-61282044D01*
X95244600Y-61468000D01*
X83351338Y-61468000D01*
X83391398Y-61389209D01*
X83439420Y-61294756D01*
X83439420Y-61294755D01*
X83441838Y-61290000D01*
X83511210Y-61066583D01*
X83511911Y-61061295D01*
X83541248Y-60839955D01*
X83541248Y-60839951D01*
X83541948Y-60834671D01*
X83540772Y-60803331D01*
X83533372Y-60606227D01*
X83533172Y-60600896D01*
X83485132Y-60371941D01*
X83399203Y-60154354D01*
X83277841Y-59954356D01*
X83124517Y-59777666D01*
X82943614Y-59629335D01*
X82740305Y-59513604D01*
X82520404Y-59433784D01*
X82515155Y-59432835D01*
X82515152Y-59432834D01*
X82433960Y-59418152D01*
X82290197Y-59392156D01*
X82286058Y-59391961D01*
X82286051Y-59391960D01*
X82267172Y-59391070D01*
X82267165Y-59391070D01*
X82265684Y-59391000D01*
X81651262Y-59391000D01*
X81583359Y-59396762D01*
X81482209Y-59405344D01*
X81482205Y-59405345D01*
X81476898Y-59405795D01*
X81471741Y-59407133D01*
X81471738Y-59407134D01*
X81255629Y-59463225D01*
X81255625Y-59463226D01*
X81250460Y-59464567D01*
X81245594Y-59466759D01*
X81245591Y-59466760D01*
X81135739Y-59516245D01*
X81037163Y-59560650D01*
X80843104Y-59691298D01*
X80673832Y-59852776D01*
X80534187Y-60040465D01*
X80531771Y-60045216D01*
X80531769Y-60045220D01*
X80473756Y-60159323D01*
X80428162Y-60249000D01*
X80358790Y-60472417D01*
X80358089Y-60477704D01*
X80358089Y-60477705D01*
X80328983Y-60697308D01*
X80328052Y-60704329D01*
X77470000Y-60704329D01*
X77470000Y-57436095D01*
X80332001Y-57436095D01*
X80332338Y-57442614D01*
X80342257Y-57538206D01*
X80345149Y-57551600D01*
X80396588Y-57705784D01*
X80402761Y-57718962D01*
X80488063Y-57856807D01*
X80497099Y-57868208D01*
X80611829Y-57982739D01*
X80623240Y-57991751D01*
X80761243Y-58076816D01*
X80774424Y-58082963D01*
X80928710Y-58134138D01*
X80942086Y-58137005D01*
X81036438Y-58146672D01*
X81042854Y-58147000D01*
X81662885Y-58147000D01*
X81678124Y-58142525D01*
X81679329Y-58141135D01*
X81681000Y-58133452D01*
X81681000Y-58128884D01*
X82189000Y-58128884D01*
X82193475Y-58144123D01*
X82194865Y-58145328D01*
X82202548Y-58146999D01*
X82827095Y-58146999D01*
X82833614Y-58146662D01*
X82929206Y-58136743D01*
X82942600Y-58133851D01*
X83096784Y-58082412D01*
X83109962Y-58076239D01*
X83247807Y-57990937D01*
X83259208Y-57981901D01*
X83373739Y-57867171D01*
X83382751Y-57855760D01*
X83426367Y-57785000D01*
X102991600Y-57785000D01*
X103011145Y-57970956D01*
X103013185Y-57977234D01*
X103013185Y-57977235D01*
X103017637Y-57990937D01*
X103068925Y-58148785D01*
X103162415Y-58310715D01*
X103287530Y-58449669D01*
X103438800Y-58559573D01*
X103444828Y-58562257D01*
X103444830Y-58562258D01*
X103603584Y-58632940D01*
X103609615Y-58635625D01*
X103701063Y-58655063D01*
X103786053Y-58673128D01*
X103786057Y-58673128D01*
X103792510Y-58674500D01*
X103979490Y-58674500D01*
X103985943Y-58673128D01*
X103985947Y-58673128D01*
X104070937Y-58655063D01*
X104162385Y-58635625D01*
X104168416Y-58632940D01*
X104327170Y-58562258D01*
X104327172Y-58562257D01*
X104333200Y-58559573D01*
X104484470Y-58449669D01*
X104609585Y-58310715D01*
X104703075Y-58148785D01*
X104754363Y-57990937D01*
X104758815Y-57977235D01*
X104758815Y-57977234D01*
X104760855Y-57970956D01*
X104780400Y-57785000D01*
X104760855Y-57599044D01*
X104703075Y-57421215D01*
X104609585Y-57259285D01*
X104484470Y-57120331D01*
X104473751Y-57112543D01*
X104338542Y-57014308D01*
X104338541Y-57014307D01*
X104333200Y-57010427D01*
X104327172Y-57007743D01*
X104327170Y-57007742D01*
X104168416Y-56937060D01*
X104168414Y-56937060D01*
X104162385Y-56934375D01*
X104070937Y-56914937D01*
X103985947Y-56896872D01*
X103985943Y-56896872D01*
X103979490Y-56895500D01*
X103792510Y-56895500D01*
X103786057Y-56896872D01*
X103786053Y-56896872D01*
X103701063Y-56914937D01*
X103609615Y-56934375D01*
X103603586Y-56937060D01*
X103603584Y-56937060D01*
X103444830Y-57007742D01*
X103444828Y-57007743D01*
X103438800Y-57010427D01*
X103433459Y-57014307D01*
X103433458Y-57014308D01*
X103298249Y-57112543D01*
X103287530Y-57120331D01*
X103162415Y-57259285D01*
X103068925Y-57421215D01*
X103011145Y-57599044D01*
X102991600Y-57785000D01*
X83426367Y-57785000D01*
X83467816Y-57717757D01*
X83473963Y-57704576D01*
X83525138Y-57550290D01*
X83528005Y-57536914D01*
X83537672Y-57442562D01*
X83538000Y-57436146D01*
X83538000Y-57041115D01*
X83533525Y-57025876D01*
X83532135Y-57024671D01*
X83524452Y-57023000D01*
X82207115Y-57023000D01*
X82191876Y-57027475D01*
X82190671Y-57028865D01*
X82189000Y-57036548D01*
X82189000Y-58128884D01*
X81681000Y-58128884D01*
X81681000Y-57041115D01*
X81676525Y-57025876D01*
X81675135Y-57024671D01*
X81667452Y-57023000D01*
X80350116Y-57023000D01*
X80334877Y-57027475D01*
X80333672Y-57028865D01*
X80332001Y-57036548D01*
X80332001Y-57436095D01*
X77470000Y-57436095D01*
X77470000Y-54163829D01*
X80328052Y-54163829D01*
X80336828Y-54397604D01*
X80384868Y-54626559D01*
X80470797Y-54844146D01*
X80592159Y-55044144D01*
X80745483Y-55220834D01*
X80749615Y-55224222D01*
X80783201Y-55251761D01*
X80823196Y-55310421D01*
X80825127Y-55381391D01*
X80788383Y-55442139D01*
X80765843Y-55457220D01*
X80766268Y-55457906D01*
X80622193Y-55547063D01*
X80610792Y-55556099D01*
X80496261Y-55670829D01*
X80487249Y-55682240D01*
X80402184Y-55820243D01*
X80396037Y-55833424D01*
X80344862Y-55987710D01*
X80341995Y-56001086D01*
X80332328Y-56095438D01*
X80332000Y-56101855D01*
X80332000Y-56496885D01*
X80336475Y-56512124D01*
X80337865Y-56513329D01*
X80345548Y-56515000D01*
X83519884Y-56515000D01*
X83535123Y-56510525D01*
X83536328Y-56509135D01*
X83537999Y-56501452D01*
X83537999Y-56101905D01*
X83537662Y-56095386D01*
X83527743Y-55999794D01*
X83524851Y-55986400D01*
X83473412Y-55832216D01*
X83467239Y-55819038D01*
X83381937Y-55681193D01*
X83372901Y-55669792D01*
X83258171Y-55555261D01*
X83246760Y-55546249D01*
X83102525Y-55457342D01*
X83103817Y-55455245D01*
X83059308Y-55416044D01*
X83039856Y-55347764D01*
X83060407Y-55279807D01*
X83078878Y-55257614D01*
X83196168Y-55145724D01*
X83335813Y-54958035D01*
X83391398Y-54848709D01*
X83439420Y-54754256D01*
X83439420Y-54754255D01*
X83441838Y-54749500D01*
X83511210Y-54526083D01*
X83528239Y-54397604D01*
X83541248Y-54299455D01*
X83541248Y-54299451D01*
X83541948Y-54294171D01*
X83533172Y-54060396D01*
X83485132Y-53831441D01*
X83399203Y-53613854D01*
X83277841Y-53413856D01*
X83124517Y-53237166D01*
X82943614Y-53088835D01*
X82767649Y-52988669D01*
X82744945Y-52975745D01*
X82744943Y-52975744D01*
X82740305Y-52973104D01*
X82520404Y-52893284D01*
X82515155Y-52892335D01*
X82515152Y-52892334D01*
X82433960Y-52877652D01*
X82290197Y-52851656D01*
X82286058Y-52851461D01*
X82286051Y-52851460D01*
X82267172Y-52850570D01*
X82267165Y-52850570D01*
X82265684Y-52850500D01*
X81651262Y-52850500D01*
X81583359Y-52856262D01*
X81482209Y-52864844D01*
X81482205Y-52864845D01*
X81476898Y-52865295D01*
X81471741Y-52866633D01*
X81471738Y-52866634D01*
X81255629Y-52922725D01*
X81255625Y-52922726D01*
X81250460Y-52924067D01*
X81245594Y-52926259D01*
X81245591Y-52926260D01*
X81135739Y-52975745D01*
X81037163Y-53020150D01*
X80843104Y-53150798D01*
X80839247Y-53154477D01*
X80839245Y-53154479D01*
X80818127Y-53174625D01*
X80673832Y-53312276D01*
X80534187Y-53499965D01*
X80531771Y-53504716D01*
X80531769Y-53504720D01*
X80473756Y-53618823D01*
X80428162Y-53708500D01*
X80358790Y-53931917D01*
X80358089Y-53937204D01*
X80358089Y-53937205D01*
X80341055Y-54065727D01*
X80328052Y-54163829D01*
X77470000Y-54163829D01*
X77470000Y-52324000D01*
X95244600Y-52324000D01*
X95264145Y-52509956D01*
X95321925Y-52687785D01*
X95415415Y-52849715D01*
X95419833Y-52854622D01*
X95419834Y-52854623D01*
X95524875Y-52971282D01*
X95540530Y-52988669D01*
X95691800Y-53098573D01*
X95697828Y-53101257D01*
X95697830Y-53101258D01*
X95817366Y-53154479D01*
X95862615Y-53174625D01*
X95954063Y-53194063D01*
X96039053Y-53212128D01*
X96039057Y-53212128D01*
X96045510Y-53213500D01*
X96232490Y-53213500D01*
X96238943Y-53212128D01*
X96238947Y-53212128D01*
X96323937Y-53194063D01*
X96415385Y-53174625D01*
X96460634Y-53154479D01*
X96580170Y-53101258D01*
X96580172Y-53101257D01*
X96586200Y-53098573D01*
X96737470Y-52988669D01*
X96753126Y-52971282D01*
X96858166Y-52854623D01*
X96858167Y-52854622D01*
X96862585Y-52849715D01*
X96956075Y-52687785D01*
X97013855Y-52509956D01*
X97033400Y-52324000D01*
X97013855Y-52138044D01*
X96956075Y-51960215D01*
X96862585Y-51798285D01*
X96737470Y-51659331D01*
X96586200Y-51549427D01*
X96580172Y-51546743D01*
X96580170Y-51546742D01*
X96421416Y-51476060D01*
X96421414Y-51476060D01*
X96415385Y-51473375D01*
X96323937Y-51453937D01*
X96238947Y-51435872D01*
X96238943Y-51435872D01*
X96232490Y-51434500D01*
X96045510Y-51434500D01*
X96039057Y-51435872D01*
X96039053Y-51435872D01*
X95954062Y-51453938D01*
X95862615Y-51473375D01*
X95856586Y-51476060D01*
X95856584Y-51476060D01*
X95697830Y-51546742D01*
X95697828Y-51546743D01*
X95691800Y-51549427D01*
X95540530Y-51659331D01*
X95415415Y-51798285D01*
X95321925Y-51960215D01*
X95264145Y-52138044D01*
X95244600Y-52324000D01*
X77470000Y-52324000D01*
X77470000Y-50672000D01*
X77490002Y-50603879D01*
X77543658Y-50557386D01*
X77596000Y-50546000D01*
X83947000Y-50546000D01*
X83947000Y-50044400D01*
X109746500Y-50044400D01*
X109746837Y-50047646D01*
X109746837Y-50047650D01*
X109753561Y-50112450D01*
X109757474Y-50150166D01*
X109759655Y-50156702D01*
X109759655Y-50156704D01*
X109786267Y-50236469D01*
X109813450Y-50317946D01*
X109906522Y-50468348D01*
X110031697Y-50593305D01*
X110037927Y-50597145D01*
X110037928Y-50597146D01*
X110175090Y-50681694D01*
X110182262Y-50686115D01*
X110224815Y-50700229D01*
X110343611Y-50739632D01*
X110343613Y-50739632D01*
X110350139Y-50741797D01*
X110356975Y-50742497D01*
X110356978Y-50742498D01*
X110400031Y-50746909D01*
X110454600Y-50752500D01*
X111795400Y-50752500D01*
X111798646Y-50752163D01*
X111798650Y-50752163D01*
X111894308Y-50742238D01*
X111894312Y-50742237D01*
X111901166Y-50741526D01*
X111907702Y-50739345D01*
X111907704Y-50739345D01*
X112039806Y-50695272D01*
X112068946Y-50685550D01*
X112219348Y-50592478D01*
X112344305Y-50467303D01*
X112437115Y-50316738D01*
X112439262Y-50318062D01*
X112478312Y-50273710D01*
X112546589Y-50254248D01*
X112614549Y-50274788D01*
X112636761Y-50293272D01*
X112744590Y-50406306D01*
X112744602Y-50406316D01*
X112748276Y-50410168D01*
X112935965Y-50549813D01*
X112940716Y-50552229D01*
X112940720Y-50552231D01*
X113055197Y-50610434D01*
X113144500Y-50655838D01*
X113367917Y-50725210D01*
X113373204Y-50725911D01*
X113373205Y-50725911D01*
X113594545Y-50755248D01*
X113594549Y-50755248D01*
X113599829Y-50755948D01*
X113605158Y-50755748D01*
X113605160Y-50755748D01*
X113716716Y-50751560D01*
X113833604Y-50747172D01*
X113945813Y-50723628D01*
X114057332Y-50700229D01*
X114057335Y-50700228D01*
X114062559Y-50699132D01*
X114280146Y-50613203D01*
X114330442Y-50582683D01*
X114475583Y-50494609D01*
X114475586Y-50494607D01*
X114480144Y-50491841D01*
X114656834Y-50338517D01*
X114805165Y-50157614D01*
X114807801Y-50152984D01*
X114807804Y-50152979D01*
X114826301Y-50120484D01*
X114877384Y-50071178D01*
X114947015Y-50057317D01*
X115013085Y-50083301D01*
X115040323Y-50112450D01*
X115126798Y-50240896D01*
X115288276Y-50410168D01*
X115475965Y-50549813D01*
X115480716Y-50552229D01*
X115480720Y-50552231D01*
X115595197Y-50610434D01*
X115684500Y-50655838D01*
X115907917Y-50725210D01*
X115913204Y-50725911D01*
X115913205Y-50725911D01*
X116134545Y-50755248D01*
X116134549Y-50755248D01*
X116139829Y-50755948D01*
X116145158Y-50755748D01*
X116145160Y-50755748D01*
X116256716Y-50751560D01*
X116373604Y-50747172D01*
X116485813Y-50723628D01*
X116597332Y-50700229D01*
X116597335Y-50700228D01*
X116602559Y-50699132D01*
X116820146Y-50613203D01*
X116870442Y-50582683D01*
X117015583Y-50494609D01*
X117015586Y-50494607D01*
X117020144Y-50491841D01*
X117196834Y-50338517D01*
X117345165Y-50157614D01*
X117460896Y-49954305D01*
X117540716Y-49734404D01*
X117582344Y-49504197D01*
X117583500Y-49479684D01*
X117583500Y-48865262D01*
X117577738Y-48797359D01*
X117569156Y-48696209D01*
X117569155Y-48696205D01*
X117568705Y-48690898D01*
X117522791Y-48514000D01*
X117511275Y-48469629D01*
X117511274Y-48469625D01*
X117509933Y-48464460D01*
X117455533Y-48343695D01*
X117416045Y-48256036D01*
X117413850Y-48251163D01*
X117406795Y-48240683D01*
X117345888Y-48150215D01*
X117283202Y-48057104D01*
X117121724Y-47887832D01*
X116934035Y-47748187D01*
X116929284Y-47745771D01*
X116929280Y-47745769D01*
X116730256Y-47644580D01*
X116730255Y-47644580D01*
X116725500Y-47642162D01*
X116502083Y-47572790D01*
X116496796Y-47572089D01*
X116496795Y-47572089D01*
X116275455Y-47542752D01*
X116275451Y-47542752D01*
X116270171Y-47542052D01*
X116264842Y-47542252D01*
X116264840Y-47542252D01*
X116169346Y-47545837D01*
X116036396Y-47550828D01*
X115952411Y-47568450D01*
X115812668Y-47597771D01*
X115812665Y-47597772D01*
X115807441Y-47598868D01*
X115589854Y-47684797D01*
X115585290Y-47687566D01*
X115585291Y-47687566D01*
X115394417Y-47803391D01*
X115394414Y-47803393D01*
X115389856Y-47806159D01*
X115213166Y-47959483D01*
X115064835Y-48140386D01*
X115062199Y-48145016D01*
X115062196Y-48145021D01*
X115043699Y-48177516D01*
X114992616Y-48226822D01*
X114922985Y-48240683D01*
X114856915Y-48214699D01*
X114829677Y-48185550D01*
X114746182Y-48061531D01*
X114743202Y-48057104D01*
X114581724Y-47887832D01*
X114394035Y-47748187D01*
X114389284Y-47745771D01*
X114389280Y-47745769D01*
X114190256Y-47644580D01*
X114190255Y-47644580D01*
X114185500Y-47642162D01*
X113962083Y-47572790D01*
X113956796Y-47572089D01*
X113956795Y-47572089D01*
X113735455Y-47542752D01*
X113735451Y-47542752D01*
X113730171Y-47542052D01*
X113724842Y-47542252D01*
X113724840Y-47542252D01*
X113629346Y-47545837D01*
X113496396Y-47550828D01*
X113412411Y-47568450D01*
X113272668Y-47597771D01*
X113272665Y-47597772D01*
X113267441Y-47598868D01*
X113049854Y-47684797D01*
X113045290Y-47687566D01*
X113045291Y-47687566D01*
X112854417Y-47803391D01*
X112854414Y-47803393D01*
X112849856Y-47806159D01*
X112673166Y-47959483D01*
X112655309Y-47981262D01*
X112642593Y-47996770D01*
X112583933Y-48036764D01*
X112512962Y-48038695D01*
X112452214Y-48001950D01*
X112437267Y-47979610D01*
X112436550Y-47980054D01*
X112347332Y-47835880D01*
X112343478Y-47829652D01*
X112218303Y-47704695D01*
X112120779Y-47644580D01*
X112073968Y-47615725D01*
X112073966Y-47615724D01*
X112067738Y-47611885D01*
X111907254Y-47558655D01*
X111906389Y-47558368D01*
X111906387Y-47558368D01*
X111899861Y-47556203D01*
X111893025Y-47555503D01*
X111893022Y-47555502D01*
X111845449Y-47550628D01*
X111795400Y-47545500D01*
X110454600Y-47545500D01*
X110451354Y-47545837D01*
X110451350Y-47545837D01*
X110355692Y-47555762D01*
X110355688Y-47555763D01*
X110348834Y-47556474D01*
X110342298Y-47558655D01*
X110342296Y-47558655D01*
X110302030Y-47572089D01*
X110181054Y-47612450D01*
X110030652Y-47705522D01*
X109905695Y-47830697D01*
X109901855Y-47836927D01*
X109901854Y-47836928D01*
X109823767Y-47963609D01*
X109812885Y-47981262D01*
X109757203Y-48149139D01*
X109756503Y-48155975D01*
X109756502Y-48155978D01*
X109753472Y-48185550D01*
X109746500Y-48253600D01*
X109746500Y-50044400D01*
X83947000Y-50044400D01*
X83947000Y-48514000D01*
X102991600Y-48514000D01*
X103011145Y-48699956D01*
X103068925Y-48877785D01*
X103162415Y-49039715D01*
X103287530Y-49178669D01*
X103438800Y-49288573D01*
X103444828Y-49291257D01*
X103444830Y-49291258D01*
X103603584Y-49361940D01*
X103609615Y-49364625D01*
X103701063Y-49384063D01*
X103786053Y-49402128D01*
X103786057Y-49402128D01*
X103792510Y-49403500D01*
X103979490Y-49403500D01*
X103985943Y-49402128D01*
X103985947Y-49402128D01*
X104070937Y-49384063D01*
X104162385Y-49364625D01*
X104168416Y-49361940D01*
X104327170Y-49291258D01*
X104327172Y-49291257D01*
X104333200Y-49288573D01*
X104484470Y-49178669D01*
X104609585Y-49039715D01*
X104703075Y-48877785D01*
X104760855Y-48699956D01*
X104780400Y-48514000D01*
X104760855Y-48328044D01*
X104703075Y-48150215D01*
X104651874Y-48061531D01*
X104612888Y-47994006D01*
X104609585Y-47988285D01*
X104605166Y-47983377D01*
X104488885Y-47854234D01*
X104488883Y-47854233D01*
X104484470Y-47849331D01*
X104465956Y-47835880D01*
X104338542Y-47743308D01*
X104338541Y-47743307D01*
X104333200Y-47739427D01*
X104327172Y-47736743D01*
X104327170Y-47736742D01*
X104168416Y-47666060D01*
X104168414Y-47666060D01*
X104162385Y-47663375D01*
X104070938Y-47643938D01*
X103985947Y-47625872D01*
X103985943Y-47625872D01*
X103979490Y-47624500D01*
X103792510Y-47624500D01*
X103786057Y-47625872D01*
X103786053Y-47625872D01*
X103701062Y-47643938D01*
X103609615Y-47663375D01*
X103603586Y-47666060D01*
X103603584Y-47666060D01*
X103444830Y-47736742D01*
X103444828Y-47736743D01*
X103438800Y-47739427D01*
X103433459Y-47743307D01*
X103433458Y-47743308D01*
X103306044Y-47835880D01*
X103287530Y-47849331D01*
X103283117Y-47854233D01*
X103283115Y-47854234D01*
X103166834Y-47983377D01*
X103162415Y-47988285D01*
X103159112Y-47994006D01*
X103120127Y-48061531D01*
X103068925Y-48150215D01*
X103011145Y-48328044D01*
X102991600Y-48514000D01*
X83947000Y-48514000D01*
X83947000Y-44576000D01*
X83967002Y-44507879D01*
X84020658Y-44461386D01*
X84073000Y-44450000D01*
X119254000Y-44450000D01*
X119322121Y-44470002D01*
G37*
%TD.AperFunction*%
%TD*%
M02*
