%TF.GenerationSoftware,KiCad,Pcbnew,(6.0.1-0)*%
%TF.CreationDate,2023-07-04T07:10:59-04:00*%
%TF.ProjectId,Active Twin T,41637469-7665-4205-9477-696e20542e6b,rev?*%
%TF.SameCoordinates,Original*%
%TF.FileFunction,Copper,L2,Bot*%
%TF.FilePolarity,Positive*%
%FSLAX46Y46*%
G04 Gerber Fmt 4.6, Leading zero omitted, Abs format (unit mm)*
G04 Created by KiCad (PCBNEW (6.0.1-0)) date 2023-07-04 07:10:59*
%MOMM*%
%LPD*%
G01*
G04 APERTURE LIST*
G04 Aperture macros list*
%AMRoundRect*
0 Rectangle with rounded corners*
0 $1 Rounding radius*
0 $2 $3 $4 $5 $6 $7 $8 $9 X,Y pos of 4 corners*
0 Add a 4 corners polygon primitive as box body*
4,1,4,$2,$3,$4,$5,$6,$7,$8,$9,$2,$3,0*
0 Add four circle primitives for the rounded corners*
1,1,$1+$1,$2,$3*
1,1,$1+$1,$4,$5*
1,1,$1+$1,$6,$7*
1,1,$1+$1,$8,$9*
0 Add four rect primitives between the rounded corners*
20,1,$1+$1,$2,$3,$4,$5,0*
20,1,$1+$1,$4,$5,$6,$7,0*
20,1,$1+$1,$6,$7,$8,$9,0*
20,1,$1+$1,$8,$9,$2,$3,0*%
G04 Aperture macros list end*
%TA.AperFunction,ComponentPad*%
%ADD10RoundRect,0.250000X0.620000X0.845000X-0.620000X0.845000X-0.620000X-0.845000X0.620000X-0.845000X0*%
%TD*%
%TA.AperFunction,ComponentPad*%
%ADD11O,1.740000X2.190000*%
%TD*%
%TA.AperFunction,ComponentPad*%
%ADD12O,2.190000X1.740000*%
%TD*%
%TA.AperFunction,ComponentPad*%
%ADD13RoundRect,0.250000X-0.845000X0.620000X-0.845000X-0.620000X0.845000X-0.620000X0.845000X0.620000X0*%
%TD*%
G04 APERTURE END LIST*
D10*
%TO.P,R6,1*%
%TO.N,Net-(C4-Pad2)*%
X138537000Y-131826000D03*
D11*
%TO.P,R6,2*%
%TO.N,Net-(R5-Pad2)*%
X135997000Y-131826000D03*
%TD*%
%TO.P,RV1,3,3*%
%TO.N,/Out*%
X143617000Y-131826000D03*
%TO.P,RV1,2,2*%
%TO.N,Net-(RV1-Pad2)*%
X146157000Y-131826000D03*
D10*
%TO.P,RV1,1,1*%
%TO.N,GND*%
X148697000Y-131826000D03*
%TD*%
D11*
%TO.P,R3,2*%
%TO.N,/In*%
X137902000Y-111486000D03*
D10*
%TO.P,R3,1*%
%TO.N,Net-(R3-Pad1)*%
X140442000Y-111486000D03*
%TD*%
D12*
%TO.P,R1,2*%
%TO.N,Net-(R1-Pad2)*%
X137267000Y-125476000D03*
D13*
%TO.P,R1,1*%
%TO.N,Net-(C3-Pad2)*%
X137267000Y-122936000D03*
%TD*%
D11*
%TO.P,J2,2,Pin_2*%
%TO.N,GND*%
X146157000Y-111486000D03*
D10*
%TO.P,J2,1,Pin_1*%
%TO.N,/Out*%
X148697000Y-111486000D03*
%TD*%
D12*
%TO.P,J1,4,Pin_4*%
%TO.N,GND*%
X125182000Y-122936000D03*
%TO.P,J1,3,Pin_3*%
%TO.N,/In*%
X125182000Y-120396000D03*
%TO.P,J1,2,Pin_2*%
%TO.N,-15V*%
X125182000Y-117856000D03*
D13*
%TO.P,J1,1,Pin_1*%
%TO.N,+15V*%
X125182000Y-115316000D03*
%TD*%
%TA.AperFunction,Conductor*%
%TO.N,GND*%
G36*
X157803121Y-106954002D02*
G01*
X157849614Y-107007658D01*
X157861000Y-107060000D01*
X157861000Y-137542000D01*
X157840998Y-137610121D01*
X157787342Y-137656614D01*
X157735000Y-137668000D01*
X120903000Y-137668000D01*
X120834879Y-137647998D01*
X120788386Y-137594342D01*
X120777000Y-137542000D01*
X120777000Y-134879703D01*
X152830743Y-134879703D01*
X152868268Y-135164734D01*
X152944129Y-135442036D01*
X153056923Y-135706476D01*
X153204561Y-135953161D01*
X153384313Y-136177528D01*
X153592851Y-136375423D01*
X153826317Y-136543186D01*
X153830112Y-136545195D01*
X153830113Y-136545196D01*
X153851869Y-136556715D01*
X154080392Y-136677712D01*
X154350373Y-136776511D01*
X154631264Y-136837755D01*
X154659841Y-136840004D01*
X154854282Y-136855307D01*
X154854291Y-136855307D01*
X154856739Y-136855500D01*
X155012271Y-136855500D01*
X155014407Y-136855354D01*
X155014418Y-136855354D01*
X155222548Y-136841165D01*
X155222554Y-136841164D01*
X155226825Y-136840873D01*
X155231020Y-136840004D01*
X155231022Y-136840004D01*
X155367584Y-136811723D01*
X155508342Y-136782574D01*
X155779343Y-136686607D01*
X156034812Y-136554750D01*
X156038313Y-136552289D01*
X156038317Y-136552287D01*
X156152418Y-136472095D01*
X156270023Y-136389441D01*
X156480622Y-136193740D01*
X156662713Y-135971268D01*
X156812927Y-135726142D01*
X156928483Y-135462898D01*
X157007244Y-135186406D01*
X157047751Y-134901784D01*
X157047845Y-134883951D01*
X157049235Y-134618583D01*
X157049235Y-134618576D01*
X157049257Y-134614297D01*
X157011732Y-134329266D01*
X156935871Y-134051964D01*
X156823077Y-133787524D01*
X156675439Y-133540839D01*
X156495687Y-133316472D01*
X156319717Y-133149483D01*
X156290258Y-133121527D01*
X156290255Y-133121525D01*
X156287149Y-133118577D01*
X156053683Y-132950814D01*
X156031843Y-132939250D01*
X155983151Y-132913469D01*
X155799608Y-132816288D01*
X155575612Y-132734317D01*
X155533658Y-132718964D01*
X155533656Y-132718963D01*
X155529627Y-132717489D01*
X155248736Y-132656245D01*
X155217685Y-132653801D01*
X155025718Y-132638693D01*
X155025709Y-132638693D01*
X155023261Y-132638500D01*
X154867729Y-132638500D01*
X154865593Y-132638646D01*
X154865582Y-132638646D01*
X154657452Y-132652835D01*
X154657446Y-132652836D01*
X154653175Y-132653127D01*
X154648980Y-132653996D01*
X154648978Y-132653996D01*
X154512417Y-132682276D01*
X154371658Y-132711426D01*
X154100657Y-132807393D01*
X153845188Y-132939250D01*
X153841687Y-132941711D01*
X153841683Y-132941713D01*
X153765640Y-132995157D01*
X153609977Y-133104559D01*
X153566083Y-133145348D01*
X153410201Y-133290203D01*
X153399378Y-133300260D01*
X153217287Y-133522732D01*
X153067073Y-133767858D01*
X152951517Y-134031102D01*
X152872756Y-134307594D01*
X152832249Y-134592216D01*
X152832227Y-134596505D01*
X152832226Y-134596512D01*
X152830765Y-134875417D01*
X152830743Y-134879703D01*
X120777000Y-134879703D01*
X120777000Y-132109738D01*
X134618500Y-132109738D01*
X134633295Y-132284102D01*
X134692067Y-132510540D01*
X134694259Y-132515406D01*
X134694260Y-132515409D01*
X134756166Y-132652835D01*
X134788150Y-132723837D01*
X134791134Y-132728270D01*
X134791135Y-132728271D01*
X134804537Y-132748178D01*
X134918798Y-132917896D01*
X135080276Y-133087168D01*
X135084554Y-133090351D01*
X135119127Y-133116074D01*
X135267965Y-133226813D01*
X135272716Y-133229229D01*
X135272720Y-133229231D01*
X135450884Y-133319814D01*
X135476500Y-133332838D01*
X135699917Y-133402210D01*
X135705204Y-133402911D01*
X135705205Y-133402911D01*
X135926545Y-133432248D01*
X135926549Y-133432248D01*
X135931829Y-133432948D01*
X135937158Y-133432748D01*
X135937160Y-133432748D01*
X136048717Y-133428560D01*
X136165604Y-133424172D01*
X136277813Y-133400628D01*
X136389332Y-133377229D01*
X136389335Y-133377228D01*
X136394559Y-133376132D01*
X136612146Y-133290203D01*
X136721860Y-133223627D01*
X136807583Y-133171609D01*
X136807586Y-133171607D01*
X136812144Y-133168841D01*
X136988834Y-133015517D01*
X137019408Y-132978229D01*
X137078067Y-132938236D01*
X137149038Y-132936305D01*
X137209786Y-132973050D01*
X137224733Y-132995390D01*
X137225450Y-132994946D01*
X137318522Y-133145348D01*
X137443697Y-133270305D01*
X137449927Y-133274145D01*
X137449928Y-133274146D01*
X137587288Y-133358816D01*
X137594262Y-133363115D01*
X137636815Y-133377229D01*
X137755611Y-133416632D01*
X137755613Y-133416632D01*
X137762139Y-133418797D01*
X137768975Y-133419497D01*
X137768978Y-133419498D01*
X137812031Y-133423909D01*
X137866600Y-133429500D01*
X139207400Y-133429500D01*
X139210646Y-133429163D01*
X139210650Y-133429163D01*
X139306308Y-133419238D01*
X139306312Y-133419237D01*
X139313166Y-133418526D01*
X139319702Y-133416345D01*
X139319704Y-133416345D01*
X139451806Y-133372272D01*
X139480946Y-133362550D01*
X139631348Y-133269478D01*
X139756305Y-133144303D01*
X139760338Y-133137760D01*
X139845275Y-132999968D01*
X139845276Y-132999966D01*
X139849115Y-132993738D01*
X139904797Y-132825861D01*
X139907705Y-132797484D01*
X139912756Y-132748178D01*
X139915500Y-132721400D01*
X139915500Y-132109738D01*
X142238500Y-132109738D01*
X142253295Y-132284102D01*
X142312067Y-132510540D01*
X142314259Y-132515406D01*
X142314260Y-132515409D01*
X142376166Y-132652835D01*
X142408150Y-132723837D01*
X142411134Y-132728270D01*
X142411135Y-132728271D01*
X142424537Y-132748178D01*
X142538798Y-132917896D01*
X142700276Y-133087168D01*
X142704554Y-133090351D01*
X142739127Y-133116074D01*
X142887965Y-133226813D01*
X142892716Y-133229229D01*
X142892720Y-133229231D01*
X143070884Y-133319814D01*
X143096500Y-133332838D01*
X143319917Y-133402210D01*
X143325204Y-133402911D01*
X143325205Y-133402911D01*
X143546545Y-133432248D01*
X143546549Y-133432248D01*
X143551829Y-133432948D01*
X143557158Y-133432748D01*
X143557160Y-133432748D01*
X143668717Y-133428560D01*
X143785604Y-133424172D01*
X143897813Y-133400628D01*
X144009332Y-133377229D01*
X144009335Y-133377228D01*
X144014559Y-133376132D01*
X144232146Y-133290203D01*
X144341860Y-133223627D01*
X144427583Y-133171609D01*
X144427586Y-133171607D01*
X144432144Y-133168841D01*
X144608834Y-133015517D01*
X144757165Y-132834614D01*
X144759801Y-132829984D01*
X144759804Y-132829979D01*
X144778301Y-132797484D01*
X144829384Y-132748178D01*
X144899015Y-132734317D01*
X144965085Y-132760301D01*
X144992323Y-132789450D01*
X145012232Y-132819022D01*
X145078798Y-132917896D01*
X145240276Y-133087168D01*
X145244554Y-133090351D01*
X145279127Y-133116074D01*
X145427965Y-133226813D01*
X145432716Y-133229229D01*
X145432720Y-133229231D01*
X145610884Y-133319814D01*
X145636500Y-133332838D01*
X145859917Y-133402210D01*
X145865204Y-133402911D01*
X145865205Y-133402911D01*
X146086545Y-133432248D01*
X146086549Y-133432248D01*
X146091829Y-133432948D01*
X146097158Y-133432748D01*
X146097160Y-133432748D01*
X146208717Y-133428560D01*
X146325604Y-133424172D01*
X146437813Y-133400628D01*
X146549332Y-133377229D01*
X146549335Y-133377228D01*
X146554559Y-133376132D01*
X146772146Y-133290203D01*
X146881860Y-133223627D01*
X146967583Y-133171609D01*
X146967586Y-133171607D01*
X146972144Y-133168841D01*
X147148834Y-133015517D01*
X147172564Y-132986576D01*
X147179761Y-132977799D01*
X147238421Y-132937804D01*
X147309391Y-132935873D01*
X147370139Y-132972617D01*
X147385220Y-132995157D01*
X147385906Y-132994732D01*
X147475063Y-133138807D01*
X147484099Y-133150208D01*
X147598829Y-133264739D01*
X147610240Y-133273751D01*
X147748243Y-133358816D01*
X147761424Y-133364963D01*
X147915710Y-133416138D01*
X147929086Y-133419005D01*
X148023438Y-133428672D01*
X148029854Y-133429000D01*
X148424885Y-133429000D01*
X148440124Y-133424525D01*
X148441329Y-133423135D01*
X148443000Y-133415452D01*
X148443000Y-133410884D01*
X148951000Y-133410884D01*
X148955475Y-133426123D01*
X148956865Y-133427328D01*
X148964548Y-133428999D01*
X149364095Y-133428999D01*
X149370614Y-133428662D01*
X149466206Y-133418743D01*
X149479600Y-133415851D01*
X149633784Y-133364412D01*
X149646962Y-133358239D01*
X149784807Y-133272937D01*
X149796208Y-133263901D01*
X149910739Y-133149171D01*
X149919751Y-133137760D01*
X150004816Y-132999757D01*
X150010963Y-132986576D01*
X150062138Y-132832290D01*
X150065005Y-132818914D01*
X150074672Y-132724562D01*
X150075000Y-132718146D01*
X150075000Y-132098115D01*
X150070525Y-132082876D01*
X150069135Y-132081671D01*
X150061452Y-132080000D01*
X148969115Y-132080000D01*
X148953876Y-132084475D01*
X148952671Y-132085865D01*
X148951000Y-132093548D01*
X148951000Y-133410884D01*
X148443000Y-133410884D01*
X148443000Y-131553885D01*
X148951000Y-131553885D01*
X148955475Y-131569124D01*
X148956865Y-131570329D01*
X148964548Y-131572000D01*
X150056884Y-131572000D01*
X150072123Y-131567525D01*
X150073328Y-131566135D01*
X150074999Y-131558452D01*
X150074999Y-130933905D01*
X150074662Y-130927386D01*
X150064743Y-130831794D01*
X150061851Y-130818400D01*
X150010412Y-130664216D01*
X150004239Y-130651038D01*
X149918937Y-130513193D01*
X149909901Y-130501792D01*
X149795171Y-130387261D01*
X149783760Y-130378249D01*
X149645757Y-130293184D01*
X149632576Y-130287037D01*
X149478290Y-130235862D01*
X149464914Y-130232995D01*
X149370562Y-130223328D01*
X149364145Y-130223000D01*
X148969115Y-130223000D01*
X148953876Y-130227475D01*
X148952671Y-130228865D01*
X148951000Y-130236548D01*
X148951000Y-131553885D01*
X148443000Y-131553885D01*
X148443000Y-130241116D01*
X148438525Y-130225877D01*
X148437135Y-130224672D01*
X148429452Y-130223001D01*
X148029905Y-130223001D01*
X148023386Y-130223338D01*
X147927794Y-130233257D01*
X147914400Y-130236149D01*
X147760216Y-130287588D01*
X147747038Y-130293761D01*
X147609193Y-130379063D01*
X147597792Y-130388099D01*
X147483261Y-130502829D01*
X147474249Y-130514240D01*
X147385342Y-130658475D01*
X147383245Y-130657183D01*
X147344044Y-130701692D01*
X147275764Y-130721144D01*
X147207807Y-130700593D01*
X147185614Y-130682122D01*
X147073724Y-130564832D01*
X146886035Y-130425187D01*
X146881284Y-130422771D01*
X146881280Y-130422769D01*
X146682256Y-130321580D01*
X146682255Y-130321580D01*
X146677500Y-130319162D01*
X146454083Y-130249790D01*
X146448796Y-130249089D01*
X146448795Y-130249089D01*
X146227455Y-130219752D01*
X146227451Y-130219752D01*
X146222171Y-130219052D01*
X146216842Y-130219252D01*
X146216840Y-130219252D01*
X146105284Y-130223440D01*
X145988396Y-130227828D01*
X145904411Y-130245450D01*
X145764668Y-130274771D01*
X145764665Y-130274772D01*
X145759441Y-130275868D01*
X145541854Y-130361797D01*
X145537290Y-130364566D01*
X145537291Y-130364566D01*
X145346417Y-130480391D01*
X145346414Y-130480393D01*
X145341856Y-130483159D01*
X145165166Y-130636483D01*
X145016835Y-130817386D01*
X145014199Y-130822016D01*
X145014196Y-130822021D01*
X144995699Y-130854516D01*
X144944616Y-130903822D01*
X144874985Y-130917683D01*
X144808915Y-130891699D01*
X144781677Y-130862550D01*
X144698182Y-130738531D01*
X144695202Y-130734104D01*
X144664283Y-130701692D01*
X144537403Y-130568689D01*
X144533724Y-130564832D01*
X144346035Y-130425187D01*
X144341284Y-130422771D01*
X144341280Y-130422769D01*
X144142256Y-130321580D01*
X144142255Y-130321580D01*
X144137500Y-130319162D01*
X143914083Y-130249790D01*
X143908796Y-130249089D01*
X143908795Y-130249089D01*
X143687455Y-130219752D01*
X143687451Y-130219752D01*
X143682171Y-130219052D01*
X143676842Y-130219252D01*
X143676840Y-130219252D01*
X143565284Y-130223440D01*
X143448396Y-130227828D01*
X143364411Y-130245450D01*
X143224668Y-130274771D01*
X143224665Y-130274772D01*
X143219441Y-130275868D01*
X143001854Y-130361797D01*
X142997290Y-130364566D01*
X142997291Y-130364566D01*
X142806417Y-130480391D01*
X142806414Y-130480393D01*
X142801856Y-130483159D01*
X142625166Y-130636483D01*
X142476835Y-130817386D01*
X142361104Y-131020695D01*
X142281284Y-131240596D01*
X142239656Y-131470803D01*
X142238500Y-131495316D01*
X142238500Y-132109738D01*
X139915500Y-132109738D01*
X139915500Y-130930600D01*
X139908947Y-130867443D01*
X139905238Y-130831692D01*
X139905237Y-130831688D01*
X139904526Y-130824834D01*
X139900665Y-130813259D01*
X139850868Y-130664002D01*
X139848550Y-130657054D01*
X139755478Y-130506652D01*
X139630303Y-130381695D01*
X139532779Y-130321580D01*
X139485968Y-130292725D01*
X139485966Y-130292724D01*
X139479738Y-130288885D01*
X139359756Y-130249089D01*
X139318389Y-130235368D01*
X139318387Y-130235368D01*
X139311861Y-130233203D01*
X139305025Y-130232503D01*
X139305022Y-130232502D01*
X139257449Y-130227628D01*
X139207400Y-130222500D01*
X137866600Y-130222500D01*
X137863354Y-130222837D01*
X137863350Y-130222837D01*
X137767692Y-130232762D01*
X137767688Y-130232763D01*
X137760834Y-130233474D01*
X137754298Y-130235655D01*
X137754296Y-130235655D01*
X137737928Y-130241116D01*
X137593054Y-130289450D01*
X137442652Y-130382522D01*
X137317695Y-130507697D01*
X137224885Y-130658262D01*
X137222738Y-130656938D01*
X137183688Y-130701290D01*
X137115411Y-130720752D01*
X137047451Y-130700212D01*
X137025239Y-130681728D01*
X136917410Y-130568694D01*
X136917398Y-130568684D01*
X136913724Y-130564832D01*
X136726035Y-130425187D01*
X136721284Y-130422771D01*
X136721280Y-130422769D01*
X136522256Y-130321580D01*
X136522255Y-130321580D01*
X136517500Y-130319162D01*
X136294083Y-130249790D01*
X136288796Y-130249089D01*
X136288795Y-130249089D01*
X136067455Y-130219752D01*
X136067451Y-130219752D01*
X136062171Y-130219052D01*
X136056842Y-130219252D01*
X136056840Y-130219252D01*
X135945284Y-130223440D01*
X135828396Y-130227828D01*
X135744411Y-130245450D01*
X135604668Y-130274771D01*
X135604665Y-130274772D01*
X135599441Y-130275868D01*
X135381854Y-130361797D01*
X135377290Y-130364566D01*
X135377291Y-130364566D01*
X135186417Y-130480391D01*
X135186414Y-130480393D01*
X135181856Y-130483159D01*
X135005166Y-130636483D01*
X134856835Y-130817386D01*
X134741104Y-131020695D01*
X134661284Y-131240596D01*
X134619656Y-131470803D01*
X134618500Y-131495316D01*
X134618500Y-132109738D01*
X120777000Y-132109738D01*
X120777000Y-125410829D01*
X135660052Y-125410829D01*
X135668828Y-125644604D01*
X135716868Y-125873559D01*
X135802797Y-126091146D01*
X135924159Y-126291144D01*
X136077483Y-126467834D01*
X136258386Y-126616165D01*
X136461695Y-126731896D01*
X136681596Y-126811716D01*
X136686845Y-126812665D01*
X136686848Y-126812666D01*
X136768040Y-126827348D01*
X136911803Y-126853344D01*
X136915942Y-126853539D01*
X136915949Y-126853540D01*
X136934828Y-126854430D01*
X136934835Y-126854430D01*
X136936316Y-126854500D01*
X137550738Y-126854500D01*
X137618641Y-126848738D01*
X137719791Y-126840156D01*
X137719795Y-126840155D01*
X137725102Y-126839705D01*
X137730259Y-126838367D01*
X137730262Y-126838366D01*
X137946371Y-126782275D01*
X137946375Y-126782274D01*
X137951540Y-126780933D01*
X137956406Y-126778741D01*
X137956409Y-126778740D01*
X138159964Y-126687045D01*
X138164837Y-126684850D01*
X138358896Y-126554202D01*
X138528168Y-126392724D01*
X138667813Y-126205035D01*
X138723398Y-126095709D01*
X138771420Y-126001256D01*
X138771420Y-126001255D01*
X138773838Y-125996500D01*
X138843210Y-125773083D01*
X138860239Y-125644604D01*
X138873248Y-125546455D01*
X138873248Y-125546451D01*
X138873948Y-125541171D01*
X138865172Y-125307396D01*
X138817132Y-125078441D01*
X138731203Y-124860854D01*
X138609841Y-124660856D01*
X138456517Y-124484166D01*
X138419229Y-124453592D01*
X138379236Y-124394933D01*
X138377305Y-124323962D01*
X138414050Y-124263214D01*
X138436390Y-124248267D01*
X138435946Y-124247550D01*
X138580120Y-124158332D01*
X138586348Y-124154478D01*
X138711305Y-124029303D01*
X138804115Y-123878738D01*
X138845197Y-123754878D01*
X138857632Y-123717389D01*
X138857632Y-123717387D01*
X138859797Y-123710861D01*
X138870500Y-123606400D01*
X138870500Y-122265600D01*
X138859526Y-122159834D01*
X138803550Y-121992054D01*
X138710478Y-121841652D01*
X138585303Y-121716695D01*
X138579072Y-121712854D01*
X138440968Y-121627725D01*
X138440966Y-121627724D01*
X138434738Y-121623885D01*
X138274254Y-121570655D01*
X138273389Y-121570368D01*
X138273387Y-121570368D01*
X138266861Y-121568203D01*
X138260025Y-121567503D01*
X138260022Y-121567502D01*
X138216969Y-121563091D01*
X138162400Y-121557500D01*
X136371600Y-121557500D01*
X136368354Y-121557837D01*
X136368350Y-121557837D01*
X136272692Y-121567762D01*
X136272688Y-121567763D01*
X136265834Y-121568474D01*
X136259298Y-121570655D01*
X136259296Y-121570655D01*
X136206627Y-121588227D01*
X136098054Y-121624450D01*
X135947652Y-121717522D01*
X135822695Y-121842697D01*
X135729885Y-121993262D01*
X135719726Y-122023892D01*
X135685953Y-122125715D01*
X135674203Y-122161139D01*
X135663500Y-122265600D01*
X135663500Y-123606400D01*
X135674474Y-123712166D01*
X135730450Y-123879946D01*
X135823522Y-124030348D01*
X135948697Y-124155305D01*
X135954927Y-124159145D01*
X135954928Y-124159146D01*
X136099262Y-124248115D01*
X136097938Y-124250262D01*
X136142290Y-124289312D01*
X136161752Y-124357589D01*
X136141212Y-124425549D01*
X136122728Y-124447761D01*
X136009694Y-124555590D01*
X136009684Y-124555602D01*
X136005832Y-124559276D01*
X135866187Y-124746965D01*
X135863771Y-124751716D01*
X135863769Y-124751720D01*
X135805756Y-124865823D01*
X135760162Y-124955500D01*
X135690790Y-125178917D01*
X135690089Y-125184204D01*
X135690089Y-125184205D01*
X135673055Y-125312727D01*
X135660052Y-125410829D01*
X120777000Y-125410829D01*
X120777000Y-123204580D01*
X123605317Y-123204580D01*
X123631252Y-123328188D01*
X123634312Y-123338384D01*
X123716284Y-123545952D01*
X123721018Y-123555489D01*
X123836796Y-123746285D01*
X123843062Y-123754878D01*
X123989333Y-123923441D01*
X123996964Y-123930861D01*
X124169542Y-124072368D01*
X124178309Y-124078393D01*
X124372262Y-124188797D01*
X124381926Y-124193262D01*
X124591711Y-124269410D01*
X124601979Y-124272181D01*
X124822766Y-124312106D01*
X124830995Y-124313039D01*
X124849874Y-124313930D01*
X124852849Y-124314000D01*
X124909885Y-124314000D01*
X124925124Y-124309525D01*
X124926329Y-124308135D01*
X124928000Y-124300452D01*
X124928000Y-124295885D01*
X125436000Y-124295885D01*
X125440475Y-124311124D01*
X125441865Y-124312329D01*
X125449548Y-124314000D01*
X125463054Y-124314000D01*
X125468363Y-124313775D01*
X125634707Y-124299661D01*
X125645179Y-124297871D01*
X125861202Y-124241802D01*
X125871242Y-124238266D01*
X126074732Y-124146601D01*
X126084018Y-124141432D01*
X126269155Y-124016790D01*
X126277441Y-124010129D01*
X126438930Y-123856076D01*
X126445979Y-123848108D01*
X126579203Y-123669048D01*
X126584802Y-123660018D01*
X126685953Y-123461069D01*
X126689956Y-123451208D01*
X126756138Y-123238071D01*
X126758420Y-123227691D01*
X126761036Y-123207957D01*
X126758840Y-123193793D01*
X126745655Y-123190000D01*
X125454115Y-123190000D01*
X125438876Y-123194475D01*
X125437671Y-123195865D01*
X125436000Y-123203548D01*
X125436000Y-124295885D01*
X124928000Y-124295885D01*
X124928000Y-123208115D01*
X124923525Y-123192876D01*
X124922135Y-123191671D01*
X124914452Y-123190000D01*
X123620373Y-123190000D01*
X123606842Y-123193973D01*
X123605317Y-123204580D01*
X120777000Y-123204580D01*
X120777000Y-120330829D01*
X123575052Y-120330829D01*
X123583828Y-120564604D01*
X123631868Y-120793559D01*
X123717797Y-121011146D01*
X123839159Y-121211144D01*
X123992483Y-121387834D01*
X124173386Y-121536165D01*
X124178022Y-121538804D01*
X124178025Y-121538806D01*
X124211001Y-121557577D01*
X124260307Y-121608659D01*
X124274169Y-121678289D01*
X124248186Y-121744360D01*
X124219036Y-121771599D01*
X124094845Y-121855210D01*
X124086559Y-121861871D01*
X123925070Y-122015924D01*
X123918021Y-122023892D01*
X123784797Y-122202952D01*
X123779198Y-122211982D01*
X123678047Y-122410931D01*
X123674044Y-122420792D01*
X123607862Y-122633929D01*
X123605580Y-122644309D01*
X123602964Y-122664043D01*
X123605160Y-122678207D01*
X123618345Y-122682000D01*
X126743627Y-122682000D01*
X126757158Y-122678027D01*
X126758683Y-122667420D01*
X126732748Y-122543812D01*
X126729688Y-122533616D01*
X126647716Y-122326048D01*
X126642982Y-122316511D01*
X126527204Y-122125715D01*
X126520938Y-122117122D01*
X126374667Y-121948559D01*
X126367036Y-121941139D01*
X126194458Y-121799632D01*
X126185691Y-121793607D01*
X126153022Y-121775011D01*
X126103715Y-121723929D01*
X126089854Y-121654298D01*
X126115837Y-121588227D01*
X126144987Y-121560989D01*
X126211601Y-121516142D01*
X126273896Y-121474202D01*
X126443168Y-121312724D01*
X126582813Y-121125035D01*
X126638398Y-121015709D01*
X126686420Y-120921256D01*
X126686420Y-120921255D01*
X126688838Y-120916500D01*
X126758210Y-120693083D01*
X126775239Y-120564604D01*
X126788248Y-120466455D01*
X126788248Y-120466451D01*
X126788948Y-120461171D01*
X126780172Y-120227396D01*
X126732132Y-119998441D01*
X126646203Y-119780854D01*
X126524841Y-119580856D01*
X126371517Y-119404166D01*
X126190614Y-119255835D01*
X126185984Y-119253199D01*
X126185979Y-119253196D01*
X126153484Y-119234699D01*
X126104178Y-119183616D01*
X126090317Y-119113985D01*
X126116301Y-119047915D01*
X126145450Y-119020677D01*
X126186885Y-118992781D01*
X126273896Y-118934202D01*
X126443168Y-118772724D01*
X126582813Y-118585035D01*
X126638398Y-118475709D01*
X126686420Y-118381256D01*
X126686420Y-118381255D01*
X126688838Y-118376500D01*
X126758210Y-118153083D01*
X126775239Y-118024604D01*
X126788248Y-117926455D01*
X126788248Y-117926451D01*
X126788948Y-117921171D01*
X126780172Y-117687396D01*
X126732132Y-117458441D01*
X126646203Y-117240854D01*
X126524841Y-117040856D01*
X126371517Y-116864166D01*
X126334229Y-116833592D01*
X126294236Y-116774933D01*
X126292305Y-116703962D01*
X126329050Y-116643214D01*
X126351390Y-116628267D01*
X126350946Y-116627550D01*
X126495120Y-116538332D01*
X126501348Y-116534478D01*
X126626305Y-116409303D01*
X126719115Y-116258738D01*
X126774797Y-116090861D01*
X126785500Y-115986400D01*
X126785500Y-114645600D01*
X126774526Y-114539834D01*
X126718550Y-114372054D01*
X126625478Y-114221652D01*
X126500303Y-114096695D01*
X126494072Y-114092854D01*
X126355968Y-114007725D01*
X126355966Y-114007724D01*
X126349738Y-114003885D01*
X126189254Y-113950655D01*
X126188389Y-113950368D01*
X126188387Y-113950368D01*
X126181861Y-113948203D01*
X126175025Y-113947503D01*
X126175022Y-113947502D01*
X126131969Y-113943091D01*
X126077400Y-113937500D01*
X124286600Y-113937500D01*
X124283354Y-113937837D01*
X124283350Y-113937837D01*
X124187692Y-113947762D01*
X124187688Y-113947763D01*
X124180834Y-113948474D01*
X124174298Y-113950655D01*
X124174296Y-113950655D01*
X124042194Y-113994728D01*
X124013054Y-114004450D01*
X123862652Y-114097522D01*
X123737695Y-114222697D01*
X123644885Y-114373262D01*
X123589203Y-114541139D01*
X123578500Y-114645600D01*
X123578500Y-115986400D01*
X123589474Y-116092166D01*
X123645450Y-116259946D01*
X123738522Y-116410348D01*
X123863697Y-116535305D01*
X123869927Y-116539145D01*
X123869928Y-116539146D01*
X124014262Y-116628115D01*
X124012938Y-116630262D01*
X124057290Y-116669312D01*
X124076752Y-116737589D01*
X124056212Y-116805549D01*
X124037728Y-116827761D01*
X123924694Y-116935590D01*
X123924684Y-116935602D01*
X123920832Y-116939276D01*
X123781187Y-117126965D01*
X123778771Y-117131716D01*
X123778769Y-117131720D01*
X123720756Y-117245823D01*
X123675162Y-117335500D01*
X123605790Y-117558917D01*
X123605089Y-117564204D01*
X123605089Y-117564205D01*
X123588055Y-117692727D01*
X123575052Y-117790829D01*
X123583828Y-118024604D01*
X123631868Y-118253559D01*
X123717797Y-118471146D01*
X123839159Y-118671144D01*
X123992483Y-118847834D01*
X124173386Y-118996165D01*
X124178016Y-118998801D01*
X124178021Y-118998804D01*
X124210516Y-119017301D01*
X124259822Y-119068384D01*
X124273683Y-119138015D01*
X124247699Y-119204085D01*
X124218550Y-119231323D01*
X124186061Y-119253196D01*
X124090104Y-119317798D01*
X123920832Y-119479276D01*
X123781187Y-119666965D01*
X123778771Y-119671716D01*
X123778769Y-119671720D01*
X123720756Y-119785823D01*
X123675162Y-119875500D01*
X123605790Y-120098917D01*
X123605089Y-120104204D01*
X123605089Y-120104205D01*
X123588055Y-120232727D01*
X123575052Y-120330829D01*
X120777000Y-120330829D01*
X120777000Y-111769738D01*
X136523500Y-111769738D01*
X136524989Y-111787287D01*
X136536508Y-111923038D01*
X136538295Y-111944102D01*
X136539633Y-111949259D01*
X136539634Y-111949262D01*
X136595682Y-112165202D01*
X136597067Y-112170540D01*
X136693150Y-112383837D01*
X136823798Y-112577896D01*
X136827477Y-112581753D01*
X136827479Y-112581755D01*
X136843201Y-112598236D01*
X136985276Y-112747168D01*
X137172965Y-112886813D01*
X137177716Y-112889229D01*
X137177720Y-112889231D01*
X137376744Y-112990420D01*
X137381500Y-112992838D01*
X137604917Y-113062210D01*
X137610204Y-113062911D01*
X137610205Y-113062911D01*
X137831545Y-113092248D01*
X137831549Y-113092248D01*
X137836829Y-113092948D01*
X137842158Y-113092748D01*
X137842160Y-113092748D01*
X137953716Y-113088560D01*
X138070604Y-113084172D01*
X138173019Y-113062683D01*
X138294332Y-113037229D01*
X138294335Y-113037228D01*
X138299559Y-113036132D01*
X138517146Y-112950203D01*
X138626860Y-112883627D01*
X138712583Y-112831609D01*
X138712586Y-112831607D01*
X138717144Y-112828841D01*
X138893834Y-112675517D01*
X138924408Y-112638229D01*
X138983067Y-112598236D01*
X139054038Y-112596305D01*
X139114786Y-112633050D01*
X139129733Y-112655390D01*
X139130450Y-112654946D01*
X139223522Y-112805348D01*
X139348697Y-112930305D01*
X139354927Y-112934145D01*
X139354928Y-112934146D01*
X139492090Y-113018694D01*
X139499262Y-113023115D01*
X139541815Y-113037229D01*
X139660611Y-113076632D01*
X139660613Y-113076632D01*
X139667139Y-113078797D01*
X139673975Y-113079497D01*
X139673978Y-113079498D01*
X139717031Y-113083909D01*
X139771600Y-113089500D01*
X141112400Y-113089500D01*
X141115646Y-113089163D01*
X141115650Y-113089163D01*
X141211308Y-113079238D01*
X141211312Y-113079237D01*
X141218166Y-113078526D01*
X141224702Y-113076345D01*
X141224704Y-113076345D01*
X141356806Y-113032272D01*
X141385946Y-113022550D01*
X141536348Y-112929478D01*
X141661305Y-112804303D01*
X141738530Y-112679021D01*
X141750275Y-112659968D01*
X141750276Y-112659966D01*
X141754115Y-112653738D01*
X141809797Y-112485861D01*
X141820500Y-112381400D01*
X141820500Y-111767054D01*
X144779000Y-111767054D01*
X144779225Y-111772363D01*
X144793339Y-111938707D01*
X144795129Y-111949179D01*
X144851198Y-112165202D01*
X144854734Y-112175242D01*
X144946399Y-112378732D01*
X144951568Y-112388018D01*
X145076210Y-112573155D01*
X145082871Y-112581441D01*
X145236924Y-112742930D01*
X145244892Y-112749979D01*
X145423952Y-112883203D01*
X145432982Y-112888802D01*
X145631931Y-112989953D01*
X145641792Y-112993956D01*
X145854929Y-113060138D01*
X145865309Y-113062420D01*
X145885043Y-113065036D01*
X145899207Y-113062840D01*
X145903000Y-113049655D01*
X145903000Y-113047627D01*
X146411000Y-113047627D01*
X146414973Y-113061158D01*
X146425580Y-113062683D01*
X146549188Y-113036748D01*
X146559384Y-113033688D01*
X146766952Y-112951716D01*
X146776489Y-112946982D01*
X146967285Y-112831204D01*
X146975878Y-112824938D01*
X147144441Y-112678667D01*
X147151862Y-112671035D01*
X147179173Y-112637728D01*
X147237833Y-112597734D01*
X147308803Y-112595803D01*
X147369551Y-112632548D01*
X147384804Y-112655346D01*
X147385450Y-112654946D01*
X147478522Y-112805348D01*
X147603697Y-112930305D01*
X147609927Y-112934145D01*
X147609928Y-112934146D01*
X147747090Y-113018694D01*
X147754262Y-113023115D01*
X147796815Y-113037229D01*
X147915611Y-113076632D01*
X147915613Y-113076632D01*
X147922139Y-113078797D01*
X147928975Y-113079497D01*
X147928978Y-113079498D01*
X147972031Y-113083909D01*
X148026600Y-113089500D01*
X149367400Y-113089500D01*
X149370646Y-113089163D01*
X149370650Y-113089163D01*
X149466308Y-113079238D01*
X149466312Y-113079237D01*
X149473166Y-113078526D01*
X149479702Y-113076345D01*
X149479704Y-113076345D01*
X149611806Y-113032272D01*
X149640946Y-113022550D01*
X149791348Y-112929478D01*
X149916305Y-112804303D01*
X149993530Y-112679021D01*
X150005275Y-112659968D01*
X150005276Y-112659966D01*
X150009115Y-112653738D01*
X150064797Y-112485861D01*
X150075500Y-112381400D01*
X150075500Y-110590600D01*
X150064526Y-110484834D01*
X150060665Y-110473259D01*
X150010868Y-110324002D01*
X150008550Y-110317054D01*
X149915478Y-110166652D01*
X149863438Y-110114703D01*
X152703743Y-110114703D01*
X152741268Y-110399734D01*
X152817129Y-110677036D01*
X152929923Y-110941476D01*
X152941693Y-110961142D01*
X153058794Y-111156803D01*
X153077561Y-111188161D01*
X153257313Y-111412528D01*
X153465851Y-111610423D01*
X153699317Y-111778186D01*
X153703112Y-111780195D01*
X153703113Y-111780196D01*
X153724869Y-111791715D01*
X153953392Y-111912712D01*
X154223373Y-112011511D01*
X154504264Y-112072755D01*
X154532841Y-112075004D01*
X154727282Y-112090307D01*
X154727291Y-112090307D01*
X154729739Y-112090500D01*
X154885271Y-112090500D01*
X154887407Y-112090354D01*
X154887418Y-112090354D01*
X155095548Y-112076165D01*
X155095554Y-112076164D01*
X155099825Y-112075873D01*
X155104020Y-112075004D01*
X155104022Y-112075004D01*
X155240584Y-112046723D01*
X155381342Y-112017574D01*
X155652343Y-111921607D01*
X155907812Y-111789750D01*
X155911313Y-111787289D01*
X155911317Y-111787287D01*
X156025417Y-111707096D01*
X156143023Y-111624441D01*
X156353622Y-111428740D01*
X156535713Y-111206268D01*
X156685927Y-110961142D01*
X156801483Y-110697898D01*
X156804954Y-110685715D01*
X156879068Y-110425534D01*
X156880244Y-110421406D01*
X156917089Y-110162517D01*
X156920146Y-110141036D01*
X156920146Y-110141034D01*
X156920751Y-110136784D01*
X156920845Y-110118951D01*
X156922235Y-109853583D01*
X156922235Y-109853576D01*
X156922257Y-109849297D01*
X156884732Y-109564266D01*
X156808871Y-109286964D01*
X156696077Y-109022524D01*
X156548439Y-108775839D01*
X156368687Y-108551472D01*
X156160149Y-108353577D01*
X155926683Y-108185814D01*
X155904843Y-108174250D01*
X155881654Y-108161972D01*
X155672608Y-108051288D01*
X155402627Y-107952489D01*
X155121736Y-107891245D01*
X155090685Y-107888801D01*
X154898718Y-107873693D01*
X154898709Y-107873693D01*
X154896261Y-107873500D01*
X154740729Y-107873500D01*
X154738593Y-107873646D01*
X154738582Y-107873646D01*
X154530452Y-107887835D01*
X154530446Y-107887836D01*
X154526175Y-107888127D01*
X154521980Y-107888996D01*
X154521978Y-107888996D01*
X154385417Y-107917276D01*
X154244658Y-107946426D01*
X153973657Y-108042393D01*
X153718188Y-108174250D01*
X153714687Y-108176711D01*
X153714683Y-108176713D01*
X153704594Y-108183804D01*
X153482977Y-108339559D01*
X153272378Y-108535260D01*
X153090287Y-108757732D01*
X152940073Y-109002858D01*
X152824517Y-109266102D01*
X152745756Y-109542594D01*
X152705249Y-109827216D01*
X152705227Y-109831505D01*
X152705226Y-109831512D01*
X152703765Y-110110417D01*
X152703743Y-110114703D01*
X149863438Y-110114703D01*
X149790303Y-110041695D01*
X149754840Y-110019835D01*
X149645968Y-109952725D01*
X149645966Y-109952724D01*
X149639738Y-109948885D01*
X149559722Y-109922345D01*
X149478389Y-109895368D01*
X149478387Y-109895368D01*
X149471861Y-109893203D01*
X149465025Y-109892503D01*
X149465022Y-109892502D01*
X149417449Y-109887628D01*
X149367400Y-109882500D01*
X148026600Y-109882500D01*
X148023354Y-109882837D01*
X148023350Y-109882837D01*
X147927692Y-109892762D01*
X147927688Y-109892763D01*
X147920834Y-109893474D01*
X147914298Y-109895655D01*
X147914296Y-109895655D01*
X147797052Y-109934771D01*
X147753054Y-109949450D01*
X147602652Y-110042522D01*
X147477695Y-110167697D01*
X147473855Y-110173927D01*
X147473854Y-110173928D01*
X147398310Y-110296483D01*
X147384885Y-110318262D01*
X147382868Y-110317018D01*
X147343463Y-110361775D01*
X147275187Y-110381239D01*
X147207226Y-110360700D01*
X147185011Y-110342215D01*
X147077076Y-110229070D01*
X147069108Y-110222021D01*
X146890048Y-110088797D01*
X146881018Y-110083198D01*
X146682069Y-109982047D01*
X146672208Y-109978044D01*
X146459071Y-109911862D01*
X146448691Y-109909580D01*
X146428957Y-109906964D01*
X146414793Y-109909160D01*
X146411000Y-109922345D01*
X146411000Y-113047627D01*
X145903000Y-113047627D01*
X145903000Y-111758115D01*
X145898525Y-111742876D01*
X145897135Y-111741671D01*
X145889452Y-111740000D01*
X144797115Y-111740000D01*
X144781876Y-111744475D01*
X144780671Y-111745865D01*
X144779000Y-111753548D01*
X144779000Y-111767054D01*
X141820500Y-111767054D01*
X141820500Y-111213885D01*
X144779000Y-111213885D01*
X144783475Y-111229124D01*
X144784865Y-111230329D01*
X144792548Y-111232000D01*
X145884885Y-111232000D01*
X145900124Y-111227525D01*
X145901329Y-111226135D01*
X145903000Y-111218452D01*
X145903000Y-109924373D01*
X145899027Y-109910842D01*
X145888420Y-109909317D01*
X145764812Y-109935252D01*
X145754616Y-109938312D01*
X145547048Y-110020284D01*
X145537511Y-110025018D01*
X145346715Y-110140796D01*
X145338122Y-110147062D01*
X145169559Y-110293333D01*
X145162139Y-110300964D01*
X145020632Y-110473542D01*
X145014607Y-110482309D01*
X144904203Y-110676262D01*
X144899738Y-110685926D01*
X144823590Y-110895711D01*
X144820819Y-110905979D01*
X144780894Y-111126766D01*
X144779961Y-111134995D01*
X144779070Y-111153874D01*
X144779000Y-111156849D01*
X144779000Y-111213885D01*
X141820500Y-111213885D01*
X141820500Y-110590600D01*
X141809526Y-110484834D01*
X141805665Y-110473259D01*
X141755868Y-110324002D01*
X141753550Y-110317054D01*
X141660478Y-110166652D01*
X141535303Y-110041695D01*
X141499840Y-110019835D01*
X141390968Y-109952725D01*
X141390966Y-109952724D01*
X141384738Y-109948885D01*
X141304722Y-109922345D01*
X141223389Y-109895368D01*
X141223387Y-109895368D01*
X141216861Y-109893203D01*
X141210025Y-109892503D01*
X141210022Y-109892502D01*
X141162449Y-109887628D01*
X141112400Y-109882500D01*
X139771600Y-109882500D01*
X139768354Y-109882837D01*
X139768350Y-109882837D01*
X139672692Y-109892762D01*
X139672688Y-109892763D01*
X139665834Y-109893474D01*
X139659298Y-109895655D01*
X139659296Y-109895655D01*
X139542052Y-109934771D01*
X139498054Y-109949450D01*
X139347652Y-110042522D01*
X139222695Y-110167697D01*
X139218855Y-110173927D01*
X139218854Y-110173928D01*
X139143310Y-110296483D01*
X139129885Y-110318262D01*
X139127738Y-110316938D01*
X139088688Y-110361290D01*
X139020411Y-110380752D01*
X138952451Y-110360212D01*
X138930239Y-110341728D01*
X138822410Y-110228694D01*
X138822398Y-110228684D01*
X138818724Y-110224832D01*
X138631035Y-110085187D01*
X138626284Y-110082771D01*
X138626280Y-110082769D01*
X138427256Y-109981580D01*
X138427255Y-109981580D01*
X138422500Y-109979162D01*
X138199083Y-109909790D01*
X138193796Y-109909089D01*
X138193795Y-109909089D01*
X137972455Y-109879752D01*
X137972451Y-109879752D01*
X137967171Y-109879052D01*
X137961842Y-109879252D01*
X137961840Y-109879252D01*
X137866346Y-109882837D01*
X137733396Y-109887828D01*
X137649411Y-109905450D01*
X137509668Y-109934771D01*
X137509665Y-109934772D01*
X137504441Y-109935868D01*
X137286854Y-110021797D01*
X137282290Y-110024566D01*
X137282291Y-110024566D01*
X137091417Y-110140391D01*
X137091414Y-110140393D01*
X137086856Y-110143159D01*
X136910166Y-110296483D01*
X136761835Y-110477386D01*
X136646104Y-110680695D01*
X136566284Y-110900596D01*
X136565335Y-110905845D01*
X136565334Y-110905848D01*
X136554674Y-110964799D01*
X136524656Y-111130803D01*
X136523500Y-111155316D01*
X136523500Y-111769738D01*
X120777000Y-111769738D01*
X120777000Y-107060000D01*
X120797002Y-106991879D01*
X120850658Y-106945386D01*
X120903000Y-106934000D01*
X157735000Y-106934000D01*
X157803121Y-106954002D01*
G37*
%TD.AperFunction*%
%TD*%
M02*
