%TF.GenerationSoftware,KiCad,Pcbnew,(6.0.1-0)*%
%TF.CreationDate,2023-07-04T07:10:58-04:00*%
%TF.ProjectId,Active Twin T,41637469-7665-4205-9477-696e20542e6b,rev?*%
%TF.SameCoordinates,Original*%
%TF.FileFunction,Copper,L1,Top*%
%TF.FilePolarity,Positive*%
%FSLAX46Y46*%
G04 Gerber Fmt 4.6, Leading zero omitted, Abs format (unit mm)*
G04 Created by KiCad (PCBNEW (6.0.1-0)) date 2023-07-04 07:10:58*
%MOMM*%
%LPD*%
G01*
G04 APERTURE LIST*
G04 Aperture macros list*
%AMRoundRect*
0 Rectangle with rounded corners*
0 $1 Rounding radius*
0 $2 $3 $4 $5 $6 $7 $8 $9 X,Y pos of 4 corners*
0 Add a 4 corners polygon primitive as box body*
4,1,4,$2,$3,$4,$5,$6,$7,$8,$9,$2,$3,0*
0 Add four circle primitives for the rounded corners*
1,1,$1+$1,$2,$3*
1,1,$1+$1,$4,$5*
1,1,$1+$1,$6,$7*
1,1,$1+$1,$8,$9*
0 Add four rect primitives between the rounded corners*
20,1,$1+$1,$2,$3,$4,$5,0*
20,1,$1+$1,$4,$5,$6,$7,0*
20,1,$1+$1,$6,$7,$8,$9,0*
20,1,$1+$1,$8,$9,$2,$3,0*%
G04 Aperture macros list end*
%TA.AperFunction,ComponentPad*%
%ADD10RoundRect,0.250000X0.620000X0.845000X-0.620000X0.845000X-0.620000X-0.845000X0.620000X-0.845000X0*%
%TD*%
%TA.AperFunction,ComponentPad*%
%ADD11O,1.740000X2.190000*%
%TD*%
%TA.AperFunction,SMDPad,CuDef*%
%ADD12RoundRect,0.250000X-0.625000X0.312500X-0.625000X-0.312500X0.625000X-0.312500X0.625000X0.312500X0*%
%TD*%
%TA.AperFunction,SMDPad,CuDef*%
%ADD13RoundRect,0.250000X-0.312500X-0.625000X0.312500X-0.625000X0.312500X0.625000X-0.312500X0.625000X0*%
%TD*%
%TA.AperFunction,SMDPad,CuDef*%
%ADD14RoundRect,0.250000X0.312500X0.625000X-0.312500X0.625000X-0.312500X-0.625000X0.312500X-0.625000X0*%
%TD*%
%TA.AperFunction,SMDPad,CuDef*%
%ADD15RoundRect,0.150000X-0.825000X-0.150000X0.825000X-0.150000X0.825000X0.150000X-0.825000X0.150000X0*%
%TD*%
%TA.AperFunction,ComponentPad*%
%ADD16O,2.190000X1.740000*%
%TD*%
%TA.AperFunction,ComponentPad*%
%ADD17RoundRect,0.250000X-0.845000X0.620000X-0.845000X-0.620000X0.845000X-0.620000X0.845000X0.620000X0*%
%TD*%
%TA.AperFunction,SMDPad,CuDef*%
%ADD18RoundRect,0.250000X0.325000X0.650000X-0.325000X0.650000X-0.325000X-0.650000X0.325000X-0.650000X0*%
%TD*%
%TA.AperFunction,SMDPad,CuDef*%
%ADD19RoundRect,0.250000X-0.325000X-0.650000X0.325000X-0.650000X0.325000X0.650000X-0.325000X0.650000X0*%
%TD*%
%TA.AperFunction,SMDPad,CuDef*%
%ADD20RoundRect,0.250000X0.650000X-0.325000X0.650000X0.325000X-0.650000X0.325000X-0.650000X-0.325000X0*%
%TD*%
%TA.AperFunction,Conductor*%
%ADD21C,0.250000*%
%TD*%
G04 APERTURE END LIST*
D10*
%TO.P,R6,1*%
%TO.N,Net-(C4-Pad2)*%
X138537000Y-131826000D03*
D11*
%TO.P,R6,2*%
%TO.N,Net-(R5-Pad2)*%
X135997000Y-131826000D03*
%TD*%
D12*
%TO.P,R5,2*%
%TO.N,Net-(R5-Pad2)*%
X123932000Y-134558500D03*
%TO.P,R5,1*%
%TO.N,Net-(C5-Pad2)*%
X123932000Y-131633500D03*
%TD*%
D13*
%TO.P,R4,2*%
%TO.N,Net-(C5-Pad2)*%
X125394500Y-128016000D03*
%TO.P,R4,1*%
%TO.N,Net-(R3-Pad1)*%
X122469500Y-128016000D03*
%TD*%
D14*
%TO.P,R2,2*%
%TO.N,Net-(R1-Pad2)*%
X128819500Y-128016000D03*
%TO.P,R2,1*%
%TO.N,Net-(C5-Pad1)*%
X131744500Y-128016000D03*
%TD*%
D15*
%TO.P,U1,1*%
%TO.N,/Out*%
X144317000Y-122301000D03*
%TO.P,U1,2,-*%
X144317000Y-123571000D03*
%TO.P,U1,3,+*%
%TO.N,Net-(C4-Pad2)*%
X144317000Y-124841000D03*
%TO.P,U1,4,V-*%
%TO.N,-15V*%
X144317000Y-126111000D03*
%TO.P,U1,5,+*%
%TO.N,Net-(RV1-Pad2)*%
X149267000Y-126111000D03*
%TO.P,U1,6,-*%
%TO.N,Net-(C5-Pad1)*%
X149267000Y-124841000D03*
%TO.P,U1,7*%
X149267000Y-123571000D03*
%TO.P,U1,8,V+*%
%TO.N,+15V*%
X149267000Y-122301000D03*
%TD*%
D11*
%TO.P,RV1,3,3*%
%TO.N,/Out*%
X143617000Y-131826000D03*
%TO.P,RV1,2,2*%
%TO.N,Net-(RV1-Pad2)*%
X146157000Y-131826000D03*
D10*
%TO.P,RV1,1,1*%
%TO.N,GND*%
X148697000Y-131826000D03*
%TD*%
D11*
%TO.P,R3,2*%
%TO.N,/In*%
X137902000Y-111486000D03*
D10*
%TO.P,R3,1*%
%TO.N,Net-(R3-Pad1)*%
X140442000Y-111486000D03*
%TD*%
D16*
%TO.P,R1,2*%
%TO.N,Net-(R1-Pad2)*%
X137267000Y-125476000D03*
D17*
%TO.P,R1,1*%
%TO.N,Net-(C3-Pad2)*%
X137267000Y-122936000D03*
%TD*%
D11*
%TO.P,J2,2,Pin_2*%
%TO.N,GND*%
X146157000Y-111486000D03*
D10*
%TO.P,J2,1,Pin_1*%
%TO.N,/Out*%
X148697000Y-111486000D03*
%TD*%
D16*
%TO.P,J1,4,Pin_4*%
%TO.N,GND*%
X125182000Y-122936000D03*
%TO.P,J1,3,Pin_3*%
%TO.N,/In*%
X125182000Y-120396000D03*
%TO.P,J1,2,Pin_2*%
%TO.N,-15V*%
X125182000Y-117856000D03*
D17*
%TO.P,J1,1,Pin_1*%
%TO.N,+15V*%
X125182000Y-115316000D03*
%TD*%
D18*
%TO.P,C5,1*%
%TO.N,Net-(C5-Pad1)*%
X131327000Y-132461000D03*
%TO.P,C5,2*%
%TO.N,Net-(C5-Pad2)*%
X128377000Y-132461000D03*
%TD*%
D19*
%TO.P,C4,2*%
%TO.N,Net-(C4-Pad2)*%
X143187000Y-118491000D03*
%TO.P,C4,1*%
%TO.N,Net-(C3-Pad2)*%
X140237000Y-118491000D03*
%TD*%
%TO.P,C3,2*%
%TO.N,Net-(C3-Pad2)*%
X136837000Y-118491000D03*
%TO.P,C3,1*%
%TO.N,/In*%
X133887000Y-118491000D03*
%TD*%
D20*
%TO.P,C2,2*%
%TO.N,GND*%
X122662000Y-108761000D03*
%TO.P,C2,1*%
%TO.N,-15V*%
X122662000Y-111711000D03*
%TD*%
%TO.P,C1,1*%
%TO.N,+15V*%
X127742000Y-111711000D03*
%TO.P,C1,2*%
%TO.N,GND*%
X127742000Y-108761000D03*
%TD*%
D21*
%TO.N,GND*%
X122662000Y-108761000D02*
X121285000Y-110138000D01*
X121285000Y-110138000D02*
X121285000Y-120015000D01*
X121285000Y-120015000D02*
X124206000Y-122936000D01*
X124206000Y-122936000D02*
X125182000Y-122936000D01*
X122662000Y-108761000D02*
X127742000Y-108761000D01*
%TO.N,-15V*%
X132971520Y-110066480D02*
X141299973Y-110066480D01*
X144086520Y-112853027D02*
X144086520Y-120561480D01*
X125182000Y-117856000D02*
X132971520Y-110066480D01*
X141299973Y-110066480D02*
X144086520Y-112853027D01*
X144086520Y-120561480D02*
X142796520Y-121851480D01*
X142796520Y-121851480D02*
X142796520Y-124019802D01*
X145522000Y-126111000D02*
X144317000Y-126111000D01*
X145616520Y-124494448D02*
X145616520Y-126016480D01*
X142796520Y-124019802D02*
X142993198Y-124216480D01*
X142993198Y-124216480D02*
X145338552Y-124216480D01*
X145338552Y-124216480D02*
X145616520Y-124494448D01*
X145616520Y-126016480D02*
X145522000Y-126111000D01*
%TO.N,Net-(C4-Pad2)*%
X143187000Y-118491000D02*
X142347000Y-119331000D01*
X142347000Y-119331000D02*
X142347000Y-124206000D01*
X142347000Y-124206000D02*
X142982000Y-124841000D01*
X142982000Y-124841000D02*
X144317000Y-124841000D01*
%TO.N,+15V*%
X127742000Y-111711000D02*
X130487000Y-108966000D01*
X150602000Y-120966000D02*
X149267000Y-122301000D01*
X130487000Y-108966000D02*
X148697000Y-108966000D01*
X148697000Y-108966000D02*
X150602000Y-110871000D01*
X150602000Y-110871000D02*
X150602000Y-120966000D01*
%TO.N,Net-(C5-Pad1)*%
X131744500Y-128016000D02*
X134731653Y-128016000D01*
X134731653Y-128016000D02*
X137342480Y-130626827D01*
X137342480Y-130626827D02*
X137342480Y-133171480D01*
X137342480Y-133171480D02*
X137902000Y-133731000D01*
X137902000Y-133731000D02*
X146232480Y-133731000D01*
X146232480Y-133731000D02*
X147502480Y-132461000D01*
X147502480Y-132461000D02*
X147502480Y-130480520D01*
X147502480Y-130480520D02*
X151237000Y-126746000D01*
X151237000Y-126746000D02*
X151237000Y-125476000D01*
X151237000Y-125476000D02*
X150602000Y-124841000D01*
X150602000Y-124841000D02*
X149267000Y-124841000D01*
%TO.N,+15V*%
X127742000Y-111711000D02*
X127742000Y-112756000D01*
X127742000Y-112756000D02*
X125182000Y-115316000D01*
%TO.N,-15V*%
X122662000Y-111711000D02*
X122662000Y-115336000D01*
X122662000Y-115336000D02*
X125182000Y-117856000D01*
%TO.N,Net-(C3-Pad2)*%
X136837000Y-118491000D02*
X140237000Y-118491000D01*
X137267000Y-122936000D02*
X137267000Y-118921000D01*
%TO.N,Net-(C4-Pad2)*%
X138537000Y-131826000D02*
X138537000Y-130244928D01*
X138537000Y-130244928D02*
X143940928Y-124841000D01*
%TO.N,/Out*%
X143617000Y-131826000D02*
X143617000Y-129286000D01*
X146157000Y-124206000D02*
X145522000Y-123571000D01*
X143617000Y-129286000D02*
X146157000Y-126746000D01*
X146157000Y-126746000D02*
X146157000Y-124206000D01*
X145522000Y-123571000D02*
X144317000Y-123571000D01*
%TO.N,Net-(RV1-Pad2)*%
X146157000Y-131826000D02*
X146157000Y-129221000D01*
X146157000Y-129221000D02*
X149267000Y-126111000D01*
%TO.N,Net-(C5-Pad1)*%
X149267000Y-123571000D02*
X149267000Y-124841000D01*
%TO.N,/Out*%
X144317000Y-123571000D02*
X144317000Y-122301000D01*
X148697000Y-111486000D02*
X148697000Y-117921000D01*
X148697000Y-117921000D02*
X144317000Y-122301000D01*
%TO.N,Net-(R3-Pad1)*%
X135362000Y-119761000D02*
X129647000Y-125476000D01*
X140442000Y-112131000D02*
X135362000Y-117211000D01*
X129647000Y-125476000D02*
X124567000Y-125476000D01*
X135362000Y-117211000D02*
X135362000Y-119761000D01*
X124567000Y-125476000D02*
X122469500Y-127573500D01*
%TO.N,Net-(R1-Pad2)*%
X129012000Y-128016000D02*
X131552000Y-125476000D01*
X131552000Y-125476000D02*
X137267000Y-125476000D01*
%TO.N,Net-(C5-Pad1)*%
X131327000Y-132461000D02*
X131327000Y-128433500D01*
%TO.N,Net-(C5-Pad2)*%
X128377000Y-132461000D02*
X127684500Y-132461000D01*
X127684500Y-132461000D02*
X125394500Y-130171000D01*
%TO.N,Net-(R5-Pad2)*%
X123932000Y-134558500D02*
X133264500Y-134558500D01*
X133264500Y-134558500D02*
X135997000Y-131826000D01*
%TO.N,Net-(C5-Pad2)*%
X125394500Y-128016000D02*
X125394500Y-130171000D01*
X125394500Y-130171000D02*
X123932000Y-131633500D01*
%TO.N,/In*%
X133887000Y-118491000D02*
X133887000Y-114251000D01*
X133887000Y-114251000D02*
X136652000Y-111486000D01*
X136652000Y-111486000D02*
X137902000Y-111486000D01*
X125182000Y-120396000D02*
X131982000Y-120396000D01*
X131982000Y-120396000D02*
X133887000Y-118491000D01*
%TD*%
M02*
