%TF.GenerationSoftware,KiCad,Pcbnew,(6.0.1-0)*%
%TF.CreationDate,2023-07-04T07:10:59-04:00*%
%TF.ProjectId,Active Twin T,41637469-7665-4205-9477-696e20542e6b,rev?*%
%TF.SameCoordinates,Original*%
%TF.FileFunction,Soldermask,Top*%
%TF.FilePolarity,Negative*%
%FSLAX46Y46*%
G04 Gerber Fmt 4.6, Leading zero omitted, Abs format (unit mm)*
G04 Created by KiCad (PCBNEW (6.0.1-0)) date 2023-07-04 07:10:59*
%MOMM*%
%LPD*%
G01*
G04 APERTURE LIST*
G04 Aperture macros list*
%AMRoundRect*
0 Rectangle with rounded corners*
0 $1 Rounding radius*
0 $2 $3 $4 $5 $6 $7 $8 $9 X,Y pos of 4 corners*
0 Add a 4 corners polygon primitive as box body*
4,1,4,$2,$3,$4,$5,$6,$7,$8,$9,$2,$3,0*
0 Add four circle primitives for the rounded corners*
1,1,$1+$1,$2,$3*
1,1,$1+$1,$4,$5*
1,1,$1+$1,$6,$7*
1,1,$1+$1,$8,$9*
0 Add four rect primitives between the rounded corners*
20,1,$1+$1,$2,$3,$4,$5,0*
20,1,$1+$1,$4,$5,$6,$7,0*
20,1,$1+$1,$6,$7,$8,$9,0*
20,1,$1+$1,$8,$9,$2,$3,0*%
G04 Aperture macros list end*
%ADD10C,3.200000*%
%ADD11RoundRect,0.250000X0.620000X0.845000X-0.620000X0.845000X-0.620000X-0.845000X0.620000X-0.845000X0*%
%ADD12O,1.740000X2.190000*%
%ADD13RoundRect,0.250000X-0.625000X0.312500X-0.625000X-0.312500X0.625000X-0.312500X0.625000X0.312500X0*%
%ADD14RoundRect,0.250000X-0.312500X-0.625000X0.312500X-0.625000X0.312500X0.625000X-0.312500X0.625000X0*%
%ADD15RoundRect,0.250000X0.312500X0.625000X-0.312500X0.625000X-0.312500X-0.625000X0.312500X-0.625000X0*%
%ADD16RoundRect,0.150000X-0.825000X-0.150000X0.825000X-0.150000X0.825000X0.150000X-0.825000X0.150000X0*%
%ADD17O,2.190000X1.740000*%
%ADD18RoundRect,0.250000X-0.845000X0.620000X-0.845000X-0.620000X0.845000X-0.620000X0.845000X0.620000X0*%
%ADD19RoundRect,0.250000X0.325000X0.650000X-0.325000X0.650000X-0.325000X-0.650000X0.325000X-0.650000X0*%
%ADD20RoundRect,0.250000X-0.325000X-0.650000X0.325000X-0.650000X0.325000X0.650000X-0.325000X0.650000X0*%
%ADD21RoundRect,0.250000X0.650000X-0.325000X0.650000X0.325000X-0.650000X0.325000X-0.650000X-0.325000X0*%
G04 APERTURE END LIST*
D10*
%TO.C,H2*%
X154940000Y-134747000D03*
%TD*%
%TO.C,H1*%
X154813000Y-109982000D03*
%TD*%
D11*
%TO.C,R6*%
X138537000Y-131826000D03*
D12*
X135997000Y-131826000D03*
%TD*%
D13*
%TO.C,R5*%
X123932000Y-134558500D03*
X123932000Y-131633500D03*
%TD*%
D14*
%TO.C,R4*%
X125394500Y-128016000D03*
X122469500Y-128016000D03*
%TD*%
D15*
%TO.C,R2*%
X128819500Y-128016000D03*
X131744500Y-128016000D03*
%TD*%
D16*
%TO.C,U1*%
X144317000Y-122301000D03*
X144317000Y-123571000D03*
X144317000Y-124841000D03*
X144317000Y-126111000D03*
X149267000Y-126111000D03*
X149267000Y-124841000D03*
X149267000Y-123571000D03*
X149267000Y-122301000D03*
%TD*%
D12*
%TO.C,RV1*%
X143617000Y-131826000D03*
X146157000Y-131826000D03*
D11*
X148697000Y-131826000D03*
%TD*%
D12*
%TO.C,R3*%
X137902000Y-111486000D03*
D11*
X140442000Y-111486000D03*
%TD*%
D17*
%TO.C,R1*%
X137267000Y-125476000D03*
D18*
X137267000Y-122936000D03*
%TD*%
D12*
%TO.C,J2*%
X146157000Y-111486000D03*
D11*
X148697000Y-111486000D03*
%TD*%
D17*
%TO.C,J1*%
X125182000Y-122936000D03*
X125182000Y-120396000D03*
X125182000Y-117856000D03*
D18*
X125182000Y-115316000D03*
%TD*%
D19*
%TO.C,C5*%
X131327000Y-132461000D03*
X128377000Y-132461000D03*
%TD*%
D20*
%TO.C,C4*%
X143187000Y-118491000D03*
X140237000Y-118491000D03*
%TD*%
%TO.C,C3*%
X136837000Y-118491000D03*
X133887000Y-118491000D03*
%TD*%
D21*
%TO.C,C2*%
X122662000Y-108761000D03*
X122662000Y-111711000D03*
%TD*%
%TO.C,C1*%
X127742000Y-111711000D03*
X127742000Y-108761000D03*
%TD*%
M02*
