%TF.GenerationSoftware,KiCad,Pcbnew,(6.0.1-0)*%
%TF.CreationDate,2023-07-04T07:10:59-04:00*%
%TF.ProjectId,Active Twin T,41637469-7665-4205-9477-696e20542e6b,rev?*%
%TF.SameCoordinates,Original*%
%TF.FileFunction,Legend,Top*%
%TF.FilePolarity,Positive*%
%FSLAX46Y46*%
G04 Gerber Fmt 4.6, Leading zero omitted, Abs format (unit mm)*
G04 Created by KiCad (PCBNEW (6.0.1-0)) date 2023-07-04 07:10:59*
%MOMM*%
%LPD*%
G01*
G04 APERTURE LIST*
%ADD10C,0.150000*%
%ADD11C,0.120000*%
G04 APERTURE END LIST*
D10*
X152697980Y-128281914D02*
X151697980Y-128281914D01*
X152697980Y-127710485D01*
X151697980Y-127710485D01*
X151697980Y-127043819D02*
X151697980Y-126853342D01*
X151745600Y-126758104D01*
X151840838Y-126662866D01*
X152031314Y-126615247D01*
X152364647Y-126615247D01*
X152555123Y-126662866D01*
X152650361Y-126758104D01*
X152697980Y-126853342D01*
X152697980Y-127043819D01*
X152650361Y-127139057D01*
X152555123Y-127234295D01*
X152364647Y-127281914D01*
X152031314Y-127281914D01*
X151840838Y-127234295D01*
X151745600Y-127139057D01*
X151697980Y-127043819D01*
X151697980Y-126329533D02*
X151697980Y-125758104D01*
X152697980Y-126043819D02*
X151697980Y-126043819D01*
X152602742Y-124853342D02*
X152650361Y-124900961D01*
X152697980Y-125043819D01*
X152697980Y-125139057D01*
X152650361Y-125281914D01*
X152555123Y-125377152D01*
X152459885Y-125424771D01*
X152269409Y-125472390D01*
X152126552Y-125472390D01*
X151936076Y-125424771D01*
X151840838Y-125377152D01*
X151745600Y-125281914D01*
X151697980Y-125139057D01*
X151697980Y-125043819D01*
X151745600Y-124900961D01*
X151793219Y-124853342D01*
X152697980Y-124424771D02*
X151697980Y-124424771D01*
X152174171Y-124424771D02*
X152174171Y-123853342D01*
X152697980Y-123853342D02*
X151697980Y-123853342D01*
X152174171Y-122281914D02*
X152174171Y-122615247D01*
X152697980Y-122615247D02*
X151697980Y-122615247D01*
X151697980Y-122139057D01*
X152697980Y-121758104D02*
X151697980Y-121758104D01*
X152697980Y-120805723D02*
X152697980Y-121281914D01*
X151697980Y-121281914D01*
X151697980Y-120615247D02*
X151697980Y-120043819D01*
X152697980Y-120329533D02*
X151697980Y-120329533D01*
X152174171Y-119710485D02*
X152174171Y-119377152D01*
X152697980Y-119234295D02*
X152697980Y-119710485D01*
X151697980Y-119710485D01*
X151697980Y-119234295D01*
X152697980Y-118234295D02*
X152221790Y-118567628D01*
X152697980Y-118805723D02*
X151697980Y-118805723D01*
X151697980Y-118424771D01*
X151745600Y-118329533D01*
X151793219Y-118281914D01*
X151888457Y-118234295D01*
X152031314Y-118234295D01*
X152126552Y-118281914D01*
X152174171Y-118329533D01*
X152221790Y-118424771D01*
X152221790Y-118805723D01*
X151697980Y-117186676D02*
X152697980Y-116853342D01*
X151697980Y-116520009D01*
X152697980Y-115662866D02*
X152697980Y-116234295D01*
X152697980Y-115948580D02*
X151697980Y-115948580D01*
X151840838Y-116043819D01*
X151936076Y-116139057D01*
X151983695Y-116234295D01*
X153307980Y-131400961D02*
X153307980Y-130829533D01*
X154307980Y-131115247D02*
X153307980Y-131115247D01*
X153307980Y-130496200D02*
X154117504Y-130496200D01*
X154212742Y-130448580D01*
X154260361Y-130400961D01*
X154307980Y-130305723D01*
X154307980Y-130115247D01*
X154260361Y-130020009D01*
X154212742Y-129972390D01*
X154117504Y-129924771D01*
X153307980Y-129924771D01*
X154307980Y-129448580D02*
X153307980Y-129448580D01*
X154307980Y-128877152D01*
X153307980Y-128877152D01*
X154022266Y-128448580D02*
X154022266Y-127972390D01*
X154307980Y-128543819D02*
X153307980Y-128210485D01*
X154307980Y-127877152D01*
X153784171Y-127210485D02*
X153831790Y-127067628D01*
X153879409Y-127020009D01*
X153974647Y-126972390D01*
X154117504Y-126972390D01*
X154212742Y-127020009D01*
X154260361Y-127067628D01*
X154307980Y-127162866D01*
X154307980Y-127543819D01*
X153307980Y-127543819D01*
X153307980Y-127210485D01*
X153355600Y-127115247D01*
X153403219Y-127067628D01*
X153498457Y-127020009D01*
X153593695Y-127020009D01*
X153688933Y-127067628D01*
X153736552Y-127115247D01*
X153784171Y-127210485D01*
X153784171Y-127543819D01*
X154307980Y-126067628D02*
X154307980Y-126543819D01*
X153307980Y-126543819D01*
X153784171Y-125734295D02*
X153784171Y-125400961D01*
X154307980Y-125258104D02*
X154307980Y-125734295D01*
X153307980Y-125734295D01*
X153307980Y-125258104D01*
X154022266Y-124115247D02*
X154022266Y-123639057D01*
X154307980Y-124210485D02*
X153307980Y-123877152D01*
X154307980Y-123543819D01*
X154212742Y-122639057D02*
X154260361Y-122686676D01*
X154307980Y-122829533D01*
X154307980Y-122924771D01*
X154260361Y-123067628D01*
X154165123Y-123162866D01*
X154069885Y-123210485D01*
X153879409Y-123258104D01*
X153736552Y-123258104D01*
X153546076Y-123210485D01*
X153450838Y-123162866D01*
X153355600Y-123067628D01*
X153307980Y-122924771D01*
X153307980Y-122829533D01*
X153355600Y-122686676D01*
X153403219Y-122639057D01*
X153307980Y-122353342D02*
X153307980Y-121781914D01*
X154307980Y-122067628D02*
X153307980Y-122067628D01*
X154307980Y-121448580D02*
X153307980Y-121448580D01*
X153307980Y-121115247D02*
X154307980Y-120781914D01*
X153307980Y-120448580D01*
X153784171Y-120115247D02*
X153784171Y-119781914D01*
X154307980Y-119639057D02*
X154307980Y-120115247D01*
X153307980Y-120115247D01*
X153307980Y-119639057D01*
X153307980Y-118591438D02*
X153307980Y-118020009D01*
X154307980Y-118305723D02*
X153307980Y-118305723D01*
X153307980Y-117781914D02*
X154307980Y-117543819D01*
X153593695Y-117353342D01*
X154307980Y-117162866D01*
X153307980Y-116924771D01*
X154307980Y-116543819D02*
X153307980Y-116543819D01*
X154307980Y-116067628D02*
X153307980Y-116067628D01*
X154307980Y-115496200D01*
X153307980Y-115496200D01*
X153927028Y-115020009D02*
X153927028Y-114258104D01*
X153307980Y-113924771D02*
X153307980Y-113353342D01*
X154307980Y-113639057D02*
X153307980Y-113639057D01*
X155917980Y-128662866D02*
X154917980Y-128662866D01*
X155632266Y-128329533D01*
X154917980Y-127996200D01*
X155917980Y-127996200D01*
X155632266Y-127567628D02*
X155632266Y-127091438D01*
X155917980Y-127662866D02*
X154917980Y-127329533D01*
X155917980Y-126996200D01*
X155632266Y-126710485D02*
X155632266Y-126234295D01*
X155917980Y-126805723D02*
X154917980Y-126472390D01*
X155917980Y-126139057D01*
X155917980Y-125234295D02*
X155441790Y-125567628D01*
X155917980Y-125805723D02*
X154917980Y-125805723D01*
X154917980Y-125424771D01*
X154965600Y-125329533D01*
X155013219Y-125281914D01*
X155108457Y-125234295D01*
X155251314Y-125234295D01*
X155346552Y-125281914D01*
X155394171Y-125329533D01*
X155441790Y-125424771D01*
X155441790Y-125805723D01*
X154917980Y-124948580D02*
X154917980Y-124377152D01*
X155917980Y-124662866D02*
X154917980Y-124662866D01*
X155394171Y-124043819D02*
X155394171Y-123710485D01*
X155917980Y-123567628D02*
X155917980Y-124043819D01*
X154917980Y-124043819D01*
X154917980Y-123567628D01*
X155917980Y-123139057D02*
X154917980Y-123139057D01*
X155917980Y-122567628D01*
X154917980Y-122567628D01*
X155917980Y-121329533D02*
X154917980Y-121329533D01*
X154917980Y-121091438D01*
X154965600Y-120948580D01*
X155060838Y-120853342D01*
X155156076Y-120805723D01*
X155346552Y-120758104D01*
X155489409Y-120758104D01*
X155679885Y-120805723D01*
X155775123Y-120853342D01*
X155870361Y-120948580D01*
X155917980Y-121091438D01*
X155917980Y-121329533D01*
X155394171Y-120329533D02*
X155394171Y-119996200D01*
X155917980Y-119853342D02*
X155917980Y-120329533D01*
X154917980Y-120329533D01*
X154917980Y-119853342D01*
X155917980Y-118662866D02*
X154917980Y-118662866D01*
X155394171Y-118662866D02*
X155394171Y-118091438D01*
X155917980Y-118091438D02*
X154917980Y-118091438D01*
X155632266Y-117662866D02*
X155632266Y-117186676D01*
X155917980Y-117758104D02*
X154917980Y-117424771D01*
X155917980Y-117091438D01*
X155632266Y-116805723D02*
X155632266Y-116329533D01*
X155917980Y-116900961D02*
X154917980Y-116567628D01*
X155917980Y-116234295D01*
X155917980Y-115900961D02*
X154917980Y-115900961D01*
X155917980Y-115329533D01*
X154917980Y-115329533D01*
X157527980Y-125472390D02*
X156527980Y-125472390D01*
X157242266Y-125139057D01*
X156527980Y-124805723D01*
X157527980Y-124805723D01*
X157242266Y-124377152D02*
X157242266Y-123900961D01*
X157527980Y-124472390D02*
X156527980Y-124139057D01*
X157527980Y-123805723D01*
X157051790Y-123281914D02*
X157527980Y-123281914D01*
X156527980Y-123615247D02*
X157051790Y-123281914D01*
X156527980Y-122948580D01*
X156623219Y-121900961D02*
X156575600Y-121853342D01*
X156527980Y-121758104D01*
X156527980Y-121520009D01*
X156575600Y-121424771D01*
X156623219Y-121377152D01*
X156718457Y-121329533D01*
X156813695Y-121329533D01*
X156956552Y-121377152D01*
X157527980Y-121948580D01*
X157527980Y-121329533D01*
X156527980Y-120710485D02*
X156527980Y-120615247D01*
X156575600Y-120520009D01*
X156623219Y-120472390D01*
X156718457Y-120424771D01*
X156908933Y-120377152D01*
X157147028Y-120377152D01*
X157337504Y-120424771D01*
X157432742Y-120472390D01*
X157480361Y-120520009D01*
X157527980Y-120615247D01*
X157527980Y-120710485D01*
X157480361Y-120805723D01*
X157432742Y-120853342D01*
X157337504Y-120900961D01*
X157147028Y-120948580D01*
X156908933Y-120948580D01*
X156718457Y-120900961D01*
X156623219Y-120853342D01*
X156575600Y-120805723D01*
X156527980Y-120710485D01*
X156623219Y-119996200D02*
X156575600Y-119948580D01*
X156527980Y-119853342D01*
X156527980Y-119615247D01*
X156575600Y-119520009D01*
X156623219Y-119472390D01*
X156718457Y-119424771D01*
X156813695Y-119424771D01*
X156956552Y-119472390D01*
X157527980Y-120043819D01*
X157527980Y-119424771D01*
X156527980Y-119091438D02*
X156527980Y-118472390D01*
X156908933Y-118805723D01*
X156908933Y-118662866D01*
X156956552Y-118567628D01*
X157004171Y-118520009D01*
X157099409Y-118472390D01*
X157337504Y-118472390D01*
X157432742Y-118520009D01*
X157480361Y-118567628D01*
X157527980Y-118662866D01*
X157527980Y-118948580D01*
X157480361Y-119043819D01*
X157432742Y-119091438D01*
%TO.C,H2*%
X155956095Y-131389380D02*
X155956095Y-130389380D01*
X155956095Y-130865571D02*
X156527523Y-130865571D01*
X156527523Y-131389380D02*
X156527523Y-130389380D01*
X156956095Y-130484619D02*
X157003714Y-130437000D01*
X157098952Y-130389380D01*
X157337047Y-130389380D01*
X157432285Y-130437000D01*
X157479904Y-130484619D01*
X157527523Y-130579857D01*
X157527523Y-130675095D01*
X157479904Y-130817952D01*
X156908476Y-131389380D01*
X157527523Y-131389380D01*
%TO.C,H1*%
X156464095Y-114371380D02*
X156464095Y-113371380D01*
X156464095Y-113847571D02*
X157035523Y-113847571D01*
X157035523Y-114371380D02*
X157035523Y-113371380D01*
X158035523Y-114371380D02*
X157464095Y-114371380D01*
X157749809Y-114371380D02*
X157749809Y-113371380D01*
X157654571Y-113514238D01*
X157559333Y-113609476D01*
X157464095Y-113657095D01*
%TO.C,R6*%
X137100333Y-136723380D02*
X136767000Y-136247190D01*
X136528904Y-136723380D02*
X136528904Y-135723380D01*
X136909857Y-135723380D01*
X137005095Y-135771000D01*
X137052714Y-135818619D01*
X137100333Y-135913857D01*
X137100333Y-136056714D01*
X137052714Y-136151952D01*
X137005095Y-136199571D01*
X136909857Y-136247190D01*
X136528904Y-136247190D01*
X137957476Y-135723380D02*
X137767000Y-135723380D01*
X137671761Y-135771000D01*
X137624142Y-135818619D01*
X137528904Y-135961476D01*
X137481285Y-136151952D01*
X137481285Y-136532904D01*
X137528904Y-136628142D01*
X137576523Y-136675761D01*
X137671761Y-136723380D01*
X137862238Y-136723380D01*
X137957476Y-136675761D01*
X138005095Y-136628142D01*
X138052714Y-136532904D01*
X138052714Y-136294809D01*
X138005095Y-136199571D01*
X137957476Y-136151952D01*
X137862238Y-136104333D01*
X137671761Y-136104333D01*
X137576523Y-136151952D01*
X137528904Y-136199571D01*
X137481285Y-136294809D01*
%TO.C,R5*%
X126204380Y-133262666D02*
X125728190Y-133596000D01*
X126204380Y-133834095D02*
X125204380Y-133834095D01*
X125204380Y-133453142D01*
X125252000Y-133357904D01*
X125299619Y-133310285D01*
X125394857Y-133262666D01*
X125537714Y-133262666D01*
X125632952Y-133310285D01*
X125680571Y-133357904D01*
X125728190Y-133453142D01*
X125728190Y-133834095D01*
X125204380Y-132357904D02*
X125204380Y-132834095D01*
X125680571Y-132881714D01*
X125632952Y-132834095D01*
X125585333Y-132738857D01*
X125585333Y-132500761D01*
X125632952Y-132405523D01*
X125680571Y-132357904D01*
X125775809Y-132310285D01*
X126013904Y-132310285D01*
X126109142Y-132357904D01*
X126156761Y-132405523D01*
X126204380Y-132500761D01*
X126204380Y-132738857D01*
X126156761Y-132834095D01*
X126109142Y-132881714D01*
%TO.C,R4*%
X123765333Y-126648380D02*
X123432000Y-126172190D01*
X123193904Y-126648380D02*
X123193904Y-125648380D01*
X123574857Y-125648380D01*
X123670095Y-125696000D01*
X123717714Y-125743619D01*
X123765333Y-125838857D01*
X123765333Y-125981714D01*
X123717714Y-126076952D01*
X123670095Y-126124571D01*
X123574857Y-126172190D01*
X123193904Y-126172190D01*
X124622476Y-125981714D02*
X124622476Y-126648380D01*
X124384380Y-125600761D02*
X124146285Y-126315047D01*
X124765333Y-126315047D01*
%TO.C,R2*%
X130115333Y-126563380D02*
X129782000Y-126087190D01*
X129543904Y-126563380D02*
X129543904Y-125563380D01*
X129924857Y-125563380D01*
X130020095Y-125611000D01*
X130067714Y-125658619D01*
X130115333Y-125753857D01*
X130115333Y-125896714D01*
X130067714Y-125991952D01*
X130020095Y-126039571D01*
X129924857Y-126087190D01*
X129543904Y-126087190D01*
X130496285Y-125658619D02*
X130543904Y-125611000D01*
X130639142Y-125563380D01*
X130877238Y-125563380D01*
X130972476Y-125611000D01*
X131020095Y-125658619D01*
X131067714Y-125753857D01*
X131067714Y-125849095D01*
X131020095Y-125991952D01*
X130448666Y-126563380D01*
X131067714Y-126563380D01*
%TO.C,U1*%
X146030095Y-120258380D02*
X146030095Y-121067904D01*
X146077714Y-121163142D01*
X146125333Y-121210761D01*
X146220571Y-121258380D01*
X146411047Y-121258380D01*
X146506285Y-121210761D01*
X146553904Y-121163142D01*
X146601523Y-121067904D01*
X146601523Y-120258380D01*
X147601523Y-121258380D02*
X147030095Y-121258380D01*
X147315809Y-121258380D02*
X147315809Y-120258380D01*
X147220571Y-120401238D01*
X147125333Y-120496476D01*
X147030095Y-120544095D01*
%TO.C,RV1*%
X145561761Y-136398380D02*
X145228428Y-135922190D01*
X144990333Y-136398380D02*
X144990333Y-135398380D01*
X145371285Y-135398380D01*
X145466523Y-135446000D01*
X145514142Y-135493619D01*
X145561761Y-135588857D01*
X145561761Y-135731714D01*
X145514142Y-135826952D01*
X145466523Y-135874571D01*
X145371285Y-135922190D01*
X144990333Y-135922190D01*
X145847476Y-135398380D02*
X146180809Y-136398380D01*
X146514142Y-135398380D01*
X147371285Y-136398380D02*
X146799857Y-136398380D01*
X147085571Y-136398380D02*
X147085571Y-135398380D01*
X146990333Y-135541238D01*
X146895095Y-135636476D01*
X146799857Y-135684095D01*
%TO.C,R3*%
X139005333Y-116058380D02*
X138672000Y-115582190D01*
X138433904Y-116058380D02*
X138433904Y-115058380D01*
X138814857Y-115058380D01*
X138910095Y-115106000D01*
X138957714Y-115153619D01*
X139005333Y-115248857D01*
X139005333Y-115391714D01*
X138957714Y-115486952D01*
X138910095Y-115534571D01*
X138814857Y-115582190D01*
X138433904Y-115582190D01*
X139338666Y-115058380D02*
X139957714Y-115058380D01*
X139624380Y-115439333D01*
X139767238Y-115439333D01*
X139862476Y-115486952D01*
X139910095Y-115534571D01*
X139957714Y-115629809D01*
X139957714Y-115867904D01*
X139910095Y-115963142D01*
X139862476Y-116010761D01*
X139767238Y-116058380D01*
X139481523Y-116058380D01*
X139386285Y-116010761D01*
X139338666Y-115963142D01*
%TO.C,R1*%
X141839380Y-124372666D02*
X141363190Y-124706000D01*
X141839380Y-124944095D02*
X140839380Y-124944095D01*
X140839380Y-124563142D01*
X140887000Y-124467904D01*
X140934619Y-124420285D01*
X141029857Y-124372666D01*
X141172714Y-124372666D01*
X141267952Y-124420285D01*
X141315571Y-124467904D01*
X141363190Y-124563142D01*
X141363190Y-124944095D01*
X141839380Y-123420285D02*
X141839380Y-123991714D01*
X141839380Y-123706000D02*
X140839380Y-123706000D01*
X140982238Y-123801238D01*
X141077476Y-123896476D01*
X141125095Y-123991714D01*
%TO.C,J2*%
X147093666Y-115058380D02*
X147093666Y-115772666D01*
X147046047Y-115915523D01*
X146950809Y-116010761D01*
X146807952Y-116058380D01*
X146712714Y-116058380D01*
X147522238Y-115153619D02*
X147569857Y-115106000D01*
X147665095Y-115058380D01*
X147903190Y-115058380D01*
X147998428Y-115106000D01*
X148046047Y-115153619D01*
X148093666Y-115248857D01*
X148093666Y-115344095D01*
X148046047Y-115486952D01*
X147474619Y-116058380D01*
X148093666Y-116058380D01*
%TO.C,J1*%
X128754380Y-119459333D02*
X129468666Y-119459333D01*
X129611523Y-119506952D01*
X129706761Y-119602190D01*
X129754380Y-119745047D01*
X129754380Y-119840285D01*
X129754380Y-118459333D02*
X129754380Y-119030761D01*
X129754380Y-118745047D02*
X128754380Y-118745047D01*
X128897238Y-118840285D01*
X128992476Y-118935523D01*
X129040095Y-119030761D01*
%TO.C,C5*%
X129685333Y-130913142D02*
X129637714Y-130960761D01*
X129494857Y-131008380D01*
X129399619Y-131008380D01*
X129256761Y-130960761D01*
X129161523Y-130865523D01*
X129113904Y-130770285D01*
X129066285Y-130579809D01*
X129066285Y-130436952D01*
X129113904Y-130246476D01*
X129161523Y-130151238D01*
X129256761Y-130056000D01*
X129399619Y-130008380D01*
X129494857Y-130008380D01*
X129637714Y-130056000D01*
X129685333Y-130103619D01*
X130590095Y-130008380D02*
X130113904Y-130008380D01*
X130066285Y-130484571D01*
X130113904Y-130436952D01*
X130209142Y-130389333D01*
X130447238Y-130389333D01*
X130542476Y-130436952D01*
X130590095Y-130484571D01*
X130637714Y-130579809D01*
X130637714Y-130817904D01*
X130590095Y-130913142D01*
X130542476Y-130960761D01*
X130447238Y-131008380D01*
X130209142Y-131008380D01*
X130113904Y-130960761D01*
X130066285Y-130913142D01*
%TO.C,C4*%
X141545333Y-116998142D02*
X141497714Y-117045761D01*
X141354857Y-117093380D01*
X141259619Y-117093380D01*
X141116761Y-117045761D01*
X141021523Y-116950523D01*
X140973904Y-116855285D01*
X140926285Y-116664809D01*
X140926285Y-116521952D01*
X140973904Y-116331476D01*
X141021523Y-116236238D01*
X141116761Y-116141000D01*
X141259619Y-116093380D01*
X141354857Y-116093380D01*
X141497714Y-116141000D01*
X141545333Y-116188619D01*
X142402476Y-116426714D02*
X142402476Y-117093380D01*
X142164380Y-116045761D02*
X141926285Y-116760047D01*
X142545333Y-116760047D01*
%TO.C,C3*%
X135195333Y-116998142D02*
X135147714Y-117045761D01*
X135004857Y-117093380D01*
X134909619Y-117093380D01*
X134766761Y-117045761D01*
X134671523Y-116950523D01*
X134623904Y-116855285D01*
X134576285Y-116664809D01*
X134576285Y-116521952D01*
X134623904Y-116331476D01*
X134671523Y-116236238D01*
X134766761Y-116141000D01*
X134909619Y-116093380D01*
X135004857Y-116093380D01*
X135147714Y-116141000D01*
X135195333Y-116188619D01*
X135528666Y-116093380D02*
X136147714Y-116093380D01*
X135814380Y-116474333D01*
X135957238Y-116474333D01*
X136052476Y-116521952D01*
X136100095Y-116569571D01*
X136147714Y-116664809D01*
X136147714Y-116902904D01*
X136100095Y-116998142D01*
X136052476Y-117045761D01*
X135957238Y-117093380D01*
X135671523Y-117093380D01*
X135576285Y-117045761D01*
X135528666Y-116998142D01*
%TO.C,C2*%
X124924142Y-110402666D02*
X124971761Y-110450285D01*
X125019380Y-110593142D01*
X125019380Y-110688380D01*
X124971761Y-110831238D01*
X124876523Y-110926476D01*
X124781285Y-110974095D01*
X124590809Y-111021714D01*
X124447952Y-111021714D01*
X124257476Y-110974095D01*
X124162238Y-110926476D01*
X124067000Y-110831238D01*
X124019380Y-110688380D01*
X124019380Y-110593142D01*
X124067000Y-110450285D01*
X124114619Y-110402666D01*
X124114619Y-110021714D02*
X124067000Y-109974095D01*
X124019380Y-109878857D01*
X124019380Y-109640761D01*
X124067000Y-109545523D01*
X124114619Y-109497904D01*
X124209857Y-109450285D01*
X124305095Y-109450285D01*
X124447952Y-109497904D01*
X125019380Y-110069333D01*
X125019380Y-109450285D01*
%TO.C,C1*%
X130004142Y-110402666D02*
X130051761Y-110450285D01*
X130099380Y-110593142D01*
X130099380Y-110688380D01*
X130051761Y-110831238D01*
X129956523Y-110926476D01*
X129861285Y-110974095D01*
X129670809Y-111021714D01*
X129527952Y-111021714D01*
X129337476Y-110974095D01*
X129242238Y-110926476D01*
X129147000Y-110831238D01*
X129099380Y-110688380D01*
X129099380Y-110593142D01*
X129147000Y-110450285D01*
X129194619Y-110402666D01*
X130099380Y-109450285D02*
X130099380Y-110021714D01*
X130099380Y-109736000D02*
X129099380Y-109736000D01*
X129242238Y-109831238D01*
X129337476Y-109926476D01*
X129385095Y-110021714D01*
D11*
%TO.C,R6*%
X139917000Y-128836000D02*
X134617000Y-128836000D01*
X137737000Y-134256000D02*
X137737000Y-134856000D01*
X140207000Y-133826000D02*
X140207000Y-129826000D01*
X139917000Y-134856000D02*
X139917000Y-128836000D01*
X136797000Y-134856000D02*
X136797000Y-134256000D01*
X135997000Y-129836000D02*
X135997000Y-128836000D01*
X136247000Y-128836000D02*
X136247000Y-129836000D01*
X139337000Y-134256000D02*
X137737000Y-134256000D01*
X136797000Y-134256000D02*
X135197000Y-134256000D01*
X136247000Y-130366000D02*
X135997000Y-129836000D01*
X138537000Y-129836000D02*
X135997000Y-129836000D01*
X138537000Y-128836000D02*
X138537000Y-129836000D01*
X138287000Y-128836000D02*
X138287000Y-129836000D01*
X138537000Y-129836000D02*
X138287000Y-130366000D01*
X134617000Y-134856000D02*
X139917000Y-134856000D01*
X139337000Y-134856000D02*
X139337000Y-134256000D01*
X134617000Y-128836000D02*
X134617000Y-134856000D01*
X135197000Y-134256000D02*
X135197000Y-134856000D01*
X138287000Y-130366000D02*
X136247000Y-130366000D01*
%TO.C,R5*%
X124842000Y-132368936D02*
X124842000Y-133823064D01*
X123022000Y-132368936D02*
X123022000Y-133823064D01*
%TO.C,R4*%
X123204936Y-127106000D02*
X124659064Y-127106000D01*
X123204936Y-128926000D02*
X124659064Y-128926000D01*
%TO.C,R2*%
X131009064Y-128926000D02*
X129554936Y-128926000D01*
X131009064Y-127106000D02*
X129554936Y-127106000D01*
%TO.C,U1*%
X146792000Y-121646000D02*
X148742000Y-121646000D01*
X146792000Y-126766000D02*
X148742000Y-126766000D01*
X146792000Y-121646000D02*
X143342000Y-121646000D01*
X146792000Y-126766000D02*
X144842000Y-126766000D01*
%TO.C,RV1*%
X148697000Y-128836000D02*
X148697000Y-129836000D01*
X142237000Y-128836000D02*
X142237000Y-134856000D01*
X147897000Y-134256000D02*
X147897000Y-134856000D01*
X145357000Y-134256000D02*
X145357000Y-134856000D01*
X149497000Y-134856000D02*
X149497000Y-134256000D01*
X150077000Y-128836000D02*
X142237000Y-128836000D01*
X149497000Y-134256000D02*
X147897000Y-134256000D01*
X148447000Y-128836000D02*
X148447000Y-129836000D01*
X143867000Y-130366000D02*
X143617000Y-129836000D01*
X142237000Y-134856000D02*
X150077000Y-134856000D01*
X143867000Y-128836000D02*
X143867000Y-129836000D01*
X146957000Y-134856000D02*
X146957000Y-134256000D01*
X142817000Y-134256000D02*
X142817000Y-134856000D01*
X148447000Y-130366000D02*
X143867000Y-130366000D01*
X148697000Y-129836000D02*
X148447000Y-130366000D01*
X150077000Y-134856000D02*
X150077000Y-128836000D01*
X144417000Y-134856000D02*
X144417000Y-134256000D01*
X150367000Y-133826000D02*
X150367000Y-129826000D01*
X148697000Y-129836000D02*
X143617000Y-129836000D01*
X146957000Y-134256000D02*
X145357000Y-134256000D01*
X144417000Y-134256000D02*
X142817000Y-134256000D01*
X143617000Y-129836000D02*
X143617000Y-128836000D01*
%TO.C,R3*%
X140192000Y-110026000D02*
X138152000Y-110026000D01*
X137102000Y-113916000D02*
X137102000Y-114516000D01*
X136522000Y-108496000D02*
X136522000Y-114516000D01*
X141242000Y-114516000D02*
X141242000Y-113916000D01*
X136522000Y-114516000D02*
X141822000Y-114516000D01*
X140442000Y-109496000D02*
X140192000Y-110026000D01*
X140192000Y-108496000D02*
X140192000Y-109496000D01*
X140442000Y-108496000D02*
X140442000Y-109496000D01*
X140442000Y-109496000D02*
X137902000Y-109496000D01*
X138152000Y-110026000D02*
X137902000Y-109496000D01*
X138702000Y-113916000D02*
X137102000Y-113916000D01*
X141242000Y-113916000D02*
X139642000Y-113916000D01*
X138152000Y-108496000D02*
X138152000Y-109496000D01*
X137902000Y-109496000D02*
X137902000Y-108496000D01*
X138702000Y-114516000D02*
X138702000Y-113916000D01*
X141822000Y-114516000D02*
X141822000Y-108496000D01*
X142112000Y-113486000D02*
X142112000Y-109486000D01*
X139642000Y-113916000D02*
X139642000Y-114516000D01*
X141822000Y-108496000D02*
X136522000Y-108496000D01*
%TO.C,R1*%
X135807000Y-123186000D02*
X135807000Y-125226000D01*
X139697000Y-126276000D02*
X140297000Y-126276000D01*
X134277000Y-126856000D02*
X140297000Y-126856000D01*
X140297000Y-122136000D02*
X139697000Y-122136000D01*
X140297000Y-126856000D02*
X140297000Y-121556000D01*
X135277000Y-122936000D02*
X135807000Y-123186000D01*
X134277000Y-123186000D02*
X135277000Y-123186000D01*
X134277000Y-122936000D02*
X135277000Y-122936000D01*
X135277000Y-122936000D02*
X135277000Y-125476000D01*
X135807000Y-125226000D02*
X135277000Y-125476000D01*
X139697000Y-124676000D02*
X139697000Y-126276000D01*
X139697000Y-122136000D02*
X139697000Y-123736000D01*
X134277000Y-125226000D02*
X135277000Y-125226000D01*
X135277000Y-125476000D02*
X134277000Y-125476000D01*
X140297000Y-124676000D02*
X139697000Y-124676000D01*
X140297000Y-121556000D02*
X134277000Y-121556000D01*
X139267000Y-121266000D02*
X135267000Y-121266000D01*
X139697000Y-123736000D02*
X140297000Y-123736000D01*
X134277000Y-121556000D02*
X134277000Y-126856000D01*
%TO.C,J2*%
X148447000Y-110026000D02*
X146407000Y-110026000D01*
X145357000Y-113916000D02*
X145357000Y-114516000D01*
X144777000Y-108496000D02*
X144777000Y-114516000D01*
X149497000Y-114516000D02*
X149497000Y-113916000D01*
X144777000Y-114516000D02*
X150077000Y-114516000D01*
X148697000Y-109496000D02*
X148447000Y-110026000D01*
X148447000Y-108496000D02*
X148447000Y-109496000D01*
X148697000Y-108496000D02*
X148697000Y-109496000D01*
X148697000Y-109496000D02*
X146157000Y-109496000D01*
X146407000Y-110026000D02*
X146157000Y-109496000D01*
X146957000Y-113916000D02*
X145357000Y-113916000D01*
X149497000Y-113916000D02*
X147897000Y-113916000D01*
X146407000Y-108496000D02*
X146407000Y-109496000D01*
X146157000Y-109496000D02*
X146157000Y-108496000D01*
X146957000Y-114516000D02*
X146957000Y-113916000D01*
X150077000Y-114516000D02*
X150077000Y-108496000D01*
X150367000Y-113486000D02*
X150367000Y-109486000D01*
X147897000Y-113916000D02*
X147897000Y-114516000D01*
X150077000Y-108496000D02*
X144777000Y-108496000D01*
%TO.C,J1*%
X128212000Y-124316000D02*
X128212000Y-113936000D01*
X128212000Y-113936000D02*
X122192000Y-113936000D01*
X122192000Y-122686000D02*
X123192000Y-122686000D01*
X127612000Y-114516000D02*
X127612000Y-116116000D01*
X123722000Y-122686000D02*
X123192000Y-122936000D01*
X127612000Y-116116000D02*
X128212000Y-116116000D01*
X127612000Y-123736000D02*
X128212000Y-123736000D01*
X123192000Y-122936000D02*
X122192000Y-122936000D01*
X128212000Y-114516000D02*
X127612000Y-114516000D01*
X128212000Y-117056000D02*
X127612000Y-117056000D01*
X128212000Y-119596000D02*
X127612000Y-119596000D01*
X123192000Y-115316000D02*
X123192000Y-122936000D01*
X122192000Y-124316000D02*
X128212000Y-124316000D01*
X127612000Y-119596000D02*
X127612000Y-121196000D01*
X127612000Y-122136000D02*
X127612000Y-123736000D01*
X127182000Y-113646000D02*
X123182000Y-113646000D01*
X123192000Y-115316000D02*
X123722000Y-115566000D01*
X122192000Y-113936000D02*
X122192000Y-124316000D01*
X123722000Y-115566000D02*
X123722000Y-122686000D01*
X127612000Y-118656000D02*
X128212000Y-118656000D01*
X122192000Y-115566000D02*
X123192000Y-115566000D01*
X127612000Y-121196000D02*
X128212000Y-121196000D01*
X128212000Y-122136000D02*
X127612000Y-122136000D01*
X122192000Y-115316000D02*
X123192000Y-115316000D01*
X127612000Y-117056000D02*
X127612000Y-118656000D01*
%TO.C,C5*%
X130563252Y-133371000D02*
X129140748Y-133371000D01*
X130563252Y-131551000D02*
X129140748Y-131551000D01*
%TO.C,C4*%
X141000748Y-119401000D02*
X142423252Y-119401000D01*
X141000748Y-117581000D02*
X142423252Y-117581000D01*
%TO.C,C3*%
X134650748Y-119401000D02*
X136073252Y-119401000D01*
X134650748Y-117581000D02*
X136073252Y-117581000D01*
%TO.C,C2*%
X123572000Y-110947252D02*
X123572000Y-109524748D01*
X121752000Y-110947252D02*
X121752000Y-109524748D01*
%TO.C,C1*%
X126832000Y-110947252D02*
X126832000Y-109524748D01*
X128652000Y-110947252D02*
X128652000Y-109524748D01*
%TD*%
M02*
