%TF.GenerationSoftware,KiCad,Pcbnew,(6.0.1-0)*%
%TF.CreationDate,2023-01-23T11:43:19-05:00*%
%TF.ProjectId,Bias Coil Driver Full,42696173-2043-46f6-996c-204472697665,rev?*%
%TF.SameCoordinates,Original*%
%TF.FileFunction,Legend,Top*%
%TF.FilePolarity,Positive*%
%FSLAX46Y46*%
G04 Gerber Fmt 4.6, Leading zero omitted, Abs format (unit mm)*
G04 Created by KiCad (PCBNEW (6.0.1-0)) date 2023-01-23 11:43:19*
%MOMM*%
%LPD*%
G01*
G04 APERTURE LIST*
%ADD10C,0.150000*%
%ADD11C,0.120000*%
G04 APERTURE END LIST*
D10*
%TO.C,C1*%
X88233333Y-64062142D02*
X88185714Y-64109761D01*
X88042857Y-64157380D01*
X87947619Y-64157380D01*
X87804761Y-64109761D01*
X87709523Y-64014523D01*
X87661904Y-63919285D01*
X87614285Y-63728809D01*
X87614285Y-63585952D01*
X87661904Y-63395476D01*
X87709523Y-63300238D01*
X87804761Y-63205000D01*
X87947619Y-63157380D01*
X88042857Y-63157380D01*
X88185714Y-63205000D01*
X88233333Y-63252619D01*
X89185714Y-64157380D02*
X88614285Y-64157380D01*
X88900000Y-64157380D02*
X88900000Y-63157380D01*
X88804761Y-63300238D01*
X88709523Y-63395476D01*
X88614285Y-63443095D01*
%TO.C,C12*%
X87277142Y-74112142D02*
X87229523Y-74159761D01*
X87086666Y-74207380D01*
X86991428Y-74207380D01*
X86848571Y-74159761D01*
X86753333Y-74064523D01*
X86705714Y-73969285D01*
X86658095Y-73778809D01*
X86658095Y-73635952D01*
X86705714Y-73445476D01*
X86753333Y-73350238D01*
X86848571Y-73255000D01*
X86991428Y-73207380D01*
X87086666Y-73207380D01*
X87229523Y-73255000D01*
X87277142Y-73302619D01*
X88229523Y-74207380D02*
X87658095Y-74207380D01*
X87943809Y-74207380D02*
X87943809Y-73207380D01*
X87848571Y-73350238D01*
X87753333Y-73445476D01*
X87658095Y-73493095D01*
X88610476Y-73302619D02*
X88658095Y-73255000D01*
X88753333Y-73207380D01*
X88991428Y-73207380D01*
X89086666Y-73255000D01*
X89134285Y-73302619D01*
X89181904Y-73397857D01*
X89181904Y-73493095D01*
X89134285Y-73635952D01*
X88562857Y-74207380D01*
X89181904Y-74207380D01*
%TO.C,C11*%
X108977142Y-46662142D02*
X108929523Y-46709761D01*
X108786666Y-46757380D01*
X108691428Y-46757380D01*
X108548571Y-46709761D01*
X108453333Y-46614523D01*
X108405714Y-46519285D01*
X108358095Y-46328809D01*
X108358095Y-46185952D01*
X108405714Y-45995476D01*
X108453333Y-45900238D01*
X108548571Y-45805000D01*
X108691428Y-45757380D01*
X108786666Y-45757380D01*
X108929523Y-45805000D01*
X108977142Y-45852619D01*
X109929523Y-46757380D02*
X109358095Y-46757380D01*
X109643809Y-46757380D02*
X109643809Y-45757380D01*
X109548571Y-45900238D01*
X109453333Y-45995476D01*
X109358095Y-46043095D01*
X110881904Y-46757380D02*
X110310476Y-46757380D01*
X110596190Y-46757380D02*
X110596190Y-45757380D01*
X110500952Y-45900238D01*
X110405714Y-45995476D01*
X110310476Y-46043095D01*
%TO.C,C10*%
X93407142Y-64062142D02*
X93359523Y-64109761D01*
X93216666Y-64157380D01*
X93121428Y-64157380D01*
X92978571Y-64109761D01*
X92883333Y-64014523D01*
X92835714Y-63919285D01*
X92788095Y-63728809D01*
X92788095Y-63585952D01*
X92835714Y-63395476D01*
X92883333Y-63300238D01*
X92978571Y-63205000D01*
X93121428Y-63157380D01*
X93216666Y-63157380D01*
X93359523Y-63205000D01*
X93407142Y-63252619D01*
X94359523Y-64157380D02*
X93788095Y-64157380D01*
X94073809Y-64157380D02*
X94073809Y-63157380D01*
X93978571Y-63300238D01*
X93883333Y-63395476D01*
X93788095Y-63443095D01*
X94978571Y-63157380D02*
X95073809Y-63157380D01*
X95169047Y-63205000D01*
X95216666Y-63252619D01*
X95264285Y-63347857D01*
X95311904Y-63538333D01*
X95311904Y-63776428D01*
X95264285Y-63966904D01*
X95216666Y-64062142D01*
X95169047Y-64109761D01*
X95073809Y-64157380D01*
X94978571Y-64157380D01*
X94883333Y-64109761D01*
X94835714Y-64062142D01*
X94788095Y-63966904D01*
X94740476Y-63776428D01*
X94740476Y-63538333D01*
X94788095Y-63347857D01*
X94835714Y-63252619D01*
X94883333Y-63205000D01*
X94978571Y-63157380D01*
%TO.C,C9*%
X109453333Y-43312142D02*
X109405714Y-43359761D01*
X109262857Y-43407380D01*
X109167619Y-43407380D01*
X109024761Y-43359761D01*
X108929523Y-43264523D01*
X108881904Y-43169285D01*
X108834285Y-42978809D01*
X108834285Y-42835952D01*
X108881904Y-42645476D01*
X108929523Y-42550238D01*
X109024761Y-42455000D01*
X109167619Y-42407380D01*
X109262857Y-42407380D01*
X109405714Y-42455000D01*
X109453333Y-42502619D01*
X109929523Y-43407380D02*
X110120000Y-43407380D01*
X110215238Y-43359761D01*
X110262857Y-43312142D01*
X110358095Y-43169285D01*
X110405714Y-42978809D01*
X110405714Y-42597857D01*
X110358095Y-42502619D01*
X110310476Y-42455000D01*
X110215238Y-42407380D01*
X110024761Y-42407380D01*
X109929523Y-42455000D01*
X109881904Y-42502619D01*
X109834285Y-42597857D01*
X109834285Y-42835952D01*
X109881904Y-42931190D01*
X109929523Y-42978809D01*
X110024761Y-43026428D01*
X110215238Y-43026428D01*
X110310476Y-42978809D01*
X110358095Y-42931190D01*
X110405714Y-42835952D01*
%TO.C,C8*%
X88233333Y-67412142D02*
X88185714Y-67459761D01*
X88042857Y-67507380D01*
X87947619Y-67507380D01*
X87804761Y-67459761D01*
X87709523Y-67364523D01*
X87661904Y-67269285D01*
X87614285Y-67078809D01*
X87614285Y-66935952D01*
X87661904Y-66745476D01*
X87709523Y-66650238D01*
X87804761Y-66555000D01*
X87947619Y-66507380D01*
X88042857Y-66507380D01*
X88185714Y-66555000D01*
X88233333Y-66602619D01*
X88804761Y-66935952D02*
X88709523Y-66888333D01*
X88661904Y-66840714D01*
X88614285Y-66745476D01*
X88614285Y-66697857D01*
X88661904Y-66602619D01*
X88709523Y-66555000D01*
X88804761Y-66507380D01*
X88995238Y-66507380D01*
X89090476Y-66555000D01*
X89138095Y-66602619D01*
X89185714Y-66697857D01*
X89185714Y-66745476D01*
X89138095Y-66840714D01*
X89090476Y-66888333D01*
X88995238Y-66935952D01*
X88804761Y-66935952D01*
X88709523Y-66983571D01*
X88661904Y-67031190D01*
X88614285Y-67126428D01*
X88614285Y-67316904D01*
X88661904Y-67412142D01*
X88709523Y-67459761D01*
X88804761Y-67507380D01*
X88995238Y-67507380D01*
X89090476Y-67459761D01*
X89138095Y-67412142D01*
X89185714Y-67316904D01*
X89185714Y-67126428D01*
X89138095Y-67031190D01*
X89090476Y-66983571D01*
X88995238Y-66935952D01*
%TO.C,C7*%
X105433333Y-56212142D02*
X105385714Y-56259761D01*
X105242857Y-56307380D01*
X105147619Y-56307380D01*
X105004761Y-56259761D01*
X104909523Y-56164523D01*
X104861904Y-56069285D01*
X104814285Y-55878809D01*
X104814285Y-55735952D01*
X104861904Y-55545476D01*
X104909523Y-55450238D01*
X105004761Y-55355000D01*
X105147619Y-55307380D01*
X105242857Y-55307380D01*
X105385714Y-55355000D01*
X105433333Y-55402619D01*
X105766666Y-55307380D02*
X106433333Y-55307380D01*
X106004761Y-56307380D01*
%TO.C,C6*%
X87753333Y-70762142D02*
X87705714Y-70809761D01*
X87562857Y-70857380D01*
X87467619Y-70857380D01*
X87324761Y-70809761D01*
X87229523Y-70714523D01*
X87181904Y-70619285D01*
X87134285Y-70428809D01*
X87134285Y-70285952D01*
X87181904Y-70095476D01*
X87229523Y-70000238D01*
X87324761Y-69905000D01*
X87467619Y-69857380D01*
X87562857Y-69857380D01*
X87705714Y-69905000D01*
X87753333Y-69952619D01*
X88610476Y-69857380D02*
X88420000Y-69857380D01*
X88324761Y-69905000D01*
X88277142Y-69952619D01*
X88181904Y-70095476D01*
X88134285Y-70285952D01*
X88134285Y-70666904D01*
X88181904Y-70762142D01*
X88229523Y-70809761D01*
X88324761Y-70857380D01*
X88515238Y-70857380D01*
X88610476Y-70809761D01*
X88658095Y-70762142D01*
X88705714Y-70666904D01*
X88705714Y-70428809D01*
X88658095Y-70333571D01*
X88610476Y-70285952D01*
X88515238Y-70238333D01*
X88324761Y-70238333D01*
X88229523Y-70285952D01*
X88181904Y-70333571D01*
X88134285Y-70428809D01*
%TO.C,C5*%
X99783333Y-56212142D02*
X99735714Y-56259761D01*
X99592857Y-56307380D01*
X99497619Y-56307380D01*
X99354761Y-56259761D01*
X99259523Y-56164523D01*
X99211904Y-56069285D01*
X99164285Y-55878809D01*
X99164285Y-55735952D01*
X99211904Y-55545476D01*
X99259523Y-55450238D01*
X99354761Y-55355000D01*
X99497619Y-55307380D01*
X99592857Y-55307380D01*
X99735714Y-55355000D01*
X99783333Y-55402619D01*
X100688095Y-55307380D02*
X100211904Y-55307380D01*
X100164285Y-55783571D01*
X100211904Y-55735952D01*
X100307142Y-55688333D01*
X100545238Y-55688333D01*
X100640476Y-55735952D01*
X100688095Y-55783571D01*
X100735714Y-55878809D01*
X100735714Y-56116904D01*
X100688095Y-56212142D01*
X100640476Y-56259761D01*
X100545238Y-56307380D01*
X100307142Y-56307380D01*
X100211904Y-56259761D01*
X100164285Y-56212142D01*
%TO.C,C4*%
X109453333Y-50012142D02*
X109405714Y-50059761D01*
X109262857Y-50107380D01*
X109167619Y-50107380D01*
X109024761Y-50059761D01*
X108929523Y-49964523D01*
X108881904Y-49869285D01*
X108834285Y-49678809D01*
X108834285Y-49535952D01*
X108881904Y-49345476D01*
X108929523Y-49250238D01*
X109024761Y-49155000D01*
X109167619Y-49107380D01*
X109262857Y-49107380D01*
X109405714Y-49155000D01*
X109453333Y-49202619D01*
X110310476Y-49440714D02*
X110310476Y-50107380D01*
X110072380Y-49059761D02*
X109834285Y-49774047D01*
X110453333Y-49774047D01*
%TO.C,C3*%
X115103333Y-46662142D02*
X115055714Y-46709761D01*
X114912857Y-46757380D01*
X114817619Y-46757380D01*
X114674761Y-46709761D01*
X114579523Y-46614523D01*
X114531904Y-46519285D01*
X114484285Y-46328809D01*
X114484285Y-46185952D01*
X114531904Y-45995476D01*
X114579523Y-45900238D01*
X114674761Y-45805000D01*
X114817619Y-45757380D01*
X114912857Y-45757380D01*
X115055714Y-45805000D01*
X115103333Y-45852619D01*
X115436666Y-45757380D02*
X116055714Y-45757380D01*
X115722380Y-46138333D01*
X115865238Y-46138333D01*
X115960476Y-46185952D01*
X116008095Y-46233571D01*
X116055714Y-46328809D01*
X116055714Y-46566904D01*
X116008095Y-46662142D01*
X115960476Y-46709761D01*
X115865238Y-46757380D01*
X115579523Y-46757380D01*
X115484285Y-46709761D01*
X115436666Y-46662142D01*
%TO.C,C2*%
X93883333Y-67412142D02*
X93835714Y-67459761D01*
X93692857Y-67507380D01*
X93597619Y-67507380D01*
X93454761Y-67459761D01*
X93359523Y-67364523D01*
X93311904Y-67269285D01*
X93264285Y-67078809D01*
X93264285Y-66935952D01*
X93311904Y-66745476D01*
X93359523Y-66650238D01*
X93454761Y-66555000D01*
X93597619Y-66507380D01*
X93692857Y-66507380D01*
X93835714Y-66555000D01*
X93883333Y-66602619D01*
X94264285Y-66602619D02*
X94311904Y-66555000D01*
X94407142Y-66507380D01*
X94645238Y-66507380D01*
X94740476Y-66555000D01*
X94788095Y-66602619D01*
X94835714Y-66697857D01*
X94835714Y-66793095D01*
X94788095Y-66935952D01*
X94216666Y-67507380D01*
X94835714Y-67507380D01*
%TO.C,C13*%
X97907142Y-59562142D02*
X97859523Y-59609761D01*
X97716666Y-59657380D01*
X97621428Y-59657380D01*
X97478571Y-59609761D01*
X97383333Y-59514523D01*
X97335714Y-59419285D01*
X97288095Y-59228809D01*
X97288095Y-59085952D01*
X97335714Y-58895476D01*
X97383333Y-58800238D01*
X97478571Y-58705000D01*
X97621428Y-58657380D01*
X97716666Y-58657380D01*
X97859523Y-58705000D01*
X97907142Y-58752619D01*
X98859523Y-59657380D02*
X98288095Y-59657380D01*
X98573809Y-59657380D02*
X98573809Y-58657380D01*
X98478571Y-58800238D01*
X98383333Y-58895476D01*
X98288095Y-58943095D01*
X99192857Y-58657380D02*
X99811904Y-58657380D01*
X99478571Y-59038333D01*
X99621428Y-59038333D01*
X99716666Y-59085952D01*
X99764285Y-59133571D01*
X99811904Y-59228809D01*
X99811904Y-59466904D01*
X99764285Y-59562142D01*
X99716666Y-59609761D01*
X99621428Y-59657380D01*
X99335714Y-59657380D01*
X99240476Y-59609761D01*
X99192857Y-59562142D01*
%TO.C,C14*%
X114627142Y-43312142D02*
X114579523Y-43359761D01*
X114436666Y-43407380D01*
X114341428Y-43407380D01*
X114198571Y-43359761D01*
X114103333Y-43264523D01*
X114055714Y-43169285D01*
X114008095Y-42978809D01*
X114008095Y-42835952D01*
X114055714Y-42645476D01*
X114103333Y-42550238D01*
X114198571Y-42455000D01*
X114341428Y-42407380D01*
X114436666Y-42407380D01*
X114579523Y-42455000D01*
X114627142Y-42502619D01*
X115579523Y-43407380D02*
X115008095Y-43407380D01*
X115293809Y-43407380D02*
X115293809Y-42407380D01*
X115198571Y-42550238D01*
X115103333Y-42645476D01*
X115008095Y-42693095D01*
X116436666Y-42740714D02*
X116436666Y-43407380D01*
X116198571Y-42359761D02*
X115960476Y-43074047D01*
X116579523Y-43074047D01*
%TO.C,J2*%
X93176666Y-42407380D02*
X93176666Y-43121666D01*
X93129047Y-43264523D01*
X93033809Y-43359761D01*
X92890952Y-43407380D01*
X92795714Y-43407380D01*
X93605238Y-42502619D02*
X93652857Y-42455000D01*
X93748095Y-42407380D01*
X93986190Y-42407380D01*
X94081428Y-42455000D01*
X94129047Y-42502619D01*
X94176666Y-42597857D01*
X94176666Y-42693095D01*
X94129047Y-42835952D01*
X93557619Y-43407380D01*
X94176666Y-43407380D01*
%TO.C,J4*%
X71476666Y-68667380D02*
X71476666Y-69381666D01*
X71429047Y-69524523D01*
X71333809Y-69619761D01*
X71190952Y-69667380D01*
X71095714Y-69667380D01*
X72381428Y-69000714D02*
X72381428Y-69667380D01*
X72143333Y-68619761D02*
X71905238Y-69334047D01*
X72524285Y-69334047D01*
%TO.C,H3*%
X71288095Y-49317380D02*
X71288095Y-48317380D01*
X71288095Y-48793571D02*
X71859523Y-48793571D01*
X71859523Y-49317380D02*
X71859523Y-48317380D01*
X72240476Y-48317380D02*
X72859523Y-48317380D01*
X72526190Y-48698333D01*
X72669047Y-48698333D01*
X72764285Y-48745952D01*
X72811904Y-48793571D01*
X72859523Y-48888809D01*
X72859523Y-49126904D01*
X72811904Y-49222142D01*
X72764285Y-49269761D01*
X72669047Y-49317380D01*
X72383333Y-49317380D01*
X72288095Y-49269761D01*
X72240476Y-49222142D01*
%TO.C,H2*%
X82838095Y-43357380D02*
X82838095Y-42357380D01*
X82838095Y-42833571D02*
X83409523Y-42833571D01*
X83409523Y-43357380D02*
X83409523Y-42357380D01*
X83838095Y-42452619D02*
X83885714Y-42405000D01*
X83980952Y-42357380D01*
X84219047Y-42357380D01*
X84314285Y-42405000D01*
X84361904Y-42452619D01*
X84409523Y-42547857D01*
X84409523Y-42643095D01*
X84361904Y-42785952D01*
X83790476Y-43357380D01*
X84409523Y-43357380D01*
%TO.C,H1*%
X71288095Y-59467380D02*
X71288095Y-58467380D01*
X71288095Y-58943571D02*
X71859523Y-58943571D01*
X71859523Y-59467380D02*
X71859523Y-58467380D01*
X72859523Y-59467380D02*
X72288095Y-59467380D01*
X72573809Y-59467380D02*
X72573809Y-58467380D01*
X72478571Y-58610238D01*
X72383333Y-58705476D01*
X72288095Y-58753095D01*
%TO.C,H4*%
X81438095Y-53507380D02*
X81438095Y-52507380D01*
X81438095Y-52983571D02*
X82009523Y-52983571D01*
X82009523Y-53507380D02*
X82009523Y-52507380D01*
X82914285Y-52840714D02*
X82914285Y-53507380D01*
X82676190Y-52459761D02*
X82438095Y-53174047D01*
X83057142Y-53174047D01*
%TO.C,U1*%
X80588095Y-62707380D02*
X80588095Y-63516904D01*
X80635714Y-63612142D01*
X80683333Y-63659761D01*
X80778571Y-63707380D01*
X80969047Y-63707380D01*
X81064285Y-63659761D01*
X81111904Y-63612142D01*
X81159523Y-63516904D01*
X81159523Y-62707380D01*
X82159523Y-63707380D02*
X81588095Y-63707380D01*
X81873809Y-63707380D02*
X81873809Y-62707380D01*
X81778571Y-62850238D01*
X81683333Y-62945476D01*
X81588095Y-62993095D01*
%TO.C,U2*%
X90738095Y-56707380D02*
X90738095Y-57516904D01*
X90785714Y-57612142D01*
X90833333Y-57659761D01*
X90928571Y-57707380D01*
X91119047Y-57707380D01*
X91214285Y-57659761D01*
X91261904Y-57612142D01*
X91309523Y-57516904D01*
X91309523Y-56707380D01*
X91738095Y-56802619D02*
X91785714Y-56755000D01*
X91880952Y-56707380D01*
X92119047Y-56707380D01*
X92214285Y-56755000D01*
X92261904Y-56802619D01*
X92309523Y-56897857D01*
X92309523Y-56993095D01*
X92261904Y-57135952D01*
X91690476Y-57707380D01*
X92309523Y-57707380D01*
%TO.C,U3*%
X95758095Y-23357380D02*
X95758095Y-24166904D01*
X95805714Y-24262142D01*
X95853333Y-24309761D01*
X95948571Y-24357380D01*
X96139047Y-24357380D01*
X96234285Y-24309761D01*
X96281904Y-24262142D01*
X96329523Y-24166904D01*
X96329523Y-23357380D01*
X96710476Y-23357380D02*
X97329523Y-23357380D01*
X96996190Y-23738333D01*
X97139047Y-23738333D01*
X97234285Y-23785952D01*
X97281904Y-23833571D01*
X97329523Y-23928809D01*
X97329523Y-24166904D01*
X97281904Y-24262142D01*
X97234285Y-24309761D01*
X97139047Y-24357380D01*
X96853333Y-24357380D01*
X96758095Y-24309761D01*
X96710476Y-24262142D01*
%TO.C,U4*%
X80108095Y-69157380D02*
X80108095Y-69966904D01*
X80155714Y-70062142D01*
X80203333Y-70109761D01*
X80298571Y-70157380D01*
X80489047Y-70157380D01*
X80584285Y-70109761D01*
X80631904Y-70062142D01*
X80679523Y-69966904D01*
X80679523Y-69157380D01*
X81584285Y-69490714D02*
X81584285Y-70157380D01*
X81346190Y-69109761D02*
X81108095Y-69824047D01*
X81727142Y-69824047D01*
%TO.C,U5*%
X101808095Y-48857380D02*
X101808095Y-49666904D01*
X101855714Y-49762142D01*
X101903333Y-49809761D01*
X101998571Y-49857380D01*
X102189047Y-49857380D01*
X102284285Y-49809761D01*
X102331904Y-49762142D01*
X102379523Y-49666904D01*
X102379523Y-48857380D01*
X103331904Y-48857380D02*
X102855714Y-48857380D01*
X102808095Y-49333571D01*
X102855714Y-49285952D01*
X102950952Y-49238333D01*
X103189047Y-49238333D01*
X103284285Y-49285952D01*
X103331904Y-49333571D01*
X103379523Y-49428809D01*
X103379523Y-49666904D01*
X103331904Y-49762142D01*
X103284285Y-49809761D01*
X103189047Y-49857380D01*
X102950952Y-49857380D01*
X102855714Y-49809761D01*
X102808095Y-49762142D01*
%TO.C,U6*%
X92138095Y-50257380D02*
X92138095Y-51066904D01*
X92185714Y-51162142D01*
X92233333Y-51209761D01*
X92328571Y-51257380D01*
X92519047Y-51257380D01*
X92614285Y-51209761D01*
X92661904Y-51162142D01*
X92709523Y-51066904D01*
X92709523Y-50257380D01*
X93614285Y-50257380D02*
X93423809Y-50257380D01*
X93328571Y-50305000D01*
X93280952Y-50352619D01*
X93185714Y-50495476D01*
X93138095Y-50685952D01*
X93138095Y-51066904D01*
X93185714Y-51162142D01*
X93233333Y-51209761D01*
X93328571Y-51257380D01*
X93519047Y-51257380D01*
X93614285Y-51209761D01*
X93661904Y-51162142D01*
X93709523Y-51066904D01*
X93709523Y-50828809D01*
X93661904Y-50733571D01*
X93614285Y-50685952D01*
X93519047Y-50638333D01*
X93328571Y-50638333D01*
X93233333Y-50685952D01*
X93185714Y-50733571D01*
X93138095Y-50828809D01*
%TO.C,U8*%
X109038095Y-59137380D02*
X109038095Y-59946904D01*
X109085714Y-60042142D01*
X109133333Y-60089761D01*
X109228571Y-60137380D01*
X109419047Y-60137380D01*
X109514285Y-60089761D01*
X109561904Y-60042142D01*
X109609523Y-59946904D01*
X109609523Y-59137380D01*
X110228571Y-59565952D02*
X110133333Y-59518333D01*
X110085714Y-59470714D01*
X110038095Y-59375476D01*
X110038095Y-59327857D01*
X110085714Y-59232619D01*
X110133333Y-59185000D01*
X110228571Y-59137380D01*
X110419047Y-59137380D01*
X110514285Y-59185000D01*
X110561904Y-59232619D01*
X110609523Y-59327857D01*
X110609523Y-59375476D01*
X110561904Y-59470714D01*
X110514285Y-59518333D01*
X110419047Y-59565952D01*
X110228571Y-59565952D01*
X110133333Y-59613571D01*
X110085714Y-59661190D01*
X110038095Y-59756428D01*
X110038095Y-59946904D01*
X110085714Y-60042142D01*
X110133333Y-60089761D01*
X110228571Y-60137380D01*
X110419047Y-60137380D01*
X110514285Y-60089761D01*
X110561904Y-60042142D01*
X110609523Y-59946904D01*
X110609523Y-59756428D01*
X110561904Y-59661190D01*
X110514285Y-59613571D01*
X110419047Y-59565952D01*
%TO.C,U9*%
X71988095Y-42237380D02*
X71988095Y-43046904D01*
X72035714Y-43142142D01*
X72083333Y-43189761D01*
X72178571Y-43237380D01*
X72369047Y-43237380D01*
X72464285Y-43189761D01*
X72511904Y-43142142D01*
X72559523Y-43046904D01*
X72559523Y-42237380D01*
X73083333Y-43237380D02*
X73273809Y-43237380D01*
X73369047Y-43189761D01*
X73416666Y-43142142D01*
X73511904Y-42999285D01*
X73559523Y-42808809D01*
X73559523Y-42427857D01*
X73511904Y-42332619D01*
X73464285Y-42285000D01*
X73369047Y-42237380D01*
X73178571Y-42237380D01*
X73083333Y-42285000D01*
X73035714Y-42332619D01*
X72988095Y-42427857D01*
X72988095Y-42665952D01*
X73035714Y-42761190D01*
X73083333Y-42808809D01*
X73178571Y-42856428D01*
X73369047Y-42856428D01*
X73464285Y-42808809D01*
X73511904Y-42761190D01*
X73559523Y-42665952D01*
%TO.C,R1*%
X120733333Y-43407380D02*
X120400000Y-42931190D01*
X120161904Y-43407380D02*
X120161904Y-42407380D01*
X120542857Y-42407380D01*
X120638095Y-42455000D01*
X120685714Y-42502619D01*
X120733333Y-42597857D01*
X120733333Y-42740714D01*
X120685714Y-42835952D01*
X120638095Y-42883571D01*
X120542857Y-42931190D01*
X120161904Y-42931190D01*
X121685714Y-43407380D02*
X121114285Y-43407380D01*
X121400000Y-43407380D02*
X121400000Y-42407380D01*
X121304761Y-42550238D01*
X121209523Y-42645476D01*
X121114285Y-42693095D01*
%TO.C,R2*%
X93383333Y-70857380D02*
X93050000Y-70381190D01*
X92811904Y-70857380D02*
X92811904Y-69857380D01*
X93192857Y-69857380D01*
X93288095Y-69905000D01*
X93335714Y-69952619D01*
X93383333Y-70047857D01*
X93383333Y-70190714D01*
X93335714Y-70285952D01*
X93288095Y-70333571D01*
X93192857Y-70381190D01*
X92811904Y-70381190D01*
X93764285Y-69952619D02*
X93811904Y-69905000D01*
X93907142Y-69857380D01*
X94145238Y-69857380D01*
X94240476Y-69905000D01*
X94288095Y-69952619D01*
X94335714Y-70047857D01*
X94335714Y-70143095D01*
X94288095Y-70285952D01*
X93716666Y-70857380D01*
X94335714Y-70857380D01*
%TO.C,R3*%
X105123333Y-66237380D02*
X104790000Y-65761190D01*
X104551904Y-66237380D02*
X104551904Y-65237380D01*
X104932857Y-65237380D01*
X105028095Y-65285000D01*
X105075714Y-65332619D01*
X105123333Y-65427857D01*
X105123333Y-65570714D01*
X105075714Y-65665952D01*
X105028095Y-65713571D01*
X104932857Y-65761190D01*
X104551904Y-65761190D01*
X105456666Y-65237380D02*
X106075714Y-65237380D01*
X105742380Y-65618333D01*
X105885238Y-65618333D01*
X105980476Y-65665952D01*
X106028095Y-65713571D01*
X106075714Y-65808809D01*
X106075714Y-66046904D01*
X106028095Y-66142142D01*
X105980476Y-66189761D01*
X105885238Y-66237380D01*
X105599523Y-66237380D01*
X105504285Y-66189761D01*
X105456666Y-66142142D01*
%TO.C,R4*%
X104013333Y-59657380D02*
X103680000Y-59181190D01*
X103441904Y-59657380D02*
X103441904Y-58657380D01*
X103822857Y-58657380D01*
X103918095Y-58705000D01*
X103965714Y-58752619D01*
X104013333Y-58847857D01*
X104013333Y-58990714D01*
X103965714Y-59085952D01*
X103918095Y-59133571D01*
X103822857Y-59181190D01*
X103441904Y-59181190D01*
X104870476Y-58990714D02*
X104870476Y-59657380D01*
X104632380Y-58609761D02*
X104394285Y-59324047D01*
X105013333Y-59324047D01*
%TO.C,R5*%
X111063333Y-53457380D02*
X110730000Y-52981190D01*
X110491904Y-53457380D02*
X110491904Y-52457380D01*
X110872857Y-52457380D01*
X110968095Y-52505000D01*
X111015714Y-52552619D01*
X111063333Y-52647857D01*
X111063333Y-52790714D01*
X111015714Y-52885952D01*
X110968095Y-52933571D01*
X110872857Y-52981190D01*
X110491904Y-52981190D01*
X111968095Y-52457380D02*
X111491904Y-52457380D01*
X111444285Y-52933571D01*
X111491904Y-52885952D01*
X111587142Y-52838333D01*
X111825238Y-52838333D01*
X111920476Y-52885952D01*
X111968095Y-52933571D01*
X112015714Y-53028809D01*
X112015714Y-53266904D01*
X111968095Y-53362142D01*
X111920476Y-53409761D01*
X111825238Y-53457380D01*
X111587142Y-53457380D01*
X111491904Y-53409761D01*
X111444285Y-53362142D01*
%TO.C,R6*%
X93383333Y-74147380D02*
X93050000Y-73671190D01*
X92811904Y-74147380D02*
X92811904Y-73147380D01*
X93192857Y-73147380D01*
X93288095Y-73195000D01*
X93335714Y-73242619D01*
X93383333Y-73337857D01*
X93383333Y-73480714D01*
X93335714Y-73575952D01*
X93288095Y-73623571D01*
X93192857Y-73671190D01*
X92811904Y-73671190D01*
X94240476Y-73147380D02*
X94050000Y-73147380D01*
X93954761Y-73195000D01*
X93907142Y-73242619D01*
X93811904Y-73385476D01*
X93764285Y-73575952D01*
X93764285Y-73956904D01*
X93811904Y-74052142D01*
X93859523Y-74099761D01*
X93954761Y-74147380D01*
X94145238Y-74147380D01*
X94240476Y-74099761D01*
X94288095Y-74052142D01*
X94335714Y-73956904D01*
X94335714Y-73718809D01*
X94288095Y-73623571D01*
X94240476Y-73575952D01*
X94145238Y-73528333D01*
X93954761Y-73528333D01*
X93859523Y-73575952D01*
X93811904Y-73623571D01*
X93764285Y-73718809D01*
%TO.C,R7*%
X98993333Y-70857380D02*
X98660000Y-70381190D01*
X98421904Y-70857380D02*
X98421904Y-69857380D01*
X98802857Y-69857380D01*
X98898095Y-69905000D01*
X98945714Y-69952619D01*
X98993333Y-70047857D01*
X98993333Y-70190714D01*
X98945714Y-70285952D01*
X98898095Y-70333571D01*
X98802857Y-70381190D01*
X98421904Y-70381190D01*
X99326666Y-69857380D02*
X99993333Y-69857380D01*
X99564761Y-70857380D01*
%TO.C,R8*%
X105123333Y-62947380D02*
X104790000Y-62471190D01*
X104551904Y-62947380D02*
X104551904Y-61947380D01*
X104932857Y-61947380D01*
X105028095Y-61995000D01*
X105075714Y-62042619D01*
X105123333Y-62137857D01*
X105123333Y-62280714D01*
X105075714Y-62375952D01*
X105028095Y-62423571D01*
X104932857Y-62471190D01*
X104551904Y-62471190D01*
X105694761Y-62375952D02*
X105599523Y-62328333D01*
X105551904Y-62280714D01*
X105504285Y-62185476D01*
X105504285Y-62137857D01*
X105551904Y-62042619D01*
X105599523Y-61995000D01*
X105694761Y-61947380D01*
X105885238Y-61947380D01*
X105980476Y-61995000D01*
X106028095Y-62042619D01*
X106075714Y-62137857D01*
X106075714Y-62185476D01*
X106028095Y-62280714D01*
X105980476Y-62328333D01*
X105885238Y-62375952D01*
X105694761Y-62375952D01*
X105599523Y-62423571D01*
X105551904Y-62471190D01*
X105504285Y-62566428D01*
X105504285Y-62756904D01*
X105551904Y-62852142D01*
X105599523Y-62899761D01*
X105694761Y-62947380D01*
X105885238Y-62947380D01*
X105980476Y-62899761D01*
X106028095Y-62852142D01*
X106075714Y-62756904D01*
X106075714Y-62566428D01*
X106028095Y-62471190D01*
X105980476Y-62423571D01*
X105885238Y-62375952D01*
%TO.C,R9*%
X115083333Y-50107380D02*
X114750000Y-49631190D01*
X114511904Y-50107380D02*
X114511904Y-49107380D01*
X114892857Y-49107380D01*
X114988095Y-49155000D01*
X115035714Y-49202619D01*
X115083333Y-49297857D01*
X115083333Y-49440714D01*
X115035714Y-49535952D01*
X114988095Y-49583571D01*
X114892857Y-49631190D01*
X114511904Y-49631190D01*
X115559523Y-50107380D02*
X115750000Y-50107380D01*
X115845238Y-50059761D01*
X115892857Y-50012142D01*
X115988095Y-49869285D01*
X116035714Y-49678809D01*
X116035714Y-49297857D01*
X115988095Y-49202619D01*
X115940476Y-49155000D01*
X115845238Y-49107380D01*
X115654761Y-49107380D01*
X115559523Y-49155000D01*
X115511904Y-49202619D01*
X115464285Y-49297857D01*
X115464285Y-49535952D01*
X115511904Y-49631190D01*
X115559523Y-49678809D01*
X115654761Y-49726428D01*
X115845238Y-49726428D01*
X115940476Y-49678809D01*
X115988095Y-49631190D01*
X116035714Y-49535952D01*
%TO.C,R10*%
X120257142Y-46697380D02*
X119923809Y-46221190D01*
X119685714Y-46697380D02*
X119685714Y-45697380D01*
X120066666Y-45697380D01*
X120161904Y-45745000D01*
X120209523Y-45792619D01*
X120257142Y-45887857D01*
X120257142Y-46030714D01*
X120209523Y-46125952D01*
X120161904Y-46173571D01*
X120066666Y-46221190D01*
X119685714Y-46221190D01*
X121209523Y-46697380D02*
X120638095Y-46697380D01*
X120923809Y-46697380D02*
X120923809Y-45697380D01*
X120828571Y-45840238D01*
X120733333Y-45935476D01*
X120638095Y-45983095D01*
X121828571Y-45697380D02*
X121923809Y-45697380D01*
X122019047Y-45745000D01*
X122066666Y-45792619D01*
X122114285Y-45887857D01*
X122161904Y-46078333D01*
X122161904Y-46316428D01*
X122114285Y-46506904D01*
X122066666Y-46602142D01*
X122019047Y-46649761D01*
X121923809Y-46697380D01*
X121828571Y-46697380D01*
X121733333Y-46649761D01*
X121685714Y-46602142D01*
X121638095Y-46506904D01*
X121590476Y-46316428D01*
X121590476Y-46078333D01*
X121638095Y-45887857D01*
X121685714Y-45792619D01*
X121733333Y-45745000D01*
X121828571Y-45697380D01*
%TO.C,R11*%
X99037142Y-66297380D02*
X98703809Y-65821190D01*
X98465714Y-66297380D02*
X98465714Y-65297380D01*
X98846666Y-65297380D01*
X98941904Y-65345000D01*
X98989523Y-65392619D01*
X99037142Y-65487857D01*
X99037142Y-65630714D01*
X98989523Y-65725952D01*
X98941904Y-65773571D01*
X98846666Y-65821190D01*
X98465714Y-65821190D01*
X99989523Y-66297380D02*
X99418095Y-66297380D01*
X99703809Y-66297380D02*
X99703809Y-65297380D01*
X99608571Y-65440238D01*
X99513333Y-65535476D01*
X99418095Y-65583095D01*
X100941904Y-66297380D02*
X100370476Y-66297380D01*
X100656190Y-66297380D02*
X100656190Y-65297380D01*
X100560952Y-65440238D01*
X100465714Y-65535476D01*
X100370476Y-65583095D01*
%TO.C,R12*%
X110587142Y-56747380D02*
X110253809Y-56271190D01*
X110015714Y-56747380D02*
X110015714Y-55747380D01*
X110396666Y-55747380D01*
X110491904Y-55795000D01*
X110539523Y-55842619D01*
X110587142Y-55937857D01*
X110587142Y-56080714D01*
X110539523Y-56175952D01*
X110491904Y-56223571D01*
X110396666Y-56271190D01*
X110015714Y-56271190D01*
X111539523Y-56747380D02*
X110968095Y-56747380D01*
X111253809Y-56747380D02*
X111253809Y-55747380D01*
X111158571Y-55890238D01*
X111063333Y-55985476D01*
X110968095Y-56033095D01*
X111920476Y-55842619D02*
X111968095Y-55795000D01*
X112063333Y-55747380D01*
X112301428Y-55747380D01*
X112396666Y-55795000D01*
X112444285Y-55842619D01*
X112491904Y-55937857D01*
X112491904Y-56033095D01*
X112444285Y-56175952D01*
X111872857Y-56747380D01*
X112491904Y-56747380D01*
%TO.C,W1*%
X98775238Y-62007380D02*
X99013333Y-63007380D01*
X99203809Y-62293095D01*
X99394285Y-63007380D01*
X99632380Y-62007380D01*
X100537142Y-63007380D02*
X99965714Y-63007380D01*
X100251428Y-63007380D02*
X100251428Y-62007380D01*
X100156190Y-62150238D01*
X100060952Y-62245476D01*
X99965714Y-62293095D01*
%TO.C,J5*%
X125396666Y-42609380D02*
X125396666Y-43323666D01*
X125349047Y-43466523D01*
X125253809Y-43561761D01*
X125110952Y-43609380D01*
X125015714Y-43609380D01*
X126349047Y-42609380D02*
X125872857Y-42609380D01*
X125825238Y-43085571D01*
X125872857Y-43037952D01*
X125968095Y-42990333D01*
X126206190Y-42990333D01*
X126301428Y-43037952D01*
X126349047Y-43085571D01*
X126396666Y-43180809D01*
X126396666Y-43418904D01*
X126349047Y-43514142D01*
X126301428Y-43561761D01*
X126206190Y-43609380D01*
X125968095Y-43609380D01*
X125872857Y-43561761D01*
X125825238Y-43514142D01*
D11*
%TO.C,C1*%
X87688748Y-64645000D02*
X89111252Y-64645000D01*
X87688748Y-66465000D02*
X89111252Y-66465000D01*
%TO.C,C12*%
X87208748Y-74695000D02*
X88631252Y-74695000D01*
X87208748Y-76515000D02*
X88631252Y-76515000D01*
%TO.C,C11*%
X108908748Y-47245000D02*
X110331252Y-47245000D01*
X108908748Y-49065000D02*
X110331252Y-49065000D01*
%TO.C,C10*%
X93338748Y-64645000D02*
X94761252Y-64645000D01*
X93338748Y-66465000D02*
X94761252Y-66465000D01*
%TO.C,C9*%
X108908748Y-43895000D02*
X110331252Y-43895000D01*
X108908748Y-45715000D02*
X110331252Y-45715000D01*
%TO.C,C8*%
X87688748Y-67995000D02*
X89111252Y-67995000D01*
X87688748Y-69815000D02*
X89111252Y-69815000D01*
%TO.C,C7*%
X104888748Y-56795000D02*
X106311252Y-56795000D01*
X104888748Y-58615000D02*
X106311252Y-58615000D01*
%TO.C,C6*%
X87208748Y-71345000D02*
X88631252Y-71345000D01*
X87208748Y-73165000D02*
X88631252Y-73165000D01*
%TO.C,C5*%
X99238748Y-56795000D02*
X100661252Y-56795000D01*
X99238748Y-58615000D02*
X100661252Y-58615000D01*
%TO.C,C4*%
X108908748Y-50595000D02*
X110331252Y-50595000D01*
X108908748Y-52415000D02*
X110331252Y-52415000D01*
%TO.C,C3*%
X114558748Y-47245000D02*
X115981252Y-47245000D01*
X114558748Y-49065000D02*
X115981252Y-49065000D01*
%TO.C,C2*%
X93338748Y-67995000D02*
X94761252Y-67995000D01*
X93338748Y-69815000D02*
X94761252Y-69815000D01*
%TO.C,C13*%
X97838748Y-60145000D02*
X99261252Y-60145000D01*
X97838748Y-61965000D02*
X99261252Y-61965000D01*
%TO.C,C14*%
X114558748Y-43895000D02*
X115981252Y-43895000D01*
X114558748Y-45715000D02*
X115981252Y-45715000D01*
%TO.C,J2*%
X96050000Y-49065000D02*
X96050000Y-50065000D01*
X95250000Y-44645000D02*
X96850000Y-44645000D01*
X92710000Y-44645000D02*
X94310000Y-44645000D01*
X90970000Y-49065000D02*
X96050000Y-49065000D01*
X89300000Y-45075000D02*
X89300000Y-49075000D01*
X95250000Y-44045000D02*
X95250000Y-44645000D01*
X89590000Y-44045000D02*
X89590000Y-50065000D01*
X90970000Y-49065000D02*
X91220000Y-48535000D01*
X91220000Y-48535000D02*
X95800000Y-48535000D01*
X96850000Y-44645000D02*
X96850000Y-44045000D01*
X92710000Y-44045000D02*
X92710000Y-44645000D01*
X95800000Y-50065000D02*
X95800000Y-49065000D01*
X97430000Y-44045000D02*
X89590000Y-44045000D01*
X95800000Y-48535000D02*
X96050000Y-49065000D01*
X91220000Y-50065000D02*
X91220000Y-49065000D01*
X90170000Y-44645000D02*
X91770000Y-44645000D01*
X89590000Y-50065000D02*
X97430000Y-50065000D01*
X90170000Y-44045000D02*
X90170000Y-44645000D01*
X94310000Y-44645000D02*
X94310000Y-44045000D01*
X91770000Y-44645000D02*
X91770000Y-44045000D01*
X97430000Y-50065000D02*
X97430000Y-44045000D01*
X90970000Y-50065000D02*
X90970000Y-49065000D01*
%TO.C,J4*%
X74350000Y-75325000D02*
X74350000Y-76325000D01*
X73550000Y-70905000D02*
X75150000Y-70905000D01*
X71010000Y-70905000D02*
X72610000Y-70905000D01*
X69270000Y-75325000D02*
X74350000Y-75325000D01*
X67600000Y-71335000D02*
X67600000Y-75335000D01*
X73550000Y-70305000D02*
X73550000Y-70905000D01*
X67890000Y-70305000D02*
X67890000Y-76325000D01*
X69270000Y-75325000D02*
X69520000Y-74795000D01*
X69520000Y-74795000D02*
X74100000Y-74795000D01*
X75150000Y-70905000D02*
X75150000Y-70305000D01*
X71010000Y-70305000D02*
X71010000Y-70905000D01*
X74100000Y-76325000D02*
X74100000Y-75325000D01*
X75730000Y-70305000D02*
X67890000Y-70305000D01*
X74100000Y-74795000D02*
X74350000Y-75325000D01*
X69520000Y-76325000D02*
X69520000Y-75325000D01*
X68470000Y-70905000D02*
X70070000Y-70905000D01*
X67890000Y-76325000D02*
X75730000Y-76325000D01*
X68470000Y-70305000D02*
X68470000Y-70905000D01*
X72610000Y-70905000D02*
X72610000Y-70305000D01*
X70070000Y-70905000D02*
X70070000Y-70305000D01*
X75730000Y-76325000D02*
X75730000Y-70305000D01*
X69270000Y-76325000D02*
X69270000Y-75325000D01*
%TO.C,U1*%
X81350000Y-64095000D02*
X83300000Y-64095000D01*
X81350000Y-69215000D02*
X83300000Y-69215000D01*
X81350000Y-64095000D02*
X77900000Y-64095000D01*
X81350000Y-69215000D02*
X79400000Y-69215000D01*
%TO.C,U2*%
X91500000Y-58095000D02*
X93450000Y-58095000D01*
X91500000Y-63215000D02*
X93450000Y-63215000D01*
X91500000Y-58095000D02*
X88050000Y-58095000D01*
X91500000Y-63215000D02*
X89550000Y-63215000D01*
%TO.C,U3*%
X96520000Y-24745000D02*
X98470000Y-24745000D01*
X96520000Y-29865000D02*
X98470000Y-29865000D01*
X96520000Y-24745000D02*
X93070000Y-24745000D01*
X96520000Y-29865000D02*
X94570000Y-29865000D01*
%TO.C,U4*%
X80870000Y-70545000D02*
X82820000Y-70545000D01*
X80870000Y-75665000D02*
X82820000Y-75665000D01*
X80870000Y-70545000D02*
X77420000Y-70545000D01*
X80870000Y-75665000D02*
X78920000Y-75665000D01*
%TO.C,U5*%
X102570000Y-50245000D02*
X104520000Y-50245000D01*
X102570000Y-55365000D02*
X104520000Y-55365000D01*
X102570000Y-50245000D02*
X99120000Y-50245000D01*
X102570000Y-55365000D02*
X100620000Y-55365000D01*
%TO.C,U6*%
X92900000Y-51645000D02*
X94850000Y-51645000D01*
X92900000Y-56765000D02*
X94850000Y-56765000D01*
X92900000Y-51645000D02*
X89450000Y-51645000D01*
X92900000Y-56765000D02*
X90950000Y-56765000D01*
%TO.C,U8*%
X108900000Y-60485000D02*
X110450000Y-60485000D01*
X110450000Y-62285000D02*
X109150000Y-62285000D01*
%TO.C,U9*%
X67630000Y-43785000D02*
X77870000Y-43785000D01*
X70900000Y-43785000D02*
X70900000Y-45295000D01*
X74601000Y-43785000D02*
X74601000Y-45295000D01*
X67630000Y-43785000D02*
X67630000Y-48426000D01*
X67630000Y-48426000D02*
X77870000Y-48426000D01*
X77870000Y-43785000D02*
X77870000Y-48426000D01*
X67630000Y-45295000D02*
X77870000Y-45295000D01*
%TO.C,R1*%
X120172936Y-45685000D02*
X121627064Y-45685000D01*
X120172936Y-43865000D02*
X121627064Y-43865000D01*
%TO.C,R2*%
X92822936Y-73135000D02*
X94277064Y-73135000D01*
X92822936Y-71315000D02*
X94277064Y-71315000D01*
%TO.C,R3*%
X104562936Y-68515000D02*
X106017064Y-68515000D01*
X104562936Y-66695000D02*
X106017064Y-66695000D01*
%TO.C,R4*%
X103452936Y-61935000D02*
X104907064Y-61935000D01*
X103452936Y-60115000D02*
X104907064Y-60115000D01*
%TO.C,R5*%
X110502936Y-55735000D02*
X111957064Y-55735000D01*
X110502936Y-53915000D02*
X111957064Y-53915000D01*
%TO.C,R6*%
X92822936Y-76425000D02*
X94277064Y-76425000D01*
X92822936Y-74605000D02*
X94277064Y-74605000D01*
%TO.C,R7*%
X98432936Y-73135000D02*
X99887064Y-73135000D01*
X98432936Y-71315000D02*
X99887064Y-71315000D01*
%TO.C,R8*%
X104562936Y-65225000D02*
X106017064Y-65225000D01*
X104562936Y-63405000D02*
X106017064Y-63405000D01*
%TO.C,R9*%
X114522936Y-52385000D02*
X115977064Y-52385000D01*
X114522936Y-50565000D02*
X115977064Y-50565000D01*
%TO.C,R10*%
X120172936Y-48975000D02*
X121627064Y-48975000D01*
X120172936Y-47155000D02*
X121627064Y-47155000D01*
%TO.C,R11*%
X98952936Y-68575000D02*
X100407064Y-68575000D01*
X98952936Y-66755000D02*
X100407064Y-66755000D01*
%TO.C,R12*%
X110502936Y-59025000D02*
X111957064Y-59025000D01*
X110502936Y-57205000D02*
X111957064Y-57205000D01*
%TO.C,W1*%
X98952936Y-65285000D02*
X100407064Y-65285000D01*
X98952936Y-63465000D02*
X100407064Y-63465000D01*
%TO.C,J5*%
X126930000Y-46355000D02*
X124530000Y-46355000D01*
X124530000Y-46355000D02*
X124530000Y-43955000D01*
X124530000Y-43955000D02*
X126930000Y-43955000D01*
X126930000Y-43955000D02*
X126930000Y-46355000D01*
%TD*%
M02*
