%TF.GenerationSoftware,KiCad,Pcbnew,(6.0.1-0)*%
%TF.CreationDate,2023-01-23T11:43:19-05:00*%
%TF.ProjectId,Bias Coil Driver Full,42696173-2043-46f6-996c-204472697665,rev?*%
%TF.SameCoordinates,Original*%
%TF.FileFunction,Paste,Top*%
%TF.FilePolarity,Positive*%
%FSLAX46Y46*%
G04 Gerber Fmt 4.6, Leading zero omitted, Abs format (unit mm)*
G04 Created by KiCad (PCBNEW (6.0.1-0)) date 2023-01-23 11:43:19*
%MOMM*%
%LPD*%
G01*
G04 APERTURE LIST*
G04 Aperture macros list*
%AMRoundRect*
0 Rectangle with rounded corners*
0 $1 Rounding radius*
0 $2 $3 $4 $5 $6 $7 $8 $9 X,Y pos of 4 corners*
0 Add a 4 corners polygon primitive as box body*
4,1,4,$2,$3,$4,$5,$6,$7,$8,$9,$2,$3,0*
0 Add four circle primitives for the rounded corners*
1,1,$1+$1,$2,$3*
1,1,$1+$1,$4,$5*
1,1,$1+$1,$6,$7*
1,1,$1+$1,$8,$9*
0 Add four rect primitives between the rounded corners*
20,1,$1+$1,$2,$3,$4,$5,0*
20,1,$1+$1,$4,$5,$6,$7,0*
20,1,$1+$1,$6,$7,$8,$9,0*
20,1,$1+$1,$8,$9,$2,$3,0*%
G04 Aperture macros list end*
%ADD10RoundRect,0.250000X-0.325000X-0.650000X0.325000X-0.650000X0.325000X0.650000X-0.325000X0.650000X0*%
%ADD11RoundRect,0.150000X-0.825000X-0.150000X0.825000X-0.150000X0.825000X0.150000X-0.825000X0.150000X0*%
%ADD12R,0.450000X0.300000*%
%ADD13RoundRect,0.250000X-0.312500X-0.625000X0.312500X-0.625000X0.312500X0.625000X-0.312500X0.625000X0*%
G04 APERTURE END LIST*
D10*
%TO.C,C1*%
X86925000Y-65555000D03*
X89875000Y-65555000D03*
%TD*%
%TO.C,C12*%
X86445000Y-75605000D03*
X89395000Y-75605000D03*
%TD*%
%TO.C,C11*%
X108145000Y-48155000D03*
X111095000Y-48155000D03*
%TD*%
%TO.C,C10*%
X92575000Y-65555000D03*
X95525000Y-65555000D03*
%TD*%
%TO.C,C9*%
X108145000Y-44805000D03*
X111095000Y-44805000D03*
%TD*%
%TO.C,C8*%
X86925000Y-68905000D03*
X89875000Y-68905000D03*
%TD*%
%TO.C,C7*%
X104125000Y-57705000D03*
X107075000Y-57705000D03*
%TD*%
%TO.C,C6*%
X86445000Y-72255000D03*
X89395000Y-72255000D03*
%TD*%
%TO.C,C5*%
X98475000Y-57705000D03*
X101425000Y-57705000D03*
%TD*%
%TO.C,C4*%
X108145000Y-51505000D03*
X111095000Y-51505000D03*
%TD*%
%TO.C,C3*%
X113795000Y-48155000D03*
X116745000Y-48155000D03*
%TD*%
%TO.C,C2*%
X92575000Y-68905000D03*
X95525000Y-68905000D03*
%TD*%
%TO.C,C13*%
X97075000Y-61055000D03*
X100025000Y-61055000D03*
%TD*%
%TO.C,C14*%
X113795000Y-44805000D03*
X116745000Y-44805000D03*
%TD*%
D11*
%TO.C,U1*%
X78875000Y-64750000D03*
X78875000Y-66020000D03*
X78875000Y-67290000D03*
X78875000Y-68560000D03*
X83825000Y-68560000D03*
X83825000Y-67290000D03*
X83825000Y-66020000D03*
X83825000Y-64750000D03*
%TD*%
%TO.C,U2*%
X89025000Y-58750000D03*
X89025000Y-60020000D03*
X89025000Y-61290000D03*
X89025000Y-62560000D03*
X93975000Y-62560000D03*
X93975000Y-61290000D03*
X93975000Y-60020000D03*
X93975000Y-58750000D03*
%TD*%
%TO.C,U3*%
X94045000Y-25400000D03*
X94045000Y-26670000D03*
X94045000Y-27940000D03*
X94045000Y-29210000D03*
X98995000Y-29210000D03*
X98995000Y-27940000D03*
X98995000Y-26670000D03*
X98995000Y-25400000D03*
%TD*%
%TO.C,U4*%
X78395000Y-71200000D03*
X78395000Y-72470000D03*
X78395000Y-73740000D03*
X78395000Y-75010000D03*
X83345000Y-75010000D03*
X83345000Y-73740000D03*
X83345000Y-72470000D03*
X83345000Y-71200000D03*
%TD*%
%TO.C,U5*%
X100095000Y-50900000D03*
X100095000Y-52170000D03*
X100095000Y-53440000D03*
X100095000Y-54710000D03*
X105045000Y-54710000D03*
X105045000Y-53440000D03*
X105045000Y-52170000D03*
X105045000Y-50900000D03*
%TD*%
%TO.C,U6*%
X90425000Y-52300000D03*
X90425000Y-53570000D03*
X90425000Y-54840000D03*
X90425000Y-56110000D03*
X95375000Y-56110000D03*
X95375000Y-54840000D03*
X95375000Y-53570000D03*
X95375000Y-52300000D03*
%TD*%
D12*
%TO.C,U8*%
X109100000Y-60885000D03*
X109100000Y-61385000D03*
X109100000Y-61885000D03*
X110500000Y-61885000D03*
X110500000Y-60885000D03*
%TD*%
D13*
%TO.C,R1*%
X119437500Y-44775000D03*
X122362500Y-44775000D03*
%TD*%
%TO.C,R2*%
X92087500Y-72225000D03*
X95012500Y-72225000D03*
%TD*%
%TO.C,R3*%
X103827500Y-67605000D03*
X106752500Y-67605000D03*
%TD*%
%TO.C,R4*%
X102717500Y-61025000D03*
X105642500Y-61025000D03*
%TD*%
%TO.C,R5*%
X109767500Y-54825000D03*
X112692500Y-54825000D03*
%TD*%
%TO.C,R6*%
X92087500Y-75515000D03*
X95012500Y-75515000D03*
%TD*%
%TO.C,R7*%
X97697500Y-72225000D03*
X100622500Y-72225000D03*
%TD*%
%TO.C,R8*%
X103827500Y-64315000D03*
X106752500Y-64315000D03*
%TD*%
%TO.C,R9*%
X113787500Y-51475000D03*
X116712500Y-51475000D03*
%TD*%
%TO.C,R10*%
X119437500Y-48065000D03*
X122362500Y-48065000D03*
%TD*%
%TO.C,R11*%
X98217500Y-67665000D03*
X101142500Y-67665000D03*
%TD*%
%TO.C,R12*%
X109767500Y-58115000D03*
X112692500Y-58115000D03*
%TD*%
%TO.C,W1*%
X98217500Y-64375000D03*
X101142500Y-64375000D03*
%TD*%
M02*
