%TF.GenerationSoftware,KiCad,Pcbnew,(6.0.1-0)*%
%TF.CreationDate,2022-05-20T12:10:40-04:00*%
%TF.ProjectId,Summing Circuit V5,53756d6d-696e-4672-9043-697263756974,003*%
%TF.SameCoordinates,Original*%
%TF.FileFunction,Copper,L1,Top*%
%TF.FilePolarity,Positive*%
%FSLAX46Y46*%
G04 Gerber Fmt 4.6, Leading zero omitted, Abs format (unit mm)*
G04 Created by KiCad (PCBNEW (6.0.1-0)) date 2022-05-20 12:10:40*
%MOMM*%
%LPD*%
G01*
G04 APERTURE LIST*
G04 Aperture macros list*
%AMRoundRect*
0 Rectangle with rounded corners*
0 $1 Rounding radius*
0 $2 $3 $4 $5 $6 $7 $8 $9 X,Y pos of 4 corners*
0 Add a 4 corners polygon primitive as box body*
4,1,4,$2,$3,$4,$5,$6,$7,$8,$9,$2,$3,0*
0 Add four circle primitives for the rounded corners*
1,1,$1+$1,$2,$3*
1,1,$1+$1,$4,$5*
1,1,$1+$1,$6,$7*
1,1,$1+$1,$8,$9*
0 Add four rect primitives between the rounded corners*
20,1,$1+$1,$2,$3,$4,$5,0*
20,1,$1+$1,$4,$5,$6,$7,0*
20,1,$1+$1,$6,$7,$8,$9,0*
20,1,$1+$1,$8,$9,$2,$3,0*%
G04 Aperture macros list end*
%TA.AperFunction,SMDPad,CuDef*%
%ADD10RoundRect,0.250000X0.325000X0.650000X-0.325000X0.650000X-0.325000X-0.650000X0.325000X-0.650000X0*%
%TD*%
%TA.AperFunction,SMDPad,CuDef*%
%ADD11RoundRect,0.250000X-0.650000X0.325000X-0.650000X-0.325000X0.650000X-0.325000X0.650000X0.325000X0*%
%TD*%
%TA.AperFunction,SMDPad,CuDef*%
%ADD12RoundRect,0.250000X-0.312500X-0.625000X0.312500X-0.625000X0.312500X0.625000X-0.312500X0.625000X0*%
%TD*%
%TA.AperFunction,SMDPad,CuDef*%
%ADD13RoundRect,0.250000X-0.625000X0.312500X-0.625000X-0.312500X0.625000X-0.312500X0.625000X0.312500X0*%
%TD*%
%TA.AperFunction,SMDPad,CuDef*%
%ADD14RoundRect,0.250000X0.312500X0.625000X-0.312500X0.625000X-0.312500X-0.625000X0.312500X-0.625000X0*%
%TD*%
%TA.AperFunction,SMDPad,CuDef*%
%ADD15RoundRect,0.150000X-0.825000X-0.150000X0.825000X-0.150000X0.825000X0.150000X-0.825000X0.150000X0*%
%TD*%
%TA.AperFunction,ComponentPad*%
%ADD16RoundRect,0.250000X0.845000X-0.620000X0.845000X0.620000X-0.845000X0.620000X-0.845000X-0.620000X0*%
%TD*%
%TA.AperFunction,ComponentPad*%
%ADD17O,2.190000X1.740000*%
%TD*%
%TA.AperFunction,SMDPad,CuDef*%
%ADD18RoundRect,0.250000X0.625000X-0.312500X0.625000X0.312500X-0.625000X0.312500X-0.625000X-0.312500X0*%
%TD*%
%TA.AperFunction,ComponentPad*%
%ADD19RoundRect,0.250000X-0.845000X0.620000X-0.845000X-0.620000X0.845000X-0.620000X0.845000X0.620000X0*%
%TD*%
%TA.AperFunction,SMDPad,CuDef*%
%ADD20RoundRect,0.250000X0.650000X-0.325000X0.650000X0.325000X-0.650000X0.325000X-0.650000X-0.325000X0*%
%TD*%
%TA.AperFunction,SMDPad,CuDef*%
%ADD21R,2.000000X2.000000*%
%TD*%
%TA.AperFunction,SMDPad,CuDef*%
%ADD22RoundRect,0.250000X-0.325000X-0.650000X0.325000X-0.650000X0.325000X0.650000X-0.325000X0.650000X0*%
%TD*%
%TA.AperFunction,SMDPad,CuDef*%
%ADD23RoundRect,0.150000X0.825000X0.150000X-0.825000X0.150000X-0.825000X-0.150000X0.825000X-0.150000X0*%
%TD*%
%TA.AperFunction,ComponentPad*%
%ADD24RoundRect,0.250000X-0.620000X-0.845000X0.620000X-0.845000X0.620000X0.845000X-0.620000X0.845000X0*%
%TD*%
%TA.AperFunction,ComponentPad*%
%ADD25O,1.740000X2.190000*%
%TD*%
%TA.AperFunction,ViaPad*%
%ADD26C,0.762000*%
%TD*%
%TA.AperFunction,Conductor*%
%ADD27C,0.250000*%
%TD*%
%TA.AperFunction,Conductor*%
%ADD28C,0.635000*%
%TD*%
%TA.AperFunction,Conductor*%
%ADD29C,0.254000*%
%TD*%
G04 APERTURE END LIST*
D10*
%TO.P,C10,1*%
%TO.N,/To OPA549*%
X121109000Y-57531000D03*
%TO.P,C10,2*%
%TO.N,Net-(C10-Pad2)*%
X118159000Y-57531000D03*
%TD*%
%TO.P,C5,1*%
%TO.N,GND*%
X105361000Y-67183000D03*
%TO.P,C5,2*%
%TO.N,+15V*%
X102411000Y-67183000D03*
%TD*%
D11*
%TO.P,C9,1*%
%TO.N,Net-(C9-Pad1)*%
X107950000Y-80440000D03*
%TO.P,C9,2*%
%TO.N,GND*%
X107950000Y-83390000D03*
%TD*%
D10*
%TO.P,C8,1*%
%TO.N,GND*%
X97233000Y-82804000D03*
%TO.P,C8,2*%
%TO.N,-15V*%
X94283000Y-82804000D03*
%TD*%
D12*
%TO.P,R3,1*%
%TO.N,Net-(R3-Pad1)*%
X102423500Y-61595000D03*
%TO.P,R3,2*%
%TO.N,Net-(R3-Pad2)*%
X105348500Y-61595000D03*
%TD*%
D13*
%TO.P,W1,1*%
%TO.N,/GND_Coarse*%
X91186000Y-79121000D03*
%TO.P,W1,2*%
%TO.N,GND*%
X91186000Y-82046000D03*
%TD*%
D14*
%TO.P,R7,1*%
%TO.N,Net-(C10-Pad2)*%
X113476500Y-70993000D03*
%TO.P,R7,2*%
%TO.N,Net-(R2-Pad2)*%
X110551500Y-70993000D03*
%TD*%
D15*
%TO.P,U5,1,VOS*%
%TO.N,unconnected-(U5-Pad1)*%
X116905000Y-64389000D03*
%TO.P,U5,2,-*%
%TO.N,Net-(C10-Pad2)*%
X116905000Y-65659000D03*
%TO.P,U5,3,+*%
%TO.N,GND*%
X116905000Y-66929000D03*
%TO.P,U5,4,V-*%
%TO.N,-15V*%
X116905000Y-68199000D03*
%TO.P,U5,5,NC*%
%TO.N,unconnected-(U5-Pad5)*%
X121855000Y-68199000D03*
%TO.P,U5,6*%
%TO.N,/To OPA549*%
X121855000Y-66929000D03*
%TO.P,U5,7,V+*%
%TO.N,+15V*%
X121855000Y-65659000D03*
%TO.P,U5,8,VOS*%
%TO.N,unconnected-(U5-Pad8)*%
X121855000Y-64389000D03*
%TD*%
D16*
%TO.P,J7,1,Pin_1*%
%TO.N,/GND_AC Correction*%
X81935000Y-69850000D03*
D17*
%TO.P,J7,2,Pin_2*%
%TO.N,/SIG_AC Correction*%
X81935000Y-67310000D03*
%TD*%
D16*
%TO.P,J4,1,Pin_1*%
%TO.N,/Vin_RV*%
X89789000Y-90805000D03*
D17*
%TO.P,J4,2,Pin_2*%
%TO.N,/SIG_Coarse*%
X89789000Y-88265000D03*
%TO.P,J4,3,Pin_3*%
%TO.N,GND*%
X89789000Y-85725000D03*
%TD*%
D10*
%TO.P,C12,1*%
%TO.N,GND*%
X120855000Y-70612000D03*
%TO.P,C12,2*%
%TO.N,-15V*%
X117905000Y-70612000D03*
%TD*%
D18*
%TO.P,R9,1*%
%TO.N,Net-(C10-Pad2)*%
X115252500Y-57469500D03*
%TO.P,R9,2*%
%TO.N,/From Coil*%
X115252500Y-54544500D03*
%TD*%
D10*
%TO.P,C1,1*%
%TO.N,Net-(C1-Pad1)*%
X97614000Y-91313000D03*
%TO.P,C1,2*%
%TO.N,GND*%
X94664000Y-91313000D03*
%TD*%
D16*
%TO.P,J8,1,Pin_1*%
%TO.N,/GND_DC Correction*%
X81935000Y-63309500D03*
D17*
%TO.P,J8,2,Pin_2*%
%TO.N,/SIG_DC Correction*%
X81935000Y-60769500D03*
%TD*%
D18*
%TO.P,R12,1*%
%TO.N,Net-(C10-Pad2)*%
X111633000Y-57469500D03*
%TO.P,R12,2*%
%TO.N,Net-(R10-Pad2)*%
X111633000Y-54544500D03*
%TD*%
D13*
%TO.P,R11,1*%
%TO.N,Net-(R10-Pad2)*%
X107950000Y-53401500D03*
%TO.P,R11,2*%
%TO.N,GND*%
X107950000Y-56326500D03*
%TD*%
D15*
%TO.P,U6,1,REF*%
%TO.N,GND*%
X94299000Y-48387000D03*
%TO.P,U6,2,-*%
%TO.N,/SIG_DC Correction*%
X94299000Y-49657000D03*
%TO.P,U6,3,+*%
%TO.N,/GND_DC Correction*%
X94299000Y-50927000D03*
%TO.P,U6,4,V-*%
%TO.N,-15V*%
X94299000Y-52197000D03*
%TO.P,U6,5,SENSE*%
%TO.N,Net-(R10-Pad1)*%
X99249000Y-52197000D03*
%TO.P,U6,6*%
X99249000Y-50927000D03*
%TO.P,U6,7,V+*%
%TO.N,+15V*%
X99249000Y-49657000D03*
%TO.P,U6,8,NC*%
%TO.N,unconnected-(U6-Pad8)*%
X99249000Y-48387000D03*
%TD*%
D19*
%TO.P,J2,1,Pin_1*%
%TO.N,+15V*%
X122154000Y-76581000D03*
D17*
%TO.P,J2,2,Pin_2*%
%TO.N,GND*%
X122154000Y-79121000D03*
%TO.P,J2,3,Pin_3*%
%TO.N,-15V*%
X122154000Y-81661000D03*
%TD*%
D20*
%TO.P,C4,1*%
%TO.N,GND*%
X91186000Y-64594000D03*
%TO.P,C4,2*%
%TO.N,-15V*%
X91186000Y-61644000D03*
%TD*%
D21*
%TO.P,J5,1,Pin_1*%
%TO.N,GND*%
X116205000Y-89535000D03*
%TD*%
D22*
%TO.P,C2,1*%
%TO.N,+15V*%
X108318000Y-90043000D03*
%TO.P,C2,2*%
%TO.N,GND*%
X111268000Y-90043000D03*
%TD*%
D10*
%TO.P,C13,1*%
%TO.N,GND*%
X105361000Y-48514000D03*
%TO.P,C13,2*%
%TO.N,+15V*%
X102411000Y-48514000D03*
%TD*%
D20*
%TO.P,C6,1*%
%TO.N,GND*%
X91186000Y-73992000D03*
%TO.P,C6,2*%
%TO.N,-15V*%
X91186000Y-71042000D03*
%TD*%
D15*
%TO.P,U4,1,REF*%
%TO.N,GND*%
X94299000Y-57658000D03*
%TO.P,U4,2,-*%
%TO.N,/SIG_AC Correction*%
X94299000Y-58928000D03*
%TO.P,U4,3,+*%
%TO.N,/GND_AC Correction*%
X94299000Y-60198000D03*
%TO.P,U4,4,V-*%
%TO.N,-15V*%
X94299000Y-61468000D03*
%TO.P,U4,5,SENSE*%
%TO.N,Net-(R3-Pad1)*%
X99249000Y-61468000D03*
%TO.P,U4,6*%
X99249000Y-60198000D03*
%TO.P,U4,7,V+*%
%TO.N,+15V*%
X99249000Y-58928000D03*
%TO.P,U4,8,NC*%
%TO.N,unconnected-(U4-Pad8)*%
X99249000Y-57658000D03*
%TD*%
D23*
%TO.P,U1,1,NC*%
%TO.N,unconnected-(U1-Pad1)*%
X105156000Y-91186000D03*
%TO.P,U1,2,V+*%
%TO.N,+15V*%
X105156000Y-89916000D03*
%TO.P,U1,3,NC*%
%TO.N,unconnected-(U1-Pad3)*%
X105156000Y-88646000D03*
%TO.P,U1,4,GND*%
%TO.N,GND*%
X105156000Y-87376000D03*
%TO.P,U1,5,TRIM*%
%TO.N,unconnected-(U1-Pad5)*%
X100206000Y-87376000D03*
%TO.P,U1,6,VOUT*%
%TO.N,/Vin_RV*%
X100206000Y-88646000D03*
%TO.P,U1,7,NC*%
%TO.N,unconnected-(U1-Pad7)*%
X100206000Y-89916000D03*
%TO.P,U1,8,NR*%
%TO.N,Net-(C1-Pad1)*%
X100206000Y-91186000D03*
%TD*%
D12*
%TO.P,R2,1*%
%TO.N,Net-(R2-Pad1)*%
X102423500Y-70993000D03*
%TO.P,R2,2*%
%TO.N,Net-(R2-Pad2)*%
X105348500Y-70993000D03*
%TD*%
%TO.P,R10,1*%
%TO.N,Net-(R10-Pad1)*%
X102423500Y-52324000D03*
%TO.P,R10,2*%
%TO.N,Net-(R10-Pad2)*%
X105348500Y-52324000D03*
%TD*%
D14*
%TO.P,R6,1*%
%TO.N,Net-(C10-Pad2)*%
X113476500Y-80391000D03*
%TO.P,R6,2*%
%TO.N,Net-(C9-Pad1)*%
X110551500Y-80391000D03*
%TD*%
D16*
%TO.P,J1,1,Pin_1*%
%TO.N,/GND_Coarse*%
X81955000Y-82931000D03*
D17*
%TO.P,J1,2,Pin_2*%
%TO.N,/SIG_Coarse*%
X81955000Y-80391000D03*
%TD*%
D10*
%TO.P,C7,1*%
%TO.N,GND*%
X105361000Y-76581000D03*
%TO.P,C7,2*%
%TO.N,+15V*%
X102411000Y-76581000D03*
%TD*%
D13*
%TO.P,R5,1*%
%TO.N,Net-(R3-Pad2)*%
X107950000Y-61656500D03*
%TO.P,R5,2*%
%TO.N,GND*%
X107950000Y-64581500D03*
%TD*%
%TO.P,R4,1*%
%TO.N,Net-(R2-Pad2)*%
X107950000Y-71054500D03*
%TO.P,R4,2*%
%TO.N,GND*%
X107950000Y-73979500D03*
%TD*%
D15*
%TO.P,U3,1,REF*%
%TO.N,GND*%
X94299000Y-67056000D03*
%TO.P,U3,2,-*%
%TO.N,/SIG_Fine Tuning*%
X94299000Y-68326000D03*
%TO.P,U3,3,+*%
%TO.N,/GND_Fine Tuning*%
X94299000Y-69596000D03*
%TO.P,U3,4,V-*%
%TO.N,-15V*%
X94299000Y-70866000D03*
%TO.P,U3,5,SENSE*%
%TO.N,Net-(R2-Pad1)*%
X99249000Y-70866000D03*
%TO.P,U3,6*%
X99249000Y-69596000D03*
%TO.P,U3,7,V+*%
%TO.N,+15V*%
X99249000Y-68326000D03*
%TO.P,U3,8,NC*%
%TO.N,unconnected-(U3-Pad8)*%
X99249000Y-67056000D03*
%TD*%
D12*
%TO.P,R1,1*%
%TO.N,Net-(R1-Pad1)*%
X102423500Y-80391000D03*
%TO.P,R1,2*%
%TO.N,Net-(C9-Pad1)*%
X105348500Y-80391000D03*
%TD*%
D10*
%TO.P,C3,1*%
%TO.N,GND*%
X105361000Y-57785000D03*
%TO.P,C3,2*%
%TO.N,+15V*%
X102411000Y-57785000D03*
%TD*%
D24*
%TO.P,J3,1,Pin_1*%
%TO.N,/From Coil*%
X113411000Y-49149000D03*
D25*
%TO.P,J3,2,Pin_2*%
%TO.N,/To OPA549*%
X115951000Y-49149000D03*
%TD*%
D20*
%TO.P,C14,1*%
%TO.N,GND*%
X91186000Y-55323000D03*
%TO.P,C14,2*%
%TO.N,-15V*%
X91186000Y-52373000D03*
%TD*%
D16*
%TO.P,J9,1,Pin_1*%
%TO.N,GND*%
X81935000Y-56769000D03*
D17*
%TO.P,J9,2,Pin_2*%
%TO.N,/From Coil*%
X81935000Y-54229000D03*
%TD*%
D22*
%TO.P,C11,1*%
%TO.N,GND*%
X118159000Y-61976000D03*
%TO.P,C11,2*%
%TO.N,+15V*%
X121109000Y-61976000D03*
%TD*%
D15*
%TO.P,U2,1,REF*%
%TO.N,GND*%
X94299000Y-76454000D03*
%TO.P,U2,2,-*%
%TO.N,/SIG_Coarse*%
X94299000Y-77724000D03*
%TO.P,U2,3,+*%
%TO.N,/GND_Coarse*%
X94299000Y-78994000D03*
%TO.P,U2,4,V-*%
%TO.N,-15V*%
X94299000Y-80264000D03*
%TO.P,U2,5,SENSE*%
%TO.N,Net-(R1-Pad1)*%
X99249000Y-80264000D03*
%TO.P,U2,6*%
X99249000Y-78994000D03*
%TO.P,U2,7,V+*%
%TO.N,+15V*%
X99249000Y-77724000D03*
%TO.P,U2,8,NC*%
%TO.N,unconnected-(U2-Pad8)*%
X99249000Y-76454000D03*
%TD*%
D14*
%TO.P,R8,1*%
%TO.N,Net-(C10-Pad2)*%
X113476500Y-65405000D03*
%TO.P,R8,2*%
%TO.N,Net-(R3-Pad2)*%
X110551500Y-65405000D03*
%TD*%
D16*
%TO.P,J6,1,Pin_1*%
%TO.N,/GND_Fine Tuning*%
X81935000Y-76390500D03*
D17*
%TO.P,J6,2,Pin_2*%
%TO.N,/SIG_Fine Tuning*%
X81935000Y-73850500D03*
%TD*%
D26*
%TO.N,GND*%
X107950000Y-84963000D03*
X96139000Y-76454000D03*
X96139000Y-57658000D03*
X98679000Y-82804000D03*
X114300000Y-89535000D03*
X118745000Y-66929000D03*
X116713000Y-61976000D03*
X122301000Y-70612000D03*
X106807000Y-48514000D03*
X107950000Y-57658000D03*
X93218000Y-91313000D03*
X107950000Y-75311000D03*
X96139000Y-48387000D03*
X106807000Y-57785000D03*
X91186000Y-56769000D03*
X91186000Y-83439000D03*
X107950000Y-65913000D03*
X107061000Y-76581000D03*
X103378000Y-87376000D03*
X96139000Y-67056000D03*
X91186000Y-66040000D03*
X91186000Y-75438000D03*
X112776000Y-90043000D03*
X106680000Y-67183000D03*
%TO.N,-15V*%
X96139000Y-61468000D03*
X96139000Y-70866000D03*
X117983000Y-72517000D03*
X96139000Y-52324000D03*
X94361000Y-84582000D03*
%TO.N,+15V*%
X103886000Y-48514000D03*
X109220000Y-88265000D03*
X103886000Y-76581000D03*
X122682000Y-61976000D03*
X103886000Y-67183000D03*
X103886000Y-57785000D03*
%TD*%
D27*
%TO.N,Net-(C1-Pad1)*%
X97614000Y-91313000D02*
X97741000Y-91186000D01*
X97741000Y-91186000D02*
X100206000Y-91186000D01*
D28*
%TO.N,+15V*%
X108318000Y-90043000D02*
X108191000Y-89916000D01*
X108191000Y-89916000D02*
X105156000Y-89916000D01*
X109220000Y-88265000D02*
X108839000Y-88265000D01*
X108839000Y-88265000D02*
X108318000Y-88786000D01*
X108318000Y-88786000D02*
X108318000Y-90043000D01*
D29*
%TO.N,/To OPA549*%
X121855000Y-66929000D02*
X123317000Y-66929000D01*
X124206000Y-60628000D02*
X121109000Y-57531000D01*
X123317000Y-66929000D02*
X124206000Y-66040000D01*
X124206000Y-66040000D02*
X124206000Y-60628000D01*
X121109000Y-57531000D02*
X121109000Y-54307000D01*
X121109000Y-54307000D02*
X115951000Y-49149000D01*
D27*
%TO.N,Net-(C10-Pad2)*%
X118097500Y-57469500D02*
X118159000Y-57531000D01*
X115252500Y-57469500D02*
X118097500Y-57469500D01*
D28*
%TO.N,+15V*%
X121109000Y-61976000D02*
X122682000Y-61976000D01*
X121109000Y-61976000D02*
X120142000Y-62943000D01*
X120142000Y-62943000D02*
X120142000Y-65024000D01*
X120142000Y-65024000D02*
X120777000Y-65659000D01*
X120777000Y-65659000D02*
X121855000Y-65659000D01*
X103886000Y-76581000D02*
X102411000Y-76581000D01*
%TO.N,-15V*%
X96012000Y-52197000D02*
X96139000Y-52324000D01*
X94299000Y-52197000D02*
X96012000Y-52197000D01*
%TO.N,+15V*%
X103886000Y-67183000D02*
X102411000Y-67183000D01*
X103886000Y-57785000D02*
X102411000Y-57785000D01*
X103886000Y-48514000D02*
X102411000Y-48514000D01*
D27*
%TO.N,/GND_Coarse*%
X81955000Y-82891000D02*
X85725000Y-79121000D01*
X85725000Y-79121000D02*
X91186000Y-79121000D01*
X91186000Y-79121000D02*
X94172000Y-79121000D01*
D28*
%TO.N,GND*%
X91186000Y-55323000D02*
X91186000Y-56769000D01*
X118159000Y-61976000D02*
X116713000Y-61976000D01*
X105156000Y-87376000D02*
X103378000Y-87376000D01*
X94299000Y-76454000D02*
X96139000Y-76454000D01*
X116905000Y-66929000D02*
X118745000Y-66929000D01*
X107950000Y-83390000D02*
X107950000Y-84963000D01*
X107950000Y-64581500D02*
X107950000Y-65913000D01*
X106934000Y-76581000D02*
X107061000Y-76581000D01*
X91186000Y-64594000D02*
X91186000Y-66040000D01*
X116205000Y-89535000D02*
X114300000Y-89535000D01*
X94299000Y-57658000D02*
X96139000Y-57658000D01*
X120855000Y-70612000D02*
X122301000Y-70612000D01*
X94664000Y-91313000D02*
X93218000Y-91313000D01*
X94299000Y-48387000D02*
X96139000Y-48387000D01*
X107950000Y-56326500D02*
X107950000Y-57658000D01*
X94299000Y-67056000D02*
X96139000Y-67056000D01*
X91186000Y-73992000D02*
X91186000Y-75438000D01*
X111268000Y-90043000D02*
X112776000Y-90043000D01*
X105361000Y-76581000D02*
X106934000Y-76581000D01*
X91186000Y-82046000D02*
X91186000Y-83439000D01*
X97233000Y-82804000D02*
X98679000Y-82804000D01*
X105361000Y-48514000D02*
X106807000Y-48514000D01*
X105361000Y-57785000D02*
X106807000Y-57785000D01*
X105361000Y-67183000D02*
X106680000Y-67183000D01*
X107950000Y-73979500D02*
X107950000Y-75311000D01*
D27*
%TO.N,Net-(R10-Pad2)*%
X106426000Y-53401500D02*
X105348500Y-52324000D01*
X110490000Y-53401500D02*
X111633000Y-54544500D01*
X107950000Y-53401500D02*
X106426000Y-53401500D01*
X107950000Y-53401500D02*
X110490000Y-53401500D01*
%TO.N,/From Coil*%
X113411000Y-49403000D02*
X115316000Y-51308000D01*
X81935000Y-54229000D02*
X90825000Y-45339000D01*
X115316000Y-51308000D02*
X115316000Y-54481000D01*
X109474000Y-45339000D02*
X113284000Y-49149000D01*
X90825000Y-45339000D02*
X109474000Y-45339000D01*
%TO.N,Net-(R10-Pad1)*%
X99249000Y-52197000D02*
X102296500Y-52197000D01*
X99249000Y-50927000D02*
X99249000Y-52197000D01*
%TO.N,/SIG_DC Correction*%
X81935000Y-60769500D02*
X83629500Y-60769500D01*
X83629500Y-60769500D02*
X87376000Y-57023000D01*
X87376000Y-57023000D02*
X87376000Y-51816000D01*
X87376000Y-51816000D02*
X89535000Y-49657000D01*
X89535000Y-49657000D02*
X94299000Y-49657000D01*
%TO.N,/GND_DC Correction*%
X90424000Y-50927000D02*
X94299000Y-50927000D01*
X81935000Y-63309500D02*
X83502500Y-63309500D01*
X89027000Y-52324000D02*
X90424000Y-50927000D01*
X89027000Y-57785000D02*
X89027000Y-52324000D01*
X83502500Y-63309500D02*
X89027000Y-57785000D01*
%TO.N,/GND_AC Correction*%
X84201000Y-66421000D02*
X90424000Y-60198000D01*
X90424000Y-60198000D02*
X94299000Y-60198000D01*
X82804000Y-69850000D02*
X84201000Y-68453000D01*
X84201000Y-68453000D02*
X84201000Y-66421000D01*
D29*
%TO.N,Net-(R1-Pad1)*%
X99249000Y-78994000D02*
X99249000Y-80264000D01*
X99249000Y-80264000D02*
X102296500Y-80264000D01*
D27*
%TO.N,/SIG_AC Correction*%
X81935000Y-67310000D02*
X90317000Y-58928000D01*
X90317000Y-58928000D02*
X94299000Y-58928000D01*
D28*
%TO.N,-15V*%
X117905000Y-72439000D02*
X117905000Y-70612000D01*
X94123000Y-52373000D02*
X94299000Y-52197000D01*
X117983000Y-72517000D02*
X117905000Y-72439000D01*
X117905000Y-69199000D02*
X117905000Y-70612000D01*
X116905000Y-68199000D02*
X117905000Y-69199000D01*
X94123000Y-61644000D02*
X94299000Y-61468000D01*
X94299000Y-70866000D02*
X96139000Y-70866000D01*
X94283000Y-82804000D02*
X94283000Y-84504000D01*
X94299000Y-61468000D02*
X96139000Y-61468000D01*
X91186000Y-52373000D02*
X94123000Y-52373000D01*
X91186000Y-71042000D02*
X94123000Y-71042000D01*
X94123000Y-71042000D02*
X94299000Y-70866000D01*
X94283000Y-82804000D02*
X94283000Y-80280000D01*
X91186000Y-61644000D02*
X94123000Y-61644000D01*
X94283000Y-84504000D02*
X94361000Y-84582000D01*
%TO.N,+15V*%
X101268000Y-49657000D02*
X99249000Y-49657000D01*
X99249000Y-68326000D02*
X101268000Y-68326000D01*
X101268000Y-58928000D02*
X102411000Y-57785000D01*
X99249000Y-77724000D02*
X101268000Y-77724000D01*
X99249000Y-58928000D02*
X101268000Y-58928000D01*
X102411000Y-48514000D02*
X101268000Y-49657000D01*
X101268000Y-77724000D02*
X102411000Y-76581000D01*
X101268000Y-68326000D02*
X102411000Y-67183000D01*
D27*
%TO.N,/SIG_Fine Tuning*%
X87503000Y-68326000D02*
X94299000Y-68326000D01*
X81978500Y-73850500D02*
X87503000Y-68326000D01*
%TO.N,/GND_Fine Tuning*%
X88497250Y-69596000D02*
X94299000Y-69596000D01*
X81935000Y-76158250D02*
X88497250Y-69596000D01*
%TO.N,/SIG_Coarse*%
X95885000Y-78359000D02*
X95250000Y-77724000D01*
X95250000Y-77724000D02*
X94299000Y-77724000D01*
X81955000Y-80391000D02*
X84622000Y-77724000D01*
X90424000Y-87630000D02*
X92710000Y-87630000D01*
X84622000Y-77724000D02*
X94299000Y-77724000D01*
X92710000Y-87630000D02*
X95885000Y-84455000D01*
X95885000Y-84455000D02*
X95885000Y-78359000D01*
X89789000Y-88265000D02*
X90424000Y-87630000D01*
%TO.N,/Vin_RV*%
X100206000Y-88646000D02*
X91948000Y-88646000D01*
X91948000Y-88646000D02*
X89789000Y-90805000D01*
D29*
%TO.N,Net-(R3-Pad2)*%
X105348500Y-61595000D02*
X107888500Y-61595000D01*
X110551500Y-62926500D02*
X110551500Y-65405000D01*
X109281500Y-61656500D02*
X110551500Y-62926500D01*
X107950000Y-61656500D02*
X109281500Y-61656500D01*
%TO.N,Net-(R3-Pad1)*%
X99249000Y-60198000D02*
X99249000Y-61468000D01*
X99249000Y-61468000D02*
X102296500Y-61468000D01*
%TO.N,Net-(R2-Pad2)*%
X110551500Y-70993000D02*
X108011500Y-70993000D01*
X105348500Y-70993000D02*
X107888500Y-70993000D01*
%TO.N,Net-(R2-Pad1)*%
X99249000Y-70866000D02*
X102296500Y-70866000D01*
X99249000Y-69596000D02*
X99249000Y-70866000D01*
%TO.N,Net-(C9-Pad1)*%
X110551500Y-80391000D02*
X107999000Y-80391000D01*
X105348500Y-80391000D02*
X107901000Y-80391000D01*
%TO.N,Net-(C10-Pad2)*%
X113349500Y-65659000D02*
X116905000Y-65659000D01*
X113476500Y-80391000D02*
X113476500Y-70993000D01*
D27*
X111633000Y-59690000D02*
X113538000Y-61595000D01*
X111633000Y-57469500D02*
X115252500Y-57469500D01*
X113538000Y-61595000D02*
X113538000Y-65343500D01*
X111633000Y-57469500D02*
X111633000Y-59690000D01*
D29*
X113476500Y-65405000D02*
X113476500Y-70993000D01*
%TD*%
M02*
