M48
; DRILL file {KiCad (6.0.1-0)} date Friday, May 20, 2022 at 12:12:21 PM
; FORMAT={-:-/ absolute / inch / decimal}
; #@! TF.CreationDate,2022-05-20T12:12:21-04:00
; #@! TF.GenerationSoftware,Kicad,Pcbnew,(6.0.1-0)
; #@! TF.FileFunction,MixedPlating,1,4
FMAT,2
INCH
; #@! TA.AperFunction,Plated,PTH,ViaDrill
T1C0.0150
; #@! TA.AperFunction,Plated,PTH,ComponentDrill
T2C0.0469
; #@! TA.AperFunction,NonPlated,NPTH,ComponentDrill
T3C0.1693
%
G90
G05
T1
X3.59Y-2.235
X3.59Y-2.6
X3.59Y-2.97
X3.59Y-3.285
X3.67Y-3.595
X3.715Y-3.33
X3.785Y-1.905
X3.785Y-2.06
X3.785Y-2.27
X3.785Y-2.42
X3.785Y-2.64
X3.785Y-2.79
X3.785Y-3.01
X3.885Y-3.26
X4.07Y-3.44
X4.09Y-1.91
X4.09Y-2.275
X4.09Y-2.645
X4.09Y-3.015
X4.2Y-2.645
X4.205Y-1.91
X4.205Y-2.275
X4.215Y-3.015
X4.25Y-2.27
X4.25Y-2.595
X4.25Y-2.965
X4.25Y-3.345
X4.3Y-3.475
X4.44Y-3.545
X4.5Y-3.525
X4.595Y-2.44
X4.645Y-2.855
X4.675Y-2.635
X4.815Y-2.78
X4.83Y-2.44
T2
X3.2258Y-2.135
X3.2258Y-2.235
X3.2258Y-2.3925
X3.2258Y-2.4925
X3.2258Y-2.65
X3.2258Y-2.75
X3.2258Y-2.9075
X3.2258Y-3.0075
X3.2266Y-3.165
X3.2266Y-3.265
X3.535Y-3.375
X3.535Y-3.475
X3.535Y-3.575
X4.465Y-1.935
X4.565Y-1.935
X4.8092Y-3.015
X4.8092Y-3.115
X4.8092Y-3.215
T3
X3.18Y-1.88
X3.18Y-3.52
X4.82Y-1.88
X4.82Y-3.52
T0
M30
