%TF.GenerationSoftware,KiCad,Pcbnew,(6.0.1-0)*%
%TF.CreationDate,2022-05-20T12:10:40-04:00*%
%TF.ProjectId,Summing Circuit V5,53756d6d-696e-4672-9043-697263756974,003*%
%TF.SameCoordinates,Original*%
%TF.FileFunction,Copper,L3,Inr*%
%TF.FilePolarity,Positive*%
%FSLAX46Y46*%
G04 Gerber Fmt 4.6, Leading zero omitted, Abs format (unit mm)*
G04 Created by KiCad (PCBNEW (6.0.1-0)) date 2022-05-20 12:10:40*
%MOMM*%
%LPD*%
G01*
G04 APERTURE LIST*
G04 Aperture macros list*
%AMRoundRect*
0 Rectangle with rounded corners*
0 $1 Rounding radius*
0 $2 $3 $4 $5 $6 $7 $8 $9 X,Y pos of 4 corners*
0 Add a 4 corners polygon primitive as box body*
4,1,4,$2,$3,$4,$5,$6,$7,$8,$9,$2,$3,0*
0 Add four circle primitives for the rounded corners*
1,1,$1+$1,$2,$3*
1,1,$1+$1,$4,$5*
1,1,$1+$1,$6,$7*
1,1,$1+$1,$8,$9*
0 Add four rect primitives between the rounded corners*
20,1,$1+$1,$2,$3,$4,$5,0*
20,1,$1+$1,$4,$5,$6,$7,0*
20,1,$1+$1,$6,$7,$8,$9,0*
20,1,$1+$1,$8,$9,$2,$3,0*%
G04 Aperture macros list end*
%TA.AperFunction,ComponentPad*%
%ADD10RoundRect,0.250000X0.845000X-0.620000X0.845000X0.620000X-0.845000X0.620000X-0.845000X-0.620000X0*%
%TD*%
%TA.AperFunction,ComponentPad*%
%ADD11O,2.190000X1.740000*%
%TD*%
%TA.AperFunction,ComponentPad*%
%ADD12RoundRect,0.250000X-0.845000X0.620000X-0.845000X-0.620000X0.845000X-0.620000X0.845000X0.620000X0*%
%TD*%
%TA.AperFunction,ComponentPad*%
%ADD13RoundRect,0.250000X-0.620000X-0.845000X0.620000X-0.845000X0.620000X0.845000X-0.620000X0.845000X0*%
%TD*%
%TA.AperFunction,ComponentPad*%
%ADD14O,1.740000X2.190000*%
%TD*%
%TA.AperFunction,ViaPad*%
%ADD15C,0.762000*%
%TD*%
%TA.AperFunction,Conductor*%
%ADD16C,0.635000*%
%TD*%
G04 APERTURE END LIST*
D10*
%TO.N,/GND_AC Correction*%
%TO.C,J7*%
X81935000Y-69850000D03*
D11*
%TO.N,/SIG_AC Correction*%
X81935000Y-67310000D03*
%TD*%
D10*
%TO.N,/Vin_RV*%
%TO.C,J4*%
X89789000Y-90805000D03*
D11*
%TO.N,/SIG_Coarse*%
X89789000Y-88265000D03*
%TO.N,GND*%
X89789000Y-85725000D03*
%TD*%
D10*
%TO.N,/GND_DC Correction*%
%TO.C,J8*%
X81935000Y-63309500D03*
D11*
%TO.N,/SIG_DC Correction*%
X81935000Y-60769500D03*
%TD*%
D12*
%TO.N,+15V*%
%TO.C,J2*%
X122154000Y-76581000D03*
D11*
%TO.N,GND*%
X122154000Y-79121000D03*
%TO.N,-15V*%
X122154000Y-81661000D03*
%TD*%
D10*
%TO.N,/GND_Coarse*%
%TO.C,J1*%
X81955000Y-82931000D03*
D11*
%TO.N,/SIG_Coarse*%
X81955000Y-80391000D03*
%TD*%
D13*
%TO.N,/From Coil*%
%TO.C,J3*%
X113411000Y-49149000D03*
D14*
%TO.N,/To OPA549*%
X115951000Y-49149000D03*
%TD*%
D10*
%TO.N,GND*%
%TO.C,J9*%
X81935000Y-56769000D03*
D11*
%TO.N,/From Coil*%
X81935000Y-54229000D03*
%TD*%
D10*
%TO.N,/GND_Fine Tuning*%
%TO.C,J6*%
X81935000Y-76390500D03*
D11*
%TO.N,/SIG_Fine Tuning*%
X81935000Y-73850500D03*
%TD*%
D15*
%TO.N,GND*%
X107950000Y-84963000D03*
X96139000Y-76454000D03*
X96139000Y-57658000D03*
X98679000Y-82804000D03*
X114300000Y-89535000D03*
X118745000Y-66929000D03*
X116713000Y-61976000D03*
X122301000Y-70612000D03*
X106807000Y-48514000D03*
X107950000Y-57658000D03*
X93218000Y-91313000D03*
X107950000Y-75311000D03*
X96139000Y-48387000D03*
X106807000Y-57785000D03*
X91186000Y-56769000D03*
X91186000Y-83439000D03*
X107950000Y-65913000D03*
X107061000Y-76581000D03*
X103378000Y-87376000D03*
X96139000Y-67056000D03*
X91186000Y-66040000D03*
X91186000Y-75438000D03*
X112776000Y-90043000D03*
X106680000Y-67183000D03*
%TO.N,-15V*%
X96139000Y-61468000D03*
X96139000Y-70866000D03*
X117983000Y-72517000D03*
X96139000Y-52324000D03*
X94361000Y-84582000D03*
%TO.N,+15V*%
X103886000Y-48514000D03*
X109220000Y-88265000D03*
X103886000Y-76581000D03*
X122682000Y-61976000D03*
X103886000Y-67183000D03*
X103886000Y-57785000D03*
%TD*%
D16*
%TO.N,-15V*%
X122154000Y-81661000D02*
X122154000Y-82824000D01*
X122154000Y-82824000D02*
X118872000Y-86106000D01*
X118872000Y-86106000D02*
X95885000Y-86106000D01*
X95885000Y-86106000D02*
X94361000Y-84582000D01*
X96139000Y-52324000D02*
X105651789Y-61836789D01*
X105651789Y-61836789D02*
X105651789Y-67805789D01*
X105651789Y-67805789D02*
X119282000Y-81436000D01*
X119282000Y-81436000D02*
X122154000Y-81436000D01*
X120757000Y-83058000D02*
X108331000Y-83058000D01*
X117983000Y-72517000D02*
X122047000Y-72517000D01*
X122154000Y-81661000D02*
X120757000Y-83058000D01*
X108331000Y-83058000D02*
X96139000Y-70866000D01*
X122154000Y-81661000D02*
X116332000Y-81661000D01*
X124714000Y-80010000D02*
X123063000Y-81661000D01*
X122047000Y-72517000D02*
X124714000Y-75184000D01*
X124714000Y-75184000D02*
X124714000Y-80010000D01*
X116332000Y-81661000D02*
X96139000Y-61468000D01*
%TD*%
M02*
