%TF.GenerationSoftware,KiCad,Pcbnew,(6.0.1-0)*%
%TF.CreationDate,2022-05-20T12:10:41-04:00*%
%TF.ProjectId,Summing Circuit V5,53756d6d-696e-4672-9043-697263756974,003*%
%TF.SameCoordinates,Original*%
%TF.FileFunction,Soldermask,Top*%
%TF.FilePolarity,Negative*%
%FSLAX46Y46*%
G04 Gerber Fmt 4.6, Leading zero omitted, Abs format (unit mm)*
G04 Created by KiCad (PCBNEW (6.0.1-0)) date 2022-05-20 12:10:41*
%MOMM*%
%LPD*%
G01*
G04 APERTURE LIST*
G04 Aperture macros list*
%AMRoundRect*
0 Rectangle with rounded corners*
0 $1 Rounding radius*
0 $2 $3 $4 $5 $6 $7 $8 $9 X,Y pos of 4 corners*
0 Add a 4 corners polygon primitive as box body*
4,1,4,$2,$3,$4,$5,$6,$7,$8,$9,$2,$3,0*
0 Add four circle primitives for the rounded corners*
1,1,$1+$1,$2,$3*
1,1,$1+$1,$4,$5*
1,1,$1+$1,$6,$7*
1,1,$1+$1,$8,$9*
0 Add four rect primitives between the rounded corners*
20,1,$1+$1,$2,$3,$4,$5,0*
20,1,$1+$1,$4,$5,$6,$7,0*
20,1,$1+$1,$6,$7,$8,$9,0*
20,1,$1+$1,$8,$9,$2,$3,0*%
G04 Aperture macros list end*
%ADD10RoundRect,0.300800X0.325000X0.650000X-0.325000X0.650000X-0.325000X-0.650000X0.325000X-0.650000X0*%
%ADD11RoundRect,0.300800X-0.650000X0.325000X-0.650000X-0.325000X0.650000X-0.325000X0.650000X0.325000X0*%
%ADD12RoundRect,0.300800X-0.312500X-0.625000X0.312500X-0.625000X0.312500X0.625000X-0.312500X0.625000X0*%
%ADD13RoundRect,0.300800X-0.625000X0.312500X-0.625000X-0.312500X0.625000X-0.312500X0.625000X0.312500X0*%
%ADD14RoundRect,0.300800X0.312500X0.625000X-0.312500X0.625000X-0.312500X-0.625000X0.312500X-0.625000X0*%
%ADD15RoundRect,0.200800X-0.825000X-0.150000X0.825000X-0.150000X0.825000X0.150000X-0.825000X0.150000X0*%
%ADD16RoundRect,0.300800X0.845000X-0.620000X0.845000X0.620000X-0.845000X0.620000X-0.845000X-0.620000X0*%
%ADD17O,2.291600X1.841600*%
%ADD18RoundRect,0.300800X0.625000X-0.312500X0.625000X0.312500X-0.625000X0.312500X-0.625000X-0.312500X0*%
%ADD19C,4.401600*%
%ADD20RoundRect,0.300800X-0.845000X0.620000X-0.845000X-0.620000X0.845000X-0.620000X0.845000X0.620000X0*%
%ADD21RoundRect,0.300800X0.650000X-0.325000X0.650000X0.325000X-0.650000X0.325000X-0.650000X-0.325000X0*%
%ADD22RoundRect,0.050800X-1.000000X-1.000000X1.000000X-1.000000X1.000000X1.000000X-1.000000X1.000000X0*%
%ADD23RoundRect,0.300800X-0.325000X-0.650000X0.325000X-0.650000X0.325000X0.650000X-0.325000X0.650000X0*%
%ADD24RoundRect,0.200800X0.825000X0.150000X-0.825000X0.150000X-0.825000X-0.150000X0.825000X-0.150000X0*%
%ADD25RoundRect,0.300800X-0.620000X-0.845000X0.620000X-0.845000X0.620000X0.845000X-0.620000X0.845000X0*%
%ADD26O,1.841600X2.291600*%
G04 APERTURE END LIST*
D10*
%TO.C,C10*%
X121109000Y-57531000D03*
X118159000Y-57531000D03*
%TD*%
%TO.C,C5*%
X105361000Y-67183000D03*
X102411000Y-67183000D03*
%TD*%
D11*
%TO.C,C9*%
X107950000Y-80440000D03*
X107950000Y-83390000D03*
%TD*%
D10*
%TO.C,C8*%
X97233000Y-82804000D03*
X94283000Y-82804000D03*
%TD*%
D12*
%TO.C,R3*%
X102423500Y-61595000D03*
X105348500Y-61595000D03*
%TD*%
D13*
%TO.C,W1*%
X91186000Y-79121000D03*
X91186000Y-82046000D03*
%TD*%
D14*
%TO.C,R7*%
X113476500Y-70993000D03*
X110551500Y-70993000D03*
%TD*%
D15*
%TO.C,U5*%
X116905000Y-64389000D03*
X116905000Y-65659000D03*
X116905000Y-66929000D03*
X116905000Y-68199000D03*
X121855000Y-68199000D03*
X121855000Y-66929000D03*
X121855000Y-65659000D03*
X121855000Y-64389000D03*
%TD*%
D16*
%TO.C,J7*%
X81935000Y-69850000D03*
D17*
X81935000Y-67310000D03*
%TD*%
D16*
%TO.C,J4*%
X89789000Y-90805000D03*
D17*
X89789000Y-88265000D03*
X89789000Y-85725000D03*
%TD*%
D10*
%TO.C,C12*%
X120855000Y-70612000D03*
X117905000Y-70612000D03*
%TD*%
D18*
%TO.C,R9*%
X115252500Y-57469500D03*
X115252500Y-54544500D03*
%TD*%
D10*
%TO.C,C1*%
X97614000Y-91313000D03*
X94664000Y-91313000D03*
%TD*%
D16*
%TO.C,J8*%
X81935000Y-63309500D03*
D17*
X81935000Y-60769500D03*
%TD*%
D18*
%TO.C,R12*%
X111633000Y-57469500D03*
X111633000Y-54544500D03*
%TD*%
D19*
%TO.C,H1*%
X80772000Y-47752000D03*
%TD*%
D13*
%TO.C,R11*%
X107950000Y-53401500D03*
X107950000Y-56326500D03*
%TD*%
D15*
%TO.C,U6*%
X94299000Y-48387000D03*
X94299000Y-49657000D03*
X94299000Y-50927000D03*
X94299000Y-52197000D03*
X99249000Y-52197000D03*
X99249000Y-50927000D03*
X99249000Y-49657000D03*
X99249000Y-48387000D03*
%TD*%
D20*
%TO.C,J2*%
X122154000Y-76581000D03*
D17*
X122154000Y-79121000D03*
X122154000Y-81661000D03*
%TD*%
D21*
%TO.C,C4*%
X91186000Y-64594000D03*
X91186000Y-61644000D03*
%TD*%
D22*
%TO.C,J5*%
X116205000Y-89535000D03*
%TD*%
D23*
%TO.C,C2*%
X108318000Y-90043000D03*
X111268000Y-90043000D03*
%TD*%
D10*
%TO.C,C13*%
X105361000Y-48514000D03*
X102411000Y-48514000D03*
%TD*%
D19*
%TO.C,H4*%
X122428000Y-89408000D03*
%TD*%
D21*
%TO.C,C6*%
X91186000Y-73992000D03*
X91186000Y-71042000D03*
%TD*%
D19*
%TO.C,H2*%
X122428000Y-47752000D03*
%TD*%
D15*
%TO.C,U4*%
X94299000Y-57658000D03*
X94299000Y-58928000D03*
X94299000Y-60198000D03*
X94299000Y-61468000D03*
X99249000Y-61468000D03*
X99249000Y-60198000D03*
X99249000Y-58928000D03*
X99249000Y-57658000D03*
%TD*%
D24*
%TO.C,U1*%
X105156000Y-91186000D03*
X105156000Y-89916000D03*
X105156000Y-88646000D03*
X105156000Y-87376000D03*
X100206000Y-87376000D03*
X100206000Y-88646000D03*
X100206000Y-89916000D03*
X100206000Y-91186000D03*
%TD*%
D12*
%TO.C,R2*%
X102423500Y-70993000D03*
X105348500Y-70993000D03*
%TD*%
%TO.C,R10*%
X102423500Y-52324000D03*
X105348500Y-52324000D03*
%TD*%
D14*
%TO.C,R6*%
X113476500Y-80391000D03*
X110551500Y-80391000D03*
%TD*%
D16*
%TO.C,J1*%
X81955000Y-82931000D03*
D17*
X81955000Y-80391000D03*
%TD*%
D10*
%TO.C,C7*%
X105361000Y-76581000D03*
X102411000Y-76581000D03*
%TD*%
D13*
%TO.C,R5*%
X107950000Y-61656500D03*
X107950000Y-64581500D03*
%TD*%
%TO.C,R4*%
X107950000Y-71054500D03*
X107950000Y-73979500D03*
%TD*%
D15*
%TO.C,U3*%
X94299000Y-67056000D03*
X94299000Y-68326000D03*
X94299000Y-69596000D03*
X94299000Y-70866000D03*
X99249000Y-70866000D03*
X99249000Y-69596000D03*
X99249000Y-68326000D03*
X99249000Y-67056000D03*
%TD*%
D12*
%TO.C,R1*%
X102423500Y-80391000D03*
X105348500Y-80391000D03*
%TD*%
D19*
%TO.C,H3*%
X80772000Y-89408000D03*
%TD*%
D10*
%TO.C,C3*%
X105361000Y-57785000D03*
X102411000Y-57785000D03*
%TD*%
D25*
%TO.C,J3*%
X113411000Y-49149000D03*
D26*
X115951000Y-49149000D03*
%TD*%
D21*
%TO.C,C14*%
X91186000Y-55323000D03*
X91186000Y-52373000D03*
%TD*%
D16*
%TO.C,J9*%
X81935000Y-56769000D03*
D17*
X81935000Y-54229000D03*
%TD*%
D23*
%TO.C,C11*%
X118159000Y-61976000D03*
X121109000Y-61976000D03*
%TD*%
D15*
%TO.C,U2*%
X94299000Y-76454000D03*
X94299000Y-77724000D03*
X94299000Y-78994000D03*
X94299000Y-80264000D03*
X99249000Y-80264000D03*
X99249000Y-78994000D03*
X99249000Y-77724000D03*
X99249000Y-76454000D03*
%TD*%
D14*
%TO.C,R8*%
X113476500Y-65405000D03*
X110551500Y-65405000D03*
%TD*%
D16*
%TO.C,J6*%
X81935000Y-76390500D03*
D17*
X81935000Y-73850500D03*
%TD*%
M02*
