%TF.GenerationSoftware,KiCad,Pcbnew,(6.0.1-0)*%
%TF.CreationDate,2024-04-12T07:51:10-04:00*%
%TF.ProjectId,Supertime External Trigger,53757065-7274-4696-9d65-204578746572,rev?*%
%TF.SameCoordinates,Original*%
%TF.FileFunction,Copper,L1,Top*%
%TF.FilePolarity,Positive*%
%FSLAX46Y46*%
G04 Gerber Fmt 4.6, Leading zero omitted, Abs format (unit mm)*
G04 Created by KiCad (PCBNEW (6.0.1-0)) date 2024-04-12 07:51:10*
%MOMM*%
%LPD*%
G01*
G04 APERTURE LIST*
G04 Aperture macros list*
%AMRoundRect*
0 Rectangle with rounded corners*
0 $1 Rounding radius*
0 $2 $3 $4 $5 $6 $7 $8 $9 X,Y pos of 4 corners*
0 Add a 4 corners polygon primitive as box body*
4,1,4,$2,$3,$4,$5,$6,$7,$8,$9,$2,$3,0*
0 Add four circle primitives for the rounded corners*
1,1,$1+$1,$2,$3*
1,1,$1+$1,$4,$5*
1,1,$1+$1,$6,$7*
1,1,$1+$1,$8,$9*
0 Add four rect primitives between the rounded corners*
20,1,$1+$1,$2,$3,$4,$5,0*
20,1,$1+$1,$4,$5,$6,$7,0*
20,1,$1+$1,$6,$7,$8,$9,0*
20,1,$1+$1,$8,$9,$2,$3,0*%
G04 Aperture macros list end*
%TA.AperFunction,ComponentPad*%
%ADD10RoundRect,0.250000X-0.845000X0.620000X-0.845000X-0.620000X0.845000X-0.620000X0.845000X0.620000X0*%
%TD*%
%TA.AperFunction,ComponentPad*%
%ADD11O,2.190000X1.740000*%
%TD*%
%TA.AperFunction,SMDPad,CuDef*%
%ADD12RoundRect,0.250000X-0.325000X-0.650000X0.325000X-0.650000X0.325000X0.650000X-0.325000X0.650000X0*%
%TD*%
%TA.AperFunction,SMDPad,CuDef*%
%ADD13RoundRect,0.250000X-0.650000X0.325000X-0.650000X-0.325000X0.650000X-0.325000X0.650000X0.325000X0*%
%TD*%
%TA.AperFunction,SMDPad,CuDef*%
%ADD14RoundRect,0.150000X-0.825000X-0.150000X0.825000X-0.150000X0.825000X0.150000X-0.825000X0.150000X0*%
%TD*%
%TA.AperFunction,SMDPad,CuDef*%
%ADD15RoundRect,0.250000X-0.312500X-0.625000X0.312500X-0.625000X0.312500X0.625000X-0.312500X0.625000X0*%
%TD*%
%TA.AperFunction,ViaPad*%
%ADD16C,0.800000*%
%TD*%
%TA.AperFunction,Conductor*%
%ADD17C,0.250000*%
%TD*%
G04 APERTURE END LIST*
D10*
%TO.P,Vcc1,1,Pin_1*%
%TO.N,+5V*%
X161290000Y-91440000D03*
D11*
%TO.P,Vcc1,2,Pin_2*%
%TO.N,GND*%
X161290000Y-93980000D03*
%TD*%
D10*
%TO.P,STSORT1,1,Pin_1*%
%TO.N,/Supertime Sorting*%
X137795000Y-85725000D03*
D11*
%TO.P,STSORT1,2,Pin_2*%
%TO.N,GND*%
X137795000Y-88265000D03*
%TD*%
D10*
%TO.P,1MHzOut1,1,Pin_1*%
%TO.N,/1 MHz Output*%
X161290000Y-101600000D03*
D11*
%TO.P,1MHzOut1,2,Pin_2*%
%TO.N,GND*%
X161290000Y-104140000D03*
%TD*%
D10*
%TO.P,STRS1,1,Pin_1*%
%TO.N,/Supertime Resync*%
X137795000Y-92075000D03*
D11*
%TO.P,STRS1,2,Pin_2*%
%TO.N,GND*%
X137795000Y-94615000D03*
%TD*%
D10*
%TO.P,FPGA1,1,Pin_1*%
%TO.N,/FPGA input*%
X137795000Y-79375000D03*
D11*
%TO.P,FPGA1,2,Pin_2*%
%TO.N,GND*%
X137795000Y-81915000D03*
%TD*%
%TO.P,60HzOut1,2,Pin_2*%
%TO.N,GND*%
X161290000Y-79375000D03*
D10*
%TO.P,60HzOut1,1,Pin_1*%
%TO.N,/60 Hz Output*%
X161290000Y-76835000D03*
%TD*%
%TO.P,60HzIN1,1,Pin_1*%
%TO.N,/60 Hz Trigger*%
X137795000Y-67310000D03*
D11*
%TO.P,60HzIN1,2,Pin_2*%
%TO.N,GND*%
X137795000Y-69850000D03*
%TD*%
D10*
%TO.P,1MHz1,1,Pin_1*%
%TO.N,/1 MHz Clock*%
X137795000Y-99695000D03*
D11*
%TO.P,1MHz1,2,Pin_2*%
%TO.N,GND*%
X137795000Y-102235000D03*
%TD*%
D12*
%TO.P,CP6,1*%
%TO.N,+5V*%
X153465000Y-99060000D03*
%TO.P,CP6,2*%
%TO.N,GND*%
X156415000Y-99060000D03*
%TD*%
%TO.P,CP4,1*%
%TO.N,+5V*%
X153465000Y-85725000D03*
%TO.P,CP4,2*%
%TO.N,GND*%
X156415000Y-85725000D03*
%TD*%
D13*
%TO.P,C2,2*%
%TO.N,GND*%
X154940000Y-104980000D03*
%TO.P,C2,1*%
%TO.N,/1 MHz Output*%
X154940000Y-102030000D03*
%TD*%
%TO.P,C1,2*%
%TO.N,Net-(C1-Pad2)*%
X142240000Y-76405000D03*
%TO.P,C1,1*%
%TO.N,Net-(C1-Pad1)*%
X142240000Y-73455000D03*
%TD*%
D14*
%TO.P,U3,1,1A*%
%TO.N,/ST Resync||60 Hz*%
X145480000Y-96520000D03*
%TO.P,U3,2,1B*%
%TO.N,/1 MHz Clock*%
X145480000Y-97790000D03*
%TO.P,U3,3,1Y*%
%TO.N,/(ST Resync||60 Hz)&&1 MHz*%
X145480000Y-99060000D03*
%TO.P,U3,4,2A*%
X145480000Y-100330000D03*
%TO.P,U3,5,2B*%
%TO.N,/ST Sort||FPGA input*%
X145480000Y-101600000D03*
%TO.P,U3,6,2Y*%
%TO.N,/1 MHz Output*%
X145480000Y-102870000D03*
%TO.P,U3,7,GND*%
%TO.N,GND*%
X145480000Y-104140000D03*
%TO.P,U3,8,3Y*%
%TO.N,unconnected-(U3-Pad8)*%
X150430000Y-104140000D03*
%TO.P,U3,9,3A*%
%TO.N,GND*%
X150430000Y-102870000D03*
%TO.P,U3,10,3B*%
X150430000Y-101600000D03*
%TO.P,U3,11,4Y*%
%TO.N,unconnected-(U3-Pad11)*%
X150430000Y-100330000D03*
%TO.P,U3,12,4A*%
%TO.N,GND*%
X150430000Y-99060000D03*
%TO.P,U3,13,4B*%
X150430000Y-97790000D03*
%TO.P,U3,14,VCC*%
%TO.N,+5V*%
X150430000Y-96520000D03*
%TD*%
D15*
%TO.P,R1,2*%
%TO.N,Net-(C1-Pad2)*%
X138622500Y-74930000D03*
%TO.P,R1,1*%
%TO.N,+5V*%
X135697500Y-74930000D03*
%TD*%
D12*
%TO.P,CP1,2*%
%TO.N,GND*%
X156415000Y-67310000D03*
%TO.P,CP1,1*%
%TO.N,+5V*%
X153465000Y-67310000D03*
%TD*%
%TO.P,CP2,2*%
%TO.N,GND*%
X156415000Y-71120000D03*
%TO.P,CP2,1*%
%TO.N,+5V*%
X153465000Y-71120000D03*
%TD*%
%TO.P,CP3,1*%
%TO.N,+5V*%
X153465000Y-81915000D03*
%TO.P,CP3,2*%
%TO.N,GND*%
X156415000Y-81915000D03*
%TD*%
D14*
%TO.P,U1,1,\u002A1A*%
%TO.N,GND*%
X145480000Y-67945000D03*
%TO.P,U1,2,1B*%
X145480000Y-69215000D03*
%TO.P,U1,3,\u002A1R*%
X145480000Y-70485000D03*
%TO.P,U1,4,\u002A1Q*%
%TO.N,unconnected-(U1-Pad4)*%
X145480000Y-71755000D03*
%TO.P,U1,5,2Q*%
%TO.N,/60 Hz Output*%
X145480000Y-73025000D03*
%TO.P,U1,6,2CX*%
%TO.N,Net-(C1-Pad1)*%
X145480000Y-74295000D03*
%TO.P,U1,7,2RXCX*%
%TO.N,Net-(C1-Pad2)*%
X145480000Y-75565000D03*
%TO.P,U1,8,GND*%
%TO.N,GND*%
X145480000Y-76835000D03*
%TO.P,U1,9,\u002A2A*%
X150430000Y-76835000D03*
%TO.P,U1,10,2B*%
%TO.N,/60 Hz Trigger*%
X150430000Y-75565000D03*
%TO.P,U1,11,\u002A2R*%
%TO.N,+5V*%
X150430000Y-74295000D03*
%TO.P,U1,12,\u002A2Q*%
%TO.N,unconnected-(U1-Pad12)*%
X150430000Y-73025000D03*
%TO.P,U1,13,1Q*%
%TO.N,unconnected-(U1-Pad13)*%
X150430000Y-71755000D03*
%TO.P,U1,14,1CX*%
%TO.N,unconnected-(U1-Pad14)*%
X150430000Y-70485000D03*
%TO.P,U1,15,1RXCX*%
%TO.N,unconnected-(U1-Pad15)*%
X150430000Y-69215000D03*
%TO.P,U1,16,VCC*%
%TO.N,+5V*%
X150430000Y-67945000D03*
%TD*%
%TO.P,U2,14,VCC*%
%TO.N,+5V*%
X150430000Y-83185000D03*
%TO.P,U2,13,4B*%
%TO.N,GND*%
X150430000Y-84455000D03*
%TO.P,U2,12,4A*%
X150430000Y-85725000D03*
%TO.P,U2,11,4Y*%
%TO.N,unconnected-(U2-Pad11)*%
X150430000Y-86995000D03*
%TO.P,U2,10,3B*%
%TO.N,GND*%
X150430000Y-88265000D03*
%TO.P,U2,9,3A*%
X150430000Y-89535000D03*
%TO.P,U2,8,3Y*%
%TO.N,unconnected-(U2-Pad8)*%
X150430000Y-90805000D03*
%TO.P,U2,7,GND*%
%TO.N,GND*%
X145480000Y-90805000D03*
%TO.P,U2,6,2Y*%
%TO.N,/ST Resync||60 Hz*%
X145480000Y-89535000D03*
%TO.P,U2,5,2B*%
%TO.N,/Supertime Resync*%
X145480000Y-88265000D03*
%TO.P,U2,4,2A*%
%TO.N,/60 Hz Output*%
X145480000Y-86995000D03*
%TO.P,U2,3,1Y*%
%TO.N,/ST Sort||FPGA input*%
X145480000Y-85725000D03*
%TO.P,U2,2,1B*%
%TO.N,/Supertime Sorting*%
X145480000Y-84455000D03*
%TO.P,U2,1,1A*%
%TO.N,/FPGA input*%
X145480000Y-83185000D03*
%TD*%
D12*
%TO.P,CP5,1*%
%TO.N,+5V*%
X153465000Y-95250000D03*
%TO.P,CP5,2*%
%TO.N,GND*%
X156415000Y-95250000D03*
%TD*%
D16*
%TO.N,+5V*%
X133985000Y-74930000D03*
X152400000Y-73660000D03*
X153465000Y-96950000D03*
X150495000Y-95250000D03*
X150495000Y-66675000D03*
X153465000Y-69010000D03*
X153465000Y-83615000D03*
X150495000Y-81915000D03*
%TD*%
D17*
%TO.N,/60 Hz Output*%
X147955000Y-78740000D02*
X152082500Y-78740000D01*
X152082500Y-78740000D02*
X153987500Y-76835000D01*
X153987500Y-76835000D02*
X161290000Y-76835000D01*
%TO.N,/60 Hz Trigger*%
X148590000Y-74930000D02*
X149225000Y-75565000D01*
X149225000Y-75565000D02*
X150430000Y-75565000D01*
X139065000Y-66040000D02*
X146685000Y-66040000D01*
X137795000Y-67310000D02*
X139065000Y-66040000D01*
X146685000Y-66040000D02*
X148590000Y-67945000D01*
X148590000Y-67945000D02*
X148590000Y-74930000D01*
%TO.N,/1 MHz Output*%
X155145000Y-102235000D02*
X160860000Y-102235000D01*
X145490480Y-102880480D02*
X148103270Y-102880480D01*
X148103270Y-102880480D02*
X148759230Y-102224520D01*
X148759230Y-102224520D02*
X154745480Y-102224520D01*
%TO.N,+5V*%
X150430000Y-74295000D02*
X151765000Y-74295000D01*
X151765000Y-74295000D02*
X152400000Y-73660000D01*
X135697500Y-74930000D02*
X133985000Y-74930000D01*
%TO.N,Net-(C1-Pad2)*%
X141175000Y-76405000D02*
X139700000Y-74930000D01*
X139700000Y-74930000D02*
X138622500Y-74930000D01*
X142240000Y-76405000D02*
X141175000Y-76405000D01*
%TO.N,/FPGA input*%
X138430000Y-79375000D02*
X142240000Y-83185000D01*
X142240000Y-83185000D02*
X145480000Y-83185000D01*
%TO.N,/Supertime Sorting*%
X137795000Y-85725000D02*
X139065000Y-84455000D01*
X139065000Y-84455000D02*
X145480000Y-84455000D01*
%TO.N,/Supertime Resync*%
X138430000Y-92075000D02*
X142240000Y-88265000D01*
X142240000Y-88265000D02*
X145480000Y-88265000D01*
%TO.N,/1 MHz Clock*%
X137795000Y-99695000D02*
X139700000Y-99695000D01*
X139700000Y-99695000D02*
X141605000Y-97790000D01*
X141605000Y-97790000D02*
X145480000Y-97790000D01*
%TO.N,/ST Resync||60 Hz*%
X145480000Y-96520000D02*
X143510000Y-96520000D01*
X142875000Y-95885000D02*
X142875000Y-90170000D01*
X142875000Y-90170000D02*
X143510000Y-89535000D01*
X143510000Y-96520000D02*
X142875000Y-95885000D01*
X143510000Y-89535000D02*
X145480000Y-89535000D01*
%TO.N,/60 Hz Output*%
X145480000Y-73025000D02*
X146685000Y-73025000D01*
X146685000Y-73025000D02*
X147320000Y-73660000D01*
X147320000Y-73660000D02*
X147320000Y-75565000D01*
X147320000Y-75565000D02*
X147955000Y-76200000D01*
%TO.N,Net-(C1-Pad2)*%
X145480000Y-75565000D02*
X143080000Y-75565000D01*
X143080000Y-75565000D02*
X142240000Y-76405000D01*
%TO.N,Net-(C1-Pad1)*%
X142240000Y-73455000D02*
X143080000Y-74295000D01*
X143080000Y-74295000D02*
X145480000Y-74295000D01*
%TO.N,+5V*%
X153465000Y-95250000D02*
X153465000Y-99060000D01*
X150430000Y-95315000D02*
X150495000Y-95250000D01*
X150430000Y-96520000D02*
X150430000Y-95315000D01*
X150495000Y-66675000D02*
X150430000Y-66740000D01*
X150430000Y-66740000D02*
X150430000Y-67945000D01*
X153465000Y-69010000D02*
X153465000Y-71120000D01*
X153465000Y-67310000D02*
X153465000Y-69010000D01*
X153465000Y-83615000D02*
X153465000Y-85725000D01*
X153465000Y-81915000D02*
X153465000Y-83615000D01*
X150430000Y-81980000D02*
X150495000Y-81915000D01*
X150430000Y-83185000D02*
X150430000Y-81980000D01*
%TO.N,/ST Sort||FPGA input*%
X145480000Y-85725000D02*
X144145000Y-85725000D01*
X143510000Y-86995000D02*
X144145000Y-87630000D01*
X143510000Y-86360000D02*
X143510000Y-86995000D01*
X144145000Y-85725000D02*
X143510000Y-86360000D01*
X144145000Y-87630000D02*
X147320000Y-87630000D01*
X147320000Y-87630000D02*
X147955000Y-88265000D01*
X147955000Y-88265000D02*
X147955000Y-100647500D01*
X147955000Y-100647500D02*
X147002500Y-101600000D01*
X147002500Y-101600000D02*
X145480000Y-101600000D01*
%TO.N,/(ST Resync||60 Hz)&&1 MHz*%
X145480000Y-99060000D02*
X145480000Y-100330000D01*
%TO.N,/60 Hz Output*%
X146685000Y-86995000D02*
X147955000Y-85725000D01*
X145480000Y-86995000D02*
X146685000Y-86995000D01*
X147955000Y-85725000D02*
X147955000Y-76200000D01*
%TD*%
%TA.AperFunction,Conductor*%
%TO.N,GND*%
G36*
X157422121Y-57805002D02*
G01*
X157468614Y-57858658D01*
X157480000Y-57911000D01*
X157480000Y-64770000D01*
X166879000Y-64770000D01*
X166947121Y-64790002D01*
X166993614Y-64843658D01*
X167005000Y-64896000D01*
X167005000Y-107189000D01*
X166984998Y-107257121D01*
X166931342Y-107303614D01*
X166879000Y-107315000D01*
X130301000Y-107315000D01*
X130232879Y-107294998D01*
X130186386Y-107241342D01*
X130175000Y-107189000D01*
X130175000Y-105352095D01*
X153532001Y-105352095D01*
X153532338Y-105358614D01*
X153542257Y-105454206D01*
X153545149Y-105467600D01*
X153596588Y-105621784D01*
X153602761Y-105634962D01*
X153688063Y-105772807D01*
X153697099Y-105784208D01*
X153811829Y-105898739D01*
X153823240Y-105907751D01*
X153961243Y-105992816D01*
X153974424Y-105998963D01*
X154128710Y-106050138D01*
X154142086Y-106053005D01*
X154236438Y-106062672D01*
X154242854Y-106063000D01*
X154667885Y-106063000D01*
X154683124Y-106058525D01*
X154684329Y-106057135D01*
X154686000Y-106049452D01*
X154686000Y-106044884D01*
X155194000Y-106044884D01*
X155198475Y-106060123D01*
X155199865Y-106061328D01*
X155207548Y-106062999D01*
X155637095Y-106062999D01*
X155643614Y-106062662D01*
X155739206Y-106052743D01*
X155752600Y-106049851D01*
X155906784Y-105998412D01*
X155919962Y-105992239D01*
X156057807Y-105906937D01*
X156069208Y-105897901D01*
X156183739Y-105783171D01*
X156192751Y-105771760D01*
X156277816Y-105633757D01*
X156283963Y-105620576D01*
X156335138Y-105466290D01*
X156338005Y-105452914D01*
X156347672Y-105358562D01*
X156348000Y-105352146D01*
X156348000Y-105252115D01*
X156343525Y-105236876D01*
X156342135Y-105235671D01*
X156334452Y-105234000D01*
X155212115Y-105234000D01*
X155196876Y-105238475D01*
X155195671Y-105239865D01*
X155194000Y-105247548D01*
X155194000Y-106044884D01*
X154686000Y-106044884D01*
X154686000Y-105252115D01*
X154681525Y-105236876D01*
X154680135Y-105235671D01*
X154672452Y-105234000D01*
X153550116Y-105234000D01*
X153534877Y-105238475D01*
X153533672Y-105239865D01*
X153532001Y-105247548D01*
X153532001Y-105352095D01*
X130175000Y-105352095D01*
X130175000Y-104405871D01*
X144003456Y-104405871D01*
X144044107Y-104545790D01*
X144050352Y-104560221D01*
X144126911Y-104689678D01*
X144136551Y-104702104D01*
X144242896Y-104808449D01*
X144255322Y-104818089D01*
X144384779Y-104894648D01*
X144399210Y-104900893D01*
X144545065Y-104943269D01*
X144557667Y-104945570D01*
X144586084Y-104947807D01*
X144591014Y-104948000D01*
X145207885Y-104948000D01*
X145223124Y-104943525D01*
X145224329Y-104942135D01*
X145226000Y-104934452D01*
X145226000Y-104929884D01*
X145734000Y-104929884D01*
X145738475Y-104945123D01*
X145739865Y-104946328D01*
X145747548Y-104947999D01*
X146368984Y-104947999D01*
X146373920Y-104947805D01*
X146402336Y-104945570D01*
X146414931Y-104943270D01*
X146560790Y-104900893D01*
X146575221Y-104894648D01*
X146704678Y-104818089D01*
X146717104Y-104808449D01*
X146817668Y-104707885D01*
X153532000Y-104707885D01*
X153536475Y-104723124D01*
X153537865Y-104724329D01*
X153545548Y-104726000D01*
X154667885Y-104726000D01*
X154683124Y-104721525D01*
X154684329Y-104720135D01*
X154686000Y-104712452D01*
X154686000Y-104707885D01*
X155194000Y-104707885D01*
X155198475Y-104723124D01*
X155199865Y-104724329D01*
X155207548Y-104726000D01*
X156329884Y-104726000D01*
X156345123Y-104721525D01*
X156346328Y-104720135D01*
X156347999Y-104712452D01*
X156347999Y-104607905D01*
X156347662Y-104601386D01*
X156337743Y-104505794D01*
X156334851Y-104492400D01*
X156306887Y-104408580D01*
X159713317Y-104408580D01*
X159739252Y-104532188D01*
X159742312Y-104542384D01*
X159824284Y-104749952D01*
X159829018Y-104759489D01*
X159944796Y-104950285D01*
X159951062Y-104958878D01*
X160097333Y-105127441D01*
X160104964Y-105134861D01*
X160277542Y-105276368D01*
X160286309Y-105282393D01*
X160480262Y-105392797D01*
X160489926Y-105397262D01*
X160699711Y-105473410D01*
X160709979Y-105476181D01*
X160930766Y-105516106D01*
X160938995Y-105517039D01*
X160957874Y-105517930D01*
X160960849Y-105518000D01*
X161017885Y-105518000D01*
X161033124Y-105513525D01*
X161034329Y-105512135D01*
X161036000Y-105504452D01*
X161036000Y-105499885D01*
X161544000Y-105499885D01*
X161548475Y-105515124D01*
X161549865Y-105516329D01*
X161557548Y-105518000D01*
X161571054Y-105518000D01*
X161576363Y-105517775D01*
X161742707Y-105503661D01*
X161753179Y-105501871D01*
X161969202Y-105445802D01*
X161979242Y-105442266D01*
X162182732Y-105350601D01*
X162192018Y-105345432D01*
X162377155Y-105220790D01*
X162385441Y-105214129D01*
X162546930Y-105060076D01*
X162553979Y-105052108D01*
X162687203Y-104873048D01*
X162692802Y-104864018D01*
X162793953Y-104665069D01*
X162797956Y-104655208D01*
X162864138Y-104442071D01*
X162866420Y-104431691D01*
X162869036Y-104411957D01*
X162866840Y-104397793D01*
X162853655Y-104394000D01*
X161562115Y-104394000D01*
X161546876Y-104398475D01*
X161545671Y-104399865D01*
X161544000Y-104407548D01*
X161544000Y-105499885D01*
X161036000Y-105499885D01*
X161036000Y-104412115D01*
X161031525Y-104396876D01*
X161030135Y-104395671D01*
X161022452Y-104394000D01*
X159728373Y-104394000D01*
X159714842Y-104397973D01*
X159713317Y-104408580D01*
X156306887Y-104408580D01*
X156283412Y-104338216D01*
X156277239Y-104325038D01*
X156191937Y-104187193D01*
X156182901Y-104175792D01*
X156068171Y-104061261D01*
X156056760Y-104052249D01*
X155918757Y-103967184D01*
X155905576Y-103961037D01*
X155751290Y-103909862D01*
X155737914Y-103906995D01*
X155643562Y-103897328D01*
X155637145Y-103897000D01*
X155212115Y-103897000D01*
X155196876Y-103901475D01*
X155195671Y-103902865D01*
X155194000Y-103910548D01*
X155194000Y-104707885D01*
X154686000Y-104707885D01*
X154686000Y-103915116D01*
X154681525Y-103899877D01*
X154680135Y-103898672D01*
X154672452Y-103897001D01*
X154242905Y-103897001D01*
X154236386Y-103897338D01*
X154140794Y-103907257D01*
X154127400Y-103910149D01*
X153973216Y-103961588D01*
X153960038Y-103967761D01*
X153822193Y-104053063D01*
X153810792Y-104062099D01*
X153696261Y-104176829D01*
X153687249Y-104188240D01*
X153602184Y-104326243D01*
X153596037Y-104339424D01*
X153544862Y-104493710D01*
X153541995Y-104507086D01*
X153532328Y-104601438D01*
X153532000Y-104607855D01*
X153532000Y-104707885D01*
X146817668Y-104707885D01*
X146823449Y-104702104D01*
X146833089Y-104689678D01*
X146909648Y-104560221D01*
X146915893Y-104545790D01*
X146954939Y-104411395D01*
X146954899Y-104397294D01*
X146947630Y-104394000D01*
X145752115Y-104394000D01*
X145736876Y-104398475D01*
X145735671Y-104399865D01*
X145734000Y-104407548D01*
X145734000Y-104929884D01*
X145226000Y-104929884D01*
X145226000Y-104412115D01*
X145221525Y-104396876D01*
X145220135Y-104395671D01*
X145212452Y-104394000D01*
X144018122Y-104394000D01*
X144004591Y-104397973D01*
X144003456Y-104405871D01*
X130175000Y-104405871D01*
X130175000Y-103868605D01*
X144005061Y-103868605D01*
X144005101Y-103882706D01*
X144012370Y-103886000D01*
X146941878Y-103886000D01*
X146955409Y-103882027D01*
X146956544Y-103874129D01*
X146915893Y-103734210D01*
X146909648Y-103719779D01*
X146833089Y-103590322D01*
X146823449Y-103577896D01*
X146717104Y-103471551D01*
X146704677Y-103461911D01*
X146668361Y-103440434D01*
X146619908Y-103388541D01*
X146607203Y-103318690D01*
X146634278Y-103253059D01*
X146692538Y-103212485D01*
X146732500Y-103205980D01*
X148083560Y-103205980D01*
X148094542Y-103206460D01*
X148121090Y-103208783D01*
X148121092Y-103208783D01*
X148132077Y-103209744D01*
X148168485Y-103199988D01*
X148179212Y-103197610D01*
X148182571Y-103197018D01*
X148216315Y-103191068D01*
X148225860Y-103185557D01*
X148229136Y-103184365D01*
X148232304Y-103182888D01*
X148242954Y-103180034D01*
X148273814Y-103158425D01*
X148283085Y-103152519D01*
X148306176Y-103139187D01*
X148311920Y-103135871D01*
X148953456Y-103135871D01*
X148994107Y-103275790D01*
X149000352Y-103290221D01*
X149076911Y-103419678D01*
X149086551Y-103432104D01*
X149192896Y-103538449D01*
X149205326Y-103548091D01*
X149284458Y-103594889D01*
X149332911Y-103646782D01*
X149345617Y-103716632D01*
X149322940Y-103776405D01*
X149315707Y-103783650D01*
X149311136Y-103793001D01*
X149311134Y-103793004D01*
X149289175Y-103837929D01*
X149264464Y-103888482D01*
X149254500Y-103956782D01*
X149254500Y-104323218D01*
X149255170Y-104327768D01*
X149255170Y-104327771D01*
X149263216Y-104382426D01*
X149264642Y-104392112D01*
X149316068Y-104496855D01*
X149398650Y-104579293D01*
X149503482Y-104630536D01*
X149533973Y-104634984D01*
X149567256Y-104639840D01*
X149567260Y-104639840D01*
X149571782Y-104640500D01*
X151288218Y-104640500D01*
X151292768Y-104639830D01*
X151292771Y-104639830D01*
X151347426Y-104631784D01*
X151347427Y-104631784D01*
X151357112Y-104630358D01*
X151407008Y-104605860D01*
X151452507Y-104583522D01*
X151452509Y-104583521D01*
X151461855Y-104578932D01*
X151503273Y-104537442D01*
X151536935Y-104503721D01*
X151536935Y-104503720D01*
X151544293Y-104496350D01*
X151595536Y-104391518D01*
X151605500Y-104323218D01*
X151605500Y-103956782D01*
X151596871Y-103898162D01*
X151596784Y-103897574D01*
X151596784Y-103897573D01*
X151595358Y-103887888D01*
X151543932Y-103783145D01*
X151537076Y-103776301D01*
X151513823Y-103709667D01*
X151530386Y-103640630D01*
X151575526Y-103594898D01*
X151654678Y-103548089D01*
X151667104Y-103538449D01*
X151773449Y-103432104D01*
X151783089Y-103419678D01*
X151859648Y-103290221D01*
X151865893Y-103275790D01*
X151904939Y-103141395D01*
X151904899Y-103127294D01*
X151897630Y-103124000D01*
X148968122Y-103124000D01*
X148954591Y-103127973D01*
X148953456Y-103135871D01*
X148311920Y-103135871D01*
X148315725Y-103133674D01*
X148339955Y-103104797D01*
X148347381Y-103096695D01*
X148808288Y-102635788D01*
X148870600Y-102601762D01*
X148941415Y-102606827D01*
X148949396Y-102610120D01*
X148962370Y-102616000D01*
X150157885Y-102616000D01*
X150173124Y-102611525D01*
X150188736Y-102593508D01*
X150248462Y-102555124D01*
X150283961Y-102550020D01*
X150575623Y-102550020D01*
X150643744Y-102570022D01*
X150660306Y-102589136D01*
X150660514Y-102588896D01*
X150689865Y-102614329D01*
X150697548Y-102616000D01*
X151891878Y-102616000D01*
X151907117Y-102611525D01*
X151922729Y-102593508D01*
X151982455Y-102555124D01*
X152017954Y-102550020D01*
X153810372Y-102550020D01*
X153878493Y-102570022D01*
X153911723Y-102601161D01*
X153962255Y-102669576D01*
X153962258Y-102669579D01*
X153967850Y-102677150D01*
X153975421Y-102682742D01*
X154069243Y-102752041D01*
X154069246Y-102752042D01*
X154076816Y-102757634D01*
X154204631Y-102802519D01*
X154212277Y-102803242D01*
X154212278Y-102803242D01*
X154218248Y-102803806D01*
X154236166Y-102805500D01*
X155643834Y-102805500D01*
X155661752Y-102803806D01*
X155667722Y-102803242D01*
X155667723Y-102803242D01*
X155675369Y-102802519D01*
X155803184Y-102757634D01*
X155810754Y-102752042D01*
X155810757Y-102752041D01*
X155904579Y-102682742D01*
X155912150Y-102677150D01*
X155950113Y-102625753D01*
X155960537Y-102611640D01*
X156017098Y-102568729D01*
X156061888Y-102560500D01*
X160106206Y-102560500D01*
X160174327Y-102580502D01*
X160181066Y-102585149D01*
X160224243Y-102617041D01*
X160224246Y-102617042D01*
X160231816Y-102622634D01*
X160359631Y-102667519D01*
X160367277Y-102668242D01*
X160367278Y-102668242D01*
X160377477Y-102669206D01*
X160391166Y-102670500D01*
X160392278Y-102670500D01*
X160459089Y-102693589D01*
X160503002Y-102749376D01*
X160509783Y-102820048D01*
X160477280Y-102883167D01*
X160437799Y-102911141D01*
X160397272Y-102929397D01*
X160387982Y-102934568D01*
X160202845Y-103059210D01*
X160194559Y-103065871D01*
X160033070Y-103219924D01*
X160026021Y-103227892D01*
X159892797Y-103406952D01*
X159887198Y-103415982D01*
X159786047Y-103614931D01*
X159782044Y-103624792D01*
X159715862Y-103837929D01*
X159713580Y-103848309D01*
X159710964Y-103868043D01*
X159713160Y-103882207D01*
X159726345Y-103886000D01*
X162851627Y-103886000D01*
X162865158Y-103882027D01*
X162866683Y-103871420D01*
X162840748Y-103747812D01*
X162837688Y-103737616D01*
X162755716Y-103530048D01*
X162750982Y-103520511D01*
X162635204Y-103329715D01*
X162628938Y-103321122D01*
X162482667Y-103152559D01*
X162475036Y-103145139D01*
X162302458Y-103003632D01*
X162293691Y-102997607D01*
X162132284Y-102905729D01*
X162082978Y-102854647D01*
X162069116Y-102785016D01*
X162095099Y-102718945D01*
X162152679Y-102677411D01*
X162188007Y-102670500D01*
X162188834Y-102670500D01*
X162191794Y-102670220D01*
X162191798Y-102670220D01*
X162212722Y-102668242D01*
X162212723Y-102668242D01*
X162220369Y-102667519D01*
X162348184Y-102622634D01*
X162355754Y-102617042D01*
X162355757Y-102617041D01*
X162440206Y-102554665D01*
X162457150Y-102542150D01*
X162479124Y-102512400D01*
X162532041Y-102440757D01*
X162532042Y-102440754D01*
X162537634Y-102433184D01*
X162582519Y-102305369D01*
X162585500Y-102273834D01*
X162585500Y-100926166D01*
X162582519Y-100894631D01*
X162537634Y-100766816D01*
X162532042Y-100759246D01*
X162532041Y-100759243D01*
X162462742Y-100665421D01*
X162457150Y-100657850D01*
X162423904Y-100633294D01*
X162355757Y-100582959D01*
X162355754Y-100582958D01*
X162348184Y-100577366D01*
X162220369Y-100532481D01*
X162212723Y-100531758D01*
X162212722Y-100531758D01*
X162206752Y-100531194D01*
X162188834Y-100529500D01*
X160391166Y-100529500D01*
X160373248Y-100531194D01*
X160367278Y-100531758D01*
X160367277Y-100531758D01*
X160359631Y-100532481D01*
X160231816Y-100577366D01*
X160224246Y-100582958D01*
X160224243Y-100582959D01*
X160156096Y-100633294D01*
X160122850Y-100657850D01*
X160117258Y-100665421D01*
X160047959Y-100759243D01*
X160047958Y-100759246D01*
X160042366Y-100766816D01*
X159997481Y-100894631D01*
X159994500Y-100926166D01*
X159994500Y-101783500D01*
X159974498Y-101851621D01*
X159920842Y-101898114D01*
X159868500Y-101909500D01*
X156166500Y-101909500D01*
X156098379Y-101889498D01*
X156051886Y-101835842D01*
X156040500Y-101783500D01*
X156040500Y-101651166D01*
X156037519Y-101619631D01*
X155992634Y-101491816D01*
X155987042Y-101484246D01*
X155987041Y-101484243D01*
X155917742Y-101390421D01*
X155912150Y-101382850D01*
X155865620Y-101348482D01*
X155810757Y-101307959D01*
X155810754Y-101307958D01*
X155803184Y-101302366D01*
X155675369Y-101257481D01*
X155667723Y-101256758D01*
X155667722Y-101256758D01*
X155661752Y-101256194D01*
X155643834Y-101254500D01*
X154236166Y-101254500D01*
X154218248Y-101256194D01*
X154212278Y-101256758D01*
X154212277Y-101256758D01*
X154204631Y-101257481D01*
X154076816Y-101302366D01*
X154069246Y-101307958D01*
X154069243Y-101307959D01*
X154014380Y-101348482D01*
X153967850Y-101382850D01*
X153962258Y-101390421D01*
X153892959Y-101484243D01*
X153892958Y-101484246D01*
X153887366Y-101491816D01*
X153842481Y-101619631D01*
X153839500Y-101651166D01*
X153839500Y-101773020D01*
X153819498Y-101841141D01*
X153765842Y-101887634D01*
X153713500Y-101899020D01*
X152001597Y-101899020D01*
X151933476Y-101879018D01*
X151917351Y-101862939D01*
X151897630Y-101854000D01*
X150702115Y-101854000D01*
X150683141Y-101859571D01*
X150629700Y-101893916D01*
X150594201Y-101899020D01*
X150267158Y-101899020D01*
X150199037Y-101879018D01*
X150184646Y-101868245D01*
X150170135Y-101855671D01*
X150162452Y-101854000D01*
X148968122Y-101854000D01*
X148949148Y-101859571D01*
X148895707Y-101893916D01*
X148860208Y-101899020D01*
X148778941Y-101899020D01*
X148767959Y-101898540D01*
X148741409Y-101896217D01*
X148741408Y-101896217D01*
X148730424Y-101895256D01*
X148719773Y-101898110D01*
X148719772Y-101898110D01*
X148694022Y-101905009D01*
X148683295Y-101907387D01*
X148657045Y-101912016D01*
X148657040Y-101912018D01*
X148646185Y-101913932D01*
X148636637Y-101919445D01*
X148633361Y-101920637D01*
X148630199Y-101922111D01*
X148619546Y-101924966D01*
X148610515Y-101931290D01*
X148588686Y-101946575D01*
X148579415Y-101952481D01*
X148561122Y-101963043D01*
X148546775Y-101971326D01*
X148522545Y-102000202D01*
X148515119Y-102008305D01*
X148005349Y-102518075D01*
X147943037Y-102552101D01*
X147916254Y-102554980D01*
X146686535Y-102554980D01*
X146618414Y-102534978D01*
X146594676Y-102512400D01*
X146593932Y-102513145D01*
X146518721Y-102438065D01*
X146518720Y-102438065D01*
X146511350Y-102430707D01*
X146406518Y-102379464D01*
X146376027Y-102375016D01*
X146342744Y-102370160D01*
X146342740Y-102370160D01*
X146338218Y-102369500D01*
X144621782Y-102369500D01*
X144617232Y-102370170D01*
X144617229Y-102370170D01*
X144562574Y-102378216D01*
X144562573Y-102378216D01*
X144552888Y-102379642D01*
X144502992Y-102404140D01*
X144457493Y-102426478D01*
X144457491Y-102426479D01*
X144448145Y-102431068D01*
X144365707Y-102513650D01*
X144361134Y-102523006D01*
X144361133Y-102523007D01*
X144351776Y-102542150D01*
X144314464Y-102618482D01*
X144304500Y-102686782D01*
X144304500Y-103053218D01*
X144305170Y-103057768D01*
X144305170Y-103057771D01*
X144310900Y-103096695D01*
X144314642Y-103122112D01*
X144366068Y-103226855D01*
X144372924Y-103233699D01*
X144396177Y-103300333D01*
X144379614Y-103369370D01*
X144334474Y-103415102D01*
X144255322Y-103461911D01*
X144242896Y-103471551D01*
X144136551Y-103577896D01*
X144126911Y-103590322D01*
X144050352Y-103719779D01*
X144044107Y-103734210D01*
X144005061Y-103868605D01*
X130175000Y-103868605D01*
X130175000Y-102503580D01*
X136218317Y-102503580D01*
X136244252Y-102627188D01*
X136247312Y-102637384D01*
X136329284Y-102844952D01*
X136334018Y-102854489D01*
X136449796Y-103045285D01*
X136456062Y-103053878D01*
X136602333Y-103222441D01*
X136609964Y-103229861D01*
X136782542Y-103371368D01*
X136791309Y-103377393D01*
X136985262Y-103487797D01*
X136994926Y-103492262D01*
X137204711Y-103568410D01*
X137214979Y-103571181D01*
X137435766Y-103611106D01*
X137443995Y-103612039D01*
X137462874Y-103612930D01*
X137465849Y-103613000D01*
X137522885Y-103613000D01*
X137538124Y-103608525D01*
X137539329Y-103607135D01*
X137541000Y-103599452D01*
X137541000Y-103594885D01*
X138049000Y-103594885D01*
X138053475Y-103610124D01*
X138054865Y-103611329D01*
X138062548Y-103613000D01*
X138076054Y-103613000D01*
X138081363Y-103612775D01*
X138247707Y-103598661D01*
X138258179Y-103596871D01*
X138474202Y-103540802D01*
X138484242Y-103537266D01*
X138687732Y-103445601D01*
X138697018Y-103440432D01*
X138882155Y-103315790D01*
X138890441Y-103309129D01*
X139051930Y-103155076D01*
X139058979Y-103147108D01*
X139192203Y-102968048D01*
X139197802Y-102959018D01*
X139298953Y-102760069D01*
X139302956Y-102750208D01*
X139369138Y-102537071D01*
X139371420Y-102526691D01*
X139374036Y-102506957D01*
X139371840Y-102492793D01*
X139358655Y-102489000D01*
X138067115Y-102489000D01*
X138051876Y-102493475D01*
X138050671Y-102494865D01*
X138049000Y-102502548D01*
X138049000Y-103594885D01*
X137541000Y-103594885D01*
X137541000Y-102507115D01*
X137536525Y-102491876D01*
X137535135Y-102490671D01*
X137527452Y-102489000D01*
X136233373Y-102489000D01*
X136219842Y-102492973D01*
X136218317Y-102503580D01*
X130175000Y-102503580D01*
X130175000Y-101963043D01*
X136215964Y-101963043D01*
X136218160Y-101977207D01*
X136231345Y-101981000D01*
X139356627Y-101981000D01*
X139370158Y-101977027D01*
X139371683Y-101966420D01*
X139345748Y-101842812D01*
X139342688Y-101832616D01*
X139260716Y-101625048D01*
X139255982Y-101615511D01*
X139140204Y-101424715D01*
X139133938Y-101416122D01*
X138987667Y-101247559D01*
X138980036Y-101240139D01*
X138807458Y-101098632D01*
X138798691Y-101092607D01*
X138637284Y-101000729D01*
X138587978Y-100949647D01*
X138574116Y-100880016D01*
X138600099Y-100813945D01*
X138657679Y-100772411D01*
X138693007Y-100765500D01*
X138693834Y-100765500D01*
X138696794Y-100765220D01*
X138696798Y-100765220D01*
X138717722Y-100763242D01*
X138717723Y-100763242D01*
X138725369Y-100762519D01*
X138853184Y-100717634D01*
X138860754Y-100712042D01*
X138860757Y-100712041D01*
X138954579Y-100642742D01*
X138962150Y-100637150D01*
X138974665Y-100620206D01*
X139037041Y-100535757D01*
X139037042Y-100535754D01*
X139042634Y-100528184D01*
X139047890Y-100513218D01*
X144304500Y-100513218D01*
X144305170Y-100517768D01*
X144305170Y-100517771D01*
X144313216Y-100572426D01*
X144314642Y-100582112D01*
X144366068Y-100686855D01*
X144448650Y-100769293D01*
X144553482Y-100820536D01*
X144583973Y-100824984D01*
X144617256Y-100829840D01*
X144617260Y-100829840D01*
X144621782Y-100830500D01*
X146338218Y-100830500D01*
X146342768Y-100829830D01*
X146342771Y-100829830D01*
X146397426Y-100821784D01*
X146397427Y-100821784D01*
X146407112Y-100820358D01*
X146474680Y-100787184D01*
X146502507Y-100773522D01*
X146502509Y-100773521D01*
X146511855Y-100768932D01*
X146594293Y-100686350D01*
X146645536Y-100581518D01*
X146655500Y-100513218D01*
X146655500Y-100146782D01*
X146646871Y-100088162D01*
X146646784Y-100087574D01*
X146646784Y-100087573D01*
X146645358Y-100077888D01*
X146614241Y-100014509D01*
X146598522Y-99982493D01*
X146598521Y-99982491D01*
X146593932Y-99973145D01*
X146511350Y-99890707D01*
X146406518Y-99839464D01*
X146376027Y-99835016D01*
X146342744Y-99830160D01*
X146342740Y-99830160D01*
X146338218Y-99829500D01*
X145931500Y-99829500D01*
X145863379Y-99809498D01*
X145816886Y-99755842D01*
X145805500Y-99703500D01*
X145805500Y-99686500D01*
X145825502Y-99618379D01*
X145879158Y-99571886D01*
X145931500Y-99560500D01*
X146338218Y-99560500D01*
X146342768Y-99559830D01*
X146342771Y-99559830D01*
X146397426Y-99551784D01*
X146397427Y-99551784D01*
X146407112Y-99550358D01*
X146501804Y-99503867D01*
X146502507Y-99503522D01*
X146502509Y-99503521D01*
X146511855Y-99498932D01*
X146594293Y-99416350D01*
X146645536Y-99311518D01*
X146655500Y-99243218D01*
X146655500Y-98876782D01*
X146646871Y-98818162D01*
X146646784Y-98817574D01*
X146646784Y-98817573D01*
X146645358Y-98807888D01*
X146593932Y-98703145D01*
X146511350Y-98620707D01*
X146406518Y-98569464D01*
X146376027Y-98565016D01*
X146342744Y-98560160D01*
X146342740Y-98560160D01*
X146338218Y-98559500D01*
X144621782Y-98559500D01*
X144617232Y-98560170D01*
X144617229Y-98560170D01*
X144562574Y-98568216D01*
X144562573Y-98568216D01*
X144552888Y-98569642D01*
X144502992Y-98594140D01*
X144457493Y-98616478D01*
X144457491Y-98616479D01*
X144448145Y-98621068D01*
X144365707Y-98703650D01*
X144314464Y-98808482D01*
X144304500Y-98876782D01*
X144304500Y-99243218D01*
X144305170Y-99247768D01*
X144305170Y-99247771D01*
X144313216Y-99302426D01*
X144314642Y-99312112D01*
X144366068Y-99416855D01*
X144448650Y-99499293D01*
X144553482Y-99550536D01*
X144583973Y-99554984D01*
X144617256Y-99559840D01*
X144617260Y-99559840D01*
X144621782Y-99560500D01*
X145028500Y-99560500D01*
X145096621Y-99580502D01*
X145143114Y-99634158D01*
X145154500Y-99686500D01*
X145154500Y-99703500D01*
X145134498Y-99771621D01*
X145080842Y-99818114D01*
X145028500Y-99829500D01*
X144621782Y-99829500D01*
X144617232Y-99830170D01*
X144617229Y-99830170D01*
X144562574Y-99838216D01*
X144562573Y-99838216D01*
X144552888Y-99839642D01*
X144515672Y-99857914D01*
X144457493Y-99886478D01*
X144457491Y-99886479D01*
X144448145Y-99891068D01*
X144365707Y-99973650D01*
X144314464Y-100078482D01*
X144304500Y-100146782D01*
X144304500Y-100513218D01*
X139047890Y-100513218D01*
X139087519Y-100400369D01*
X139090500Y-100368834D01*
X139090500Y-100146500D01*
X139110502Y-100078379D01*
X139164158Y-100031886D01*
X139216500Y-100020500D01*
X139680290Y-100020500D01*
X139691272Y-100020980D01*
X139717820Y-100023303D01*
X139717822Y-100023303D01*
X139728807Y-100024264D01*
X139765215Y-100014508D01*
X139775942Y-100012130D01*
X139779301Y-100011538D01*
X139813045Y-100005588D01*
X139822590Y-100000077D01*
X139825866Y-99998885D01*
X139829034Y-99997408D01*
X139839684Y-99994554D01*
X139870544Y-99972945D01*
X139879815Y-99967039D01*
X139902906Y-99953707D01*
X139912455Y-99948194D01*
X139936685Y-99919317D01*
X139944111Y-99911215D01*
X141702921Y-98152405D01*
X141765233Y-98118379D01*
X141792016Y-98115500D01*
X144282532Y-98115500D01*
X144350653Y-98135502D01*
X144371548Y-98152325D01*
X144448650Y-98229293D01*
X144553482Y-98280536D01*
X144583973Y-98284984D01*
X144617256Y-98289840D01*
X144617260Y-98289840D01*
X144621782Y-98290500D01*
X146338218Y-98290500D01*
X146342768Y-98289830D01*
X146342771Y-98289830D01*
X146397426Y-98281784D01*
X146397427Y-98281784D01*
X146407112Y-98280358D01*
X146501804Y-98233867D01*
X146502507Y-98233522D01*
X146502509Y-98233521D01*
X146511855Y-98228932D01*
X146594293Y-98146350D01*
X146645536Y-98041518D01*
X146655500Y-97973218D01*
X146655500Y-97606782D01*
X146650643Y-97573785D01*
X146646784Y-97547574D01*
X146646784Y-97547573D01*
X146645358Y-97537888D01*
X146612268Y-97470491D01*
X146598522Y-97442493D01*
X146598521Y-97442491D01*
X146593932Y-97433145D01*
X146511350Y-97350707D01*
X146406518Y-97299464D01*
X146376027Y-97295016D01*
X146342744Y-97290160D01*
X146342740Y-97290160D01*
X146338218Y-97289500D01*
X144621782Y-97289500D01*
X144617232Y-97290170D01*
X144617229Y-97290170D01*
X144562574Y-97298216D01*
X144562573Y-97298216D01*
X144552888Y-97299642D01*
X144502992Y-97324140D01*
X144457493Y-97346478D01*
X144457491Y-97346479D01*
X144448145Y-97351068D01*
X144440787Y-97358438D01*
X144440788Y-97358438D01*
X144371828Y-97427518D01*
X144309545Y-97461597D01*
X144282655Y-97464500D01*
X141624710Y-97464500D01*
X141613728Y-97464020D01*
X141587180Y-97461697D01*
X141587178Y-97461697D01*
X141576193Y-97460736D01*
X141539785Y-97470492D01*
X141529058Y-97472870D01*
X141525699Y-97473462D01*
X141491955Y-97479412D01*
X141482410Y-97484923D01*
X141479134Y-97486115D01*
X141475966Y-97487592D01*
X141465316Y-97490446D01*
X141456285Y-97496770D01*
X141434456Y-97512055D01*
X141425185Y-97517961D01*
X141405896Y-97529098D01*
X141392545Y-97536806D01*
X141385459Y-97545251D01*
X141368315Y-97565682D01*
X141360889Y-97573785D01*
X139602079Y-99332595D01*
X139539767Y-99366621D01*
X139512984Y-99369500D01*
X139216500Y-99369500D01*
X139148379Y-99349498D01*
X139101886Y-99295842D01*
X139090500Y-99243500D01*
X139090500Y-99021166D01*
X139087519Y-98989631D01*
X139042634Y-98861816D01*
X139037042Y-98854246D01*
X139037041Y-98854243D01*
X138967742Y-98760421D01*
X138962150Y-98752850D01*
X138945206Y-98740335D01*
X138860757Y-98677959D01*
X138860754Y-98677958D01*
X138853184Y-98672366D01*
X138725369Y-98627481D01*
X138717723Y-98626758D01*
X138717722Y-98626758D01*
X138711752Y-98626194D01*
X138693834Y-98624500D01*
X136896166Y-98624500D01*
X136878248Y-98626194D01*
X136872278Y-98626758D01*
X136872277Y-98626758D01*
X136864631Y-98627481D01*
X136736816Y-98672366D01*
X136729246Y-98677958D01*
X136729243Y-98677959D01*
X136644794Y-98740335D01*
X136627850Y-98752850D01*
X136622258Y-98760421D01*
X136552959Y-98854243D01*
X136552958Y-98854246D01*
X136547366Y-98861816D01*
X136502481Y-98989631D01*
X136499500Y-99021166D01*
X136499500Y-100368834D01*
X136502481Y-100400369D01*
X136547366Y-100528184D01*
X136552958Y-100535754D01*
X136552959Y-100535757D01*
X136615335Y-100620206D01*
X136627850Y-100637150D01*
X136635421Y-100642742D01*
X136729243Y-100712041D01*
X136729246Y-100712042D01*
X136736816Y-100717634D01*
X136864631Y-100762519D01*
X136872277Y-100763242D01*
X136872278Y-100763242D01*
X136882477Y-100764206D01*
X136896166Y-100765500D01*
X136897278Y-100765500D01*
X136964089Y-100788589D01*
X137008002Y-100844376D01*
X137014783Y-100915048D01*
X136982280Y-100978167D01*
X136942799Y-101006141D01*
X136902272Y-101024397D01*
X136892982Y-101029568D01*
X136707845Y-101154210D01*
X136699559Y-101160871D01*
X136538070Y-101314924D01*
X136531021Y-101322892D01*
X136397797Y-101501952D01*
X136392198Y-101510982D01*
X136291047Y-101709931D01*
X136287044Y-101719792D01*
X136220862Y-101932929D01*
X136218580Y-101943309D01*
X136215964Y-101963043D01*
X130175000Y-101963043D01*
X130175000Y-94883580D01*
X136218317Y-94883580D01*
X136244252Y-95007188D01*
X136247312Y-95017384D01*
X136329284Y-95224952D01*
X136334018Y-95234489D01*
X136449796Y-95425285D01*
X136456062Y-95433878D01*
X136602333Y-95602441D01*
X136609964Y-95609861D01*
X136782542Y-95751368D01*
X136791309Y-95757393D01*
X136985262Y-95867797D01*
X136994926Y-95872262D01*
X137204711Y-95948410D01*
X137214979Y-95951181D01*
X137435766Y-95991106D01*
X137443995Y-95992039D01*
X137462874Y-95992930D01*
X137465849Y-95993000D01*
X137522885Y-95993000D01*
X137538124Y-95988525D01*
X137539329Y-95987135D01*
X137541000Y-95979452D01*
X137541000Y-95974885D01*
X138049000Y-95974885D01*
X138053475Y-95990124D01*
X138054865Y-95991329D01*
X138062548Y-95993000D01*
X138076054Y-95993000D01*
X138081363Y-95992775D01*
X138247707Y-95978661D01*
X138258179Y-95976871D01*
X138474202Y-95920802D01*
X138484242Y-95917266D01*
X138491921Y-95913807D01*
X142545736Y-95913807D01*
X142555491Y-95950210D01*
X142557870Y-95960942D01*
X142564412Y-95998045D01*
X142569923Y-96007590D01*
X142571115Y-96010866D01*
X142572592Y-96014034D01*
X142575446Y-96024684D01*
X142581940Y-96033958D01*
X142597055Y-96055544D01*
X142602961Y-96064815D01*
X142609496Y-96076133D01*
X142621806Y-96097455D01*
X142630251Y-96104541D01*
X142650682Y-96121685D01*
X142658785Y-96129111D01*
X143265889Y-96736215D01*
X143273316Y-96744319D01*
X143297545Y-96773194D01*
X143307094Y-96778707D01*
X143330185Y-96792039D01*
X143339456Y-96797945D01*
X143370316Y-96819554D01*
X143380966Y-96822408D01*
X143384134Y-96823885D01*
X143387410Y-96825077D01*
X143396955Y-96830588D01*
X143430699Y-96836538D01*
X143434058Y-96837130D01*
X143444785Y-96839508D01*
X143481193Y-96849264D01*
X143492169Y-96848304D01*
X143492172Y-96848304D01*
X143518743Y-96845979D01*
X143529724Y-96845500D01*
X144282532Y-96845500D01*
X144350653Y-96865502D01*
X144371548Y-96882325D01*
X144448650Y-96959293D01*
X144553482Y-97010536D01*
X144583973Y-97014984D01*
X144617256Y-97019840D01*
X144617260Y-97019840D01*
X144621782Y-97020500D01*
X146338218Y-97020500D01*
X146342768Y-97019830D01*
X146342771Y-97019830D01*
X146397426Y-97011784D01*
X146397427Y-97011784D01*
X146407112Y-97010358D01*
X146501804Y-96963867D01*
X146502507Y-96963522D01*
X146502509Y-96963521D01*
X146511855Y-96958932D01*
X146594293Y-96876350D01*
X146645536Y-96771518D01*
X146655500Y-96703218D01*
X146655500Y-96336782D01*
X146650933Y-96305754D01*
X146646784Y-96277574D01*
X146646784Y-96277573D01*
X146645358Y-96267888D01*
X146619185Y-96214579D01*
X146598522Y-96172493D01*
X146598521Y-96172491D01*
X146593932Y-96163145D01*
X146511350Y-96080707D01*
X146478839Y-96064815D01*
X146446906Y-96049206D01*
X146406518Y-96029464D01*
X146373753Y-96024684D01*
X146342744Y-96020160D01*
X146342740Y-96020160D01*
X146338218Y-96019500D01*
X144621782Y-96019500D01*
X144617232Y-96020170D01*
X144617229Y-96020170D01*
X144562574Y-96028216D01*
X144562573Y-96028216D01*
X144552888Y-96029642D01*
X144515672Y-96047914D01*
X144457493Y-96076478D01*
X144457491Y-96076479D01*
X144448145Y-96081068D01*
X144440787Y-96088438D01*
X144440788Y-96088438D01*
X144371828Y-96157518D01*
X144309545Y-96191597D01*
X144282655Y-96194500D01*
X143697016Y-96194500D01*
X143628895Y-96174498D01*
X143607921Y-96157595D01*
X143237405Y-95787079D01*
X143203379Y-95724767D01*
X143200500Y-95697984D01*
X143200500Y-91070871D01*
X144003456Y-91070871D01*
X144044107Y-91210790D01*
X144050352Y-91225221D01*
X144126911Y-91354678D01*
X144136551Y-91367104D01*
X144242896Y-91473449D01*
X144255322Y-91483089D01*
X144384779Y-91559648D01*
X144399210Y-91565893D01*
X144545065Y-91608269D01*
X144557667Y-91610570D01*
X144586084Y-91612807D01*
X144591014Y-91613000D01*
X145207885Y-91613000D01*
X145223124Y-91608525D01*
X145224329Y-91607135D01*
X145226000Y-91599452D01*
X145226000Y-91594884D01*
X145734000Y-91594884D01*
X145738475Y-91610123D01*
X145739865Y-91611328D01*
X145747548Y-91612999D01*
X146368984Y-91612999D01*
X146373920Y-91612805D01*
X146402336Y-91610570D01*
X146414931Y-91608270D01*
X146560790Y-91565893D01*
X146575221Y-91559648D01*
X146704678Y-91483089D01*
X146717104Y-91473449D01*
X146823449Y-91367104D01*
X146833089Y-91354678D01*
X146909648Y-91225221D01*
X146915893Y-91210790D01*
X146954939Y-91076395D01*
X146954899Y-91062294D01*
X146947630Y-91059000D01*
X145752115Y-91059000D01*
X145736876Y-91063475D01*
X145735671Y-91064865D01*
X145734000Y-91072548D01*
X145734000Y-91594884D01*
X145226000Y-91594884D01*
X145226000Y-91077115D01*
X145221525Y-91061876D01*
X145220135Y-91060671D01*
X145212452Y-91059000D01*
X144018122Y-91059000D01*
X144004591Y-91062973D01*
X144003456Y-91070871D01*
X143200500Y-91070871D01*
X143200500Y-90357016D01*
X143220502Y-90288895D01*
X143237405Y-90267921D01*
X143607921Y-89897405D01*
X143670233Y-89863379D01*
X143697016Y-89860500D01*
X144245221Y-89860500D01*
X144313342Y-89880502D01*
X144359835Y-89934158D01*
X144369939Y-90004432D01*
X144340445Y-90069012D01*
X144309360Y-90094954D01*
X144255323Y-90126911D01*
X144242896Y-90136551D01*
X144136551Y-90242896D01*
X144126911Y-90255322D01*
X144050352Y-90384779D01*
X144044107Y-90399210D01*
X144005061Y-90533605D01*
X144005101Y-90547706D01*
X144012370Y-90551000D01*
X146941878Y-90551000D01*
X146955409Y-90547027D01*
X146956544Y-90539129D01*
X146915893Y-90399210D01*
X146909648Y-90384779D01*
X146833089Y-90255322D01*
X146823449Y-90242896D01*
X146717104Y-90136551D01*
X146704674Y-90126909D01*
X146625542Y-90080111D01*
X146577089Y-90028218D01*
X146564383Y-89958368D01*
X146587060Y-89898595D01*
X146594293Y-89891350D01*
X146598864Y-89881999D01*
X146598866Y-89881996D01*
X146641240Y-89795306D01*
X146645536Y-89786518D01*
X146655500Y-89718218D01*
X146655500Y-89351782D01*
X146653638Y-89339129D01*
X146646784Y-89292574D01*
X146646784Y-89292573D01*
X146645358Y-89282888D01*
X146612268Y-89215491D01*
X146598522Y-89187493D01*
X146598521Y-89187491D01*
X146593932Y-89178145D01*
X146511350Y-89095707D01*
X146487151Y-89083878D01*
X146469540Y-89075270D01*
X146406518Y-89044464D01*
X146376027Y-89040016D01*
X146342744Y-89035160D01*
X146342740Y-89035160D01*
X146338218Y-89034500D01*
X144621782Y-89034500D01*
X144617232Y-89035170D01*
X144617229Y-89035170D01*
X144562574Y-89043216D01*
X144562573Y-89043216D01*
X144552888Y-89044642D01*
X144502992Y-89069140D01*
X144457493Y-89091478D01*
X144457491Y-89091479D01*
X144448145Y-89096068D01*
X144440787Y-89103438D01*
X144440788Y-89103438D01*
X144371828Y-89172518D01*
X144309545Y-89206597D01*
X144282655Y-89209500D01*
X143529710Y-89209500D01*
X143518728Y-89209020D01*
X143492180Y-89206697D01*
X143492178Y-89206697D01*
X143481193Y-89205736D01*
X143444785Y-89215492D01*
X143434058Y-89217870D01*
X143430699Y-89218462D01*
X143396955Y-89224412D01*
X143387410Y-89229923D01*
X143384134Y-89231115D01*
X143380966Y-89232592D01*
X143370316Y-89235446D01*
X143361285Y-89241770D01*
X143339456Y-89257055D01*
X143330185Y-89262961D01*
X143310896Y-89274098D01*
X143297545Y-89281806D01*
X143290459Y-89290251D01*
X143273315Y-89310682D01*
X143265889Y-89318785D01*
X142658785Y-89925889D01*
X142650681Y-89933316D01*
X142621806Y-89957545D01*
X142616293Y-89967094D01*
X142602961Y-89990185D01*
X142597055Y-89999456D01*
X142575446Y-90030316D01*
X142572592Y-90040966D01*
X142571115Y-90044134D01*
X142569923Y-90047410D01*
X142564412Y-90056955D01*
X142559524Y-90084678D01*
X142557870Y-90094058D01*
X142555492Y-90104785D01*
X142545736Y-90141193D01*
X142546697Y-90152178D01*
X142546697Y-90152180D01*
X142549020Y-90178728D01*
X142549500Y-90189710D01*
X142549500Y-95865290D01*
X142549020Y-95876272D01*
X142545736Y-95913807D01*
X138491921Y-95913807D01*
X138687732Y-95825601D01*
X138697018Y-95820432D01*
X138882155Y-95695790D01*
X138890441Y-95689129D01*
X139051930Y-95535076D01*
X139058979Y-95527108D01*
X139192203Y-95348048D01*
X139197802Y-95339018D01*
X139298953Y-95140069D01*
X139302956Y-95130208D01*
X139369138Y-94917071D01*
X139371420Y-94906691D01*
X139374036Y-94886957D01*
X139371840Y-94872793D01*
X139358655Y-94869000D01*
X138067115Y-94869000D01*
X138051876Y-94873475D01*
X138050671Y-94874865D01*
X138049000Y-94882548D01*
X138049000Y-95974885D01*
X137541000Y-95974885D01*
X137541000Y-94887115D01*
X137536525Y-94871876D01*
X137535135Y-94870671D01*
X137527452Y-94869000D01*
X136233373Y-94869000D01*
X136219842Y-94872973D01*
X136218317Y-94883580D01*
X130175000Y-94883580D01*
X130175000Y-94343043D01*
X136215964Y-94343043D01*
X136218160Y-94357207D01*
X136231345Y-94361000D01*
X139356627Y-94361000D01*
X139370158Y-94357027D01*
X139371683Y-94346420D01*
X139345748Y-94222812D01*
X139342688Y-94212616D01*
X139260716Y-94005048D01*
X139255982Y-93995511D01*
X139140204Y-93804715D01*
X139133938Y-93796122D01*
X138987667Y-93627559D01*
X138980036Y-93620139D01*
X138807458Y-93478632D01*
X138798691Y-93472607D01*
X138637284Y-93380729D01*
X138587978Y-93329647D01*
X138574116Y-93260016D01*
X138600099Y-93193945D01*
X138657679Y-93152411D01*
X138693007Y-93145500D01*
X138693834Y-93145500D01*
X138696794Y-93145220D01*
X138696798Y-93145220D01*
X138717722Y-93143242D01*
X138717723Y-93143242D01*
X138725369Y-93142519D01*
X138853184Y-93097634D01*
X138860754Y-93092042D01*
X138860757Y-93092041D01*
X138954579Y-93022742D01*
X138962150Y-93017150D01*
X138985794Y-92985139D01*
X139037041Y-92915757D01*
X139037042Y-92915754D01*
X139042634Y-92908184D01*
X139087519Y-92780369D01*
X139090500Y-92748834D01*
X139090500Y-91927016D01*
X139110502Y-91858895D01*
X139127405Y-91837921D01*
X142337921Y-88627405D01*
X142400233Y-88593379D01*
X142427016Y-88590500D01*
X144282532Y-88590500D01*
X144350653Y-88610502D01*
X144371548Y-88627325D01*
X144448650Y-88704293D01*
X144553482Y-88755536D01*
X144583973Y-88759984D01*
X144617256Y-88764840D01*
X144617260Y-88764840D01*
X144621782Y-88765500D01*
X146338218Y-88765500D01*
X146342768Y-88764830D01*
X146342771Y-88764830D01*
X146397426Y-88756784D01*
X146397427Y-88756784D01*
X146407112Y-88755358D01*
X146501804Y-88708867D01*
X146502507Y-88708522D01*
X146502509Y-88708521D01*
X146511855Y-88703932D01*
X146553273Y-88662442D01*
X146586935Y-88628721D01*
X146586935Y-88628720D01*
X146594293Y-88621350D01*
X146645536Y-88516518D01*
X146655500Y-88448218D01*
X146655500Y-88081782D01*
X146657773Y-88081782D01*
X146670715Y-88021439D01*
X146720770Y-87971090D01*
X146781479Y-87955500D01*
X147132984Y-87955500D01*
X147201105Y-87975502D01*
X147222079Y-87992405D01*
X147592595Y-88362921D01*
X147626621Y-88425233D01*
X147629500Y-88452016D01*
X147629500Y-100460482D01*
X147609498Y-100528603D01*
X147592596Y-100549577D01*
X146904579Y-101237595D01*
X146842266Y-101271620D01*
X146815483Y-101274500D01*
X146677468Y-101274500D01*
X146609347Y-101254498D01*
X146588450Y-101237673D01*
X146544912Y-101194210D01*
X146511350Y-101160707D01*
X146406518Y-101109464D01*
X146376027Y-101105016D01*
X146342744Y-101100160D01*
X146342740Y-101100160D01*
X146338218Y-101099500D01*
X144621782Y-101099500D01*
X144617232Y-101100170D01*
X144617229Y-101100170D01*
X144562574Y-101108216D01*
X144562573Y-101108216D01*
X144552888Y-101109642D01*
X144502992Y-101134140D01*
X144457493Y-101156478D01*
X144457491Y-101156479D01*
X144448145Y-101161068D01*
X144365707Y-101243650D01*
X144361134Y-101253006D01*
X144361133Y-101253007D01*
X144358946Y-101257481D01*
X144314464Y-101348482D01*
X144304500Y-101416782D01*
X144304500Y-101783218D01*
X144314642Y-101852112D01*
X144327852Y-101879018D01*
X144361021Y-101946575D01*
X144366068Y-101956855D01*
X144448650Y-102039293D01*
X144553482Y-102090536D01*
X144583973Y-102094984D01*
X144617256Y-102099840D01*
X144617260Y-102099840D01*
X144621782Y-102100500D01*
X146338218Y-102100500D01*
X146342768Y-102099830D01*
X146342771Y-102099830D01*
X146397426Y-102091784D01*
X146397427Y-102091784D01*
X146407112Y-102090358D01*
X146501804Y-102043867D01*
X146502507Y-102043522D01*
X146502509Y-102043521D01*
X146511855Y-102038932D01*
X146546317Y-102004410D01*
X146588172Y-101962482D01*
X146650455Y-101928403D01*
X146677345Y-101925500D01*
X146982790Y-101925500D01*
X146993772Y-101925980D01*
X147020320Y-101928303D01*
X147020322Y-101928303D01*
X147031307Y-101929264D01*
X147067715Y-101919508D01*
X147078442Y-101917130D01*
X147081801Y-101916538D01*
X147115545Y-101910588D01*
X147125090Y-101905077D01*
X147128366Y-101903885D01*
X147131534Y-101902408D01*
X147142184Y-101899554D01*
X147173044Y-101877945D01*
X147182315Y-101872039D01*
X147205406Y-101858707D01*
X147214955Y-101853194D01*
X147239179Y-101824325D01*
X147246606Y-101816220D01*
X148171228Y-100891599D01*
X148179332Y-100884173D01*
X148199749Y-100867041D01*
X148208194Y-100859955D01*
X148227039Y-100827315D01*
X148232943Y-100818047D01*
X148248231Y-100796213D01*
X148254553Y-100787184D01*
X148257406Y-100776538D01*
X148258883Y-100773370D01*
X148260076Y-100770093D01*
X148265588Y-100760545D01*
X148272132Y-100723431D01*
X148274512Y-100712696D01*
X148281410Y-100686954D01*
X148284263Y-100676307D01*
X148282649Y-100657850D01*
X148280979Y-100638769D01*
X148280500Y-100627788D01*
X148280500Y-99325871D01*
X148953456Y-99325871D01*
X148994107Y-99465790D01*
X149000352Y-99480221D01*
X149076911Y-99609678D01*
X149086551Y-99622104D01*
X149192896Y-99728449D01*
X149205326Y-99738091D01*
X149284458Y-99784889D01*
X149332911Y-99836782D01*
X149345617Y-99906632D01*
X149322940Y-99966405D01*
X149315707Y-99973650D01*
X149311136Y-99983001D01*
X149311134Y-99983004D01*
X149284378Y-100037742D01*
X149264464Y-100078482D01*
X149254500Y-100146782D01*
X149254500Y-100513218D01*
X149255170Y-100517768D01*
X149255170Y-100517771D01*
X149263216Y-100572426D01*
X149264642Y-100582112D01*
X149316068Y-100686855D01*
X149322924Y-100693699D01*
X149346177Y-100760333D01*
X149329614Y-100829370D01*
X149284474Y-100875102D01*
X149205322Y-100921911D01*
X149192896Y-100931551D01*
X149086551Y-101037896D01*
X149076911Y-101050322D01*
X149000352Y-101179779D01*
X148994107Y-101194210D01*
X148955061Y-101328605D01*
X148955101Y-101342706D01*
X148962370Y-101346000D01*
X151891878Y-101346000D01*
X151905409Y-101342027D01*
X151906544Y-101334129D01*
X151865893Y-101194210D01*
X151859648Y-101179779D01*
X151783089Y-101050322D01*
X151773449Y-101037896D01*
X151667104Y-100931551D01*
X151654674Y-100921909D01*
X151575542Y-100875111D01*
X151527089Y-100823218D01*
X151514383Y-100753368D01*
X151537060Y-100693595D01*
X151544293Y-100686350D01*
X151548864Y-100676999D01*
X151548866Y-100676996D01*
X151591240Y-100590306D01*
X151595536Y-100581518D01*
X151605500Y-100513218D01*
X151605500Y-100146782D01*
X151596871Y-100088162D01*
X151596784Y-100087574D01*
X151596784Y-100087573D01*
X151595358Y-100077888D01*
X151543932Y-99973145D01*
X151537076Y-99966301D01*
X151513823Y-99899667D01*
X151530386Y-99830630D01*
X151575526Y-99784898D01*
X151611144Y-99763834D01*
X152689500Y-99763834D01*
X152692481Y-99795369D01*
X152737366Y-99923184D01*
X152742958Y-99930754D01*
X152742959Y-99930757D01*
X152781550Y-99983004D01*
X152817850Y-100032150D01*
X152825421Y-100037742D01*
X152919243Y-100107041D01*
X152919246Y-100107042D01*
X152926816Y-100112634D01*
X153054631Y-100157519D01*
X153062277Y-100158242D01*
X153062278Y-100158242D01*
X153068248Y-100158806D01*
X153086166Y-100160500D01*
X153843834Y-100160500D01*
X153861752Y-100158806D01*
X153867722Y-100158242D01*
X153867723Y-100158242D01*
X153875369Y-100157519D01*
X154003184Y-100112634D01*
X154010754Y-100107042D01*
X154010757Y-100107041D01*
X154104579Y-100037742D01*
X154112150Y-100032150D01*
X154148450Y-99983004D01*
X154187041Y-99930757D01*
X154187042Y-99930754D01*
X154192634Y-99923184D01*
X154237519Y-99795369D01*
X154240500Y-99763834D01*
X154240500Y-99757095D01*
X155332001Y-99757095D01*
X155332338Y-99763614D01*
X155342257Y-99859206D01*
X155345149Y-99872600D01*
X155396588Y-100026784D01*
X155402761Y-100039962D01*
X155488063Y-100177807D01*
X155497099Y-100189208D01*
X155611829Y-100303739D01*
X155623240Y-100312751D01*
X155761243Y-100397816D01*
X155774424Y-100403963D01*
X155928710Y-100455138D01*
X155942086Y-100458005D01*
X156036438Y-100467672D01*
X156042854Y-100468000D01*
X156142885Y-100468000D01*
X156158124Y-100463525D01*
X156159329Y-100462135D01*
X156161000Y-100454452D01*
X156161000Y-100449884D01*
X156669000Y-100449884D01*
X156673475Y-100465123D01*
X156674865Y-100466328D01*
X156682548Y-100467999D01*
X156787095Y-100467999D01*
X156793614Y-100467662D01*
X156889206Y-100457743D01*
X156902600Y-100454851D01*
X157056784Y-100403412D01*
X157069962Y-100397239D01*
X157207807Y-100311937D01*
X157219208Y-100302901D01*
X157333739Y-100188171D01*
X157342751Y-100176760D01*
X157427816Y-100038757D01*
X157433963Y-100025576D01*
X157485138Y-99871290D01*
X157488005Y-99857914D01*
X157497672Y-99763562D01*
X157498000Y-99757146D01*
X157498000Y-99332115D01*
X157493525Y-99316876D01*
X157492135Y-99315671D01*
X157484452Y-99314000D01*
X156687115Y-99314000D01*
X156671876Y-99318475D01*
X156670671Y-99319865D01*
X156669000Y-99327548D01*
X156669000Y-100449884D01*
X156161000Y-100449884D01*
X156161000Y-99332115D01*
X156156525Y-99316876D01*
X156155135Y-99315671D01*
X156147452Y-99314000D01*
X155350116Y-99314000D01*
X155334877Y-99318475D01*
X155333672Y-99319865D01*
X155332001Y-99327548D01*
X155332001Y-99757095D01*
X154240500Y-99757095D01*
X154240500Y-98787885D01*
X155332000Y-98787885D01*
X155336475Y-98803124D01*
X155337865Y-98804329D01*
X155345548Y-98806000D01*
X156142885Y-98806000D01*
X156158124Y-98801525D01*
X156159329Y-98800135D01*
X156161000Y-98792452D01*
X156161000Y-98787885D01*
X156669000Y-98787885D01*
X156673475Y-98803124D01*
X156674865Y-98804329D01*
X156682548Y-98806000D01*
X157479884Y-98806000D01*
X157495123Y-98801525D01*
X157496328Y-98800135D01*
X157497999Y-98792452D01*
X157497999Y-98362905D01*
X157497662Y-98356386D01*
X157487743Y-98260794D01*
X157484851Y-98247400D01*
X157433412Y-98093216D01*
X157427239Y-98080038D01*
X157341937Y-97942193D01*
X157332901Y-97930792D01*
X157218171Y-97816261D01*
X157206760Y-97807249D01*
X157068757Y-97722184D01*
X157055576Y-97716037D01*
X156901290Y-97664862D01*
X156887914Y-97661995D01*
X156793562Y-97652328D01*
X156787145Y-97652000D01*
X156687115Y-97652000D01*
X156671876Y-97656475D01*
X156670671Y-97657865D01*
X156669000Y-97665548D01*
X156669000Y-98787885D01*
X156161000Y-98787885D01*
X156161000Y-97670116D01*
X156156525Y-97654877D01*
X156155135Y-97653672D01*
X156147452Y-97652001D01*
X156042905Y-97652001D01*
X156036386Y-97652338D01*
X155940794Y-97662257D01*
X155927400Y-97665149D01*
X155773216Y-97716588D01*
X155760038Y-97722761D01*
X155622193Y-97808063D01*
X155610792Y-97817099D01*
X155496261Y-97931829D01*
X155487249Y-97943240D01*
X155402184Y-98081243D01*
X155396037Y-98094424D01*
X155344862Y-98248710D01*
X155341995Y-98262086D01*
X155332328Y-98356438D01*
X155332000Y-98362855D01*
X155332000Y-98787885D01*
X154240500Y-98787885D01*
X154240500Y-98356166D01*
X154237519Y-98324631D01*
X154192634Y-98196816D01*
X154187042Y-98189246D01*
X154187041Y-98189243D01*
X154117742Y-98095421D01*
X154112150Y-98087850D01*
X154055045Y-98045671D01*
X154010757Y-98012959D01*
X154010754Y-98012958D01*
X154003184Y-98007366D01*
X153875369Y-97962481D01*
X153876460Y-97959373D01*
X153827297Y-97932451D01*
X153793347Y-97870098D01*
X153790500Y-97843463D01*
X153790500Y-97519286D01*
X153810502Y-97451165D01*
X153839796Y-97419323D01*
X153886736Y-97383305D01*
X153893282Y-97378282D01*
X153989536Y-97252841D01*
X154050044Y-97106762D01*
X154070682Y-96950000D01*
X154050044Y-96793238D01*
X153989536Y-96647159D01*
X153893282Y-96521718D01*
X153894907Y-96520471D01*
X153866167Y-96467840D01*
X153871232Y-96397025D01*
X153913779Y-96340189D01*
X153947540Y-96322175D01*
X153973661Y-96313002D01*
X153994300Y-96305754D01*
X153994301Y-96305753D01*
X154003184Y-96302634D01*
X154010754Y-96297042D01*
X154010757Y-96297041D01*
X154104579Y-96227742D01*
X154112150Y-96222150D01*
X154148448Y-96173007D01*
X154187041Y-96120757D01*
X154187042Y-96120754D01*
X154192634Y-96113184D01*
X154237519Y-95985369D01*
X154240500Y-95953834D01*
X154240500Y-95947095D01*
X155332001Y-95947095D01*
X155332338Y-95953614D01*
X155342257Y-96049206D01*
X155345149Y-96062600D01*
X155396588Y-96216784D01*
X155402761Y-96229962D01*
X155488063Y-96367807D01*
X155497099Y-96379208D01*
X155611829Y-96493739D01*
X155623240Y-96502751D01*
X155761243Y-96587816D01*
X155774424Y-96593963D01*
X155928710Y-96645138D01*
X155942086Y-96648005D01*
X156036438Y-96657672D01*
X156042854Y-96658000D01*
X156142885Y-96658000D01*
X156158124Y-96653525D01*
X156159329Y-96652135D01*
X156161000Y-96644452D01*
X156161000Y-96639884D01*
X156669000Y-96639884D01*
X156673475Y-96655123D01*
X156674865Y-96656328D01*
X156682548Y-96657999D01*
X156787095Y-96657999D01*
X156793614Y-96657662D01*
X156889206Y-96647743D01*
X156902600Y-96644851D01*
X157056784Y-96593412D01*
X157069962Y-96587239D01*
X157207807Y-96501937D01*
X157219208Y-96492901D01*
X157333739Y-96378171D01*
X157342751Y-96366760D01*
X157427816Y-96228757D01*
X157433963Y-96215576D01*
X157485138Y-96061290D01*
X157488005Y-96047914D01*
X157497672Y-95953562D01*
X157498000Y-95947146D01*
X157498000Y-95522115D01*
X157493525Y-95506876D01*
X157492135Y-95505671D01*
X157484452Y-95504000D01*
X156687115Y-95504000D01*
X156671876Y-95508475D01*
X156670671Y-95509865D01*
X156669000Y-95517548D01*
X156669000Y-96639884D01*
X156161000Y-96639884D01*
X156161000Y-95522115D01*
X156156525Y-95506876D01*
X156155135Y-95505671D01*
X156147452Y-95504000D01*
X155350116Y-95504000D01*
X155334877Y-95508475D01*
X155333672Y-95509865D01*
X155332001Y-95517548D01*
X155332001Y-95947095D01*
X154240500Y-95947095D01*
X154240500Y-94977885D01*
X155332000Y-94977885D01*
X155336475Y-94993124D01*
X155337865Y-94994329D01*
X155345548Y-94996000D01*
X156142885Y-94996000D01*
X156158124Y-94991525D01*
X156159329Y-94990135D01*
X156161000Y-94982452D01*
X156161000Y-94977885D01*
X156669000Y-94977885D01*
X156673475Y-94993124D01*
X156674865Y-94994329D01*
X156682548Y-94996000D01*
X157479884Y-94996000D01*
X157495123Y-94991525D01*
X157496328Y-94990135D01*
X157497999Y-94982452D01*
X157497999Y-94552905D01*
X157497662Y-94546386D01*
X157487743Y-94450794D01*
X157484851Y-94437400D01*
X157433412Y-94283216D01*
X157427239Y-94270038D01*
X157413960Y-94248580D01*
X159713317Y-94248580D01*
X159739252Y-94372188D01*
X159742312Y-94382384D01*
X159824284Y-94589952D01*
X159829018Y-94599489D01*
X159944796Y-94790285D01*
X159951062Y-94798878D01*
X160097333Y-94967441D01*
X160104964Y-94974861D01*
X160277542Y-95116368D01*
X160286309Y-95122393D01*
X160480262Y-95232797D01*
X160489926Y-95237262D01*
X160699711Y-95313410D01*
X160709979Y-95316181D01*
X160930766Y-95356106D01*
X160938995Y-95357039D01*
X160957874Y-95357930D01*
X160960849Y-95358000D01*
X161017885Y-95358000D01*
X161033124Y-95353525D01*
X161034329Y-95352135D01*
X161036000Y-95344452D01*
X161036000Y-95339885D01*
X161544000Y-95339885D01*
X161548475Y-95355124D01*
X161549865Y-95356329D01*
X161557548Y-95358000D01*
X161571054Y-95358000D01*
X161576363Y-95357775D01*
X161742707Y-95343661D01*
X161753179Y-95341871D01*
X161969202Y-95285802D01*
X161979242Y-95282266D01*
X162182732Y-95190601D01*
X162192018Y-95185432D01*
X162377155Y-95060790D01*
X162385441Y-95054129D01*
X162546930Y-94900076D01*
X162553979Y-94892108D01*
X162687203Y-94713048D01*
X162692802Y-94704018D01*
X162793953Y-94505069D01*
X162797956Y-94495208D01*
X162864138Y-94282071D01*
X162866420Y-94271691D01*
X162869036Y-94251957D01*
X162866840Y-94237793D01*
X162853655Y-94234000D01*
X161562115Y-94234000D01*
X161546876Y-94238475D01*
X161545671Y-94239865D01*
X161544000Y-94247548D01*
X161544000Y-95339885D01*
X161036000Y-95339885D01*
X161036000Y-94252115D01*
X161031525Y-94236876D01*
X161030135Y-94235671D01*
X161022452Y-94234000D01*
X159728373Y-94234000D01*
X159714842Y-94237973D01*
X159713317Y-94248580D01*
X157413960Y-94248580D01*
X157341937Y-94132193D01*
X157332901Y-94120792D01*
X157218171Y-94006261D01*
X157206760Y-93997249D01*
X157068757Y-93912184D01*
X157055576Y-93906037D01*
X156901290Y-93854862D01*
X156887914Y-93851995D01*
X156793562Y-93842328D01*
X156787145Y-93842000D01*
X156687115Y-93842000D01*
X156671876Y-93846475D01*
X156670671Y-93847865D01*
X156669000Y-93855548D01*
X156669000Y-94977885D01*
X156161000Y-94977885D01*
X156161000Y-93860116D01*
X156156525Y-93844877D01*
X156155135Y-93843672D01*
X156147452Y-93842001D01*
X156042905Y-93842001D01*
X156036386Y-93842338D01*
X155940794Y-93852257D01*
X155927400Y-93855149D01*
X155773216Y-93906588D01*
X155760038Y-93912761D01*
X155622193Y-93998063D01*
X155610792Y-94007099D01*
X155496261Y-94121829D01*
X155487249Y-94133240D01*
X155402184Y-94271243D01*
X155396037Y-94284424D01*
X155344862Y-94438710D01*
X155341995Y-94452086D01*
X155332328Y-94546438D01*
X155332000Y-94552855D01*
X155332000Y-94977885D01*
X154240500Y-94977885D01*
X154240500Y-94546166D01*
X154237519Y-94514631D01*
X154192634Y-94386816D01*
X154187042Y-94379246D01*
X154187041Y-94379243D01*
X154117742Y-94285421D01*
X154112150Y-94277850D01*
X154058161Y-94237973D01*
X154010757Y-94202959D01*
X154010754Y-94202958D01*
X154003184Y-94197366D01*
X153875369Y-94152481D01*
X153867723Y-94151758D01*
X153867722Y-94151758D01*
X153861752Y-94151194D01*
X153843834Y-94149500D01*
X153086166Y-94149500D01*
X153068248Y-94151194D01*
X153062278Y-94151758D01*
X153062277Y-94151758D01*
X153054631Y-94152481D01*
X152926816Y-94197366D01*
X152919246Y-94202958D01*
X152919243Y-94202959D01*
X152871839Y-94237973D01*
X152817850Y-94277850D01*
X152812258Y-94285421D01*
X152742959Y-94379243D01*
X152742958Y-94379246D01*
X152737366Y-94386816D01*
X152692481Y-94514631D01*
X152689500Y-94546166D01*
X152689500Y-95953834D01*
X152692481Y-95985369D01*
X152737366Y-96113184D01*
X152742958Y-96120754D01*
X152742959Y-96120757D01*
X152781552Y-96173007D01*
X152817850Y-96222150D01*
X152825421Y-96227742D01*
X152919243Y-96297041D01*
X152919246Y-96297042D01*
X152926816Y-96302634D01*
X152935699Y-96305753D01*
X152935700Y-96305754D01*
X152956339Y-96313002D01*
X152982460Y-96322174D01*
X153040105Y-96363616D01*
X153066194Y-96429646D01*
X153052444Y-96499298D01*
X153036255Y-96521363D01*
X153036718Y-96521718D01*
X152940464Y-96647159D01*
X152879956Y-96793238D01*
X152859318Y-96950000D01*
X152879956Y-97106762D01*
X152940464Y-97252841D01*
X153036718Y-97378282D01*
X153043264Y-97383305D01*
X153090204Y-97419323D01*
X153132071Y-97476661D01*
X153139500Y-97519286D01*
X153139500Y-97843463D01*
X153119498Y-97911584D01*
X153065842Y-97958077D01*
X153054422Y-97961886D01*
X153054631Y-97962481D01*
X152926816Y-98007366D01*
X152919246Y-98012958D01*
X152919243Y-98012959D01*
X152874955Y-98045671D01*
X152817850Y-98087850D01*
X152812258Y-98095421D01*
X152742959Y-98189243D01*
X152742958Y-98189246D01*
X152737366Y-98196816D01*
X152692481Y-98324631D01*
X152689500Y-98356166D01*
X152689500Y-99763834D01*
X151611144Y-99763834D01*
X151654678Y-99738089D01*
X151667104Y-99728449D01*
X151773449Y-99622104D01*
X151783089Y-99609678D01*
X151859648Y-99480221D01*
X151865893Y-99465790D01*
X151904939Y-99331395D01*
X151904899Y-99317294D01*
X151897630Y-99314000D01*
X148968122Y-99314000D01*
X148954591Y-99317973D01*
X148953456Y-99325871D01*
X148280500Y-99325871D01*
X148280500Y-98055871D01*
X148953456Y-98055871D01*
X148994107Y-98195790D01*
X149000352Y-98210221D01*
X149076912Y-98339678D01*
X149083189Y-98347770D01*
X149109139Y-98413854D01*
X149095241Y-98483477D01*
X149083189Y-98502230D01*
X149076912Y-98510322D01*
X149000352Y-98639779D01*
X148994107Y-98654210D01*
X148955061Y-98788605D01*
X148955101Y-98802706D01*
X148962370Y-98806000D01*
X150157885Y-98806000D01*
X150173124Y-98801525D01*
X150174329Y-98800135D01*
X150176000Y-98792452D01*
X150176000Y-98787885D01*
X150684000Y-98787885D01*
X150688475Y-98803124D01*
X150689865Y-98804329D01*
X150697548Y-98806000D01*
X151891878Y-98806000D01*
X151905409Y-98802027D01*
X151906544Y-98794129D01*
X151865893Y-98654210D01*
X151859648Y-98639779D01*
X151783088Y-98510322D01*
X151776811Y-98502230D01*
X151750861Y-98436146D01*
X151764759Y-98366523D01*
X151776811Y-98347770D01*
X151783088Y-98339678D01*
X151859648Y-98210221D01*
X151865893Y-98195790D01*
X151904939Y-98061395D01*
X151904899Y-98047294D01*
X151897630Y-98044000D01*
X150702115Y-98044000D01*
X150686876Y-98048475D01*
X150685671Y-98049865D01*
X150684000Y-98057548D01*
X150684000Y-98787885D01*
X150176000Y-98787885D01*
X150176000Y-98062115D01*
X150171525Y-98046876D01*
X150170135Y-98045671D01*
X150162452Y-98044000D01*
X148968122Y-98044000D01*
X148954591Y-98047973D01*
X148953456Y-98055871D01*
X148280500Y-98055871D01*
X148280500Y-97518605D01*
X148955061Y-97518605D01*
X148955101Y-97532706D01*
X148962370Y-97536000D01*
X151891878Y-97536000D01*
X151905409Y-97532027D01*
X151906544Y-97524129D01*
X151865893Y-97384210D01*
X151859648Y-97369779D01*
X151783089Y-97240322D01*
X151773449Y-97227896D01*
X151667104Y-97121551D01*
X151654674Y-97111909D01*
X151575542Y-97065111D01*
X151527089Y-97013218D01*
X151514383Y-96943368D01*
X151537060Y-96883595D01*
X151544293Y-96876350D01*
X151548864Y-96866999D01*
X151548866Y-96866996D01*
X151591240Y-96780306D01*
X151595536Y-96771518D01*
X151605500Y-96703218D01*
X151605500Y-96336782D01*
X151600933Y-96305754D01*
X151596784Y-96277574D01*
X151596784Y-96277573D01*
X151595358Y-96267888D01*
X151569185Y-96214579D01*
X151548522Y-96172493D01*
X151548521Y-96172491D01*
X151543932Y-96163145D01*
X151461350Y-96080707D01*
X151428839Y-96064815D01*
X151396906Y-96049206D01*
X151356518Y-96029464D01*
X151323753Y-96024684D01*
X151292744Y-96020160D01*
X151292740Y-96020160D01*
X151288218Y-96019500D01*
X150881500Y-96019500D01*
X150813379Y-95999498D01*
X150766886Y-95945842D01*
X150755500Y-95893500D01*
X150755500Y-95869162D01*
X150775502Y-95801041D01*
X150804796Y-95769199D01*
X150808013Y-95766731D01*
X150923282Y-95678282D01*
X151019536Y-95552841D01*
X151080044Y-95406762D01*
X151100682Y-95250000D01*
X151080044Y-95093238D01*
X151019536Y-94947159D01*
X150923282Y-94821718D01*
X150797841Y-94725464D01*
X150651762Y-94664956D01*
X150495000Y-94644318D01*
X150338238Y-94664956D01*
X150192159Y-94725464D01*
X150066718Y-94821718D01*
X149970464Y-94947159D01*
X149909956Y-95093238D01*
X149889318Y-95250000D01*
X149909956Y-95406762D01*
X149970464Y-95552841D01*
X150066718Y-95678282D01*
X150068835Y-95679906D01*
X150101621Y-95739948D01*
X150104500Y-95766731D01*
X150104500Y-95893500D01*
X150084498Y-95961621D01*
X150030842Y-96008114D01*
X149978500Y-96019500D01*
X149571782Y-96019500D01*
X149567232Y-96020170D01*
X149567229Y-96020170D01*
X149512574Y-96028216D01*
X149512573Y-96028216D01*
X149502888Y-96029642D01*
X149465672Y-96047914D01*
X149407493Y-96076478D01*
X149407491Y-96076479D01*
X149398145Y-96081068D01*
X149315707Y-96163650D01*
X149264464Y-96268482D01*
X149263052Y-96278162D01*
X149259027Y-96305754D01*
X149254500Y-96336782D01*
X149254500Y-96703218D01*
X149255170Y-96707768D01*
X149255170Y-96707771D01*
X149263216Y-96762426D01*
X149264642Y-96772112D01*
X149316068Y-96876855D01*
X149322924Y-96883699D01*
X149346177Y-96950333D01*
X149329614Y-97019370D01*
X149284474Y-97065102D01*
X149205322Y-97111911D01*
X149192896Y-97121551D01*
X149086551Y-97227896D01*
X149076911Y-97240322D01*
X149000352Y-97369779D01*
X148994107Y-97384210D01*
X148955061Y-97518605D01*
X148280500Y-97518605D01*
X148280500Y-93708043D01*
X159710964Y-93708043D01*
X159713160Y-93722207D01*
X159726345Y-93726000D01*
X162851627Y-93726000D01*
X162865158Y-93722027D01*
X162866683Y-93711420D01*
X162840748Y-93587812D01*
X162837688Y-93577616D01*
X162755716Y-93370048D01*
X162750982Y-93360511D01*
X162635204Y-93169715D01*
X162628938Y-93161122D01*
X162482667Y-92992559D01*
X162475036Y-92985139D01*
X162302458Y-92843632D01*
X162293691Y-92837607D01*
X162132284Y-92745729D01*
X162082978Y-92694647D01*
X162069116Y-92625016D01*
X162095099Y-92558945D01*
X162152679Y-92517411D01*
X162188007Y-92510500D01*
X162188834Y-92510500D01*
X162191794Y-92510220D01*
X162191798Y-92510220D01*
X162212722Y-92508242D01*
X162212723Y-92508242D01*
X162220369Y-92507519D01*
X162348184Y-92462634D01*
X162355754Y-92457042D01*
X162355757Y-92457041D01*
X162449579Y-92387742D01*
X162457150Y-92382150D01*
X162469665Y-92365206D01*
X162532041Y-92280757D01*
X162532042Y-92280754D01*
X162537634Y-92273184D01*
X162582519Y-92145369D01*
X162585500Y-92113834D01*
X162585500Y-90766166D01*
X162582519Y-90734631D01*
X162537634Y-90606816D01*
X162532042Y-90599246D01*
X162532041Y-90599243D01*
X162462742Y-90505421D01*
X162457150Y-90497850D01*
X162390539Y-90448650D01*
X162355757Y-90422959D01*
X162355754Y-90422958D01*
X162348184Y-90417366D01*
X162220369Y-90372481D01*
X162212723Y-90371758D01*
X162212722Y-90371758D01*
X162206752Y-90371194D01*
X162188834Y-90369500D01*
X160391166Y-90369500D01*
X160373248Y-90371194D01*
X160367278Y-90371758D01*
X160367277Y-90371758D01*
X160359631Y-90372481D01*
X160231816Y-90417366D01*
X160224246Y-90422958D01*
X160224243Y-90422959D01*
X160189461Y-90448650D01*
X160122850Y-90497850D01*
X160117258Y-90505421D01*
X160047959Y-90599243D01*
X160047958Y-90599246D01*
X160042366Y-90606816D01*
X159997481Y-90734631D01*
X159994500Y-90766166D01*
X159994500Y-92113834D01*
X159997481Y-92145369D01*
X160042366Y-92273184D01*
X160047958Y-92280754D01*
X160047959Y-92280757D01*
X160110335Y-92365206D01*
X160122850Y-92382150D01*
X160130421Y-92387742D01*
X160224243Y-92457041D01*
X160224246Y-92457042D01*
X160231816Y-92462634D01*
X160359631Y-92507519D01*
X160367277Y-92508242D01*
X160367278Y-92508242D01*
X160377477Y-92509206D01*
X160391166Y-92510500D01*
X160392278Y-92510500D01*
X160459089Y-92533589D01*
X160503002Y-92589376D01*
X160509783Y-92660048D01*
X160477280Y-92723167D01*
X160437799Y-92751141D01*
X160397272Y-92769397D01*
X160387982Y-92774568D01*
X160202845Y-92899210D01*
X160194559Y-92905871D01*
X160033070Y-93059924D01*
X160026021Y-93067892D01*
X159892797Y-93246952D01*
X159887198Y-93255982D01*
X159786047Y-93454931D01*
X159782044Y-93464792D01*
X159715862Y-93677929D01*
X159713580Y-93688309D01*
X159710964Y-93708043D01*
X148280500Y-93708043D01*
X148280500Y-89800871D01*
X148953456Y-89800871D01*
X148994107Y-89940790D01*
X149000352Y-89955221D01*
X149076911Y-90084678D01*
X149086551Y-90097104D01*
X149192896Y-90203449D01*
X149205326Y-90213091D01*
X149284458Y-90259889D01*
X149332911Y-90311782D01*
X149345617Y-90381632D01*
X149322940Y-90441405D01*
X149315707Y-90448650D01*
X149311136Y-90458001D01*
X149311134Y-90458004D01*
X149287957Y-90505421D01*
X149264464Y-90553482D01*
X149254500Y-90621782D01*
X149254500Y-90988218D01*
X149255170Y-90992768D01*
X149255170Y-90992771D01*
X149263216Y-91047426D01*
X149264642Y-91057112D01*
X149316068Y-91161855D01*
X149398650Y-91244293D01*
X149503482Y-91295536D01*
X149533973Y-91299984D01*
X149567256Y-91304840D01*
X149567260Y-91304840D01*
X149571782Y-91305500D01*
X151288218Y-91305500D01*
X151292768Y-91304830D01*
X151292771Y-91304830D01*
X151347426Y-91296784D01*
X151347427Y-91296784D01*
X151357112Y-91295358D01*
X151407008Y-91270860D01*
X151452507Y-91248522D01*
X151452509Y-91248521D01*
X151461855Y-91243932D01*
X151544293Y-91161350D01*
X151595536Y-91056518D01*
X151605500Y-90988218D01*
X151605500Y-90621782D01*
X151596871Y-90563162D01*
X151596784Y-90562574D01*
X151596784Y-90562573D01*
X151595358Y-90552888D01*
X151543932Y-90448145D01*
X151537076Y-90441301D01*
X151513823Y-90374667D01*
X151530386Y-90305630D01*
X151575526Y-90259898D01*
X151654678Y-90213089D01*
X151667104Y-90203449D01*
X151773449Y-90097104D01*
X151783089Y-90084678D01*
X151859648Y-89955221D01*
X151865893Y-89940790D01*
X151904939Y-89806395D01*
X151904899Y-89792294D01*
X151897630Y-89789000D01*
X148968122Y-89789000D01*
X148954591Y-89792973D01*
X148953456Y-89800871D01*
X148280500Y-89800871D01*
X148280500Y-88530871D01*
X148953456Y-88530871D01*
X148994107Y-88670790D01*
X149000352Y-88685221D01*
X149076912Y-88814678D01*
X149083189Y-88822770D01*
X149109139Y-88888854D01*
X149095241Y-88958477D01*
X149083189Y-88977230D01*
X149076912Y-88985322D01*
X149000352Y-89114779D01*
X148994107Y-89129210D01*
X148955061Y-89263605D01*
X148955101Y-89277706D01*
X148962370Y-89281000D01*
X150157885Y-89281000D01*
X150173124Y-89276525D01*
X150174329Y-89275135D01*
X150176000Y-89267452D01*
X150176000Y-89262885D01*
X150684000Y-89262885D01*
X150688475Y-89278124D01*
X150689865Y-89279329D01*
X150697548Y-89281000D01*
X151891878Y-89281000D01*
X151905409Y-89277027D01*
X151906544Y-89269129D01*
X151865893Y-89129210D01*
X151859648Y-89114779D01*
X151783088Y-88985322D01*
X151776811Y-88977230D01*
X151750861Y-88911146D01*
X151764759Y-88841523D01*
X151776811Y-88822770D01*
X151783088Y-88814678D01*
X151859648Y-88685221D01*
X151865893Y-88670790D01*
X151904939Y-88536395D01*
X151904899Y-88522294D01*
X151897630Y-88519000D01*
X150702115Y-88519000D01*
X150686876Y-88523475D01*
X150685671Y-88524865D01*
X150684000Y-88532548D01*
X150684000Y-89262885D01*
X150176000Y-89262885D01*
X150176000Y-88537115D01*
X150171525Y-88521876D01*
X150170135Y-88520671D01*
X150162452Y-88519000D01*
X148968122Y-88519000D01*
X148954591Y-88522973D01*
X148953456Y-88530871D01*
X148280500Y-88530871D01*
X148280500Y-88284710D01*
X148280980Y-88273728D01*
X148283303Y-88247180D01*
X148283303Y-88247178D01*
X148284264Y-88236193D01*
X148274508Y-88199785D01*
X148272130Y-88189058D01*
X148271538Y-88185699D01*
X148265588Y-88151955D01*
X148260077Y-88142410D01*
X148258885Y-88139134D01*
X148257408Y-88135966D01*
X148254554Y-88125316D01*
X148232945Y-88094456D01*
X148227039Y-88085185D01*
X148213707Y-88062094D01*
X148208194Y-88052545D01*
X148179317Y-88028315D01*
X148171215Y-88020889D01*
X147564111Y-87413785D01*
X147556684Y-87405681D01*
X147539541Y-87385251D01*
X147539542Y-87385251D01*
X147532455Y-87376806D01*
X147522906Y-87371293D01*
X147499815Y-87357961D01*
X147490544Y-87352055D01*
X147476910Y-87342508D01*
X147459684Y-87330446D01*
X147449034Y-87327592D01*
X147445866Y-87326115D01*
X147442590Y-87324923D01*
X147433045Y-87319412D01*
X147399301Y-87313462D01*
X147395942Y-87312870D01*
X147385215Y-87310492D01*
X147348807Y-87300736D01*
X147337822Y-87301697D01*
X147337820Y-87301697D01*
X147311272Y-87304020D01*
X147300290Y-87304500D01*
X147140017Y-87304500D01*
X147071896Y-87284498D01*
X147025403Y-87230842D01*
X147015299Y-87160568D01*
X147044793Y-87095988D01*
X147050922Y-87089405D01*
X148149456Y-85990871D01*
X148953456Y-85990871D01*
X148994107Y-86130790D01*
X149000352Y-86145221D01*
X149076911Y-86274678D01*
X149086551Y-86287104D01*
X149192896Y-86393449D01*
X149205326Y-86403091D01*
X149284458Y-86449889D01*
X149332911Y-86501782D01*
X149345617Y-86571632D01*
X149322940Y-86631405D01*
X149315707Y-86638650D01*
X149311136Y-86648001D01*
X149311134Y-86648004D01*
X149284378Y-86702742D01*
X149264464Y-86743482D01*
X149254500Y-86811782D01*
X149254500Y-87178218D01*
X149255170Y-87182768D01*
X149255170Y-87182771D01*
X149263216Y-87237426D01*
X149264642Y-87247112D01*
X149316068Y-87351855D01*
X149322924Y-87358699D01*
X149346177Y-87425333D01*
X149329614Y-87494370D01*
X149284474Y-87540102D01*
X149205322Y-87586911D01*
X149192896Y-87596551D01*
X149086551Y-87702896D01*
X149076911Y-87715322D01*
X149000352Y-87844779D01*
X148994107Y-87859210D01*
X148955061Y-87993605D01*
X148955101Y-88007706D01*
X148962370Y-88011000D01*
X151891878Y-88011000D01*
X151905409Y-88007027D01*
X151906544Y-87999129D01*
X151865893Y-87859210D01*
X151859648Y-87844779D01*
X151783089Y-87715322D01*
X151773449Y-87702896D01*
X151667104Y-87596551D01*
X151654674Y-87586909D01*
X151575542Y-87540111D01*
X151527089Y-87488218D01*
X151514383Y-87418368D01*
X151537060Y-87358595D01*
X151544293Y-87351350D01*
X151548864Y-87341999D01*
X151548866Y-87341996D01*
X151591240Y-87255306D01*
X151595536Y-87246518D01*
X151605500Y-87178218D01*
X151605500Y-86811782D01*
X151604121Y-86802411D01*
X151596784Y-86752574D01*
X151596784Y-86752573D01*
X151595358Y-86742888D01*
X151543932Y-86638145D01*
X151537076Y-86631301D01*
X151513823Y-86564667D01*
X151530386Y-86495630D01*
X151575526Y-86449898D01*
X151611144Y-86428834D01*
X152689500Y-86428834D01*
X152692481Y-86460369D01*
X152737366Y-86588184D01*
X152742958Y-86595754D01*
X152742959Y-86595757D01*
X152799822Y-86672742D01*
X152817850Y-86697150D01*
X152825421Y-86702742D01*
X152919243Y-86772041D01*
X152919246Y-86772042D01*
X152926816Y-86777634D01*
X153054631Y-86822519D01*
X153062277Y-86823242D01*
X153062278Y-86823242D01*
X153068248Y-86823806D01*
X153086166Y-86825500D01*
X153843834Y-86825500D01*
X153861752Y-86823806D01*
X153867722Y-86823242D01*
X153867723Y-86823242D01*
X153875369Y-86822519D01*
X154003184Y-86777634D01*
X154010754Y-86772042D01*
X154010757Y-86772041D01*
X154104579Y-86702742D01*
X154112150Y-86697150D01*
X154130178Y-86672742D01*
X154187041Y-86595757D01*
X154187042Y-86595754D01*
X154192634Y-86588184D01*
X154237519Y-86460369D01*
X154240500Y-86428834D01*
X154240500Y-86422095D01*
X155332001Y-86422095D01*
X155332338Y-86428614D01*
X155342257Y-86524206D01*
X155345149Y-86537600D01*
X155396588Y-86691784D01*
X155402761Y-86704962D01*
X155488063Y-86842807D01*
X155497099Y-86854208D01*
X155611829Y-86968739D01*
X155623240Y-86977751D01*
X155761243Y-87062816D01*
X155774424Y-87068963D01*
X155928710Y-87120138D01*
X155942086Y-87123005D01*
X156036438Y-87132672D01*
X156042854Y-87133000D01*
X156142885Y-87133000D01*
X156158124Y-87128525D01*
X156159329Y-87127135D01*
X156161000Y-87119452D01*
X156161000Y-87114884D01*
X156669000Y-87114884D01*
X156673475Y-87130123D01*
X156674865Y-87131328D01*
X156682548Y-87132999D01*
X156787095Y-87132999D01*
X156793614Y-87132662D01*
X156889206Y-87122743D01*
X156902600Y-87119851D01*
X157056784Y-87068412D01*
X157069962Y-87062239D01*
X157207807Y-86976937D01*
X157219208Y-86967901D01*
X157333739Y-86853171D01*
X157342751Y-86841760D01*
X157427816Y-86703757D01*
X157433963Y-86690576D01*
X157485138Y-86536290D01*
X157488005Y-86522914D01*
X157497672Y-86428562D01*
X157498000Y-86422146D01*
X157498000Y-85997115D01*
X157493525Y-85981876D01*
X157492135Y-85980671D01*
X157484452Y-85979000D01*
X156687115Y-85979000D01*
X156671876Y-85983475D01*
X156670671Y-85984865D01*
X156669000Y-85992548D01*
X156669000Y-87114884D01*
X156161000Y-87114884D01*
X156161000Y-85997115D01*
X156156525Y-85981876D01*
X156155135Y-85980671D01*
X156147452Y-85979000D01*
X155350116Y-85979000D01*
X155334877Y-85983475D01*
X155333672Y-85984865D01*
X155332001Y-85992548D01*
X155332001Y-86422095D01*
X154240500Y-86422095D01*
X154240500Y-85452885D01*
X155332000Y-85452885D01*
X155336475Y-85468124D01*
X155337865Y-85469329D01*
X155345548Y-85471000D01*
X156142885Y-85471000D01*
X156158124Y-85466525D01*
X156159329Y-85465135D01*
X156161000Y-85457452D01*
X156161000Y-85452885D01*
X156669000Y-85452885D01*
X156673475Y-85468124D01*
X156674865Y-85469329D01*
X156682548Y-85471000D01*
X157479884Y-85471000D01*
X157495123Y-85466525D01*
X157496328Y-85465135D01*
X157497999Y-85457452D01*
X157497999Y-85027905D01*
X157497662Y-85021386D01*
X157487743Y-84925794D01*
X157484851Y-84912400D01*
X157433412Y-84758216D01*
X157427239Y-84745038D01*
X157341937Y-84607193D01*
X157332901Y-84595792D01*
X157218171Y-84481261D01*
X157206760Y-84472249D01*
X157068757Y-84387184D01*
X157055576Y-84381037D01*
X156901290Y-84329862D01*
X156887914Y-84326995D01*
X156793562Y-84317328D01*
X156787145Y-84317000D01*
X156687115Y-84317000D01*
X156671876Y-84321475D01*
X156670671Y-84322865D01*
X156669000Y-84330548D01*
X156669000Y-85452885D01*
X156161000Y-85452885D01*
X156161000Y-84335116D01*
X156156525Y-84319877D01*
X156155135Y-84318672D01*
X156147452Y-84317001D01*
X156042905Y-84317001D01*
X156036386Y-84317338D01*
X155940794Y-84327257D01*
X155927400Y-84330149D01*
X155773216Y-84381588D01*
X155760038Y-84387761D01*
X155622193Y-84473063D01*
X155610792Y-84482099D01*
X155496261Y-84596829D01*
X155487249Y-84608240D01*
X155402184Y-84746243D01*
X155396037Y-84759424D01*
X155344862Y-84913710D01*
X155341995Y-84927086D01*
X155332328Y-85021438D01*
X155332000Y-85027855D01*
X155332000Y-85452885D01*
X154240500Y-85452885D01*
X154240500Y-85021166D01*
X154237519Y-84989631D01*
X154192634Y-84861816D01*
X154187042Y-84854246D01*
X154187041Y-84854243D01*
X154117742Y-84760421D01*
X154112150Y-84752850D01*
X154055045Y-84710671D01*
X154010757Y-84677959D01*
X154010754Y-84677958D01*
X154003184Y-84672366D01*
X153875369Y-84627481D01*
X153876460Y-84624373D01*
X153827297Y-84597451D01*
X153793347Y-84535098D01*
X153790500Y-84508463D01*
X153790500Y-84184286D01*
X153810502Y-84116165D01*
X153839796Y-84084323D01*
X153886736Y-84048305D01*
X153893282Y-84043282D01*
X153989536Y-83917841D01*
X154050044Y-83771762D01*
X154070682Y-83615000D01*
X154050044Y-83458238D01*
X153989536Y-83312159D01*
X153893282Y-83186718D01*
X153894907Y-83185471D01*
X153866167Y-83132840D01*
X153871232Y-83062025D01*
X153913779Y-83005189D01*
X153947540Y-82987175D01*
X153973661Y-82978002D01*
X153994300Y-82970754D01*
X153994301Y-82970753D01*
X154003184Y-82967634D01*
X154010754Y-82962042D01*
X154010757Y-82962041D01*
X154104579Y-82892742D01*
X154112150Y-82887150D01*
X154148448Y-82838007D01*
X154187041Y-82785757D01*
X154187042Y-82785754D01*
X154192634Y-82778184D01*
X154237519Y-82650369D01*
X154240500Y-82618834D01*
X154240500Y-82612095D01*
X155332001Y-82612095D01*
X155332338Y-82618614D01*
X155342257Y-82714206D01*
X155345149Y-82727600D01*
X155396588Y-82881784D01*
X155402761Y-82894962D01*
X155488063Y-83032807D01*
X155497099Y-83044208D01*
X155611829Y-83158739D01*
X155623240Y-83167751D01*
X155761243Y-83252816D01*
X155774424Y-83258963D01*
X155928710Y-83310138D01*
X155942086Y-83313005D01*
X156036438Y-83322672D01*
X156042854Y-83323000D01*
X156142885Y-83323000D01*
X156158124Y-83318525D01*
X156159329Y-83317135D01*
X156161000Y-83309452D01*
X156161000Y-83304884D01*
X156669000Y-83304884D01*
X156673475Y-83320123D01*
X156674865Y-83321328D01*
X156682548Y-83322999D01*
X156787095Y-83322999D01*
X156793614Y-83322662D01*
X156889206Y-83312743D01*
X156902600Y-83309851D01*
X157056784Y-83258412D01*
X157069962Y-83252239D01*
X157207807Y-83166937D01*
X157219208Y-83157901D01*
X157333739Y-83043171D01*
X157342751Y-83031760D01*
X157427816Y-82893757D01*
X157433963Y-82880576D01*
X157485138Y-82726290D01*
X157488005Y-82712914D01*
X157497672Y-82618562D01*
X157498000Y-82612146D01*
X157498000Y-82187115D01*
X157493525Y-82171876D01*
X157492135Y-82170671D01*
X157484452Y-82169000D01*
X156687115Y-82169000D01*
X156671876Y-82173475D01*
X156670671Y-82174865D01*
X156669000Y-82182548D01*
X156669000Y-83304884D01*
X156161000Y-83304884D01*
X156161000Y-82187115D01*
X156156525Y-82171876D01*
X156155135Y-82170671D01*
X156147452Y-82169000D01*
X155350116Y-82169000D01*
X155334877Y-82173475D01*
X155333672Y-82174865D01*
X155332001Y-82182548D01*
X155332001Y-82612095D01*
X154240500Y-82612095D01*
X154240500Y-81642885D01*
X155332000Y-81642885D01*
X155336475Y-81658124D01*
X155337865Y-81659329D01*
X155345548Y-81661000D01*
X156142885Y-81661000D01*
X156158124Y-81656525D01*
X156159329Y-81655135D01*
X156161000Y-81647452D01*
X156161000Y-81642885D01*
X156669000Y-81642885D01*
X156673475Y-81658124D01*
X156674865Y-81659329D01*
X156682548Y-81661000D01*
X157479884Y-81661000D01*
X157495123Y-81656525D01*
X157496328Y-81655135D01*
X157497999Y-81647452D01*
X157497999Y-81217905D01*
X157497662Y-81211386D01*
X157487743Y-81115794D01*
X157484851Y-81102400D01*
X157433412Y-80948216D01*
X157427239Y-80935038D01*
X157341937Y-80797193D01*
X157332901Y-80785792D01*
X157218171Y-80671261D01*
X157206760Y-80662249D01*
X157068757Y-80577184D01*
X157055576Y-80571037D01*
X156901290Y-80519862D01*
X156887914Y-80516995D01*
X156793562Y-80507328D01*
X156787145Y-80507000D01*
X156687115Y-80507000D01*
X156671876Y-80511475D01*
X156670671Y-80512865D01*
X156669000Y-80520548D01*
X156669000Y-81642885D01*
X156161000Y-81642885D01*
X156161000Y-80525116D01*
X156156525Y-80509877D01*
X156155135Y-80508672D01*
X156147452Y-80507001D01*
X156042905Y-80507001D01*
X156036386Y-80507338D01*
X155940794Y-80517257D01*
X155927400Y-80520149D01*
X155773216Y-80571588D01*
X155760038Y-80577761D01*
X155622193Y-80663063D01*
X155610792Y-80672099D01*
X155496261Y-80786829D01*
X155487249Y-80798240D01*
X155402184Y-80936243D01*
X155396037Y-80949424D01*
X155344862Y-81103710D01*
X155341995Y-81117086D01*
X155332328Y-81211438D01*
X155332000Y-81217855D01*
X155332000Y-81642885D01*
X154240500Y-81642885D01*
X154240500Y-81211166D01*
X154237519Y-81179631D01*
X154192634Y-81051816D01*
X154187042Y-81044246D01*
X154187041Y-81044243D01*
X154117742Y-80950421D01*
X154112150Y-80942850D01*
X154081402Y-80920139D01*
X154010757Y-80867959D01*
X154010754Y-80867958D01*
X154003184Y-80862366D01*
X153875369Y-80817481D01*
X153867723Y-80816758D01*
X153867722Y-80816758D01*
X153861752Y-80816194D01*
X153843834Y-80814500D01*
X153086166Y-80814500D01*
X153068248Y-80816194D01*
X153062278Y-80816758D01*
X153062277Y-80816758D01*
X153054631Y-80817481D01*
X152926816Y-80862366D01*
X152919246Y-80867958D01*
X152919243Y-80867959D01*
X152848598Y-80920139D01*
X152817850Y-80942850D01*
X152812258Y-80950421D01*
X152742959Y-81044243D01*
X152742958Y-81044246D01*
X152737366Y-81051816D01*
X152692481Y-81179631D01*
X152689500Y-81211166D01*
X152689500Y-82618834D01*
X152692481Y-82650369D01*
X152737366Y-82778184D01*
X152742958Y-82785754D01*
X152742959Y-82785757D01*
X152781552Y-82838007D01*
X152817850Y-82887150D01*
X152825421Y-82892742D01*
X152919243Y-82962041D01*
X152919246Y-82962042D01*
X152926816Y-82967634D01*
X152935699Y-82970753D01*
X152935700Y-82970754D01*
X152956339Y-82978002D01*
X152982460Y-82987174D01*
X153040105Y-83028616D01*
X153066194Y-83094646D01*
X153052444Y-83164298D01*
X153036255Y-83186363D01*
X153036718Y-83186718D01*
X152940464Y-83312159D01*
X152879956Y-83458238D01*
X152859318Y-83615000D01*
X152879956Y-83771762D01*
X152940464Y-83917841D01*
X153036718Y-84043282D01*
X153043264Y-84048305D01*
X153090204Y-84084323D01*
X153132071Y-84141661D01*
X153139500Y-84184286D01*
X153139500Y-84508463D01*
X153119498Y-84576584D01*
X153065842Y-84623077D01*
X153054422Y-84626886D01*
X153054631Y-84627481D01*
X152926816Y-84672366D01*
X152919246Y-84677958D01*
X152919243Y-84677959D01*
X152874955Y-84710671D01*
X152817850Y-84752850D01*
X152812258Y-84760421D01*
X152742959Y-84854243D01*
X152742958Y-84854246D01*
X152737366Y-84861816D01*
X152692481Y-84989631D01*
X152689500Y-85021166D01*
X152689500Y-86428834D01*
X151611144Y-86428834D01*
X151654678Y-86403089D01*
X151667104Y-86393449D01*
X151773449Y-86287104D01*
X151783089Y-86274678D01*
X151859648Y-86145221D01*
X151865893Y-86130790D01*
X151904939Y-85996395D01*
X151904899Y-85982294D01*
X151897630Y-85979000D01*
X148968122Y-85979000D01*
X148954591Y-85982973D01*
X148953456Y-85990871D01*
X148149456Y-85990871D01*
X148171222Y-85969105D01*
X148179326Y-85961678D01*
X148199750Y-85944540D01*
X148208194Y-85937455D01*
X148213704Y-85927912D01*
X148213707Y-85927908D01*
X148227036Y-85904821D01*
X148232941Y-85895551D01*
X148248232Y-85873713D01*
X148254554Y-85864684D01*
X148257407Y-85854036D01*
X148258886Y-85850865D01*
X148260078Y-85847589D01*
X148265588Y-85838045D01*
X148272134Y-85800924D01*
X148274508Y-85790217D01*
X148284263Y-85753807D01*
X148280979Y-85716269D01*
X148280500Y-85705288D01*
X148280500Y-84720871D01*
X148953456Y-84720871D01*
X148994107Y-84860790D01*
X149000352Y-84875221D01*
X149076912Y-85004678D01*
X149083189Y-85012770D01*
X149109139Y-85078854D01*
X149095241Y-85148477D01*
X149083189Y-85167230D01*
X149076912Y-85175322D01*
X149000352Y-85304779D01*
X148994107Y-85319210D01*
X148955061Y-85453605D01*
X148955101Y-85467706D01*
X148962370Y-85471000D01*
X150157885Y-85471000D01*
X150173124Y-85466525D01*
X150174329Y-85465135D01*
X150176000Y-85457452D01*
X150176000Y-85452885D01*
X150684000Y-85452885D01*
X150688475Y-85468124D01*
X150689865Y-85469329D01*
X150697548Y-85471000D01*
X151891878Y-85471000D01*
X151905409Y-85467027D01*
X151906544Y-85459129D01*
X151865893Y-85319210D01*
X151859648Y-85304779D01*
X151783088Y-85175322D01*
X151776811Y-85167230D01*
X151750861Y-85101146D01*
X151764759Y-85031523D01*
X151776811Y-85012770D01*
X151783088Y-85004678D01*
X151859648Y-84875221D01*
X151865893Y-84860790D01*
X151904939Y-84726395D01*
X151904899Y-84712294D01*
X151897630Y-84709000D01*
X150702115Y-84709000D01*
X150686876Y-84713475D01*
X150685671Y-84714865D01*
X150684000Y-84722548D01*
X150684000Y-85452885D01*
X150176000Y-85452885D01*
X150176000Y-84727115D01*
X150171525Y-84711876D01*
X150170135Y-84710671D01*
X150162452Y-84709000D01*
X148968122Y-84709000D01*
X148954591Y-84712973D01*
X148953456Y-84720871D01*
X148280500Y-84720871D01*
X148280500Y-84183605D01*
X148955061Y-84183605D01*
X148955101Y-84197706D01*
X148962370Y-84201000D01*
X151891878Y-84201000D01*
X151905409Y-84197027D01*
X151906544Y-84189129D01*
X151865893Y-84049210D01*
X151859648Y-84034779D01*
X151783089Y-83905322D01*
X151773449Y-83892896D01*
X151667104Y-83786551D01*
X151654674Y-83776909D01*
X151575542Y-83730111D01*
X151527089Y-83678218D01*
X151514383Y-83608368D01*
X151537060Y-83548595D01*
X151544293Y-83541350D01*
X151548864Y-83531999D01*
X151548866Y-83531996D01*
X151591240Y-83445306D01*
X151595536Y-83436518D01*
X151605500Y-83368218D01*
X151605500Y-83001782D01*
X151603638Y-82989129D01*
X151596784Y-82942574D01*
X151596784Y-82942573D01*
X151595358Y-82932888D01*
X151569185Y-82879579D01*
X151548522Y-82837493D01*
X151548521Y-82837491D01*
X151543932Y-82828145D01*
X151461350Y-82745707D01*
X151437151Y-82733878D01*
X151396906Y-82714206D01*
X151356518Y-82694464D01*
X151326027Y-82690016D01*
X151292744Y-82685160D01*
X151292740Y-82685160D01*
X151288218Y-82684500D01*
X150881500Y-82684500D01*
X150813379Y-82664498D01*
X150766886Y-82610842D01*
X150755500Y-82558500D01*
X150755500Y-82534162D01*
X150775502Y-82466041D01*
X150804796Y-82434199D01*
X150808013Y-82431731D01*
X150923282Y-82343282D01*
X151019536Y-82217841D01*
X151080044Y-82071762D01*
X151100682Y-81915000D01*
X151080044Y-81758238D01*
X151019536Y-81612159D01*
X150923282Y-81486718D01*
X150797841Y-81390464D01*
X150651762Y-81329956D01*
X150495000Y-81309318D01*
X150338238Y-81329956D01*
X150192159Y-81390464D01*
X150066718Y-81486718D01*
X149970464Y-81612159D01*
X149909956Y-81758238D01*
X149889318Y-81915000D01*
X149909956Y-82071762D01*
X149970464Y-82217841D01*
X150066718Y-82343282D01*
X150068835Y-82344906D01*
X150101621Y-82404948D01*
X150104500Y-82431731D01*
X150104500Y-82558500D01*
X150084498Y-82626621D01*
X150030842Y-82673114D01*
X149978500Y-82684500D01*
X149571782Y-82684500D01*
X149567232Y-82685170D01*
X149567229Y-82685170D01*
X149512574Y-82693216D01*
X149512573Y-82693216D01*
X149502888Y-82694642D01*
X149465672Y-82712914D01*
X149407493Y-82741478D01*
X149407491Y-82741479D01*
X149398145Y-82746068D01*
X149315707Y-82828650D01*
X149264464Y-82933482D01*
X149263052Y-82943162D01*
X149259027Y-82970754D01*
X149254500Y-83001782D01*
X149254500Y-83368218D01*
X149255170Y-83372768D01*
X149255170Y-83372771D01*
X149263216Y-83427426D01*
X149264642Y-83437112D01*
X149316068Y-83541855D01*
X149322924Y-83548699D01*
X149346177Y-83615333D01*
X149329614Y-83684370D01*
X149284474Y-83730102D01*
X149205322Y-83776911D01*
X149192896Y-83786551D01*
X149086551Y-83892896D01*
X149076911Y-83905322D01*
X149000352Y-84034779D01*
X148994107Y-84049210D01*
X148955061Y-84183605D01*
X148280500Y-84183605D01*
X148280500Y-79643580D01*
X159713317Y-79643580D01*
X159739252Y-79767188D01*
X159742312Y-79777384D01*
X159824284Y-79984952D01*
X159829018Y-79994489D01*
X159944796Y-80185285D01*
X159951062Y-80193878D01*
X160097333Y-80362441D01*
X160104964Y-80369861D01*
X160277542Y-80511368D01*
X160286309Y-80517393D01*
X160480262Y-80627797D01*
X160489926Y-80632262D01*
X160699711Y-80708410D01*
X160709979Y-80711181D01*
X160930766Y-80751106D01*
X160938995Y-80752039D01*
X160957874Y-80752930D01*
X160960849Y-80753000D01*
X161017885Y-80753000D01*
X161033124Y-80748525D01*
X161034329Y-80747135D01*
X161036000Y-80739452D01*
X161036000Y-80734885D01*
X161544000Y-80734885D01*
X161548475Y-80750124D01*
X161549865Y-80751329D01*
X161557548Y-80753000D01*
X161571054Y-80753000D01*
X161576363Y-80752775D01*
X161742707Y-80738661D01*
X161753179Y-80736871D01*
X161969202Y-80680802D01*
X161979242Y-80677266D01*
X162182732Y-80585601D01*
X162192018Y-80580432D01*
X162377155Y-80455790D01*
X162385441Y-80449129D01*
X162546930Y-80295076D01*
X162553979Y-80287108D01*
X162687203Y-80108048D01*
X162692802Y-80099018D01*
X162793953Y-79900069D01*
X162797956Y-79890208D01*
X162864138Y-79677071D01*
X162866420Y-79666691D01*
X162869036Y-79646957D01*
X162866840Y-79632793D01*
X162853655Y-79629000D01*
X161562115Y-79629000D01*
X161546876Y-79633475D01*
X161545671Y-79634865D01*
X161544000Y-79642548D01*
X161544000Y-80734885D01*
X161036000Y-80734885D01*
X161036000Y-79647115D01*
X161031525Y-79631876D01*
X161030135Y-79630671D01*
X161022452Y-79629000D01*
X159728373Y-79629000D01*
X159714842Y-79632973D01*
X159713317Y-79643580D01*
X148280500Y-79643580D01*
X148280500Y-79191500D01*
X148300502Y-79123379D01*
X148354158Y-79076886D01*
X148406500Y-79065500D01*
X152062790Y-79065500D01*
X152073772Y-79065980D01*
X152100320Y-79068303D01*
X152100322Y-79068303D01*
X152111307Y-79069264D01*
X152147715Y-79059508D01*
X152158442Y-79057130D01*
X152161801Y-79056538D01*
X152195545Y-79050588D01*
X152205090Y-79045077D01*
X152208366Y-79043885D01*
X152211534Y-79042408D01*
X152222184Y-79039554D01*
X152253044Y-79017945D01*
X152262315Y-79012039D01*
X152285406Y-78998707D01*
X152294955Y-78993194D01*
X152319185Y-78964317D01*
X152326611Y-78956215D01*
X154085421Y-77197405D01*
X154147733Y-77163379D01*
X154174516Y-77160500D01*
X159868500Y-77160500D01*
X159936621Y-77180502D01*
X159983114Y-77234158D01*
X159994500Y-77286500D01*
X159994500Y-77508834D01*
X159997481Y-77540369D01*
X160042366Y-77668184D01*
X160047958Y-77675754D01*
X160047959Y-77675757D01*
X160110335Y-77760206D01*
X160122850Y-77777150D01*
X160130421Y-77782742D01*
X160224243Y-77852041D01*
X160224246Y-77852042D01*
X160231816Y-77857634D01*
X160359631Y-77902519D01*
X160367277Y-77903242D01*
X160367278Y-77903242D01*
X160377477Y-77904206D01*
X160391166Y-77905500D01*
X160392278Y-77905500D01*
X160459089Y-77928589D01*
X160503002Y-77984376D01*
X160509783Y-78055048D01*
X160477280Y-78118167D01*
X160437799Y-78146141D01*
X160397272Y-78164397D01*
X160387982Y-78169568D01*
X160202845Y-78294210D01*
X160194559Y-78300871D01*
X160033070Y-78454924D01*
X160026021Y-78462892D01*
X159892797Y-78641952D01*
X159887198Y-78650982D01*
X159786047Y-78849931D01*
X159782044Y-78859792D01*
X159715862Y-79072929D01*
X159713580Y-79083309D01*
X159710964Y-79103043D01*
X159713160Y-79117207D01*
X159726345Y-79121000D01*
X162851627Y-79121000D01*
X162865158Y-79117027D01*
X162866683Y-79106420D01*
X162840748Y-78982812D01*
X162837688Y-78972616D01*
X162755716Y-78765048D01*
X162750982Y-78755511D01*
X162635204Y-78564715D01*
X162628938Y-78556122D01*
X162482667Y-78387559D01*
X162475036Y-78380139D01*
X162302458Y-78238632D01*
X162293691Y-78232607D01*
X162132284Y-78140729D01*
X162082978Y-78089647D01*
X162069116Y-78020016D01*
X162095099Y-77953945D01*
X162152679Y-77912411D01*
X162188007Y-77905500D01*
X162188834Y-77905500D01*
X162191794Y-77905220D01*
X162191798Y-77905220D01*
X162212722Y-77903242D01*
X162212723Y-77903242D01*
X162220369Y-77902519D01*
X162348184Y-77857634D01*
X162355754Y-77852042D01*
X162355757Y-77852041D01*
X162449579Y-77782742D01*
X162457150Y-77777150D01*
X162469665Y-77760206D01*
X162532041Y-77675757D01*
X162532042Y-77675754D01*
X162537634Y-77668184D01*
X162582519Y-77540369D01*
X162585500Y-77508834D01*
X162585500Y-76161166D01*
X162582519Y-76129631D01*
X162537634Y-76001816D01*
X162532042Y-75994246D01*
X162532041Y-75994243D01*
X162462742Y-75900421D01*
X162457150Y-75892850D01*
X162421903Y-75866816D01*
X162355757Y-75817959D01*
X162355754Y-75817958D01*
X162348184Y-75812366D01*
X162220369Y-75767481D01*
X162212723Y-75766758D01*
X162212722Y-75766758D01*
X162206752Y-75766194D01*
X162188834Y-75764500D01*
X160391166Y-75764500D01*
X160373248Y-75766194D01*
X160367278Y-75766758D01*
X160367277Y-75766758D01*
X160359631Y-75767481D01*
X160231816Y-75812366D01*
X160224246Y-75817958D01*
X160224243Y-75817959D01*
X160158097Y-75866816D01*
X160122850Y-75892850D01*
X160117258Y-75900421D01*
X160047959Y-75994243D01*
X160047958Y-75994246D01*
X160042366Y-76001816D01*
X159997481Y-76129631D01*
X159994500Y-76161166D01*
X159994500Y-76383500D01*
X159974498Y-76451621D01*
X159920842Y-76498114D01*
X159868500Y-76509500D01*
X154007210Y-76509500D01*
X153996228Y-76509020D01*
X153969680Y-76506697D01*
X153969678Y-76506697D01*
X153958693Y-76505736D01*
X153922285Y-76515492D01*
X153911558Y-76517870D01*
X153908199Y-76518462D01*
X153874455Y-76524412D01*
X153864910Y-76529923D01*
X153861634Y-76531115D01*
X153858466Y-76532592D01*
X153847816Y-76535446D01*
X153838785Y-76541770D01*
X153816956Y-76557055D01*
X153807685Y-76562961D01*
X153784594Y-76576293D01*
X153775045Y-76581806D01*
X153767959Y-76590251D01*
X153750815Y-76610682D01*
X153743389Y-76618785D01*
X151984579Y-78377595D01*
X151922267Y-78411621D01*
X151895484Y-78414500D01*
X148406500Y-78414500D01*
X148338379Y-78394498D01*
X148291886Y-78340842D01*
X148280500Y-78288500D01*
X148280500Y-77100871D01*
X148953456Y-77100871D01*
X148994107Y-77240790D01*
X149000352Y-77255221D01*
X149076911Y-77384678D01*
X149086551Y-77397104D01*
X149192896Y-77503449D01*
X149205322Y-77513089D01*
X149334779Y-77589648D01*
X149349210Y-77595893D01*
X149495065Y-77638269D01*
X149507667Y-77640570D01*
X149536084Y-77642807D01*
X149541014Y-77643000D01*
X150157885Y-77643000D01*
X150173124Y-77638525D01*
X150174329Y-77637135D01*
X150176000Y-77629452D01*
X150176000Y-77624884D01*
X150684000Y-77624884D01*
X150688475Y-77640123D01*
X150689865Y-77641328D01*
X150697548Y-77642999D01*
X151318984Y-77642999D01*
X151323920Y-77642805D01*
X151352336Y-77640570D01*
X151364931Y-77638270D01*
X151510790Y-77595893D01*
X151525221Y-77589648D01*
X151654678Y-77513089D01*
X151667104Y-77503449D01*
X151773449Y-77397104D01*
X151783089Y-77384678D01*
X151859648Y-77255221D01*
X151865893Y-77240790D01*
X151904939Y-77106395D01*
X151904899Y-77092294D01*
X151897630Y-77089000D01*
X150702115Y-77089000D01*
X150686876Y-77093475D01*
X150685671Y-77094865D01*
X150684000Y-77102548D01*
X150684000Y-77624884D01*
X150176000Y-77624884D01*
X150176000Y-77107115D01*
X150171525Y-77091876D01*
X150170135Y-77090671D01*
X150162452Y-77089000D01*
X148968122Y-77089000D01*
X148954591Y-77092973D01*
X148953456Y-77100871D01*
X148280500Y-77100871D01*
X148280500Y-76219710D01*
X148280980Y-76208728D01*
X148283303Y-76182180D01*
X148283303Y-76182178D01*
X148284264Y-76171193D01*
X148274508Y-76134785D01*
X148272130Y-76124058D01*
X148271538Y-76120699D01*
X148265588Y-76086955D01*
X148260077Y-76077410D01*
X148258885Y-76074134D01*
X148257408Y-76070966D01*
X148254554Y-76060316D01*
X148232945Y-76029456D01*
X148227039Y-76020185D01*
X148213707Y-75997094D01*
X148208194Y-75987545D01*
X148179317Y-75963315D01*
X148171215Y-75955889D01*
X147682405Y-75467079D01*
X147648379Y-75404767D01*
X147645500Y-75377984D01*
X147645500Y-73679710D01*
X147645980Y-73668728D01*
X147648303Y-73642180D01*
X147648303Y-73642178D01*
X147649264Y-73631193D01*
X147639508Y-73594785D01*
X147637130Y-73584058D01*
X147636538Y-73580699D01*
X147630588Y-73546955D01*
X147625077Y-73537410D01*
X147623885Y-73534134D01*
X147622408Y-73530966D01*
X147619554Y-73520316D01*
X147597945Y-73489456D01*
X147592039Y-73480185D01*
X147578707Y-73457094D01*
X147573194Y-73447545D01*
X147544317Y-73423315D01*
X147536215Y-73415889D01*
X146929111Y-72808785D01*
X146921684Y-72800681D01*
X146904541Y-72780251D01*
X146904542Y-72780251D01*
X146897455Y-72771806D01*
X146887906Y-72766293D01*
X146864815Y-72752961D01*
X146855544Y-72747055D01*
X146833715Y-72731770D01*
X146824684Y-72725446D01*
X146814034Y-72722592D01*
X146810866Y-72721115D01*
X146807590Y-72719923D01*
X146798045Y-72714412D01*
X146764301Y-72708462D01*
X146760942Y-72707870D01*
X146750215Y-72705492D01*
X146713807Y-72695736D01*
X146687465Y-72698041D01*
X146617863Y-72684051D01*
X146587469Y-72661693D01*
X146518721Y-72593065D01*
X146518720Y-72593065D01*
X146511350Y-72585707D01*
X146406518Y-72534464D01*
X146376027Y-72530016D01*
X146342744Y-72525160D01*
X146342740Y-72525160D01*
X146338218Y-72524500D01*
X144621782Y-72524500D01*
X144617232Y-72525170D01*
X144617229Y-72525170D01*
X144562574Y-72533216D01*
X144562573Y-72533216D01*
X144552888Y-72534642D01*
X144502992Y-72559140D01*
X144457493Y-72581478D01*
X144457491Y-72581479D01*
X144448145Y-72586068D01*
X144365707Y-72668650D01*
X144361134Y-72678006D01*
X144361133Y-72678007D01*
X144358946Y-72682481D01*
X144314464Y-72773482D01*
X144304500Y-72841782D01*
X144304500Y-73208218D01*
X144305170Y-73212768D01*
X144305170Y-73212771D01*
X144313216Y-73267426D01*
X144314642Y-73277112D01*
X144318958Y-73285902D01*
X144350727Y-73350608D01*
X144366068Y-73381855D01*
X144448650Y-73464293D01*
X144458006Y-73468866D01*
X144458007Y-73468867D01*
X144490460Y-73484730D01*
X144553482Y-73515536D01*
X144583973Y-73519984D01*
X144617256Y-73524840D01*
X144617260Y-73524840D01*
X144621782Y-73525500D01*
X146338218Y-73525500D01*
X146342768Y-73524830D01*
X146342771Y-73524830D01*
X146397426Y-73516784D01*
X146397427Y-73516784D01*
X146407112Y-73515358D01*
X146469054Y-73484946D01*
X146502509Y-73468521D01*
X146502511Y-73468520D01*
X146511855Y-73463932D01*
X146515261Y-73460520D01*
X146579219Y-73438204D01*
X146648256Y-73454769D01*
X146674625Y-73474951D01*
X146957595Y-73757921D01*
X146991621Y-73820233D01*
X146994500Y-73847016D01*
X146994500Y-75545290D01*
X146994020Y-75556272D01*
X146990736Y-75593807D01*
X147000491Y-75630210D01*
X147002870Y-75640942D01*
X147009412Y-75678045D01*
X147014923Y-75687590D01*
X147016115Y-75690866D01*
X147017592Y-75694034D01*
X147020446Y-75704684D01*
X147026770Y-75713715D01*
X147042055Y-75735544D01*
X147047961Y-75744815D01*
X147059488Y-75764779D01*
X147066806Y-75777455D01*
X147075251Y-75784541D01*
X147095682Y-75801685D01*
X147103785Y-75809111D01*
X147592595Y-76297921D01*
X147626621Y-76360233D01*
X147629500Y-76387016D01*
X147629500Y-85537983D01*
X147609498Y-85606104D01*
X147592600Y-85627073D01*
X146674626Y-86545048D01*
X146612315Y-86579072D01*
X146541500Y-86574008D01*
X146516242Y-86560591D01*
X146511350Y-86555707D01*
X146501997Y-86551135D01*
X146501994Y-86551133D01*
X146443530Y-86522556D01*
X146406518Y-86504464D01*
X146376027Y-86500016D01*
X146342744Y-86495160D01*
X146342740Y-86495160D01*
X146338218Y-86494500D01*
X144621782Y-86494500D01*
X144617232Y-86495170D01*
X144617229Y-86495170D01*
X144562574Y-86503216D01*
X144562573Y-86503216D01*
X144552888Y-86504642D01*
X144515672Y-86522914D01*
X144457493Y-86551478D01*
X144457491Y-86551479D01*
X144448145Y-86556068D01*
X144365707Y-86638650D01*
X144314464Y-86743482D01*
X144304500Y-86811782D01*
X144304500Y-87024984D01*
X144284498Y-87093105D01*
X144230842Y-87139598D01*
X144160568Y-87149702D01*
X144095988Y-87120208D01*
X144089405Y-87114079D01*
X143872405Y-86897079D01*
X143838379Y-86834767D01*
X143835500Y-86807984D01*
X143835500Y-86547016D01*
X143855502Y-86478895D01*
X143872405Y-86457921D01*
X144218200Y-86112126D01*
X144280512Y-86078100D01*
X144351327Y-86083165D01*
X144396312Y-86112047D01*
X144440905Y-86156562D01*
X144448650Y-86164293D01*
X144458006Y-86168866D01*
X144458007Y-86168867D01*
X144490460Y-86184730D01*
X144553482Y-86215536D01*
X144583973Y-86219984D01*
X144617256Y-86224840D01*
X144617260Y-86224840D01*
X144621782Y-86225500D01*
X146338218Y-86225500D01*
X146342768Y-86224830D01*
X146342771Y-86224830D01*
X146397426Y-86216784D01*
X146397427Y-86216784D01*
X146407112Y-86215358D01*
X146469054Y-86184946D01*
X146502507Y-86168522D01*
X146502509Y-86168521D01*
X146511855Y-86163932D01*
X146594293Y-86081350D01*
X146645536Y-85976518D01*
X146655500Y-85908218D01*
X146655500Y-85541782D01*
X146650643Y-85508785D01*
X146646784Y-85482574D01*
X146646784Y-85482573D01*
X146645358Y-85472888D01*
X146612268Y-85405491D01*
X146598522Y-85377493D01*
X146598521Y-85377491D01*
X146593932Y-85368145D01*
X146511350Y-85285707D01*
X146406518Y-85234464D01*
X146376027Y-85230016D01*
X146342744Y-85225160D01*
X146342740Y-85225160D01*
X146338218Y-85224500D01*
X144621782Y-85224500D01*
X144617232Y-85225170D01*
X144617229Y-85225170D01*
X144562574Y-85233216D01*
X144562573Y-85233216D01*
X144552888Y-85234642D01*
X144502992Y-85259140D01*
X144457493Y-85281478D01*
X144457491Y-85281479D01*
X144448145Y-85286068D01*
X144440787Y-85293438D01*
X144440788Y-85293438D01*
X144371828Y-85362518D01*
X144309545Y-85396597D01*
X144282655Y-85399500D01*
X144164710Y-85399500D01*
X144153728Y-85399020D01*
X144127180Y-85396697D01*
X144127178Y-85396697D01*
X144116193Y-85395736D01*
X144079785Y-85405492D01*
X144069058Y-85407870D01*
X144065699Y-85408462D01*
X144031955Y-85414412D01*
X144022410Y-85419923D01*
X144019134Y-85421115D01*
X144015966Y-85422592D01*
X144005316Y-85425446D01*
X143996285Y-85431770D01*
X143974456Y-85447055D01*
X143965185Y-85452961D01*
X143945896Y-85464098D01*
X143932545Y-85471806D01*
X143925459Y-85480251D01*
X143908315Y-85500682D01*
X143900889Y-85508785D01*
X143293785Y-86115889D01*
X143285681Y-86123316D01*
X143256806Y-86147545D01*
X143251293Y-86157094D01*
X143237961Y-86180185D01*
X143232055Y-86189456D01*
X143210446Y-86220316D01*
X143207592Y-86230966D01*
X143206115Y-86234134D01*
X143204923Y-86237410D01*
X143199412Y-86246955D01*
X143194524Y-86274678D01*
X143192870Y-86284058D01*
X143190492Y-86294785D01*
X143180736Y-86331193D01*
X143181697Y-86342178D01*
X143181697Y-86342180D01*
X143184020Y-86368728D01*
X143184500Y-86379710D01*
X143184500Y-86975290D01*
X143184020Y-86986272D01*
X143180736Y-87023807D01*
X143188933Y-87054397D01*
X143190491Y-87060210D01*
X143192870Y-87070942D01*
X143199412Y-87108045D01*
X143204923Y-87117590D01*
X143206115Y-87120866D01*
X143207592Y-87124034D01*
X143210446Y-87134684D01*
X143216770Y-87143715D01*
X143232055Y-87165544D01*
X143237961Y-87174815D01*
X143247231Y-87190871D01*
X143256806Y-87207455D01*
X143265251Y-87214541D01*
X143285682Y-87231685D01*
X143293785Y-87239111D01*
X143779079Y-87724405D01*
X143813105Y-87786717D01*
X143808040Y-87857532D01*
X143765493Y-87914368D01*
X143698973Y-87939179D01*
X143689984Y-87939500D01*
X142259710Y-87939500D01*
X142248728Y-87939020D01*
X142222180Y-87936697D01*
X142222178Y-87936697D01*
X142211193Y-87935736D01*
X142174785Y-87945492D01*
X142164058Y-87947870D01*
X142160699Y-87948462D01*
X142126955Y-87954412D01*
X142117410Y-87959923D01*
X142114134Y-87961115D01*
X142110966Y-87962592D01*
X142100316Y-87965446D01*
X142091285Y-87971770D01*
X142069456Y-87987055D01*
X142060185Y-87992961D01*
X142037094Y-88006293D01*
X142027545Y-88011806D01*
X142019462Y-88021439D01*
X142003315Y-88040682D01*
X141995889Y-88048785D01*
X139008917Y-91035757D01*
X138946605Y-91069783D01*
X138875790Y-91064718D01*
X138860861Y-91058016D01*
X138860764Y-91057964D01*
X138853184Y-91052366D01*
X138844297Y-91049245D01*
X138844295Y-91049244D01*
X138732616Y-91010026D01*
X138725369Y-91007481D01*
X138717723Y-91006758D01*
X138717722Y-91006758D01*
X138711752Y-91006194D01*
X138693834Y-91004500D01*
X136896166Y-91004500D01*
X136878248Y-91006194D01*
X136872278Y-91006758D01*
X136872277Y-91006758D01*
X136864631Y-91007481D01*
X136736816Y-91052366D01*
X136729246Y-91057958D01*
X136729243Y-91057959D01*
X136656796Y-91111470D01*
X136627850Y-91132850D01*
X136622258Y-91140421D01*
X136552959Y-91234243D01*
X136552958Y-91234246D01*
X136547366Y-91241816D01*
X136502481Y-91369631D01*
X136499500Y-91401166D01*
X136499500Y-92748834D01*
X136502481Y-92780369D01*
X136547366Y-92908184D01*
X136552958Y-92915754D01*
X136552959Y-92915757D01*
X136604206Y-92985139D01*
X136627850Y-93017150D01*
X136635421Y-93022742D01*
X136729243Y-93092041D01*
X136729246Y-93092042D01*
X136736816Y-93097634D01*
X136864631Y-93142519D01*
X136872277Y-93143242D01*
X136872278Y-93143242D01*
X136882477Y-93144206D01*
X136896166Y-93145500D01*
X136897278Y-93145500D01*
X136964089Y-93168589D01*
X137008002Y-93224376D01*
X137014783Y-93295048D01*
X136982280Y-93358167D01*
X136942799Y-93386141D01*
X136902272Y-93404397D01*
X136892982Y-93409568D01*
X136707845Y-93534210D01*
X136699559Y-93540871D01*
X136538070Y-93694924D01*
X136531021Y-93702892D01*
X136397797Y-93881952D01*
X136392198Y-93890982D01*
X136291047Y-94089931D01*
X136287044Y-94099792D01*
X136220862Y-94312929D01*
X136218580Y-94323309D01*
X136215964Y-94343043D01*
X130175000Y-94343043D01*
X130175000Y-88533580D01*
X136218317Y-88533580D01*
X136244252Y-88657188D01*
X136247312Y-88667384D01*
X136329284Y-88874952D01*
X136334018Y-88884489D01*
X136449796Y-89075285D01*
X136456062Y-89083878D01*
X136602333Y-89252441D01*
X136609964Y-89259861D01*
X136782542Y-89401368D01*
X136791309Y-89407393D01*
X136985262Y-89517797D01*
X136994926Y-89522262D01*
X137204711Y-89598410D01*
X137214979Y-89601181D01*
X137435766Y-89641106D01*
X137443995Y-89642039D01*
X137462874Y-89642930D01*
X137465849Y-89643000D01*
X137522885Y-89643000D01*
X137538124Y-89638525D01*
X137539329Y-89637135D01*
X137541000Y-89629452D01*
X137541000Y-89624885D01*
X138049000Y-89624885D01*
X138053475Y-89640124D01*
X138054865Y-89641329D01*
X138062548Y-89643000D01*
X138076054Y-89643000D01*
X138081363Y-89642775D01*
X138247707Y-89628661D01*
X138258179Y-89626871D01*
X138474202Y-89570802D01*
X138484242Y-89567266D01*
X138687732Y-89475601D01*
X138697018Y-89470432D01*
X138882155Y-89345790D01*
X138890441Y-89339129D01*
X139051930Y-89185076D01*
X139058979Y-89177108D01*
X139192203Y-88998048D01*
X139197802Y-88989018D01*
X139298953Y-88790069D01*
X139302956Y-88780208D01*
X139369138Y-88567071D01*
X139371420Y-88556691D01*
X139374036Y-88536957D01*
X139371840Y-88522793D01*
X139358655Y-88519000D01*
X138067115Y-88519000D01*
X138051876Y-88523475D01*
X138050671Y-88524865D01*
X138049000Y-88532548D01*
X138049000Y-89624885D01*
X137541000Y-89624885D01*
X137541000Y-88537115D01*
X137536525Y-88521876D01*
X137535135Y-88520671D01*
X137527452Y-88519000D01*
X136233373Y-88519000D01*
X136219842Y-88522973D01*
X136218317Y-88533580D01*
X130175000Y-88533580D01*
X130175000Y-87993043D01*
X136215964Y-87993043D01*
X136218160Y-88007207D01*
X136231345Y-88011000D01*
X139356627Y-88011000D01*
X139370158Y-88007027D01*
X139371683Y-87996420D01*
X139345748Y-87872812D01*
X139342688Y-87862616D01*
X139260716Y-87655048D01*
X139255982Y-87645511D01*
X139140204Y-87454715D01*
X139133938Y-87446122D01*
X138987667Y-87277559D01*
X138980036Y-87270139D01*
X138807458Y-87128632D01*
X138798691Y-87122607D01*
X138637284Y-87030729D01*
X138587978Y-86979647D01*
X138574116Y-86910016D01*
X138600099Y-86843945D01*
X138657679Y-86802411D01*
X138693007Y-86795500D01*
X138693834Y-86795500D01*
X138696794Y-86795220D01*
X138696798Y-86795220D01*
X138717722Y-86793242D01*
X138717723Y-86793242D01*
X138725369Y-86792519D01*
X138853184Y-86747634D01*
X138860754Y-86742042D01*
X138860757Y-86742041D01*
X138954579Y-86672742D01*
X138962150Y-86667150D01*
X139027206Y-86579072D01*
X139037041Y-86565757D01*
X139037042Y-86565754D01*
X139042634Y-86558184D01*
X139087519Y-86430369D01*
X139090500Y-86398834D01*
X139090500Y-85051166D01*
X139088301Y-85027905D01*
X139088242Y-85027276D01*
X139088241Y-85027273D01*
X139087519Y-85019631D01*
X139084976Y-85012390D01*
X139084974Y-85012380D01*
X139080823Y-85000561D01*
X139077124Y-84929661D01*
X139110610Y-84869716D01*
X139162923Y-84817404D01*
X139225236Y-84783379D01*
X139252018Y-84780500D01*
X144282532Y-84780500D01*
X144350653Y-84800502D01*
X144371548Y-84817325D01*
X144448650Y-84894293D01*
X144553482Y-84945536D01*
X144583973Y-84949984D01*
X144617256Y-84954840D01*
X144617260Y-84954840D01*
X144621782Y-84955500D01*
X146338218Y-84955500D01*
X146342768Y-84954830D01*
X146342771Y-84954830D01*
X146397426Y-84946784D01*
X146397427Y-84946784D01*
X146407112Y-84945358D01*
X146474240Y-84912400D01*
X146502507Y-84898522D01*
X146502509Y-84898521D01*
X146511855Y-84893932D01*
X146594293Y-84811350D01*
X146645536Y-84706518D01*
X146655500Y-84638218D01*
X146655500Y-84271782D01*
X146645358Y-84202888D01*
X146615297Y-84141661D01*
X146598522Y-84107493D01*
X146598521Y-84107491D01*
X146593932Y-84098145D01*
X146511350Y-84015707D01*
X146406518Y-83964464D01*
X146376027Y-83960016D01*
X146342744Y-83955160D01*
X146342740Y-83955160D01*
X146338218Y-83954500D01*
X144621782Y-83954500D01*
X144617232Y-83955170D01*
X144617229Y-83955170D01*
X144562574Y-83963216D01*
X144562573Y-83963216D01*
X144552888Y-83964642D01*
X144502992Y-83989140D01*
X144457493Y-84011478D01*
X144457491Y-84011479D01*
X144448145Y-84016068D01*
X144440787Y-84023438D01*
X144440788Y-84023438D01*
X144371828Y-84092518D01*
X144309545Y-84126597D01*
X144282655Y-84129500D01*
X139084713Y-84129500D01*
X139073732Y-84129021D01*
X139047170Y-84126697D01*
X139047168Y-84126697D01*
X139036193Y-84125737D01*
X138999783Y-84135492D01*
X138989076Y-84137866D01*
X138951955Y-84144412D01*
X138942411Y-84149922D01*
X138939135Y-84151114D01*
X138935964Y-84152593D01*
X138925316Y-84155446D01*
X138916287Y-84161768D01*
X138894449Y-84177059D01*
X138885179Y-84182964D01*
X138862092Y-84196293D01*
X138862088Y-84196296D01*
X138852545Y-84201806D01*
X138828320Y-84230676D01*
X138820894Y-84238779D01*
X138442078Y-84617595D01*
X138379766Y-84651621D01*
X138352983Y-84654500D01*
X136896166Y-84654500D01*
X136878248Y-84656194D01*
X136872278Y-84656758D01*
X136872277Y-84656758D01*
X136864631Y-84657481D01*
X136736816Y-84702366D01*
X136729246Y-84707958D01*
X136729243Y-84707959D01*
X136659566Y-84759424D01*
X136627850Y-84782850D01*
X136622258Y-84790421D01*
X136552959Y-84884243D01*
X136552958Y-84884246D01*
X136547366Y-84891816D01*
X136502481Y-85019631D01*
X136501758Y-85027276D01*
X136501758Y-85027278D01*
X136501699Y-85027905D01*
X136499500Y-85051166D01*
X136499500Y-86398834D01*
X136502481Y-86430369D01*
X136547366Y-86558184D01*
X136552958Y-86565754D01*
X136552959Y-86565757D01*
X136562794Y-86579072D01*
X136627850Y-86667150D01*
X136635421Y-86672742D01*
X136729243Y-86742041D01*
X136729246Y-86742042D01*
X136736816Y-86747634D01*
X136864631Y-86792519D01*
X136872277Y-86793242D01*
X136872278Y-86793242D01*
X136882477Y-86794206D01*
X136896166Y-86795500D01*
X136897278Y-86795500D01*
X136964089Y-86818589D01*
X137008002Y-86874376D01*
X137014783Y-86945048D01*
X136982280Y-87008167D01*
X136942799Y-87036141D01*
X136902272Y-87054397D01*
X136892982Y-87059568D01*
X136707845Y-87184210D01*
X136699559Y-87190871D01*
X136538070Y-87344924D01*
X136531021Y-87352892D01*
X136397797Y-87531952D01*
X136392198Y-87540982D01*
X136291047Y-87739931D01*
X136287044Y-87749792D01*
X136220862Y-87962929D01*
X136218580Y-87973309D01*
X136215964Y-87993043D01*
X130175000Y-87993043D01*
X130175000Y-82183580D01*
X136218317Y-82183580D01*
X136244252Y-82307188D01*
X136247312Y-82317384D01*
X136329284Y-82524952D01*
X136334018Y-82534489D01*
X136449796Y-82725285D01*
X136456062Y-82733878D01*
X136602333Y-82902441D01*
X136609964Y-82909861D01*
X136782542Y-83051368D01*
X136791309Y-83057393D01*
X136985262Y-83167797D01*
X136994926Y-83172262D01*
X137204711Y-83248410D01*
X137214979Y-83251181D01*
X137435766Y-83291106D01*
X137443995Y-83292039D01*
X137462874Y-83292930D01*
X137465849Y-83293000D01*
X137522885Y-83293000D01*
X137538124Y-83288525D01*
X137539329Y-83287135D01*
X137541000Y-83279452D01*
X137541000Y-83274885D01*
X138049000Y-83274885D01*
X138053475Y-83290124D01*
X138054865Y-83291329D01*
X138062548Y-83293000D01*
X138076054Y-83293000D01*
X138081363Y-83292775D01*
X138247707Y-83278661D01*
X138258179Y-83276871D01*
X138474202Y-83220802D01*
X138484242Y-83217266D01*
X138687732Y-83125601D01*
X138697018Y-83120432D01*
X138882155Y-82995790D01*
X138890441Y-82989129D01*
X139051930Y-82835076D01*
X139058979Y-82827108D01*
X139192203Y-82648048D01*
X139197802Y-82639018D01*
X139298953Y-82440069D01*
X139302956Y-82430208D01*
X139369138Y-82217071D01*
X139371420Y-82206691D01*
X139374036Y-82186957D01*
X139371840Y-82172793D01*
X139358655Y-82169000D01*
X138067115Y-82169000D01*
X138051876Y-82173475D01*
X138050671Y-82174865D01*
X138049000Y-82182548D01*
X138049000Y-83274885D01*
X137541000Y-83274885D01*
X137541000Y-82187115D01*
X137536525Y-82171876D01*
X137535135Y-82170671D01*
X137527452Y-82169000D01*
X136233373Y-82169000D01*
X136219842Y-82172973D01*
X136218317Y-82183580D01*
X130175000Y-82183580D01*
X130175000Y-81643043D01*
X136215964Y-81643043D01*
X136218160Y-81657207D01*
X136231345Y-81661000D01*
X139356627Y-81661000D01*
X139370158Y-81657027D01*
X139371683Y-81646420D01*
X139345748Y-81522812D01*
X139342688Y-81512616D01*
X139260716Y-81305048D01*
X139255982Y-81295511D01*
X139140204Y-81104715D01*
X139133938Y-81096122D01*
X138987667Y-80927559D01*
X138980036Y-80920139D01*
X138807458Y-80778632D01*
X138798691Y-80772607D01*
X138637284Y-80680729D01*
X138587978Y-80629647D01*
X138574116Y-80560016D01*
X138600099Y-80493945D01*
X138657679Y-80452411D01*
X138693007Y-80445500D01*
X138693834Y-80445500D01*
X138696794Y-80445220D01*
X138696798Y-80445220D01*
X138717722Y-80443242D01*
X138717723Y-80443242D01*
X138725369Y-80442519D01*
X138746001Y-80435274D01*
X138844295Y-80400756D01*
X138844297Y-80400755D01*
X138853184Y-80397634D01*
X138860764Y-80392036D01*
X138860861Y-80391984D01*
X138930424Y-80377785D01*
X138996620Y-80403448D01*
X139008917Y-80414243D01*
X141995889Y-83401215D01*
X142003316Y-83409319D01*
X142027545Y-83438194D01*
X142037094Y-83443707D01*
X142060185Y-83457039D01*
X142069456Y-83462945D01*
X142100316Y-83484554D01*
X142110966Y-83487408D01*
X142114134Y-83488885D01*
X142117410Y-83490077D01*
X142126955Y-83495588D01*
X142160699Y-83501538D01*
X142164058Y-83502130D01*
X142174785Y-83504508D01*
X142211193Y-83514264D01*
X142222169Y-83513304D01*
X142222172Y-83513304D01*
X142248743Y-83510979D01*
X142259724Y-83510500D01*
X144282532Y-83510500D01*
X144350653Y-83530502D01*
X144371548Y-83547325D01*
X144448650Y-83624293D01*
X144553482Y-83675536D01*
X144583973Y-83679984D01*
X144617256Y-83684840D01*
X144617260Y-83684840D01*
X144621782Y-83685500D01*
X146338218Y-83685500D01*
X146342768Y-83684830D01*
X146342771Y-83684830D01*
X146397426Y-83676784D01*
X146397427Y-83676784D01*
X146407112Y-83675358D01*
X146501804Y-83628867D01*
X146502507Y-83628522D01*
X146502509Y-83628521D01*
X146511855Y-83623932D01*
X146594293Y-83541350D01*
X146645536Y-83436518D01*
X146655500Y-83368218D01*
X146655500Y-83001782D01*
X146653638Y-82989129D01*
X146646784Y-82942574D01*
X146646784Y-82942573D01*
X146645358Y-82932888D01*
X146619185Y-82879579D01*
X146598522Y-82837493D01*
X146598521Y-82837491D01*
X146593932Y-82828145D01*
X146511350Y-82745707D01*
X146487151Y-82733878D01*
X146446906Y-82714206D01*
X146406518Y-82694464D01*
X146376027Y-82690016D01*
X146342744Y-82685160D01*
X146342740Y-82685160D01*
X146338218Y-82684500D01*
X144621782Y-82684500D01*
X144617232Y-82685170D01*
X144617229Y-82685170D01*
X144562574Y-82693216D01*
X144562573Y-82693216D01*
X144552888Y-82694642D01*
X144515672Y-82712914D01*
X144457493Y-82741478D01*
X144457491Y-82741479D01*
X144448145Y-82746068D01*
X144440787Y-82753438D01*
X144440788Y-82753438D01*
X144371828Y-82822518D01*
X144309545Y-82856597D01*
X144282655Y-82859500D01*
X142427016Y-82859500D01*
X142358895Y-82839498D01*
X142337921Y-82822595D01*
X139127405Y-79612079D01*
X139093379Y-79549767D01*
X139090500Y-79522984D01*
X139090500Y-78701166D01*
X139087519Y-78669631D01*
X139042634Y-78541816D01*
X139037042Y-78534246D01*
X139037041Y-78534243D01*
X138967742Y-78440421D01*
X138962150Y-78432850D01*
X138910226Y-78394498D01*
X138860757Y-78357959D01*
X138860754Y-78357958D01*
X138853184Y-78352366D01*
X138725369Y-78307481D01*
X138717723Y-78306758D01*
X138717722Y-78306758D01*
X138711752Y-78306194D01*
X138693834Y-78304500D01*
X136896166Y-78304500D01*
X136878248Y-78306194D01*
X136872278Y-78306758D01*
X136872277Y-78306758D01*
X136864631Y-78307481D01*
X136736816Y-78352366D01*
X136729246Y-78357958D01*
X136729243Y-78357959D01*
X136679774Y-78394498D01*
X136627850Y-78432850D01*
X136622258Y-78440421D01*
X136552959Y-78534243D01*
X136552958Y-78534246D01*
X136547366Y-78541816D01*
X136502481Y-78669631D01*
X136499500Y-78701166D01*
X136499500Y-80048834D01*
X136502481Y-80080369D01*
X136547366Y-80208184D01*
X136552958Y-80215754D01*
X136552959Y-80215757D01*
X136611546Y-80295076D01*
X136627850Y-80317150D01*
X136635421Y-80322742D01*
X136729243Y-80392041D01*
X136729246Y-80392042D01*
X136736816Y-80397634D01*
X136864631Y-80442519D01*
X136872277Y-80443242D01*
X136872278Y-80443242D01*
X136882477Y-80444206D01*
X136896166Y-80445500D01*
X136897278Y-80445500D01*
X136964089Y-80468589D01*
X137008002Y-80524376D01*
X137014783Y-80595048D01*
X136982280Y-80658167D01*
X136942799Y-80686141D01*
X136902272Y-80704397D01*
X136892982Y-80709568D01*
X136707845Y-80834210D01*
X136699559Y-80840871D01*
X136538070Y-80994924D01*
X136531021Y-81002892D01*
X136397797Y-81181952D01*
X136392198Y-81190982D01*
X136291047Y-81389931D01*
X136287044Y-81399792D01*
X136220862Y-81612929D01*
X136218580Y-81623309D01*
X136215964Y-81643043D01*
X130175000Y-81643043D01*
X130175000Y-74930000D01*
X133379318Y-74930000D01*
X133399956Y-75086762D01*
X133460464Y-75232841D01*
X133556718Y-75358282D01*
X133682159Y-75454536D01*
X133828238Y-75515044D01*
X133985000Y-75535682D01*
X133993188Y-75534604D01*
X134133574Y-75516122D01*
X134141762Y-75515044D01*
X134287841Y-75454536D01*
X134413282Y-75358282D01*
X134426792Y-75340676D01*
X134454323Y-75304796D01*
X134511661Y-75262929D01*
X134554286Y-75255500D01*
X134808500Y-75255500D01*
X134876621Y-75275502D01*
X134923114Y-75329158D01*
X134934500Y-75381500D01*
X134934500Y-75608834D01*
X134934779Y-75611782D01*
X134936454Y-75629500D01*
X134937481Y-75640369D01*
X134982366Y-75768184D01*
X134987958Y-75775754D01*
X134987959Y-75775757D01*
X135042364Y-75849414D01*
X135062850Y-75877150D01*
X135070421Y-75882742D01*
X135164243Y-75952041D01*
X135164246Y-75952042D01*
X135171816Y-75957634D01*
X135299631Y-76002519D01*
X135307277Y-76003242D01*
X135307278Y-76003242D01*
X135313248Y-76003806D01*
X135331166Y-76005500D01*
X136063834Y-76005500D01*
X136081752Y-76003806D01*
X136087722Y-76003242D01*
X136087723Y-76003242D01*
X136095369Y-76002519D01*
X136223184Y-75957634D01*
X136230754Y-75952042D01*
X136230757Y-75952041D01*
X136324579Y-75882742D01*
X136332150Y-75877150D01*
X136352636Y-75849414D01*
X136407041Y-75775757D01*
X136407042Y-75775754D01*
X136412634Y-75768184D01*
X136457519Y-75640369D01*
X136458547Y-75629500D01*
X136460221Y-75611782D01*
X136460500Y-75608834D01*
X137859500Y-75608834D01*
X137859779Y-75611782D01*
X137861454Y-75629500D01*
X137862481Y-75640369D01*
X137907366Y-75768184D01*
X137912958Y-75775754D01*
X137912959Y-75775757D01*
X137967364Y-75849414D01*
X137987850Y-75877150D01*
X137995421Y-75882742D01*
X138089243Y-75952041D01*
X138089246Y-75952042D01*
X138096816Y-75957634D01*
X138224631Y-76002519D01*
X138232277Y-76003242D01*
X138232278Y-76003242D01*
X138238248Y-76003806D01*
X138256166Y-76005500D01*
X138988834Y-76005500D01*
X139006752Y-76003806D01*
X139012722Y-76003242D01*
X139012723Y-76003242D01*
X139020369Y-76002519D01*
X139148184Y-75957634D01*
X139155754Y-75952042D01*
X139155757Y-75952041D01*
X139249579Y-75882742D01*
X139257150Y-75877150D01*
X139277636Y-75849414D01*
X139332041Y-75775757D01*
X139332042Y-75775754D01*
X139337634Y-75768184D01*
X139382519Y-75640369D01*
X139383547Y-75629500D01*
X139385221Y-75611782D01*
X139385500Y-75608834D01*
X139385500Y-75381500D01*
X139405502Y-75313379D01*
X139459158Y-75266886D01*
X139511500Y-75255500D01*
X139512984Y-75255500D01*
X139581105Y-75275502D01*
X139602079Y-75292405D01*
X140930889Y-76621215D01*
X140938316Y-76629319D01*
X140962545Y-76658194D01*
X140972094Y-76663707D01*
X140995185Y-76677039D01*
X141004456Y-76682945D01*
X141035316Y-76704554D01*
X141045968Y-76707408D01*
X141049124Y-76708880D01*
X141052404Y-76710074D01*
X141061955Y-76715588D01*
X141065028Y-76716130D01*
X141118275Y-76755335D01*
X141141082Y-76804641D01*
X141141758Y-76807722D01*
X141142481Y-76815369D01*
X141187366Y-76943184D01*
X141192958Y-76950754D01*
X141192959Y-76950757D01*
X141255335Y-77035206D01*
X141267850Y-77052150D01*
X141275421Y-77057742D01*
X141369243Y-77127041D01*
X141369246Y-77127042D01*
X141376816Y-77132634D01*
X141504631Y-77177519D01*
X141512277Y-77178242D01*
X141512278Y-77178242D01*
X141518248Y-77178806D01*
X141536166Y-77180500D01*
X142943834Y-77180500D01*
X142961752Y-77178806D01*
X142967722Y-77178242D01*
X142967723Y-77178242D01*
X142975369Y-77177519D01*
X143103184Y-77132634D01*
X143110754Y-77127042D01*
X143110757Y-77127041D01*
X143146188Y-77100871D01*
X144003456Y-77100871D01*
X144044107Y-77240790D01*
X144050352Y-77255221D01*
X144126911Y-77384678D01*
X144136551Y-77397104D01*
X144242896Y-77503449D01*
X144255322Y-77513089D01*
X144384779Y-77589648D01*
X144399210Y-77595893D01*
X144545065Y-77638269D01*
X144557667Y-77640570D01*
X144586084Y-77642807D01*
X144591014Y-77643000D01*
X145207885Y-77643000D01*
X145223124Y-77638525D01*
X145224329Y-77637135D01*
X145226000Y-77629452D01*
X145226000Y-77624884D01*
X145734000Y-77624884D01*
X145738475Y-77640123D01*
X145739865Y-77641328D01*
X145747548Y-77642999D01*
X146368984Y-77642999D01*
X146373920Y-77642805D01*
X146402336Y-77640570D01*
X146414931Y-77638270D01*
X146560790Y-77595893D01*
X146575221Y-77589648D01*
X146704678Y-77513089D01*
X146717104Y-77503449D01*
X146823449Y-77397104D01*
X146833089Y-77384678D01*
X146909648Y-77255221D01*
X146915893Y-77240790D01*
X146954939Y-77106395D01*
X146954899Y-77092294D01*
X146947630Y-77089000D01*
X145752115Y-77089000D01*
X145736876Y-77093475D01*
X145735671Y-77094865D01*
X145734000Y-77102548D01*
X145734000Y-77624884D01*
X145226000Y-77624884D01*
X145226000Y-77107115D01*
X145221525Y-77091876D01*
X145220135Y-77090671D01*
X145212452Y-77089000D01*
X144018122Y-77089000D01*
X144004591Y-77092973D01*
X144003456Y-77100871D01*
X143146188Y-77100871D01*
X143204579Y-77057742D01*
X143212150Y-77052150D01*
X143224665Y-77035206D01*
X143287041Y-76950757D01*
X143287042Y-76950754D01*
X143292634Y-76943184D01*
X143337519Y-76815369D01*
X143340500Y-76783834D01*
X143340500Y-76026166D01*
X143340220Y-76023207D01*
X143340184Y-76022438D01*
X143356954Y-75953450D01*
X143408359Y-75904480D01*
X143466044Y-75890500D01*
X144245221Y-75890500D01*
X144313342Y-75910502D01*
X144359835Y-75964158D01*
X144369939Y-76034432D01*
X144340445Y-76099012D01*
X144309360Y-76124954D01*
X144255323Y-76156911D01*
X144242896Y-76166551D01*
X144136551Y-76272896D01*
X144126911Y-76285322D01*
X144050352Y-76414779D01*
X144044107Y-76429210D01*
X144005061Y-76563605D01*
X144005101Y-76577706D01*
X144012370Y-76581000D01*
X146941878Y-76581000D01*
X146955409Y-76577027D01*
X146956544Y-76569129D01*
X146915893Y-76429210D01*
X146909648Y-76414779D01*
X146833089Y-76285322D01*
X146823449Y-76272896D01*
X146717104Y-76166551D01*
X146704674Y-76156909D01*
X146625542Y-76110111D01*
X146577089Y-76058218D01*
X146564383Y-75988368D01*
X146587060Y-75928595D01*
X146594293Y-75921350D01*
X146598864Y-75911999D01*
X146598866Y-75911996D01*
X146641240Y-75825306D01*
X146645536Y-75816518D01*
X146651235Y-75777455D01*
X146654840Y-75752744D01*
X146654840Y-75752740D01*
X146655500Y-75748218D01*
X146655500Y-75381782D01*
X146645358Y-75312888D01*
X146612966Y-75246913D01*
X146598522Y-75217493D01*
X146598521Y-75217491D01*
X146593932Y-75208145D01*
X146511350Y-75125707D01*
X146478839Y-75109815D01*
X146431677Y-75086762D01*
X146406518Y-75074464D01*
X146373753Y-75069684D01*
X146342744Y-75065160D01*
X146342740Y-75065160D01*
X146338218Y-75064500D01*
X144621782Y-75064500D01*
X144617232Y-75065170D01*
X144617229Y-75065170D01*
X144562574Y-75073216D01*
X144562573Y-75073216D01*
X144552888Y-75074642D01*
X144512664Y-75094391D01*
X144457493Y-75121478D01*
X144457491Y-75121479D01*
X144448145Y-75126068D01*
X144440787Y-75133438D01*
X144440788Y-75133438D01*
X144371828Y-75202518D01*
X144309545Y-75236597D01*
X144282655Y-75239500D01*
X143099710Y-75239500D01*
X143088728Y-75239020D01*
X143062177Y-75236697D01*
X143062171Y-75236698D01*
X143051193Y-75235737D01*
X143040546Y-75238590D01*
X143014804Y-75245488D01*
X143004069Y-75247868D01*
X142996508Y-75249201D01*
X142966955Y-75254412D01*
X142957407Y-75259924D01*
X142954130Y-75261117D01*
X142950962Y-75262594D01*
X142940316Y-75265447D01*
X142931287Y-75271769D01*
X142909453Y-75287057D01*
X142900185Y-75292961D01*
X142867545Y-75311806D01*
X142860462Y-75320247D01*
X142860461Y-75320248D01*
X142843320Y-75340676D01*
X142835894Y-75348779D01*
X142592078Y-75592595D01*
X142529766Y-75626621D01*
X142502983Y-75629500D01*
X141536166Y-75629500D01*
X141518248Y-75631194D01*
X141512278Y-75631758D01*
X141512277Y-75631758D01*
X141504631Y-75632481D01*
X141376816Y-75677366D01*
X141369246Y-75682958D01*
X141369243Y-75682959D01*
X141298050Y-75735544D01*
X141267850Y-75757850D01*
X141235990Y-75800984D01*
X141179431Y-75843894D01*
X141108649Y-75849414D01*
X141045545Y-75815219D01*
X139944111Y-74713785D01*
X139936684Y-74705681D01*
X139919541Y-74685251D01*
X139919542Y-74685251D01*
X139912455Y-74676806D01*
X139902906Y-74671293D01*
X139879815Y-74657961D01*
X139870544Y-74652055D01*
X139848715Y-74636770D01*
X139839684Y-74630446D01*
X139829034Y-74627592D01*
X139825866Y-74626115D01*
X139822590Y-74624923D01*
X139813045Y-74619412D01*
X139779301Y-74613462D01*
X139775942Y-74612870D01*
X139765215Y-74610492D01*
X139728807Y-74600736D01*
X139717822Y-74601697D01*
X139717820Y-74601697D01*
X139691272Y-74604020D01*
X139680290Y-74604500D01*
X139511500Y-74604500D01*
X139443379Y-74584498D01*
X139396886Y-74530842D01*
X139385500Y-74478500D01*
X139385500Y-74251166D01*
X139383806Y-74233248D01*
X139383242Y-74227278D01*
X139383242Y-74227277D01*
X139382519Y-74219631D01*
X139337634Y-74091816D01*
X139332042Y-74084246D01*
X139332041Y-74084243D01*
X139262742Y-73990421D01*
X139257150Y-73982850D01*
X139219730Y-73955211D01*
X139155757Y-73907959D01*
X139155754Y-73907958D01*
X139148184Y-73902366D01*
X139020369Y-73857481D01*
X139012723Y-73856758D01*
X139012722Y-73856758D01*
X139005421Y-73856068D01*
X138988834Y-73854500D01*
X138256166Y-73854500D01*
X138239579Y-73856068D01*
X138232278Y-73856758D01*
X138232277Y-73856758D01*
X138224631Y-73857481D01*
X138096816Y-73902366D01*
X138089246Y-73907958D01*
X138089243Y-73907959D01*
X138025270Y-73955211D01*
X137987850Y-73982850D01*
X137982258Y-73990421D01*
X137912959Y-74084243D01*
X137912958Y-74084246D01*
X137907366Y-74091816D01*
X137862481Y-74219631D01*
X137861758Y-74227277D01*
X137861758Y-74227278D01*
X137861194Y-74233248D01*
X137859500Y-74251166D01*
X137859500Y-75608834D01*
X136460500Y-75608834D01*
X136460500Y-74251166D01*
X136458806Y-74233248D01*
X136458242Y-74227278D01*
X136458242Y-74227277D01*
X136457519Y-74219631D01*
X136412634Y-74091816D01*
X136407042Y-74084246D01*
X136407041Y-74084243D01*
X136337742Y-73990421D01*
X136332150Y-73982850D01*
X136294730Y-73955211D01*
X136230757Y-73907959D01*
X136230754Y-73907958D01*
X136223184Y-73902366D01*
X136095369Y-73857481D01*
X136087723Y-73856758D01*
X136087722Y-73856758D01*
X136080421Y-73856068D01*
X136063834Y-73854500D01*
X135331166Y-73854500D01*
X135314579Y-73856068D01*
X135307278Y-73856758D01*
X135307277Y-73856758D01*
X135299631Y-73857481D01*
X135171816Y-73902366D01*
X135164246Y-73907958D01*
X135164243Y-73907959D01*
X135100270Y-73955211D01*
X135062850Y-73982850D01*
X135057258Y-73990421D01*
X134987959Y-74084243D01*
X134987958Y-74084246D01*
X134982366Y-74091816D01*
X134937481Y-74219631D01*
X134936758Y-74227277D01*
X134936758Y-74227278D01*
X134936194Y-74233248D01*
X134934500Y-74251166D01*
X134934500Y-74478500D01*
X134914498Y-74546621D01*
X134860842Y-74593114D01*
X134808500Y-74604500D01*
X134554286Y-74604500D01*
X134486165Y-74584498D01*
X134454323Y-74555204D01*
X134418305Y-74508264D01*
X134413282Y-74501718D01*
X134287841Y-74405464D01*
X134141762Y-74344956D01*
X133985000Y-74324318D01*
X133828238Y-74344956D01*
X133682159Y-74405464D01*
X133556718Y-74501718D01*
X133460464Y-74627159D01*
X133399956Y-74773238D01*
X133379318Y-74930000D01*
X130175000Y-74930000D01*
X130175000Y-73833834D01*
X141139500Y-73833834D01*
X141140746Y-73847016D01*
X141141454Y-73854500D01*
X141142481Y-73865369D01*
X141187366Y-73993184D01*
X141192958Y-74000754D01*
X141192959Y-74000757D01*
X141252772Y-74081736D01*
X141267850Y-74102150D01*
X141275421Y-74107742D01*
X141369243Y-74177041D01*
X141369246Y-74177042D01*
X141376816Y-74182634D01*
X141504631Y-74227519D01*
X141512277Y-74228242D01*
X141512278Y-74228242D01*
X141518248Y-74228806D01*
X141536166Y-74230500D01*
X142502983Y-74230500D01*
X142571104Y-74250502D01*
X142592078Y-74267405D01*
X142835895Y-74511222D01*
X142843315Y-74519318D01*
X142867545Y-74548194D01*
X142880896Y-74555902D01*
X142900184Y-74567038D01*
X142909452Y-74572942D01*
X142940316Y-74594553D01*
X142950962Y-74597406D01*
X142954130Y-74598883D01*
X142957407Y-74600076D01*
X142966955Y-74605588D01*
X142994763Y-74610491D01*
X143004069Y-74612132D01*
X143014803Y-74614512D01*
X143051193Y-74624263D01*
X143062169Y-74623303D01*
X143062172Y-74623303D01*
X143088731Y-74620979D01*
X143099712Y-74620500D01*
X144282532Y-74620500D01*
X144350653Y-74640502D01*
X144371548Y-74657325D01*
X144448650Y-74734293D01*
X144553482Y-74785536D01*
X144583973Y-74789984D01*
X144617256Y-74794840D01*
X144617260Y-74794840D01*
X144621782Y-74795500D01*
X146338218Y-74795500D01*
X146342768Y-74794830D01*
X146342771Y-74794830D01*
X146397426Y-74786784D01*
X146397427Y-74786784D01*
X146407112Y-74785358D01*
X146457008Y-74760860D01*
X146502507Y-74738522D01*
X146502509Y-74738521D01*
X146511855Y-74733932D01*
X146594293Y-74651350D01*
X146607534Y-74624263D01*
X146635505Y-74567039D01*
X146645536Y-74546518D01*
X146652072Y-74501718D01*
X146654840Y-74482744D01*
X146654840Y-74482740D01*
X146655500Y-74478218D01*
X146655500Y-74111782D01*
X146653869Y-74100699D01*
X146646784Y-74052574D01*
X146646784Y-74052573D01*
X146645358Y-74042888D01*
X146615881Y-73982850D01*
X146598522Y-73947493D01*
X146598521Y-73947491D01*
X146593932Y-73938145D01*
X146511350Y-73855707D01*
X146406518Y-73804464D01*
X146376027Y-73800016D01*
X146342744Y-73795160D01*
X146342740Y-73795160D01*
X146338218Y-73794500D01*
X144621782Y-73794500D01*
X144617232Y-73795170D01*
X144617229Y-73795170D01*
X144562574Y-73803216D01*
X144562573Y-73803216D01*
X144552888Y-73804642D01*
X144521133Y-73820233D01*
X144457493Y-73851478D01*
X144457491Y-73851479D01*
X144448145Y-73856068D01*
X144440787Y-73863438D01*
X144440788Y-73863438D01*
X144371828Y-73932518D01*
X144309545Y-73966597D01*
X144282655Y-73969500D01*
X143466044Y-73969500D01*
X143397923Y-73949498D01*
X143351430Y-73895842D01*
X143340184Y-73837562D01*
X143340221Y-73836782D01*
X143340500Y-73833834D01*
X143340500Y-73076166D01*
X143337519Y-73044631D01*
X143292634Y-72916816D01*
X143287042Y-72909246D01*
X143287041Y-72909243D01*
X143217742Y-72815421D01*
X143212150Y-72807850D01*
X143137837Y-72752961D01*
X143110757Y-72732959D01*
X143110754Y-72732958D01*
X143103184Y-72727366D01*
X142975369Y-72682481D01*
X142967723Y-72681758D01*
X142967722Y-72681758D01*
X142961752Y-72681194D01*
X142943834Y-72679500D01*
X141536166Y-72679500D01*
X141518248Y-72681194D01*
X141512278Y-72681758D01*
X141512277Y-72681758D01*
X141504631Y-72682481D01*
X141376816Y-72727366D01*
X141369246Y-72732958D01*
X141369243Y-72732959D01*
X141342163Y-72752961D01*
X141267850Y-72807850D01*
X141262258Y-72815421D01*
X141192959Y-72909243D01*
X141192958Y-72909246D01*
X141187366Y-72916816D01*
X141142481Y-73044631D01*
X141139500Y-73076166D01*
X141139500Y-73833834D01*
X130175000Y-73833834D01*
X130175000Y-70118580D01*
X136218317Y-70118580D01*
X136244252Y-70242188D01*
X136247312Y-70252384D01*
X136329284Y-70459952D01*
X136334018Y-70469489D01*
X136449796Y-70660285D01*
X136456062Y-70668878D01*
X136602333Y-70837441D01*
X136609964Y-70844861D01*
X136782542Y-70986368D01*
X136791309Y-70992393D01*
X136985262Y-71102797D01*
X136994926Y-71107262D01*
X137204711Y-71183410D01*
X137214979Y-71186181D01*
X137435766Y-71226106D01*
X137443995Y-71227039D01*
X137462874Y-71227930D01*
X137465849Y-71228000D01*
X137522885Y-71228000D01*
X137538124Y-71223525D01*
X137539329Y-71222135D01*
X137541000Y-71214452D01*
X137541000Y-71209885D01*
X138049000Y-71209885D01*
X138053475Y-71225124D01*
X138054865Y-71226329D01*
X138062548Y-71228000D01*
X138076054Y-71228000D01*
X138081363Y-71227775D01*
X138247707Y-71213661D01*
X138258179Y-71211871D01*
X138474202Y-71155802D01*
X138484242Y-71152266D01*
X138687732Y-71060601D01*
X138697018Y-71055432D01*
X138882155Y-70930790D01*
X138890441Y-70924129D01*
X139051930Y-70770076D01*
X139058979Y-70762108D01*
X139067340Y-70750871D01*
X144003456Y-70750871D01*
X144044107Y-70890790D01*
X144050352Y-70905221D01*
X144126911Y-71034678D01*
X144136551Y-71047104D01*
X144242896Y-71153449D01*
X144255326Y-71163091D01*
X144334458Y-71209889D01*
X144382911Y-71261782D01*
X144395617Y-71331632D01*
X144372940Y-71391405D01*
X144365707Y-71398650D01*
X144361136Y-71408001D01*
X144361134Y-71408004D01*
X144361133Y-71408007D01*
X144314464Y-71503482D01*
X144304500Y-71571782D01*
X144304500Y-71938218D01*
X144305170Y-71942768D01*
X144305170Y-71942771D01*
X144313216Y-71997426D01*
X144314642Y-72007112D01*
X144318958Y-72015902D01*
X144360229Y-72099962D01*
X144366068Y-72111855D01*
X144448650Y-72194293D01*
X144553482Y-72245536D01*
X144583973Y-72249984D01*
X144617256Y-72254840D01*
X144617260Y-72254840D01*
X144621782Y-72255500D01*
X146338218Y-72255500D01*
X146342768Y-72254830D01*
X146342771Y-72254830D01*
X146397426Y-72246784D01*
X146397427Y-72246784D01*
X146407112Y-72245358D01*
X146501804Y-72198867D01*
X146502507Y-72198522D01*
X146502509Y-72198521D01*
X146511855Y-72193932D01*
X146594293Y-72111350D01*
X146645536Y-72006518D01*
X146655500Y-71938218D01*
X146655500Y-71571782D01*
X146646871Y-71513162D01*
X146646784Y-71512574D01*
X146646784Y-71512573D01*
X146645358Y-71502888D01*
X146593932Y-71398145D01*
X146587076Y-71391301D01*
X146563823Y-71324667D01*
X146580386Y-71255630D01*
X146625526Y-71209898D01*
X146704678Y-71163089D01*
X146717104Y-71153449D01*
X146823449Y-71047104D01*
X146833089Y-71034678D01*
X146909648Y-70905221D01*
X146915893Y-70890790D01*
X146954939Y-70756395D01*
X146954899Y-70742294D01*
X146947630Y-70739000D01*
X144018122Y-70739000D01*
X144004591Y-70742973D01*
X144003456Y-70750871D01*
X139067340Y-70750871D01*
X139192203Y-70583048D01*
X139197802Y-70574018D01*
X139298953Y-70375069D01*
X139302956Y-70365208D01*
X139369138Y-70152071D01*
X139371420Y-70141691D01*
X139374036Y-70121957D01*
X139371840Y-70107793D01*
X139358655Y-70104000D01*
X138067115Y-70104000D01*
X138051876Y-70108475D01*
X138050671Y-70109865D01*
X138049000Y-70117548D01*
X138049000Y-71209885D01*
X137541000Y-71209885D01*
X137541000Y-70122115D01*
X137536525Y-70106876D01*
X137535135Y-70105671D01*
X137527452Y-70104000D01*
X136233373Y-70104000D01*
X136219842Y-70107973D01*
X136218317Y-70118580D01*
X130175000Y-70118580D01*
X130175000Y-69578043D01*
X136215964Y-69578043D01*
X136218160Y-69592207D01*
X136231345Y-69596000D01*
X139356627Y-69596000D01*
X139370158Y-69592027D01*
X139371683Y-69581420D01*
X139350586Y-69480871D01*
X144003456Y-69480871D01*
X144044107Y-69620790D01*
X144050352Y-69635221D01*
X144126912Y-69764678D01*
X144133189Y-69772770D01*
X144159139Y-69838854D01*
X144145241Y-69908477D01*
X144133189Y-69927230D01*
X144126912Y-69935322D01*
X144050352Y-70064779D01*
X144044107Y-70079210D01*
X144005061Y-70213605D01*
X144005101Y-70227706D01*
X144012370Y-70231000D01*
X145207885Y-70231000D01*
X145223124Y-70226525D01*
X145224329Y-70225135D01*
X145226000Y-70217452D01*
X145226000Y-70212885D01*
X145734000Y-70212885D01*
X145738475Y-70228124D01*
X145739865Y-70229329D01*
X145747548Y-70231000D01*
X146941878Y-70231000D01*
X146955409Y-70227027D01*
X146956544Y-70219129D01*
X146915893Y-70079210D01*
X146909648Y-70064779D01*
X146833088Y-69935322D01*
X146826811Y-69927230D01*
X146800861Y-69861146D01*
X146814759Y-69791523D01*
X146826811Y-69772770D01*
X146833088Y-69764678D01*
X146909648Y-69635221D01*
X146915893Y-69620790D01*
X146954939Y-69486395D01*
X146954899Y-69472294D01*
X146947630Y-69469000D01*
X145752115Y-69469000D01*
X145736876Y-69473475D01*
X145735671Y-69474865D01*
X145734000Y-69482548D01*
X145734000Y-70212885D01*
X145226000Y-70212885D01*
X145226000Y-69487115D01*
X145221525Y-69471876D01*
X145220135Y-69470671D01*
X145212452Y-69469000D01*
X144018122Y-69469000D01*
X144004591Y-69472973D01*
X144003456Y-69480871D01*
X139350586Y-69480871D01*
X139345748Y-69457812D01*
X139342688Y-69447616D01*
X139260716Y-69240048D01*
X139255982Y-69230511D01*
X139140204Y-69039715D01*
X139133938Y-69031122D01*
X138987667Y-68862559D01*
X138980036Y-68855139D01*
X138807458Y-68713632D01*
X138798691Y-68707607D01*
X138637284Y-68615729D01*
X138587978Y-68564647D01*
X138574116Y-68495016D01*
X138600099Y-68428945D01*
X138657679Y-68387411D01*
X138693007Y-68380500D01*
X138693834Y-68380500D01*
X138696794Y-68380220D01*
X138696798Y-68380220D01*
X138717722Y-68378242D01*
X138717723Y-68378242D01*
X138725369Y-68377519D01*
X138853184Y-68332634D01*
X138860754Y-68327042D01*
X138860757Y-68327041D01*
X138954579Y-68257742D01*
X138962150Y-68252150D01*
X138974665Y-68235206D01*
X138992639Y-68210871D01*
X144003456Y-68210871D01*
X144044107Y-68350790D01*
X144050352Y-68365221D01*
X144126912Y-68494678D01*
X144133189Y-68502770D01*
X144159139Y-68568854D01*
X144145241Y-68638477D01*
X144133189Y-68657230D01*
X144126912Y-68665322D01*
X144050352Y-68794779D01*
X144044107Y-68809210D01*
X144005061Y-68943605D01*
X144005101Y-68957706D01*
X144012370Y-68961000D01*
X145207885Y-68961000D01*
X145223124Y-68956525D01*
X145224329Y-68955135D01*
X145226000Y-68947452D01*
X145226000Y-68942885D01*
X145734000Y-68942885D01*
X145738475Y-68958124D01*
X145739865Y-68959329D01*
X145747548Y-68961000D01*
X146941878Y-68961000D01*
X146955409Y-68957027D01*
X146956544Y-68949129D01*
X146915893Y-68809210D01*
X146909648Y-68794779D01*
X146833088Y-68665322D01*
X146826811Y-68657230D01*
X146800861Y-68591146D01*
X146814759Y-68521523D01*
X146826811Y-68502770D01*
X146833088Y-68494678D01*
X146909648Y-68365221D01*
X146915893Y-68350790D01*
X146954939Y-68216395D01*
X146954899Y-68202294D01*
X146947630Y-68199000D01*
X145752115Y-68199000D01*
X145736876Y-68203475D01*
X145735671Y-68204865D01*
X145734000Y-68212548D01*
X145734000Y-68942885D01*
X145226000Y-68942885D01*
X145226000Y-68217115D01*
X145221525Y-68201876D01*
X145220135Y-68200671D01*
X145212452Y-68199000D01*
X144018122Y-68199000D01*
X144004591Y-68202973D01*
X144003456Y-68210871D01*
X138992639Y-68210871D01*
X139037041Y-68150757D01*
X139037042Y-68150754D01*
X139042634Y-68143184D01*
X139087519Y-68015369D01*
X139090500Y-67983834D01*
X139090500Y-67673605D01*
X144005061Y-67673605D01*
X144005101Y-67687706D01*
X144012370Y-67691000D01*
X145207885Y-67691000D01*
X145223124Y-67686525D01*
X145224329Y-67685135D01*
X145226000Y-67677452D01*
X145226000Y-67672885D01*
X145734000Y-67672885D01*
X145738475Y-67688124D01*
X145739865Y-67689329D01*
X145747548Y-67691000D01*
X146941878Y-67691000D01*
X146955409Y-67687027D01*
X146956544Y-67679129D01*
X146915893Y-67539210D01*
X146909648Y-67524779D01*
X146833089Y-67395322D01*
X146823449Y-67382896D01*
X146717104Y-67276551D01*
X146704678Y-67266911D01*
X146575221Y-67190352D01*
X146560790Y-67184107D01*
X146414935Y-67141731D01*
X146402333Y-67139430D01*
X146373916Y-67137193D01*
X146368986Y-67137000D01*
X145752115Y-67137000D01*
X145736876Y-67141475D01*
X145735671Y-67142865D01*
X145734000Y-67150548D01*
X145734000Y-67672885D01*
X145226000Y-67672885D01*
X145226000Y-67155116D01*
X145221525Y-67139877D01*
X145220135Y-67138672D01*
X145212452Y-67137001D01*
X144591017Y-67137001D01*
X144586080Y-67137195D01*
X144557664Y-67139430D01*
X144545069Y-67141730D01*
X144399210Y-67184107D01*
X144384779Y-67190352D01*
X144255322Y-67266911D01*
X144242896Y-67276551D01*
X144136551Y-67382896D01*
X144126911Y-67395322D01*
X144050352Y-67524779D01*
X144044107Y-67539210D01*
X144005061Y-67673605D01*
X139090500Y-67673605D01*
X139090500Y-66636166D01*
X139088301Y-66612905D01*
X139088242Y-66612276D01*
X139088241Y-66612273D01*
X139087519Y-66604631D01*
X139084976Y-66597390D01*
X139084974Y-66597380D01*
X139080823Y-66585561D01*
X139077124Y-66514661D01*
X139110610Y-66454716D01*
X139162923Y-66402404D01*
X139225236Y-66368379D01*
X139252018Y-66365500D01*
X146497984Y-66365500D01*
X146566105Y-66385502D01*
X146587079Y-66402405D01*
X148227595Y-68042921D01*
X148261621Y-68105233D01*
X148264500Y-68132016D01*
X148264500Y-74910290D01*
X148264020Y-74921272D01*
X148260736Y-74958807D01*
X148263590Y-74969456D01*
X148270491Y-74995210D01*
X148272870Y-75005942D01*
X148279412Y-75043045D01*
X148284923Y-75052590D01*
X148286115Y-75055866D01*
X148287592Y-75059034D01*
X148290446Y-75069684D01*
X148312055Y-75100544D01*
X148317961Y-75109815D01*
X148331293Y-75132906D01*
X148336806Y-75142455D01*
X148345251Y-75149541D01*
X148365682Y-75166685D01*
X148373785Y-75174111D01*
X148980889Y-75781215D01*
X148988316Y-75789319D01*
X149012545Y-75818194D01*
X149022094Y-75823707D01*
X149045185Y-75837039D01*
X149054456Y-75842945D01*
X149085316Y-75864554D01*
X149095966Y-75867408D01*
X149099134Y-75868885D01*
X149102410Y-75870077D01*
X149111955Y-75875588D01*
X149145699Y-75881538D01*
X149149058Y-75882130D01*
X149159785Y-75884508D01*
X149196193Y-75894264D01*
X149204466Y-75893540D01*
X149269024Y-75918793D01*
X149310663Y-75976297D01*
X149314603Y-76047185D01*
X149279593Y-76108949D01*
X149256062Y-76126903D01*
X149205328Y-76156907D01*
X149192896Y-76166551D01*
X149086551Y-76272896D01*
X149076911Y-76285322D01*
X149000352Y-76414779D01*
X148994107Y-76429210D01*
X148955061Y-76563605D01*
X148955101Y-76577706D01*
X148962370Y-76581000D01*
X151891878Y-76581000D01*
X151905409Y-76577027D01*
X151906544Y-76569129D01*
X151865893Y-76429210D01*
X151859648Y-76414779D01*
X151783089Y-76285322D01*
X151773449Y-76272896D01*
X151667104Y-76166551D01*
X151654674Y-76156909D01*
X151575542Y-76110111D01*
X151527089Y-76058218D01*
X151514383Y-75988368D01*
X151537060Y-75928595D01*
X151544293Y-75921350D01*
X151548864Y-75911999D01*
X151548866Y-75911996D01*
X151591240Y-75825306D01*
X151595536Y-75816518D01*
X151601235Y-75777455D01*
X151604840Y-75752744D01*
X151604840Y-75752740D01*
X151605500Y-75748218D01*
X151605500Y-75381782D01*
X151595358Y-75312888D01*
X151562966Y-75246913D01*
X151548522Y-75217493D01*
X151548521Y-75217491D01*
X151543932Y-75208145D01*
X151461350Y-75125707D01*
X151428839Y-75109815D01*
X151381677Y-75086762D01*
X151356518Y-75074464D01*
X151323753Y-75069684D01*
X151292744Y-75065160D01*
X151292740Y-75065160D01*
X151288218Y-75064500D01*
X149571782Y-75064500D01*
X149567232Y-75065170D01*
X149567229Y-75065170D01*
X149512574Y-75073216D01*
X149512573Y-75073216D01*
X149502888Y-75074642D01*
X149462664Y-75094391D01*
X149407491Y-75121479D01*
X149407489Y-75121480D01*
X149398145Y-75126068D01*
X149394739Y-75129480D01*
X149330781Y-75151796D01*
X149261744Y-75135231D01*
X149235375Y-75115049D01*
X148952405Y-74832079D01*
X148918379Y-74769767D01*
X148915500Y-74742984D01*
X148915500Y-74478218D01*
X149254500Y-74478218D01*
X149255170Y-74482768D01*
X149255170Y-74482771D01*
X149263216Y-74537426D01*
X149264642Y-74547112D01*
X149282998Y-74584498D01*
X149308662Y-74636770D01*
X149316068Y-74651855D01*
X149398650Y-74734293D01*
X149503482Y-74785536D01*
X149533973Y-74789984D01*
X149567256Y-74794840D01*
X149567260Y-74794840D01*
X149571782Y-74795500D01*
X151288218Y-74795500D01*
X151292768Y-74794830D01*
X151292771Y-74794830D01*
X151347426Y-74786784D01*
X151347427Y-74786784D01*
X151357112Y-74785358D01*
X151407008Y-74760860D01*
X151452507Y-74738522D01*
X151452509Y-74738521D01*
X151461855Y-74733932D01*
X151510451Y-74685251D01*
X151538172Y-74657482D01*
X151600455Y-74623403D01*
X151627345Y-74620500D01*
X151745290Y-74620500D01*
X151756272Y-74620980D01*
X151782820Y-74623303D01*
X151782822Y-74623303D01*
X151793807Y-74624264D01*
X151830215Y-74614508D01*
X151840942Y-74612130D01*
X151844301Y-74611538D01*
X151878045Y-74605588D01*
X151887590Y-74600077D01*
X151890866Y-74598885D01*
X151894034Y-74597408D01*
X151904684Y-74594554D01*
X151935547Y-74572943D01*
X151944815Y-74567039D01*
X151967906Y-74553707D01*
X151977455Y-74548194D01*
X152001685Y-74519317D01*
X152009111Y-74511215D01*
X152227617Y-74292709D01*
X152289929Y-74258683D01*
X152333157Y-74256882D01*
X152400000Y-74265682D01*
X152408188Y-74264604D01*
X152548574Y-74246122D01*
X152556762Y-74245044D01*
X152702841Y-74184536D01*
X152828282Y-74088282D01*
X152924536Y-73962841D01*
X152985044Y-73816762D01*
X153005682Y-73660000D01*
X152985044Y-73503238D01*
X152924536Y-73357159D01*
X152828282Y-73231718D01*
X152702841Y-73135464D01*
X152575053Y-73082532D01*
X152564391Y-73078116D01*
X152556762Y-73074956D01*
X152400000Y-73054318D01*
X152243238Y-73074956D01*
X152235609Y-73078116D01*
X152224947Y-73082532D01*
X152097159Y-73135464D01*
X151971718Y-73231718D01*
X151875464Y-73357159D01*
X151814956Y-73503238D01*
X151794318Y-73660000D01*
X151795396Y-73668188D01*
X151803118Y-73726842D01*
X151792179Y-73796990D01*
X151767291Y-73832383D01*
X151691800Y-73907874D01*
X151629488Y-73941900D01*
X151558673Y-73936835D01*
X151513688Y-73907953D01*
X151468721Y-73863065D01*
X151468720Y-73863065D01*
X151461350Y-73855707D01*
X151356518Y-73804464D01*
X151326027Y-73800016D01*
X151292744Y-73795160D01*
X151292740Y-73795160D01*
X151288218Y-73794500D01*
X149571782Y-73794500D01*
X149567232Y-73795170D01*
X149567229Y-73795170D01*
X149512574Y-73803216D01*
X149512573Y-73803216D01*
X149502888Y-73804642D01*
X149471133Y-73820233D01*
X149407493Y-73851478D01*
X149407491Y-73851479D01*
X149398145Y-73856068D01*
X149315707Y-73938650D01*
X149264464Y-74043482D01*
X149263052Y-74053162D01*
X149257196Y-74093305D01*
X149254500Y-74111782D01*
X149254500Y-74478218D01*
X148915500Y-74478218D01*
X148915500Y-73208218D01*
X149254500Y-73208218D01*
X149255170Y-73212768D01*
X149255170Y-73212771D01*
X149263216Y-73267426D01*
X149264642Y-73277112D01*
X149268958Y-73285902D01*
X149300727Y-73350608D01*
X149316068Y-73381855D01*
X149398650Y-73464293D01*
X149408006Y-73468866D01*
X149408007Y-73468867D01*
X149440460Y-73484730D01*
X149503482Y-73515536D01*
X149533973Y-73519984D01*
X149567256Y-73524840D01*
X149567260Y-73524840D01*
X149571782Y-73525500D01*
X151288218Y-73525500D01*
X151292768Y-73524830D01*
X151292771Y-73524830D01*
X151347426Y-73516784D01*
X151347427Y-73516784D01*
X151357112Y-73515358D01*
X151419054Y-73484946D01*
X151452507Y-73468522D01*
X151452509Y-73468521D01*
X151461855Y-73463932D01*
X151544293Y-73381350D01*
X151595536Y-73276518D01*
X151602072Y-73231718D01*
X151604840Y-73212744D01*
X151604840Y-73212740D01*
X151605500Y-73208218D01*
X151605500Y-72841782D01*
X151601620Y-72815421D01*
X151596784Y-72782574D01*
X151596784Y-72782573D01*
X151595358Y-72772888D01*
X151562268Y-72705491D01*
X151548522Y-72677493D01*
X151548521Y-72677491D01*
X151543932Y-72668145D01*
X151461350Y-72585707D01*
X151356518Y-72534464D01*
X151326027Y-72530016D01*
X151292744Y-72525160D01*
X151292740Y-72525160D01*
X151288218Y-72524500D01*
X149571782Y-72524500D01*
X149567232Y-72525170D01*
X149567229Y-72525170D01*
X149512574Y-72533216D01*
X149512573Y-72533216D01*
X149502888Y-72534642D01*
X149452992Y-72559140D01*
X149407493Y-72581478D01*
X149407491Y-72581479D01*
X149398145Y-72586068D01*
X149315707Y-72668650D01*
X149311134Y-72678006D01*
X149311133Y-72678007D01*
X149308946Y-72682481D01*
X149264464Y-72773482D01*
X149254500Y-72841782D01*
X149254500Y-73208218D01*
X148915500Y-73208218D01*
X148915500Y-71938218D01*
X149254500Y-71938218D01*
X149255170Y-71942768D01*
X149255170Y-71942771D01*
X149263216Y-71997426D01*
X149264642Y-72007112D01*
X149268958Y-72015902D01*
X149310229Y-72099962D01*
X149316068Y-72111855D01*
X149398650Y-72194293D01*
X149503482Y-72245536D01*
X149533973Y-72249984D01*
X149567256Y-72254840D01*
X149567260Y-72254840D01*
X149571782Y-72255500D01*
X151288218Y-72255500D01*
X151292768Y-72254830D01*
X151292771Y-72254830D01*
X151347426Y-72246784D01*
X151347427Y-72246784D01*
X151357112Y-72245358D01*
X151451804Y-72198867D01*
X151452507Y-72198522D01*
X151452509Y-72198521D01*
X151461855Y-72193932D01*
X151544293Y-72111350D01*
X151595536Y-72006518D01*
X151605500Y-71938218D01*
X151605500Y-71823834D01*
X152689500Y-71823834D01*
X152692481Y-71855369D01*
X152737366Y-71983184D01*
X152742958Y-71990754D01*
X152742959Y-71990757D01*
X152761532Y-72015902D01*
X152817850Y-72092150D01*
X152825421Y-72097742D01*
X152919243Y-72167041D01*
X152919246Y-72167042D01*
X152926816Y-72172634D01*
X153054631Y-72217519D01*
X153062277Y-72218242D01*
X153062278Y-72218242D01*
X153068248Y-72218806D01*
X153086166Y-72220500D01*
X153843834Y-72220500D01*
X153861752Y-72218806D01*
X153867722Y-72218242D01*
X153867723Y-72218242D01*
X153875369Y-72217519D01*
X154003184Y-72172634D01*
X154010754Y-72167042D01*
X154010757Y-72167041D01*
X154104579Y-72097742D01*
X154112150Y-72092150D01*
X154168468Y-72015902D01*
X154187041Y-71990757D01*
X154187042Y-71990754D01*
X154192634Y-71983184D01*
X154237519Y-71855369D01*
X154240500Y-71823834D01*
X154240500Y-71817095D01*
X155332001Y-71817095D01*
X155332338Y-71823614D01*
X155342257Y-71919206D01*
X155345149Y-71932600D01*
X155396588Y-72086784D01*
X155402761Y-72099962D01*
X155488063Y-72237807D01*
X155497099Y-72249208D01*
X155611829Y-72363739D01*
X155623240Y-72372751D01*
X155761243Y-72457816D01*
X155774424Y-72463963D01*
X155928710Y-72515138D01*
X155942086Y-72518005D01*
X156036438Y-72527672D01*
X156042854Y-72528000D01*
X156142885Y-72528000D01*
X156158124Y-72523525D01*
X156159329Y-72522135D01*
X156161000Y-72514452D01*
X156161000Y-72509884D01*
X156669000Y-72509884D01*
X156673475Y-72525123D01*
X156674865Y-72526328D01*
X156682548Y-72527999D01*
X156787095Y-72527999D01*
X156793614Y-72527662D01*
X156889206Y-72517743D01*
X156902600Y-72514851D01*
X157056784Y-72463412D01*
X157069962Y-72457239D01*
X157207807Y-72371937D01*
X157219208Y-72362901D01*
X157333739Y-72248171D01*
X157342751Y-72236760D01*
X157427816Y-72098757D01*
X157433963Y-72085576D01*
X157485138Y-71931290D01*
X157488005Y-71917914D01*
X157497672Y-71823562D01*
X157498000Y-71817146D01*
X157498000Y-71392115D01*
X157493525Y-71376876D01*
X157492135Y-71375671D01*
X157484452Y-71374000D01*
X156687115Y-71374000D01*
X156671876Y-71378475D01*
X156670671Y-71379865D01*
X156669000Y-71387548D01*
X156669000Y-72509884D01*
X156161000Y-72509884D01*
X156161000Y-71392115D01*
X156156525Y-71376876D01*
X156155135Y-71375671D01*
X156147452Y-71374000D01*
X155350116Y-71374000D01*
X155334877Y-71378475D01*
X155333672Y-71379865D01*
X155332001Y-71387548D01*
X155332001Y-71817095D01*
X154240500Y-71817095D01*
X154240500Y-70847885D01*
X155332000Y-70847885D01*
X155336475Y-70863124D01*
X155337865Y-70864329D01*
X155345548Y-70866000D01*
X156142885Y-70866000D01*
X156158124Y-70861525D01*
X156159329Y-70860135D01*
X156161000Y-70852452D01*
X156161000Y-70847885D01*
X156669000Y-70847885D01*
X156673475Y-70863124D01*
X156674865Y-70864329D01*
X156682548Y-70866000D01*
X157479884Y-70866000D01*
X157495123Y-70861525D01*
X157496328Y-70860135D01*
X157497999Y-70852452D01*
X157497999Y-70422905D01*
X157497662Y-70416386D01*
X157487743Y-70320794D01*
X157484851Y-70307400D01*
X157433412Y-70153216D01*
X157427239Y-70140038D01*
X157341937Y-70002193D01*
X157332901Y-69990792D01*
X157218171Y-69876261D01*
X157206760Y-69867249D01*
X157068757Y-69782184D01*
X157055576Y-69776037D01*
X156901290Y-69724862D01*
X156887914Y-69721995D01*
X156793562Y-69712328D01*
X156787145Y-69712000D01*
X156687115Y-69712000D01*
X156671876Y-69716475D01*
X156670671Y-69717865D01*
X156669000Y-69725548D01*
X156669000Y-70847885D01*
X156161000Y-70847885D01*
X156161000Y-69730116D01*
X156156525Y-69714877D01*
X156155135Y-69713672D01*
X156147452Y-69712001D01*
X156042905Y-69712001D01*
X156036386Y-69712338D01*
X155940794Y-69722257D01*
X155927400Y-69725149D01*
X155773216Y-69776588D01*
X155760038Y-69782761D01*
X155622193Y-69868063D01*
X155610792Y-69877099D01*
X155496261Y-69991829D01*
X155487249Y-70003240D01*
X155402184Y-70141243D01*
X155396037Y-70154424D01*
X155344862Y-70308710D01*
X155341995Y-70322086D01*
X155332328Y-70416438D01*
X155332000Y-70422855D01*
X155332000Y-70847885D01*
X154240500Y-70847885D01*
X154240500Y-70416166D01*
X154237519Y-70384631D01*
X154192634Y-70256816D01*
X154187042Y-70249246D01*
X154187041Y-70249243D01*
X154117742Y-70155421D01*
X154112150Y-70147850D01*
X154095206Y-70135335D01*
X154010757Y-70072959D01*
X154010754Y-70072958D01*
X154003184Y-70067366D01*
X153875369Y-70022481D01*
X153876460Y-70019373D01*
X153827297Y-69992451D01*
X153793347Y-69930098D01*
X153790500Y-69903463D01*
X153790500Y-69579286D01*
X153810502Y-69511165D01*
X153839796Y-69479323D01*
X153886736Y-69443305D01*
X153893282Y-69438282D01*
X153989536Y-69312841D01*
X154050044Y-69166762D01*
X154070682Y-69010000D01*
X154050044Y-68853238D01*
X153989536Y-68707159D01*
X153893282Y-68581718D01*
X153894907Y-68580471D01*
X153866167Y-68527840D01*
X153871232Y-68457025D01*
X153913779Y-68400189D01*
X153947540Y-68382175D01*
X153973661Y-68373002D01*
X153994300Y-68365754D01*
X153994301Y-68365753D01*
X154003184Y-68362634D01*
X154010754Y-68357042D01*
X154010757Y-68357041D01*
X154104579Y-68287742D01*
X154112150Y-68282150D01*
X154130178Y-68257742D01*
X154187041Y-68180757D01*
X154187042Y-68180754D01*
X154192634Y-68173184D01*
X154237519Y-68045369D01*
X154240500Y-68013834D01*
X154240500Y-68007095D01*
X155332001Y-68007095D01*
X155332338Y-68013614D01*
X155342257Y-68109206D01*
X155345149Y-68122600D01*
X155396588Y-68276784D01*
X155402761Y-68289962D01*
X155488063Y-68427807D01*
X155497099Y-68439208D01*
X155611829Y-68553739D01*
X155623240Y-68562751D01*
X155761243Y-68647816D01*
X155774424Y-68653963D01*
X155928710Y-68705138D01*
X155942086Y-68708005D01*
X156036438Y-68717672D01*
X156042854Y-68718000D01*
X156142885Y-68718000D01*
X156158124Y-68713525D01*
X156159329Y-68712135D01*
X156161000Y-68704452D01*
X156161000Y-68699884D01*
X156669000Y-68699884D01*
X156673475Y-68715123D01*
X156674865Y-68716328D01*
X156682548Y-68717999D01*
X156787095Y-68717999D01*
X156793614Y-68717662D01*
X156889206Y-68707743D01*
X156902600Y-68704851D01*
X157056784Y-68653412D01*
X157069962Y-68647239D01*
X157207807Y-68561937D01*
X157219208Y-68552901D01*
X157333739Y-68438171D01*
X157342751Y-68426760D01*
X157427816Y-68288757D01*
X157433963Y-68275576D01*
X157485138Y-68121290D01*
X157488005Y-68107914D01*
X157497672Y-68013562D01*
X157498000Y-68007146D01*
X157498000Y-67582115D01*
X157493525Y-67566876D01*
X157492135Y-67565671D01*
X157484452Y-67564000D01*
X156687115Y-67564000D01*
X156671876Y-67568475D01*
X156670671Y-67569865D01*
X156669000Y-67577548D01*
X156669000Y-68699884D01*
X156161000Y-68699884D01*
X156161000Y-67582115D01*
X156156525Y-67566876D01*
X156155135Y-67565671D01*
X156147452Y-67564000D01*
X155350116Y-67564000D01*
X155334877Y-67568475D01*
X155333672Y-67569865D01*
X155332001Y-67577548D01*
X155332001Y-68007095D01*
X154240500Y-68007095D01*
X154240500Y-67037885D01*
X155332000Y-67037885D01*
X155336475Y-67053124D01*
X155337865Y-67054329D01*
X155345548Y-67056000D01*
X156142885Y-67056000D01*
X156158124Y-67051525D01*
X156159329Y-67050135D01*
X156161000Y-67042452D01*
X156161000Y-67037885D01*
X156669000Y-67037885D01*
X156673475Y-67053124D01*
X156674865Y-67054329D01*
X156682548Y-67056000D01*
X157479884Y-67056000D01*
X157495123Y-67051525D01*
X157496328Y-67050135D01*
X157497999Y-67042452D01*
X157497999Y-66612905D01*
X157497662Y-66606386D01*
X157487743Y-66510794D01*
X157484851Y-66497400D01*
X157433412Y-66343216D01*
X157427239Y-66330038D01*
X157341937Y-66192193D01*
X157332901Y-66180792D01*
X157218171Y-66066261D01*
X157206760Y-66057249D01*
X157068757Y-65972184D01*
X157055576Y-65966037D01*
X156901290Y-65914862D01*
X156887914Y-65911995D01*
X156793562Y-65902328D01*
X156787145Y-65902000D01*
X156687115Y-65902000D01*
X156671876Y-65906475D01*
X156670671Y-65907865D01*
X156669000Y-65915548D01*
X156669000Y-67037885D01*
X156161000Y-67037885D01*
X156161000Y-65920116D01*
X156156525Y-65904877D01*
X156155135Y-65903672D01*
X156147452Y-65902001D01*
X156042905Y-65902001D01*
X156036386Y-65902338D01*
X155940794Y-65912257D01*
X155927400Y-65915149D01*
X155773216Y-65966588D01*
X155760038Y-65972761D01*
X155622193Y-66058063D01*
X155610792Y-66067099D01*
X155496261Y-66181829D01*
X155487249Y-66193240D01*
X155402184Y-66331243D01*
X155396037Y-66344424D01*
X155344862Y-66498710D01*
X155341995Y-66512086D01*
X155332328Y-66606438D01*
X155332000Y-66612855D01*
X155332000Y-67037885D01*
X154240500Y-67037885D01*
X154240500Y-66606166D01*
X154237519Y-66574631D01*
X154192634Y-66446816D01*
X154187042Y-66439246D01*
X154187041Y-66439243D01*
X154117742Y-66345421D01*
X154112150Y-66337850D01*
X154039578Y-66284247D01*
X154010757Y-66262959D01*
X154010754Y-66262958D01*
X154003184Y-66257366D01*
X153875369Y-66212481D01*
X153867723Y-66211758D01*
X153867722Y-66211758D01*
X153861752Y-66211194D01*
X153843834Y-66209500D01*
X153086166Y-66209500D01*
X153068248Y-66211194D01*
X153062278Y-66211758D01*
X153062277Y-66211758D01*
X153054631Y-66212481D01*
X152926816Y-66257366D01*
X152919246Y-66262958D01*
X152919243Y-66262959D01*
X152890422Y-66284247D01*
X152817850Y-66337850D01*
X152812258Y-66345421D01*
X152742959Y-66439243D01*
X152742958Y-66439246D01*
X152737366Y-66446816D01*
X152692481Y-66574631D01*
X152689500Y-66606166D01*
X152689500Y-68013834D01*
X152692481Y-68045369D01*
X152737366Y-68173184D01*
X152742958Y-68180754D01*
X152742959Y-68180757D01*
X152799822Y-68257742D01*
X152817850Y-68282150D01*
X152825421Y-68287742D01*
X152919243Y-68357041D01*
X152919246Y-68357042D01*
X152926816Y-68362634D01*
X152935699Y-68365753D01*
X152935700Y-68365754D01*
X152956339Y-68373002D01*
X152982460Y-68382174D01*
X153040105Y-68423616D01*
X153066194Y-68489646D01*
X153052444Y-68559298D01*
X153036255Y-68581363D01*
X153036718Y-68581718D01*
X152940464Y-68707159D01*
X152879956Y-68853238D01*
X152859318Y-69010000D01*
X152879956Y-69166762D01*
X152940464Y-69312841D01*
X153036718Y-69438282D01*
X153043264Y-69443305D01*
X153090204Y-69479323D01*
X153132071Y-69536661D01*
X153139500Y-69579286D01*
X153139500Y-69903463D01*
X153119498Y-69971584D01*
X153065842Y-70018077D01*
X153054422Y-70021886D01*
X153054631Y-70022481D01*
X152926816Y-70067366D01*
X152919246Y-70072958D01*
X152919243Y-70072959D01*
X152834794Y-70135335D01*
X152817850Y-70147850D01*
X152812258Y-70155421D01*
X152742959Y-70249243D01*
X152742958Y-70249246D01*
X152737366Y-70256816D01*
X152692481Y-70384631D01*
X152689500Y-70416166D01*
X152689500Y-71823834D01*
X151605500Y-71823834D01*
X151605500Y-71571782D01*
X151596871Y-71513162D01*
X151596784Y-71512574D01*
X151596784Y-71512573D01*
X151595358Y-71502888D01*
X151543932Y-71398145D01*
X151461350Y-71315707D01*
X151356518Y-71264464D01*
X151326027Y-71260016D01*
X151292744Y-71255160D01*
X151292740Y-71255160D01*
X151288218Y-71254500D01*
X149571782Y-71254500D01*
X149567232Y-71255170D01*
X149567229Y-71255170D01*
X149512574Y-71263216D01*
X149512573Y-71263216D01*
X149502888Y-71264642D01*
X149452992Y-71289140D01*
X149407493Y-71311478D01*
X149407491Y-71311479D01*
X149398145Y-71316068D01*
X149315707Y-71398650D01*
X149264464Y-71503482D01*
X149254500Y-71571782D01*
X149254500Y-71938218D01*
X148915500Y-71938218D01*
X148915500Y-70668218D01*
X149254500Y-70668218D01*
X149255170Y-70672768D01*
X149255170Y-70672771D01*
X149263216Y-70727426D01*
X149264642Y-70737112D01*
X149316068Y-70841855D01*
X149398650Y-70924293D01*
X149503482Y-70975536D01*
X149533973Y-70979984D01*
X149567256Y-70984840D01*
X149567260Y-70984840D01*
X149571782Y-70985500D01*
X151288218Y-70985500D01*
X151292768Y-70984830D01*
X151292771Y-70984830D01*
X151347426Y-70976784D01*
X151347427Y-70976784D01*
X151357112Y-70975358D01*
X151407008Y-70950860D01*
X151452507Y-70928522D01*
X151452509Y-70928521D01*
X151461855Y-70923932D01*
X151544293Y-70841350D01*
X151595536Y-70736518D01*
X151605500Y-70668218D01*
X151605500Y-70301782D01*
X151598881Y-70256816D01*
X151596784Y-70242574D01*
X151596784Y-70242573D01*
X151595358Y-70232888D01*
X151557324Y-70155421D01*
X151548522Y-70137493D01*
X151548521Y-70137491D01*
X151543932Y-70128145D01*
X151461350Y-70045707D01*
X151356518Y-69994464D01*
X151326027Y-69990016D01*
X151292744Y-69985160D01*
X151292740Y-69985160D01*
X151288218Y-69984500D01*
X149571782Y-69984500D01*
X149567232Y-69985170D01*
X149567229Y-69985170D01*
X149512574Y-69993216D01*
X149512573Y-69993216D01*
X149502888Y-69994642D01*
X149485376Y-70003240D01*
X149407493Y-70041478D01*
X149407491Y-70041479D01*
X149398145Y-70046068D01*
X149315707Y-70128650D01*
X149311134Y-70138006D01*
X149311133Y-70138007D01*
X149303699Y-70153216D01*
X149264464Y-70233482D01*
X149254500Y-70301782D01*
X149254500Y-70668218D01*
X148915500Y-70668218D01*
X148915500Y-69398218D01*
X149254500Y-69398218D01*
X149255170Y-69402768D01*
X149255170Y-69402771D01*
X149263216Y-69457426D01*
X149264642Y-69467112D01*
X149316068Y-69571855D01*
X149398650Y-69654293D01*
X149503482Y-69705536D01*
X149533973Y-69709984D01*
X149567256Y-69714840D01*
X149567260Y-69714840D01*
X149571782Y-69715500D01*
X151288218Y-69715500D01*
X151292768Y-69714830D01*
X151292771Y-69714830D01*
X151347426Y-69706784D01*
X151347427Y-69706784D01*
X151357112Y-69705358D01*
X151451804Y-69658867D01*
X151452507Y-69658522D01*
X151452509Y-69658521D01*
X151461855Y-69653932D01*
X151544293Y-69571350D01*
X151555742Y-69547929D01*
X151588520Y-69480871D01*
X151595536Y-69466518D01*
X151605500Y-69398218D01*
X151605500Y-69031782D01*
X151602294Y-69010000D01*
X151596784Y-68972574D01*
X151596784Y-68972573D01*
X151595358Y-68962888D01*
X151543932Y-68858145D01*
X151461350Y-68775707D01*
X151356518Y-68724464D01*
X151326027Y-68720016D01*
X151292744Y-68715160D01*
X151292740Y-68715160D01*
X151288218Y-68714500D01*
X149571782Y-68714500D01*
X149567232Y-68715170D01*
X149567229Y-68715170D01*
X149512574Y-68723216D01*
X149512573Y-68723216D01*
X149502888Y-68724642D01*
X149452992Y-68749140D01*
X149407493Y-68771478D01*
X149407491Y-68771479D01*
X149398145Y-68776068D01*
X149315707Y-68858650D01*
X149264464Y-68963482D01*
X149254500Y-69031782D01*
X149254500Y-69398218D01*
X148915500Y-69398218D01*
X148915500Y-68128218D01*
X149254500Y-68128218D01*
X149255170Y-68132768D01*
X149255170Y-68132771D01*
X149263216Y-68187426D01*
X149264642Y-68197112D01*
X149274463Y-68217115D01*
X149310229Y-68289962D01*
X149316068Y-68301855D01*
X149398650Y-68384293D01*
X149503482Y-68435536D01*
X149533973Y-68439984D01*
X149567256Y-68444840D01*
X149567260Y-68444840D01*
X149571782Y-68445500D01*
X151288218Y-68445500D01*
X151292768Y-68444830D01*
X151292771Y-68444830D01*
X151347426Y-68436784D01*
X151347427Y-68436784D01*
X151357112Y-68435358D01*
X151421818Y-68403589D01*
X151452507Y-68388522D01*
X151452509Y-68388521D01*
X151461855Y-68383932D01*
X151544293Y-68301350D01*
X151595536Y-68196518D01*
X151605500Y-68128218D01*
X151605500Y-67761782D01*
X151596871Y-67703162D01*
X151596784Y-67702574D01*
X151596784Y-67702573D01*
X151595358Y-67692888D01*
X151543932Y-67588145D01*
X151461350Y-67505707D01*
X151356518Y-67454464D01*
X151326027Y-67450016D01*
X151292744Y-67445160D01*
X151292740Y-67445160D01*
X151288218Y-67444500D01*
X150881500Y-67444500D01*
X150813379Y-67424498D01*
X150766886Y-67370842D01*
X150755500Y-67318500D01*
X150755500Y-67294162D01*
X150775502Y-67226041D01*
X150804796Y-67194199D01*
X150808013Y-67191731D01*
X150923282Y-67103282D01*
X151019536Y-66977841D01*
X151080044Y-66831762D01*
X151100682Y-66675000D01*
X151080044Y-66518238D01*
X151019536Y-66372159D01*
X150935744Y-66262959D01*
X150928305Y-66253264D01*
X150923282Y-66246718D01*
X150797841Y-66150464D01*
X150651762Y-66089956D01*
X150495000Y-66069318D01*
X150338238Y-66089956D01*
X150192159Y-66150464D01*
X150066718Y-66246718D01*
X150061695Y-66253264D01*
X150054256Y-66262959D01*
X149970464Y-66372159D01*
X149909956Y-66518238D01*
X149889318Y-66675000D01*
X149909956Y-66831762D01*
X149970464Y-66977841D01*
X150066718Y-67103282D01*
X150068835Y-67104906D01*
X150101621Y-67164948D01*
X150104500Y-67191731D01*
X150104500Y-67318500D01*
X150084498Y-67386621D01*
X150030842Y-67433114D01*
X149978500Y-67444500D01*
X149571782Y-67444500D01*
X149567232Y-67445170D01*
X149567229Y-67445170D01*
X149512574Y-67453216D01*
X149512573Y-67453216D01*
X149502888Y-67454642D01*
X149452992Y-67479140D01*
X149407493Y-67501478D01*
X149407491Y-67501479D01*
X149398145Y-67506068D01*
X149315707Y-67588650D01*
X149264464Y-67693482D01*
X149254500Y-67761782D01*
X149254500Y-68128218D01*
X148915500Y-68128218D01*
X148915500Y-67964710D01*
X148915980Y-67953728D01*
X148918303Y-67927180D01*
X148918303Y-67927178D01*
X148919264Y-67916193D01*
X148909508Y-67879785D01*
X148907130Y-67869058D01*
X148906538Y-67865699D01*
X148900588Y-67831955D01*
X148895077Y-67822410D01*
X148893885Y-67819134D01*
X148892408Y-67815966D01*
X148889554Y-67805316D01*
X148867945Y-67774456D01*
X148862039Y-67765185D01*
X148848707Y-67742094D01*
X148843194Y-67732545D01*
X148814317Y-67708315D01*
X148806215Y-67700889D01*
X146929111Y-65823785D01*
X146921684Y-65815681D01*
X146904541Y-65795251D01*
X146904540Y-65795250D01*
X146897455Y-65786806D01*
X146887906Y-65781293D01*
X146864815Y-65767961D01*
X146855544Y-65762055D01*
X146833715Y-65746770D01*
X146824684Y-65740446D01*
X146814034Y-65737592D01*
X146810866Y-65736115D01*
X146807590Y-65734923D01*
X146798045Y-65729412D01*
X146764301Y-65723462D01*
X146760942Y-65722870D01*
X146750215Y-65720492D01*
X146713807Y-65710736D01*
X146702822Y-65711697D01*
X146702820Y-65711697D01*
X146676272Y-65714020D01*
X146665290Y-65714500D01*
X139084713Y-65714500D01*
X139073732Y-65714021D01*
X139047170Y-65711697D01*
X139047168Y-65711697D01*
X139036193Y-65710737D01*
X138999783Y-65720492D01*
X138989076Y-65722866D01*
X138951955Y-65729412D01*
X138942411Y-65734922D01*
X138939135Y-65736114D01*
X138935964Y-65737593D01*
X138925316Y-65740446D01*
X138916287Y-65746768D01*
X138894449Y-65762059D01*
X138885179Y-65767964D01*
X138862092Y-65781293D01*
X138862088Y-65781296D01*
X138852545Y-65786806D01*
X138845460Y-65795250D01*
X138828320Y-65815676D01*
X138820894Y-65823779D01*
X138442078Y-66202595D01*
X138379766Y-66236621D01*
X138352983Y-66239500D01*
X136896166Y-66239500D01*
X136878248Y-66241194D01*
X136872278Y-66241758D01*
X136872277Y-66241758D01*
X136864631Y-66242481D01*
X136736816Y-66287366D01*
X136729246Y-66292958D01*
X136729243Y-66292959D01*
X136659566Y-66344424D01*
X136627850Y-66367850D01*
X136622258Y-66375421D01*
X136552959Y-66469243D01*
X136552958Y-66469246D01*
X136547366Y-66476816D01*
X136502481Y-66604631D01*
X136501758Y-66612276D01*
X136501758Y-66612278D01*
X136501699Y-66612905D01*
X136499500Y-66636166D01*
X136499500Y-67983834D01*
X136502481Y-68015369D01*
X136547366Y-68143184D01*
X136552958Y-68150754D01*
X136552959Y-68150757D01*
X136615335Y-68235206D01*
X136627850Y-68252150D01*
X136635421Y-68257742D01*
X136729243Y-68327041D01*
X136729246Y-68327042D01*
X136736816Y-68332634D01*
X136864631Y-68377519D01*
X136872277Y-68378242D01*
X136872278Y-68378242D01*
X136882477Y-68379206D01*
X136896166Y-68380500D01*
X136897278Y-68380500D01*
X136964089Y-68403589D01*
X137008002Y-68459376D01*
X137014783Y-68530048D01*
X136982280Y-68593167D01*
X136942799Y-68621141D01*
X136902272Y-68639397D01*
X136892982Y-68644568D01*
X136707845Y-68769210D01*
X136699559Y-68775871D01*
X136538070Y-68929924D01*
X136531021Y-68937892D01*
X136397797Y-69116952D01*
X136392198Y-69125982D01*
X136291047Y-69324931D01*
X136287044Y-69334792D01*
X136220862Y-69547929D01*
X136218580Y-69558309D01*
X136215964Y-69578043D01*
X130175000Y-69578043D01*
X130175000Y-64896000D01*
X130195002Y-64827879D01*
X130248658Y-64781386D01*
X130301000Y-64770000D01*
X139700000Y-64770000D01*
X139700000Y-57911000D01*
X139720002Y-57842879D01*
X139773658Y-57796386D01*
X139826000Y-57785000D01*
X157354000Y-57785000D01*
X157422121Y-57805002D01*
G37*
%TD.AperFunction*%
%TD*%
M02*
