%TF.GenerationSoftware,KiCad,Pcbnew,(6.0.1-0)*%
%TF.CreationDate,2024-04-12T07:51:11-04:00*%
%TF.ProjectId,Supertime External Trigger,53757065-7274-4696-9d65-204578746572,rev?*%
%TF.SameCoordinates,Original*%
%TF.FileFunction,Soldermask,Top*%
%TF.FilePolarity,Negative*%
%FSLAX46Y46*%
G04 Gerber Fmt 4.6, Leading zero omitted, Abs format (unit mm)*
G04 Created by KiCad (PCBNEW (6.0.1-0)) date 2024-04-12 07:51:11*
%MOMM*%
%LPD*%
G01*
G04 APERTURE LIST*
G04 Aperture macros list*
%AMRoundRect*
0 Rectangle with rounded corners*
0 $1 Rounding radius*
0 $2 $3 $4 $5 $6 $7 $8 $9 X,Y pos of 4 corners*
0 Add a 4 corners polygon primitive as box body*
4,1,4,$2,$3,$4,$5,$6,$7,$8,$9,$2,$3,0*
0 Add four circle primitives for the rounded corners*
1,1,$1+$1,$2,$3*
1,1,$1+$1,$4,$5*
1,1,$1+$1,$6,$7*
1,1,$1+$1,$8,$9*
0 Add four rect primitives between the rounded corners*
20,1,$1+$1,$2,$3,$4,$5,0*
20,1,$1+$1,$4,$5,$6,$7,0*
20,1,$1+$1,$6,$7,$8,$9,0*
20,1,$1+$1,$8,$9,$2,$3,0*%
G04 Aperture macros list end*
%ADD10RoundRect,0.250000X-0.845000X0.620000X-0.845000X-0.620000X0.845000X-0.620000X0.845000X0.620000X0*%
%ADD11O,2.190000X1.740000*%
%ADD12C,3.200000*%
%ADD13RoundRect,0.250000X-0.325000X-0.650000X0.325000X-0.650000X0.325000X0.650000X-0.325000X0.650000X0*%
%ADD14RoundRect,0.250000X-0.650000X0.325000X-0.650000X-0.325000X0.650000X-0.325000X0.650000X0.325000X0*%
%ADD15RoundRect,0.150000X-0.825000X-0.150000X0.825000X-0.150000X0.825000X0.150000X-0.825000X0.150000X0*%
%ADD16RoundRect,0.250000X-0.312500X-0.625000X0.312500X-0.625000X0.312500X0.625000X-0.312500X0.625000X0*%
G04 APERTURE END LIST*
D10*
%TO.C,Vcc1*%
X161290000Y-91440000D03*
D11*
X161290000Y-93980000D03*
%TD*%
D10*
%TO.C,STSORT1*%
X137795000Y-85725000D03*
D11*
X137795000Y-88265000D03*
%TD*%
D10*
%TO.C,1MHzOut1*%
X161290000Y-101600000D03*
D11*
X161290000Y-104140000D03*
%TD*%
D10*
%TO.C,STRS1*%
X137795000Y-92075000D03*
D11*
X137795000Y-94615000D03*
%TD*%
D10*
%TO.C,FPGA1*%
X137795000Y-79375000D03*
D11*
X137795000Y-81915000D03*
%TD*%
%TO.C,60HzOut1*%
X161290000Y-79375000D03*
D10*
X161290000Y-76835000D03*
%TD*%
%TO.C,60HzIN1*%
X137795000Y-67310000D03*
D11*
X137795000Y-69850000D03*
%TD*%
D10*
%TO.C,1MHz1*%
X137795000Y-99695000D03*
D11*
X137795000Y-102235000D03*
%TD*%
D12*
%TO.C,H2*%
X135890000Y-60960000D03*
%TD*%
%TO.C,H1*%
X161290000Y-60960000D03*
%TD*%
D13*
%TO.C,CP6*%
X153465000Y-99060000D03*
X156415000Y-99060000D03*
%TD*%
%TO.C,CP4*%
X153465000Y-85725000D03*
X156415000Y-85725000D03*
%TD*%
D14*
%TO.C,C2*%
X154940000Y-104980000D03*
X154940000Y-102030000D03*
%TD*%
%TO.C,C1*%
X142240000Y-76405000D03*
X142240000Y-73455000D03*
%TD*%
D15*
%TO.C,U3*%
X145480000Y-96520000D03*
X145480000Y-97790000D03*
X145480000Y-99060000D03*
X145480000Y-100330000D03*
X145480000Y-101600000D03*
X145480000Y-102870000D03*
X145480000Y-104140000D03*
X150430000Y-104140000D03*
X150430000Y-102870000D03*
X150430000Y-101600000D03*
X150430000Y-100330000D03*
X150430000Y-99060000D03*
X150430000Y-97790000D03*
X150430000Y-96520000D03*
%TD*%
D16*
%TO.C,R1*%
X138622500Y-74930000D03*
X135697500Y-74930000D03*
%TD*%
D13*
%TO.C,CP1*%
X156415000Y-67310000D03*
X153465000Y-67310000D03*
%TD*%
%TO.C,CP2*%
X156415000Y-71120000D03*
X153465000Y-71120000D03*
%TD*%
%TO.C,CP3*%
X153465000Y-81915000D03*
X156415000Y-81915000D03*
%TD*%
D15*
%TO.C,U1*%
X145480000Y-67945000D03*
X145480000Y-69215000D03*
X145480000Y-70485000D03*
X145480000Y-71755000D03*
X145480000Y-73025000D03*
X145480000Y-74295000D03*
X145480000Y-75565000D03*
X145480000Y-76835000D03*
X150430000Y-76835000D03*
X150430000Y-75565000D03*
X150430000Y-74295000D03*
X150430000Y-73025000D03*
X150430000Y-71755000D03*
X150430000Y-70485000D03*
X150430000Y-69215000D03*
X150430000Y-67945000D03*
%TD*%
%TO.C,U2*%
X150430000Y-83185000D03*
X150430000Y-84455000D03*
X150430000Y-85725000D03*
X150430000Y-86995000D03*
X150430000Y-88265000D03*
X150430000Y-89535000D03*
X150430000Y-90805000D03*
X145480000Y-90805000D03*
X145480000Y-89535000D03*
X145480000Y-88265000D03*
X145480000Y-86995000D03*
X145480000Y-85725000D03*
X145480000Y-84455000D03*
X145480000Y-83185000D03*
%TD*%
D13*
%TO.C,CP5*%
X153465000Y-95250000D03*
X156415000Y-95250000D03*
%TD*%
M02*
