%TF.GenerationSoftware,KiCad,Pcbnew,(6.0.1-0)*%
%TF.CreationDate,2024-04-12T07:51:10-04:00*%
%TF.ProjectId,Supertime External Trigger,53757065-7274-4696-9d65-204578746572,rev?*%
%TF.SameCoordinates,Original*%
%TF.FileFunction,Copper,L2,Bot*%
%TF.FilePolarity,Positive*%
%FSLAX46Y46*%
G04 Gerber Fmt 4.6, Leading zero omitted, Abs format (unit mm)*
G04 Created by KiCad (PCBNEW (6.0.1-0)) date 2024-04-12 07:51:10*
%MOMM*%
%LPD*%
G01*
G04 APERTURE LIST*
G04 Aperture macros list*
%AMRoundRect*
0 Rectangle with rounded corners*
0 $1 Rounding radius*
0 $2 $3 $4 $5 $6 $7 $8 $9 X,Y pos of 4 corners*
0 Add a 4 corners polygon primitive as box body*
4,1,4,$2,$3,$4,$5,$6,$7,$8,$9,$2,$3,0*
0 Add four circle primitives for the rounded corners*
1,1,$1+$1,$2,$3*
1,1,$1+$1,$4,$5*
1,1,$1+$1,$6,$7*
1,1,$1+$1,$8,$9*
0 Add four rect primitives between the rounded corners*
20,1,$1+$1,$2,$3,$4,$5,0*
20,1,$1+$1,$4,$5,$6,$7,0*
20,1,$1+$1,$6,$7,$8,$9,0*
20,1,$1+$1,$8,$9,$2,$3,0*%
G04 Aperture macros list end*
%TA.AperFunction,ComponentPad*%
%ADD10RoundRect,0.250000X-0.845000X0.620000X-0.845000X-0.620000X0.845000X-0.620000X0.845000X0.620000X0*%
%TD*%
%TA.AperFunction,ComponentPad*%
%ADD11O,2.190000X1.740000*%
%TD*%
%TA.AperFunction,ViaPad*%
%ADD12C,0.800000*%
%TD*%
G04 APERTURE END LIST*
D10*
%TO.P,Vcc1,1,Pin_1*%
%TO.N,+5V*%
X161290000Y-91440000D03*
D11*
%TO.P,Vcc1,2,Pin_2*%
%TO.N,GND*%
X161290000Y-93980000D03*
%TD*%
D10*
%TO.P,STSORT1,1,Pin_1*%
%TO.N,/Supertime Sorting*%
X137795000Y-85725000D03*
D11*
%TO.P,STSORT1,2,Pin_2*%
%TO.N,GND*%
X137795000Y-88265000D03*
%TD*%
D10*
%TO.P,1MHzOut1,1,Pin_1*%
%TO.N,/1 MHz Output*%
X161290000Y-101600000D03*
D11*
%TO.P,1MHzOut1,2,Pin_2*%
%TO.N,GND*%
X161290000Y-104140000D03*
%TD*%
D10*
%TO.P,STRS1,1,Pin_1*%
%TO.N,/Supertime Resync*%
X137795000Y-92075000D03*
D11*
%TO.P,STRS1,2,Pin_2*%
%TO.N,GND*%
X137795000Y-94615000D03*
%TD*%
D10*
%TO.P,FPGA1,1,Pin_1*%
%TO.N,/FPGA input*%
X137795000Y-79375000D03*
D11*
%TO.P,FPGA1,2,Pin_2*%
%TO.N,GND*%
X137795000Y-81915000D03*
%TD*%
%TO.P,60HzOut1,2,Pin_2*%
%TO.N,GND*%
X161290000Y-79375000D03*
D10*
%TO.P,60HzOut1,1,Pin_1*%
%TO.N,/60 Hz Output*%
X161290000Y-76835000D03*
%TD*%
%TO.P,60HzIN1,1,Pin_1*%
%TO.N,/60 Hz Trigger*%
X137795000Y-67310000D03*
D11*
%TO.P,60HzIN1,2,Pin_2*%
%TO.N,GND*%
X137795000Y-69850000D03*
%TD*%
D10*
%TO.P,1MHz1,1,Pin_1*%
%TO.N,/1 MHz Clock*%
X137795000Y-99695000D03*
D11*
%TO.P,1MHz1,2,Pin_2*%
%TO.N,GND*%
X137795000Y-102235000D03*
%TD*%
D12*
%TO.N,+5V*%
X133985000Y-74930000D03*
X152400000Y-73660000D03*
X153465000Y-96950000D03*
X150495000Y-95250000D03*
X150495000Y-66675000D03*
X153465000Y-69010000D03*
X153465000Y-83615000D03*
X150495000Y-81915000D03*
%TD*%
%TA.AperFunction,Conductor*%
%TO.N,+5V*%
G36*
X157422121Y-57805002D02*
G01*
X157468614Y-57858658D01*
X157480000Y-57911000D01*
X157480000Y-64770000D01*
X166879000Y-64770000D01*
X166947121Y-64790002D01*
X166993614Y-64843658D01*
X167005000Y-64896000D01*
X167005000Y-107189000D01*
X166984998Y-107257121D01*
X166931342Y-107303614D01*
X166879000Y-107315000D01*
X130301000Y-107315000D01*
X130232879Y-107294998D01*
X130186386Y-107241342D01*
X130175000Y-107189000D01*
X130175000Y-104132490D01*
X159989346Y-104132490D01*
X160008373Y-104341562D01*
X160067647Y-104542957D01*
X160164909Y-104729003D01*
X160296456Y-104892614D01*
X160457276Y-105027558D01*
X160462668Y-105030522D01*
X160462672Y-105030525D01*
X160477821Y-105038853D01*
X160641245Y-105128696D01*
X160841354Y-105192174D01*
X160847471Y-105192860D01*
X160847475Y-105192861D01*
X160925392Y-105201600D01*
X161004736Y-105210500D01*
X161567830Y-105210500D01*
X161723934Y-105195194D01*
X161924910Y-105134516D01*
X161941436Y-105125729D01*
X162104826Y-105038853D01*
X162104828Y-105038851D01*
X162110272Y-105035957D01*
X162170308Y-104986993D01*
X162268186Y-104907166D01*
X162268189Y-104907163D01*
X162272961Y-104903271D01*
X162276890Y-104898522D01*
X162402850Y-104746263D01*
X162402852Y-104746259D01*
X162406779Y-104741513D01*
X162506630Y-104556843D01*
X162568710Y-104356295D01*
X162570259Y-104341562D01*
X162590010Y-104153638D01*
X162590010Y-104153637D01*
X162590654Y-104147510D01*
X162571627Y-103938438D01*
X162512353Y-103737043D01*
X162415091Y-103550997D01*
X162283544Y-103387386D01*
X162122724Y-103252442D01*
X162117332Y-103249478D01*
X162117328Y-103249475D01*
X161944152Y-103154271D01*
X161938755Y-103151304D01*
X161738646Y-103087826D01*
X161732529Y-103087140D01*
X161732525Y-103087139D01*
X161654608Y-103078400D01*
X161575264Y-103069500D01*
X161012170Y-103069500D01*
X160856066Y-103084806D01*
X160655090Y-103145484D01*
X160649649Y-103148377D01*
X160475174Y-103241147D01*
X160475172Y-103241149D01*
X160469728Y-103244043D01*
X160416844Y-103287174D01*
X160311814Y-103372834D01*
X160311811Y-103372837D01*
X160307039Y-103376729D01*
X160303112Y-103381476D01*
X160303110Y-103381478D01*
X160177150Y-103533737D01*
X160177148Y-103533741D01*
X160173221Y-103538487D01*
X160073370Y-103723157D01*
X160011290Y-103923705D01*
X160010646Y-103929830D01*
X160010646Y-103929831D01*
X160009096Y-103944577D01*
X159989346Y-104132490D01*
X130175000Y-104132490D01*
X130175000Y-102227490D01*
X136494346Y-102227490D01*
X136513373Y-102436562D01*
X136572647Y-102637957D01*
X136669909Y-102824003D01*
X136801456Y-102987614D01*
X136962276Y-103122558D01*
X136967668Y-103125522D01*
X136967672Y-103125525D01*
X137140848Y-103220729D01*
X137146245Y-103223696D01*
X137346354Y-103287174D01*
X137352471Y-103287860D01*
X137352475Y-103287861D01*
X137430392Y-103296600D01*
X137509736Y-103305500D01*
X138072830Y-103305500D01*
X138228934Y-103290194D01*
X138429910Y-103229516D01*
X138587951Y-103145484D01*
X138609826Y-103133853D01*
X138609828Y-103133851D01*
X138615272Y-103130957D01*
X138690626Y-103069500D01*
X138773186Y-103002166D01*
X138773189Y-103002163D01*
X138777961Y-102998271D01*
X138781890Y-102993522D01*
X138907850Y-102841263D01*
X138907852Y-102841259D01*
X138911779Y-102836513D01*
X139011630Y-102651843D01*
X139073710Y-102451295D01*
X139075259Y-102436562D01*
X139092362Y-102273834D01*
X159994500Y-102273834D01*
X159997481Y-102305369D01*
X160042366Y-102433184D01*
X160047958Y-102440754D01*
X160047959Y-102440757D01*
X160110335Y-102525206D01*
X160122850Y-102542150D01*
X160130421Y-102547742D01*
X160224243Y-102617041D01*
X160224246Y-102617042D01*
X160231816Y-102622634D01*
X160359631Y-102667519D01*
X160367277Y-102668242D01*
X160367278Y-102668242D01*
X160373248Y-102668806D01*
X160391166Y-102670500D01*
X162188834Y-102670500D01*
X162206752Y-102668806D01*
X162212722Y-102668242D01*
X162212723Y-102668242D01*
X162220369Y-102667519D01*
X162348184Y-102622634D01*
X162355754Y-102617042D01*
X162355757Y-102617041D01*
X162449579Y-102547742D01*
X162457150Y-102542150D01*
X162469665Y-102525206D01*
X162532041Y-102440757D01*
X162532042Y-102440754D01*
X162537634Y-102433184D01*
X162582519Y-102305369D01*
X162585500Y-102273834D01*
X162585500Y-100926166D01*
X162582519Y-100894631D01*
X162537634Y-100766816D01*
X162532042Y-100759246D01*
X162532041Y-100759243D01*
X162462742Y-100665421D01*
X162457150Y-100657850D01*
X162429125Y-100637150D01*
X162355757Y-100582959D01*
X162355754Y-100582958D01*
X162348184Y-100577366D01*
X162220369Y-100532481D01*
X162212723Y-100531758D01*
X162212722Y-100531758D01*
X162206752Y-100531194D01*
X162188834Y-100529500D01*
X160391166Y-100529500D01*
X160373248Y-100531194D01*
X160367278Y-100531758D01*
X160367277Y-100531758D01*
X160359631Y-100532481D01*
X160231816Y-100577366D01*
X160224246Y-100582958D01*
X160224243Y-100582959D01*
X160150875Y-100637150D01*
X160122850Y-100657850D01*
X160117258Y-100665421D01*
X160047959Y-100759243D01*
X160047958Y-100759246D01*
X160042366Y-100766816D01*
X159997481Y-100894631D01*
X159994500Y-100926166D01*
X159994500Y-102273834D01*
X139092362Y-102273834D01*
X139095010Y-102248638D01*
X139095010Y-102248637D01*
X139095654Y-102242510D01*
X139076627Y-102033438D01*
X139017353Y-101832043D01*
X138920091Y-101645997D01*
X138788544Y-101482386D01*
X138627724Y-101347442D01*
X138622332Y-101344478D01*
X138622328Y-101344475D01*
X138449152Y-101249271D01*
X138443755Y-101246304D01*
X138243646Y-101182826D01*
X138237529Y-101182140D01*
X138237525Y-101182139D01*
X138159608Y-101173400D01*
X138080264Y-101164500D01*
X137517170Y-101164500D01*
X137361066Y-101179806D01*
X137160090Y-101240484D01*
X137154649Y-101243377D01*
X136980174Y-101336147D01*
X136980172Y-101336149D01*
X136974728Y-101339043D01*
X136969949Y-101342941D01*
X136816814Y-101467834D01*
X136816811Y-101467837D01*
X136812039Y-101471729D01*
X136808112Y-101476476D01*
X136808110Y-101476478D01*
X136682150Y-101628737D01*
X136682148Y-101628741D01*
X136678221Y-101633487D01*
X136578370Y-101818157D01*
X136516290Y-102018705D01*
X136515646Y-102024830D01*
X136515646Y-102024831D01*
X136514096Y-102039577D01*
X136494346Y-102227490D01*
X130175000Y-102227490D01*
X130175000Y-100368834D01*
X136499500Y-100368834D01*
X136502481Y-100400369D01*
X136547366Y-100528184D01*
X136552958Y-100535754D01*
X136552959Y-100535757D01*
X136615335Y-100620206D01*
X136627850Y-100637150D01*
X136635421Y-100642742D01*
X136729243Y-100712041D01*
X136729246Y-100712042D01*
X136736816Y-100717634D01*
X136864631Y-100762519D01*
X136872277Y-100763242D01*
X136872278Y-100763242D01*
X136878248Y-100763806D01*
X136896166Y-100765500D01*
X138693834Y-100765500D01*
X138711752Y-100763806D01*
X138717722Y-100763242D01*
X138717723Y-100763242D01*
X138725369Y-100762519D01*
X138853184Y-100717634D01*
X138860754Y-100712042D01*
X138860757Y-100712041D01*
X138954579Y-100642742D01*
X138962150Y-100637150D01*
X138974665Y-100620206D01*
X139037041Y-100535757D01*
X139037042Y-100535754D01*
X139042634Y-100528184D01*
X139087519Y-100400369D01*
X139090500Y-100368834D01*
X139090500Y-99021166D01*
X139087519Y-98989631D01*
X139042634Y-98861816D01*
X139037042Y-98854246D01*
X139037041Y-98854243D01*
X138967742Y-98760421D01*
X138962150Y-98752850D01*
X138945206Y-98740335D01*
X138860757Y-98677959D01*
X138860754Y-98677958D01*
X138853184Y-98672366D01*
X138725369Y-98627481D01*
X138717723Y-98626758D01*
X138717722Y-98626758D01*
X138711752Y-98626194D01*
X138693834Y-98624500D01*
X136896166Y-98624500D01*
X136878248Y-98626194D01*
X136872278Y-98626758D01*
X136872277Y-98626758D01*
X136864631Y-98627481D01*
X136736816Y-98672366D01*
X136729246Y-98677958D01*
X136729243Y-98677959D01*
X136644794Y-98740335D01*
X136627850Y-98752850D01*
X136622258Y-98760421D01*
X136552959Y-98854243D01*
X136552958Y-98854246D01*
X136547366Y-98861816D01*
X136502481Y-98989631D01*
X136499500Y-99021166D01*
X136499500Y-100368834D01*
X130175000Y-100368834D01*
X130175000Y-94607490D01*
X136494346Y-94607490D01*
X136513373Y-94816562D01*
X136515111Y-94822468D01*
X136515112Y-94822472D01*
X136530854Y-94875957D01*
X136572647Y-95017957D01*
X136669909Y-95204003D01*
X136801456Y-95367614D01*
X136962276Y-95502558D01*
X136967668Y-95505522D01*
X136967672Y-95505525D01*
X136982821Y-95513853D01*
X137146245Y-95603696D01*
X137346354Y-95667174D01*
X137352471Y-95667860D01*
X137352475Y-95667861D01*
X137430392Y-95676600D01*
X137509736Y-95685500D01*
X138072830Y-95685500D01*
X138228934Y-95670194D01*
X138429910Y-95609516D01*
X138446436Y-95600729D01*
X138609826Y-95513853D01*
X138609828Y-95513851D01*
X138615272Y-95510957D01*
X138675308Y-95461993D01*
X138773186Y-95382166D01*
X138773189Y-95382163D01*
X138777961Y-95378271D01*
X138781890Y-95373522D01*
X138907850Y-95221263D01*
X138907852Y-95221259D01*
X138911779Y-95216513D01*
X139011630Y-95031843D01*
X139073710Y-94831295D01*
X139075259Y-94816562D01*
X139095010Y-94628638D01*
X139095010Y-94628637D01*
X139095654Y-94622510D01*
X139076627Y-94413438D01*
X139073338Y-94402261D01*
X139019092Y-94217952D01*
X139017353Y-94212043D01*
X138920091Y-94025997D01*
X138788544Y-93862386D01*
X138627724Y-93727442D01*
X138622332Y-93724478D01*
X138622328Y-93724475D01*
X138449152Y-93629271D01*
X138443755Y-93626304D01*
X138243646Y-93562826D01*
X138237529Y-93562140D01*
X138237525Y-93562139D01*
X138159608Y-93553400D01*
X138080264Y-93544500D01*
X137517170Y-93544500D01*
X137361066Y-93559806D01*
X137160090Y-93620484D01*
X137154649Y-93623377D01*
X136980174Y-93716147D01*
X136980172Y-93716149D01*
X136974728Y-93719043D01*
X136969949Y-93722941D01*
X136816814Y-93847834D01*
X136816811Y-93847837D01*
X136812039Y-93851729D01*
X136808112Y-93856476D01*
X136808110Y-93856478D01*
X136682150Y-94008737D01*
X136682148Y-94008741D01*
X136678221Y-94013487D01*
X136578370Y-94198157D01*
X136516290Y-94398705D01*
X136515646Y-94404830D01*
X136515646Y-94404831D01*
X136514096Y-94419577D01*
X136494346Y-94607490D01*
X130175000Y-94607490D01*
X130175000Y-92748834D01*
X136499500Y-92748834D01*
X136502481Y-92780369D01*
X136547366Y-92908184D01*
X136552958Y-92915754D01*
X136552959Y-92915757D01*
X136566915Y-92934651D01*
X136627850Y-93017150D01*
X136635421Y-93022742D01*
X136729243Y-93092041D01*
X136729246Y-93092042D01*
X136736816Y-93097634D01*
X136864631Y-93142519D01*
X136872277Y-93143242D01*
X136872278Y-93143242D01*
X136878248Y-93143806D01*
X136896166Y-93145500D01*
X138693834Y-93145500D01*
X138711752Y-93143806D01*
X138717722Y-93143242D01*
X138717723Y-93143242D01*
X138725369Y-93142519D01*
X138853184Y-93097634D01*
X138860754Y-93092042D01*
X138860757Y-93092041D01*
X138954579Y-93022742D01*
X138962150Y-93017150D01*
X139023085Y-92934651D01*
X139037041Y-92915757D01*
X139037042Y-92915754D01*
X139042634Y-92908184D01*
X139087519Y-92780369D01*
X139090500Y-92748834D01*
X139090500Y-92107095D01*
X159687001Y-92107095D01*
X159687338Y-92113614D01*
X159697257Y-92209206D01*
X159700149Y-92222600D01*
X159751588Y-92376784D01*
X159757761Y-92389962D01*
X159843063Y-92527807D01*
X159852099Y-92539208D01*
X159966829Y-92653739D01*
X159978240Y-92662751D01*
X160116243Y-92747816D01*
X160129424Y-92753963D01*
X160283710Y-92805138D01*
X160297086Y-92808005D01*
X160391438Y-92817672D01*
X160397854Y-92818000D01*
X160464724Y-92818000D01*
X160532845Y-92838002D01*
X160579338Y-92891658D01*
X160589442Y-92961932D01*
X160559948Y-93026512D01*
X160523877Y-93055251D01*
X160475178Y-93081145D01*
X160469728Y-93084043D01*
X160459430Y-93092442D01*
X160311814Y-93212834D01*
X160311811Y-93212837D01*
X160307039Y-93216729D01*
X160303112Y-93221476D01*
X160303110Y-93221478D01*
X160177150Y-93373737D01*
X160177148Y-93373741D01*
X160173221Y-93378487D01*
X160073370Y-93563157D01*
X160011290Y-93763705D01*
X160010646Y-93769830D01*
X160010646Y-93769831D01*
X160009096Y-93784577D01*
X159989346Y-93972490D01*
X160008373Y-94181562D01*
X160010111Y-94187468D01*
X160010112Y-94187472D01*
X160015737Y-94206584D01*
X160067647Y-94382957D01*
X160164909Y-94569003D01*
X160296456Y-94732614D01*
X160457276Y-94867558D01*
X160462668Y-94870522D01*
X160462672Y-94870525D01*
X160477821Y-94878853D01*
X160641245Y-94968696D01*
X160841354Y-95032174D01*
X160847471Y-95032860D01*
X160847475Y-95032861D01*
X160925392Y-95041600D01*
X161004736Y-95050500D01*
X161567830Y-95050500D01*
X161723934Y-95035194D01*
X161924910Y-94974516D01*
X161941436Y-94965729D01*
X162104826Y-94878853D01*
X162104828Y-94878851D01*
X162110272Y-94875957D01*
X162175851Y-94822472D01*
X162268186Y-94747166D01*
X162268189Y-94747163D01*
X162272961Y-94743271D01*
X162276890Y-94738522D01*
X162402850Y-94586263D01*
X162402852Y-94586259D01*
X162406779Y-94581513D01*
X162506630Y-94396843D01*
X162568710Y-94196295D01*
X162570259Y-94181562D01*
X162590010Y-93993638D01*
X162590010Y-93993637D01*
X162590654Y-93987510D01*
X162571627Y-93778438D01*
X162557784Y-93731401D01*
X162514092Y-93582952D01*
X162512353Y-93577043D01*
X162415091Y-93390997D01*
X162283544Y-93227386D01*
X162122724Y-93092442D01*
X162117328Y-93089476D01*
X162117320Y-93089470D01*
X162053552Y-93054413D01*
X162003493Y-93004068D01*
X161988600Y-92934651D01*
X162013601Y-92868202D01*
X162070558Y-92825818D01*
X162114253Y-92817999D01*
X162182095Y-92817999D01*
X162188614Y-92817662D01*
X162284206Y-92807743D01*
X162297600Y-92804851D01*
X162451784Y-92753412D01*
X162464962Y-92747239D01*
X162602807Y-92661937D01*
X162614208Y-92652901D01*
X162728739Y-92538171D01*
X162737751Y-92526760D01*
X162822816Y-92388757D01*
X162828963Y-92375576D01*
X162880138Y-92221290D01*
X162883005Y-92207914D01*
X162892672Y-92113562D01*
X162893000Y-92107146D01*
X162893000Y-91712115D01*
X162888525Y-91696876D01*
X162887135Y-91695671D01*
X162879452Y-91694000D01*
X159705116Y-91694000D01*
X159689877Y-91698475D01*
X159688672Y-91699865D01*
X159687001Y-91707548D01*
X159687001Y-92107095D01*
X139090500Y-92107095D01*
X139090500Y-91401166D01*
X139087519Y-91369631D01*
X139042634Y-91241816D01*
X139037042Y-91234246D01*
X139037041Y-91234243D01*
X138988028Y-91167885D01*
X159687000Y-91167885D01*
X159691475Y-91183124D01*
X159692865Y-91184329D01*
X159700548Y-91186000D01*
X161017885Y-91186000D01*
X161033124Y-91181525D01*
X161034329Y-91180135D01*
X161036000Y-91172452D01*
X161036000Y-91167885D01*
X161544000Y-91167885D01*
X161548475Y-91183124D01*
X161549865Y-91184329D01*
X161557548Y-91186000D01*
X162874884Y-91186000D01*
X162890123Y-91181525D01*
X162891328Y-91180135D01*
X162892999Y-91172452D01*
X162892999Y-90772905D01*
X162892662Y-90766386D01*
X162882743Y-90670794D01*
X162879851Y-90657400D01*
X162828412Y-90503216D01*
X162822239Y-90490038D01*
X162736937Y-90352193D01*
X162727901Y-90340792D01*
X162613171Y-90226261D01*
X162601760Y-90217249D01*
X162463757Y-90132184D01*
X162450576Y-90126037D01*
X162296290Y-90074862D01*
X162282914Y-90071995D01*
X162188562Y-90062328D01*
X162182145Y-90062000D01*
X161562115Y-90062000D01*
X161546876Y-90066475D01*
X161545671Y-90067865D01*
X161544000Y-90075548D01*
X161544000Y-91167885D01*
X161036000Y-91167885D01*
X161036000Y-90080116D01*
X161031525Y-90064877D01*
X161030135Y-90063672D01*
X161022452Y-90062001D01*
X160397905Y-90062001D01*
X160391386Y-90062338D01*
X160295794Y-90072257D01*
X160282400Y-90075149D01*
X160128216Y-90126588D01*
X160115038Y-90132761D01*
X159977193Y-90218063D01*
X159965792Y-90227099D01*
X159851261Y-90341829D01*
X159842249Y-90353240D01*
X159757184Y-90491243D01*
X159751037Y-90504424D01*
X159699862Y-90658710D01*
X159696995Y-90672086D01*
X159687328Y-90766438D01*
X159687000Y-90772855D01*
X159687000Y-91167885D01*
X138988028Y-91167885D01*
X138967742Y-91140421D01*
X138962150Y-91132850D01*
X138945206Y-91120335D01*
X138860757Y-91057959D01*
X138860754Y-91057958D01*
X138853184Y-91052366D01*
X138725369Y-91007481D01*
X138717723Y-91006758D01*
X138717722Y-91006758D01*
X138711752Y-91006194D01*
X138693834Y-91004500D01*
X136896166Y-91004500D01*
X136878248Y-91006194D01*
X136872278Y-91006758D01*
X136872277Y-91006758D01*
X136864631Y-91007481D01*
X136736816Y-91052366D01*
X136729246Y-91057958D01*
X136729243Y-91057959D01*
X136644794Y-91120335D01*
X136627850Y-91132850D01*
X136622258Y-91140421D01*
X136552959Y-91234243D01*
X136552958Y-91234246D01*
X136547366Y-91241816D01*
X136502481Y-91369631D01*
X136499500Y-91401166D01*
X136499500Y-92748834D01*
X130175000Y-92748834D01*
X130175000Y-88257490D01*
X136494346Y-88257490D01*
X136513373Y-88466562D01*
X136572647Y-88667957D01*
X136669909Y-88854003D01*
X136801456Y-89017614D01*
X136962276Y-89152558D01*
X136967668Y-89155522D01*
X136967672Y-89155525D01*
X136982821Y-89163853D01*
X137146245Y-89253696D01*
X137346354Y-89317174D01*
X137352471Y-89317860D01*
X137352475Y-89317861D01*
X137430392Y-89326600D01*
X137509736Y-89335500D01*
X138072830Y-89335500D01*
X138228934Y-89320194D01*
X138429910Y-89259516D01*
X138446436Y-89250729D01*
X138609826Y-89163853D01*
X138609828Y-89163851D01*
X138615272Y-89160957D01*
X138675308Y-89111993D01*
X138773186Y-89032166D01*
X138773189Y-89032163D01*
X138777961Y-89028271D01*
X138781890Y-89023522D01*
X138907850Y-88871263D01*
X138907852Y-88871259D01*
X138911779Y-88866513D01*
X139011630Y-88681843D01*
X139073710Y-88481295D01*
X139075259Y-88466562D01*
X139095010Y-88278638D01*
X139095010Y-88278637D01*
X139095654Y-88272510D01*
X139076627Y-88063438D01*
X139017353Y-87862043D01*
X138920091Y-87675997D01*
X138788544Y-87512386D01*
X138627724Y-87377442D01*
X138622332Y-87374478D01*
X138622328Y-87374475D01*
X138449152Y-87279271D01*
X138443755Y-87276304D01*
X138243646Y-87212826D01*
X138237529Y-87212140D01*
X138237525Y-87212139D01*
X138159608Y-87203400D01*
X138080264Y-87194500D01*
X137517170Y-87194500D01*
X137361066Y-87209806D01*
X137160090Y-87270484D01*
X137154649Y-87273377D01*
X136980174Y-87366147D01*
X136980172Y-87366149D01*
X136974728Y-87369043D01*
X136969949Y-87372941D01*
X136816814Y-87497834D01*
X136816811Y-87497837D01*
X136812039Y-87501729D01*
X136808112Y-87506476D01*
X136808110Y-87506478D01*
X136682150Y-87658737D01*
X136682148Y-87658741D01*
X136678221Y-87663487D01*
X136578370Y-87848157D01*
X136516290Y-88048705D01*
X136515646Y-88054830D01*
X136515646Y-88054831D01*
X136514096Y-88069577D01*
X136494346Y-88257490D01*
X130175000Y-88257490D01*
X130175000Y-86398834D01*
X136499500Y-86398834D01*
X136502481Y-86430369D01*
X136547366Y-86558184D01*
X136552958Y-86565754D01*
X136552959Y-86565757D01*
X136615335Y-86650206D01*
X136627850Y-86667150D01*
X136635421Y-86672742D01*
X136729243Y-86742041D01*
X136729246Y-86742042D01*
X136736816Y-86747634D01*
X136864631Y-86792519D01*
X136872277Y-86793242D01*
X136872278Y-86793242D01*
X136878248Y-86793806D01*
X136896166Y-86795500D01*
X138693834Y-86795500D01*
X138711752Y-86793806D01*
X138717722Y-86793242D01*
X138717723Y-86793242D01*
X138725369Y-86792519D01*
X138853184Y-86747634D01*
X138860754Y-86742042D01*
X138860757Y-86742041D01*
X138954579Y-86672742D01*
X138962150Y-86667150D01*
X138974665Y-86650206D01*
X139037041Y-86565757D01*
X139037042Y-86565754D01*
X139042634Y-86558184D01*
X139087519Y-86430369D01*
X139090500Y-86398834D01*
X139090500Y-85051166D01*
X139087519Y-85019631D01*
X139042634Y-84891816D01*
X139037042Y-84884246D01*
X139037041Y-84884243D01*
X138967742Y-84790421D01*
X138962150Y-84782850D01*
X138945206Y-84770335D01*
X138860757Y-84707959D01*
X138860754Y-84707958D01*
X138853184Y-84702366D01*
X138725369Y-84657481D01*
X138717723Y-84656758D01*
X138717722Y-84656758D01*
X138711752Y-84656194D01*
X138693834Y-84654500D01*
X136896166Y-84654500D01*
X136878248Y-84656194D01*
X136872278Y-84656758D01*
X136872277Y-84656758D01*
X136864631Y-84657481D01*
X136736816Y-84702366D01*
X136729246Y-84707958D01*
X136729243Y-84707959D01*
X136644794Y-84770335D01*
X136627850Y-84782850D01*
X136622258Y-84790421D01*
X136552959Y-84884243D01*
X136552958Y-84884246D01*
X136547366Y-84891816D01*
X136502481Y-85019631D01*
X136499500Y-85051166D01*
X136499500Y-86398834D01*
X130175000Y-86398834D01*
X130175000Y-81907490D01*
X136494346Y-81907490D01*
X136513373Y-82116562D01*
X136572647Y-82317957D01*
X136669909Y-82504003D01*
X136801456Y-82667614D01*
X136962276Y-82802558D01*
X136967668Y-82805522D01*
X136967672Y-82805525D01*
X136982821Y-82813853D01*
X137146245Y-82903696D01*
X137346354Y-82967174D01*
X137352471Y-82967860D01*
X137352475Y-82967861D01*
X137430392Y-82976600D01*
X137509736Y-82985500D01*
X138072830Y-82985500D01*
X138228934Y-82970194D01*
X138429910Y-82909516D01*
X138446436Y-82900729D01*
X138609826Y-82813853D01*
X138609828Y-82813851D01*
X138615272Y-82810957D01*
X138675308Y-82761993D01*
X138773186Y-82682166D01*
X138773189Y-82682163D01*
X138777961Y-82678271D01*
X138781890Y-82673522D01*
X138907850Y-82521263D01*
X138907852Y-82521259D01*
X138911779Y-82516513D01*
X139011630Y-82331843D01*
X139073710Y-82131295D01*
X139075259Y-82116562D01*
X139095010Y-81928638D01*
X139095010Y-81928637D01*
X139095654Y-81922510D01*
X139076627Y-81713438D01*
X139017353Y-81512043D01*
X138920091Y-81325997D01*
X138788544Y-81162386D01*
X138627724Y-81027442D01*
X138622332Y-81024478D01*
X138622328Y-81024475D01*
X138449152Y-80929271D01*
X138443755Y-80926304D01*
X138243646Y-80862826D01*
X138237529Y-80862140D01*
X138237525Y-80862139D01*
X138159608Y-80853400D01*
X138080264Y-80844500D01*
X137517170Y-80844500D01*
X137361066Y-80859806D01*
X137160090Y-80920484D01*
X137154649Y-80923377D01*
X136980174Y-81016147D01*
X136980172Y-81016149D01*
X136974728Y-81019043D01*
X136969949Y-81022941D01*
X136816814Y-81147834D01*
X136816811Y-81147837D01*
X136812039Y-81151729D01*
X136808112Y-81156476D01*
X136808110Y-81156478D01*
X136682150Y-81308737D01*
X136682148Y-81308741D01*
X136678221Y-81313487D01*
X136578370Y-81498157D01*
X136516290Y-81698705D01*
X136515646Y-81704830D01*
X136515646Y-81704831D01*
X136514096Y-81719577D01*
X136494346Y-81907490D01*
X130175000Y-81907490D01*
X130175000Y-80048834D01*
X136499500Y-80048834D01*
X136502481Y-80080369D01*
X136547366Y-80208184D01*
X136552958Y-80215754D01*
X136552959Y-80215757D01*
X136584603Y-80258599D01*
X136627850Y-80317150D01*
X136635421Y-80322742D01*
X136729243Y-80392041D01*
X136729246Y-80392042D01*
X136736816Y-80397634D01*
X136864631Y-80442519D01*
X136872277Y-80443242D01*
X136872278Y-80443242D01*
X136878248Y-80443806D01*
X136896166Y-80445500D01*
X138693834Y-80445500D01*
X138711752Y-80443806D01*
X138717722Y-80443242D01*
X138717723Y-80443242D01*
X138725369Y-80442519D01*
X138853184Y-80397634D01*
X138860754Y-80392042D01*
X138860757Y-80392041D01*
X138954579Y-80322742D01*
X138962150Y-80317150D01*
X139005397Y-80258599D01*
X139037041Y-80215757D01*
X139037042Y-80215754D01*
X139042634Y-80208184D01*
X139087519Y-80080369D01*
X139090500Y-80048834D01*
X139090500Y-79367490D01*
X159989346Y-79367490D01*
X160008373Y-79576562D01*
X160067647Y-79777957D01*
X160164909Y-79964003D01*
X160296456Y-80127614D01*
X160457276Y-80262558D01*
X160462668Y-80265522D01*
X160462672Y-80265525D01*
X160556578Y-80317150D01*
X160641245Y-80363696D01*
X160841354Y-80427174D01*
X160847471Y-80427860D01*
X160847475Y-80427861D01*
X160925392Y-80436600D01*
X161004736Y-80445500D01*
X161567830Y-80445500D01*
X161723934Y-80430194D01*
X161924910Y-80369516D01*
X162037635Y-80309579D01*
X162104826Y-80273853D01*
X162104828Y-80273851D01*
X162110272Y-80270957D01*
X162198131Y-80199301D01*
X162268186Y-80142166D01*
X162268189Y-80142163D01*
X162272961Y-80138271D01*
X162276890Y-80133522D01*
X162402850Y-79981263D01*
X162402852Y-79981259D01*
X162406779Y-79976513D01*
X162506630Y-79791843D01*
X162568710Y-79591295D01*
X162570259Y-79576562D01*
X162590010Y-79388638D01*
X162590010Y-79388637D01*
X162590654Y-79382510D01*
X162571627Y-79173438D01*
X162512353Y-78972043D01*
X162415091Y-78785997D01*
X162283544Y-78622386D01*
X162122724Y-78487442D01*
X162117332Y-78484478D01*
X162117328Y-78484475D01*
X161944152Y-78389271D01*
X161938755Y-78386304D01*
X161738646Y-78322826D01*
X161732529Y-78322140D01*
X161732525Y-78322139D01*
X161654608Y-78313400D01*
X161575264Y-78304500D01*
X161012170Y-78304500D01*
X160856066Y-78319806D01*
X160655090Y-78380484D01*
X160649649Y-78383377D01*
X160475174Y-78476147D01*
X160475172Y-78476149D01*
X160469728Y-78479043D01*
X160464949Y-78482941D01*
X160311814Y-78607834D01*
X160311811Y-78607837D01*
X160307039Y-78611729D01*
X160303112Y-78616476D01*
X160303110Y-78616478D01*
X160177150Y-78768737D01*
X160177148Y-78768741D01*
X160173221Y-78773487D01*
X160073370Y-78958157D01*
X160011290Y-79158705D01*
X160010646Y-79164830D01*
X160010646Y-79164831D01*
X160009096Y-79179577D01*
X159989346Y-79367490D01*
X139090500Y-79367490D01*
X139090500Y-78701166D01*
X139087519Y-78669631D01*
X139042634Y-78541816D01*
X139037042Y-78534246D01*
X139037041Y-78534243D01*
X138967742Y-78440421D01*
X138962150Y-78432850D01*
X138903149Y-78389271D01*
X138860757Y-78357959D01*
X138860754Y-78357958D01*
X138853184Y-78352366D01*
X138725369Y-78307481D01*
X138717723Y-78306758D01*
X138717722Y-78306758D01*
X138711752Y-78306194D01*
X138693834Y-78304500D01*
X136896166Y-78304500D01*
X136878248Y-78306194D01*
X136872278Y-78306758D01*
X136872277Y-78306758D01*
X136864631Y-78307481D01*
X136736816Y-78352366D01*
X136729246Y-78357958D01*
X136729243Y-78357959D01*
X136686851Y-78389271D01*
X136627850Y-78432850D01*
X136622258Y-78440421D01*
X136552959Y-78534243D01*
X136552958Y-78534246D01*
X136547366Y-78541816D01*
X136502481Y-78669631D01*
X136499500Y-78701166D01*
X136499500Y-80048834D01*
X130175000Y-80048834D01*
X130175000Y-77508834D01*
X159994500Y-77508834D01*
X159997481Y-77540369D01*
X160042366Y-77668184D01*
X160047958Y-77675754D01*
X160047959Y-77675757D01*
X160110335Y-77760206D01*
X160122850Y-77777150D01*
X160130421Y-77782742D01*
X160224243Y-77852041D01*
X160224246Y-77852042D01*
X160231816Y-77857634D01*
X160359631Y-77902519D01*
X160367277Y-77903242D01*
X160367278Y-77903242D01*
X160373248Y-77903806D01*
X160391166Y-77905500D01*
X162188834Y-77905500D01*
X162206752Y-77903806D01*
X162212722Y-77903242D01*
X162212723Y-77903242D01*
X162220369Y-77902519D01*
X162348184Y-77857634D01*
X162355754Y-77852042D01*
X162355757Y-77852041D01*
X162449579Y-77782742D01*
X162457150Y-77777150D01*
X162469665Y-77760206D01*
X162532041Y-77675757D01*
X162532042Y-77675754D01*
X162537634Y-77668184D01*
X162582519Y-77540369D01*
X162585500Y-77508834D01*
X162585500Y-76161166D01*
X162582519Y-76129631D01*
X162537634Y-76001816D01*
X162532042Y-75994246D01*
X162532041Y-75994243D01*
X162462742Y-75900421D01*
X162457150Y-75892850D01*
X162440206Y-75880335D01*
X162355757Y-75817959D01*
X162355754Y-75817958D01*
X162348184Y-75812366D01*
X162220369Y-75767481D01*
X162212723Y-75766758D01*
X162212722Y-75766758D01*
X162206752Y-75766194D01*
X162188834Y-75764500D01*
X160391166Y-75764500D01*
X160373248Y-75766194D01*
X160367278Y-75766758D01*
X160367277Y-75766758D01*
X160359631Y-75767481D01*
X160231816Y-75812366D01*
X160224246Y-75817958D01*
X160224243Y-75817959D01*
X160139794Y-75880335D01*
X160122850Y-75892850D01*
X160117258Y-75900421D01*
X160047959Y-75994243D01*
X160047958Y-75994246D01*
X160042366Y-76001816D01*
X159997481Y-76129631D01*
X159994500Y-76161166D01*
X159994500Y-77508834D01*
X130175000Y-77508834D01*
X130175000Y-69842490D01*
X136494346Y-69842490D01*
X136513373Y-70051562D01*
X136572647Y-70252957D01*
X136669909Y-70439003D01*
X136801456Y-70602614D01*
X136962276Y-70737558D01*
X136967668Y-70740522D01*
X136967672Y-70740525D01*
X136982821Y-70748853D01*
X137146245Y-70838696D01*
X137346354Y-70902174D01*
X137352471Y-70902860D01*
X137352475Y-70902861D01*
X137430392Y-70911600D01*
X137509736Y-70920500D01*
X138072830Y-70920500D01*
X138228934Y-70905194D01*
X138429910Y-70844516D01*
X138446436Y-70835729D01*
X138609826Y-70748853D01*
X138609828Y-70748851D01*
X138615272Y-70745957D01*
X138675308Y-70696993D01*
X138773186Y-70617166D01*
X138773189Y-70617163D01*
X138777961Y-70613271D01*
X138781890Y-70608522D01*
X138907850Y-70456263D01*
X138907852Y-70456259D01*
X138911779Y-70451513D01*
X139011630Y-70266843D01*
X139073710Y-70066295D01*
X139075259Y-70051562D01*
X139095010Y-69863638D01*
X139095010Y-69863637D01*
X139095654Y-69857510D01*
X139076627Y-69648438D01*
X139017353Y-69447043D01*
X138920091Y-69260997D01*
X138788544Y-69097386D01*
X138627724Y-68962442D01*
X138622332Y-68959478D01*
X138622328Y-68959475D01*
X138449152Y-68864271D01*
X138443755Y-68861304D01*
X138243646Y-68797826D01*
X138237529Y-68797140D01*
X138237525Y-68797139D01*
X138159608Y-68788400D01*
X138080264Y-68779500D01*
X137517170Y-68779500D01*
X137361066Y-68794806D01*
X137160090Y-68855484D01*
X137154649Y-68858377D01*
X136980174Y-68951147D01*
X136980172Y-68951149D01*
X136974728Y-68954043D01*
X136969949Y-68957941D01*
X136816814Y-69082834D01*
X136816811Y-69082837D01*
X136812039Y-69086729D01*
X136808112Y-69091476D01*
X136808110Y-69091478D01*
X136682150Y-69243737D01*
X136682148Y-69243741D01*
X136678221Y-69248487D01*
X136578370Y-69433157D01*
X136516290Y-69633705D01*
X136515646Y-69639830D01*
X136515646Y-69639831D01*
X136514096Y-69654577D01*
X136494346Y-69842490D01*
X130175000Y-69842490D01*
X130175000Y-67983834D01*
X136499500Y-67983834D01*
X136502481Y-68015369D01*
X136547366Y-68143184D01*
X136552958Y-68150754D01*
X136552959Y-68150757D01*
X136615335Y-68235206D01*
X136627850Y-68252150D01*
X136635421Y-68257742D01*
X136729243Y-68327041D01*
X136729246Y-68327042D01*
X136736816Y-68332634D01*
X136864631Y-68377519D01*
X136872277Y-68378242D01*
X136872278Y-68378242D01*
X136878248Y-68378806D01*
X136896166Y-68380500D01*
X138693834Y-68380500D01*
X138711752Y-68378806D01*
X138717722Y-68378242D01*
X138717723Y-68378242D01*
X138725369Y-68377519D01*
X138853184Y-68332634D01*
X138860754Y-68327042D01*
X138860757Y-68327041D01*
X138954579Y-68257742D01*
X138962150Y-68252150D01*
X138974665Y-68235206D01*
X139037041Y-68150757D01*
X139037042Y-68150754D01*
X139042634Y-68143184D01*
X139087519Y-68015369D01*
X139090500Y-67983834D01*
X139090500Y-66636166D01*
X139087519Y-66604631D01*
X139042634Y-66476816D01*
X139037042Y-66469246D01*
X139037041Y-66469243D01*
X138967742Y-66375421D01*
X138962150Y-66367850D01*
X138945206Y-66355335D01*
X138860757Y-66292959D01*
X138860754Y-66292958D01*
X138853184Y-66287366D01*
X138725369Y-66242481D01*
X138717723Y-66241758D01*
X138717722Y-66241758D01*
X138711752Y-66241194D01*
X138693834Y-66239500D01*
X136896166Y-66239500D01*
X136878248Y-66241194D01*
X136872278Y-66241758D01*
X136872277Y-66241758D01*
X136864631Y-66242481D01*
X136736816Y-66287366D01*
X136729246Y-66292958D01*
X136729243Y-66292959D01*
X136644794Y-66355335D01*
X136627850Y-66367850D01*
X136622258Y-66375421D01*
X136552959Y-66469243D01*
X136552958Y-66469246D01*
X136547366Y-66476816D01*
X136502481Y-66604631D01*
X136499500Y-66636166D01*
X136499500Y-67983834D01*
X130175000Y-67983834D01*
X130175000Y-64896000D01*
X130195002Y-64827879D01*
X130248658Y-64781386D01*
X130301000Y-64770000D01*
X139700000Y-64770000D01*
X139700000Y-57911000D01*
X139720002Y-57842879D01*
X139773658Y-57796386D01*
X139826000Y-57785000D01*
X157354000Y-57785000D01*
X157422121Y-57805002D01*
G37*
%TD.AperFunction*%
%TD*%
M02*
