M48
; DRILL file {KiCad (6.0.1-0)} date Friday, April 12, 2024 at 07:50:54 AM
; FORMAT={-:-/ absolute / inch / decimal}
; #@! TF.CreationDate,2024-04-12T07:50:54-04:00
; #@! TF.GenerationSoftware,Kicad,Pcbnew,(6.0.1-0)
; #@! TF.FileFunction,MixedPlating,1,2
FMAT,2
INCH
; #@! TA.AperFunction,Plated,PTH,ViaDrill
T1C0.0157
; #@! TA.AperFunction,Plated,PTH,ComponentDrill
T2C0.0469
; #@! TA.AperFunction,NonPlated,NPTH,ComponentDrill
T3C0.1260
%
G90
G05
T1
X5.275Y-2.95
X5.925Y-2.625
X5.925Y-3.225
X5.925Y-3.75
X6.0Y-2.9
X6.0419Y-2.7169
X6.0419Y-3.2919
X6.0419Y-3.8169
T2
X5.425Y-2.65
X5.425Y-2.75
X5.425Y-3.125
X5.425Y-3.225
X5.425Y-3.375
X5.425Y-3.475
X5.425Y-3.625
X5.425Y-3.725
X5.425Y-3.925
X5.425Y-4.025
X6.35Y-3.025
X6.35Y-3.125
X6.35Y-3.6
X6.35Y-3.7
X6.35Y-4.0
X6.35Y-4.1
T3
X5.35Y-2.4
X6.35Y-2.4
T0
M30
