%TF.GenerationSoftware,KiCad,Pcbnew,(6.0.1-0)*%
%TF.CreationDate,2023-07-04T10:19:10-04:00*%
%TF.ProjectId,Second Order Phase Shifter,5365636f-6e64-4204-9f72-646572205068,rev?*%
%TF.SameCoordinates,Original*%
%TF.FileFunction,Copper,L1,Top*%
%TF.FilePolarity,Positive*%
%FSLAX46Y46*%
G04 Gerber Fmt 4.6, Leading zero omitted, Abs format (unit mm)*
G04 Created by KiCad (PCBNEW (6.0.1-0)) date 2023-07-04 10:19:10*
%MOMM*%
%LPD*%
G01*
G04 APERTURE LIST*
G04 Aperture macros list*
%AMRoundRect*
0 Rectangle with rounded corners*
0 $1 Rounding radius*
0 $2 $3 $4 $5 $6 $7 $8 $9 X,Y pos of 4 corners*
0 Add a 4 corners polygon primitive as box body*
4,1,4,$2,$3,$4,$5,$6,$7,$8,$9,$2,$3,0*
0 Add four circle primitives for the rounded corners*
1,1,$1+$1,$2,$3*
1,1,$1+$1,$4,$5*
1,1,$1+$1,$6,$7*
1,1,$1+$1,$8,$9*
0 Add four rect primitives between the rounded corners*
20,1,$1+$1,$2,$3,$4,$5,0*
20,1,$1+$1,$4,$5,$6,$7,0*
20,1,$1+$1,$6,$7,$8,$9,0*
20,1,$1+$1,$8,$9,$2,$3,0*%
G04 Aperture macros list end*
%TA.AperFunction,ComponentPad*%
%ADD10O,2.190000X1.740000*%
%TD*%
%TA.AperFunction,ComponentPad*%
%ADD11RoundRect,0.250000X-0.845000X0.620000X-0.845000X-0.620000X0.845000X-0.620000X0.845000X0.620000X0*%
%TD*%
%TA.AperFunction,ComponentPad*%
%ADD12RoundRect,0.250000X-0.620000X-0.845000X0.620000X-0.845000X0.620000X0.845000X-0.620000X0.845000X0*%
%TD*%
%TA.AperFunction,ComponentPad*%
%ADD13O,1.740000X2.190000*%
%TD*%
%TA.AperFunction,SMDPad,CuDef*%
%ADD14RoundRect,0.150000X-0.825000X-0.150000X0.825000X-0.150000X0.825000X0.150000X-0.825000X0.150000X0*%
%TD*%
%TA.AperFunction,SMDPad,CuDef*%
%ADD15RoundRect,0.250000X0.625000X-0.312500X0.625000X0.312500X-0.625000X0.312500X-0.625000X-0.312500X0*%
%TD*%
%TA.AperFunction,SMDPad,CuDef*%
%ADD16RoundRect,0.250000X-0.312500X-0.625000X0.312500X-0.625000X0.312500X0.625000X-0.312500X0.625000X0*%
%TD*%
%TA.AperFunction,SMDPad,CuDef*%
%ADD17RoundRect,0.250000X0.650000X-0.325000X0.650000X0.325000X-0.650000X0.325000X-0.650000X-0.325000X0*%
%TD*%
%TA.AperFunction,SMDPad,CuDef*%
%ADD18RoundRect,0.250000X-0.650000X0.325000X-0.650000X-0.325000X0.650000X-0.325000X0.650000X0.325000X0*%
%TD*%
%TA.AperFunction,ViaPad*%
%ADD19C,0.800000*%
%TD*%
%TA.AperFunction,Conductor*%
%ADD20C,0.250000*%
%TD*%
G04 APERTURE END LIST*
D10*
%TO.P,J1,4,Pin_4*%
%TO.N,GND*%
X128925000Y-113030000D03*
%TO.P,J1,3,Pin_3*%
%TO.N,/In*%
X128925000Y-110490000D03*
%TO.P,J1,2,Pin_2*%
%TO.N,-15V*%
X128925000Y-107950000D03*
D11*
%TO.P,J1,1,Pin_1*%
%TO.N,+15V*%
X128925000Y-105410000D03*
%TD*%
D12*
%TO.P,R3,1*%
%TO.N,/In*%
X134620000Y-111145000D03*
D13*
%TO.P,R3,2*%
%TO.N,Net-(R3-Pad2)*%
X137160000Y-111145000D03*
%TD*%
D14*
%TO.P,U1,1*%
%TO.N,/AOut*%
X144845000Y-104521000D03*
%TO.P,U1,2,-*%
%TO.N,Net-(R1-Pad2)*%
X144845000Y-105791000D03*
%TO.P,U1,3,+*%
%TO.N,Net-(R3-Pad2)*%
X144845000Y-107061000D03*
%TO.P,U1,4,V-*%
%TO.N,-15V*%
X144845000Y-108331000D03*
%TO.P,U1,5,+*%
%TO.N,Net-(R6-Pad2)*%
X149795000Y-108331000D03*
%TO.P,U1,6,-*%
%TO.N,Net-(R4-Pad2)*%
X149795000Y-107061000D03*
%TO.P,U1,7*%
%TO.N,/Out*%
X149795000Y-105791000D03*
%TO.P,U1,8,V+*%
%TO.N,+15V*%
X149795000Y-104521000D03*
%TD*%
D13*
%TO.P,R6,2*%
%TO.N,Net-(R6-Pad2)*%
X144145000Y-118765000D03*
D12*
%TO.P,R6,1*%
%TO.N,/AOut*%
X141605000Y-118765000D03*
%TD*%
D15*
%TO.P,R5,2*%
%TO.N,/Out*%
X150495000Y-112837500D03*
%TO.P,R5,1*%
%TO.N,Net-(R4-Pad2)*%
X150495000Y-115762500D03*
%TD*%
D16*
%TO.P,R4,2*%
%TO.N,Net-(R4-Pad2)*%
X147512500Y-111760000D03*
%TO.P,R4,1*%
%TO.N,/AOut*%
X144587500Y-111760000D03*
%TD*%
D15*
%TO.P,R2,1*%
%TO.N,Net-(R1-Pad2)*%
X140970000Y-106872500D03*
%TO.P,R2,2*%
%TO.N,/AOut*%
X140970000Y-103947500D03*
%TD*%
D16*
%TO.P,R1,2*%
%TO.N,Net-(R1-Pad2)*%
X136717500Y-104775000D03*
%TO.P,R1,1*%
%TO.N,/In*%
X133792500Y-104775000D03*
%TD*%
D13*
%TO.P,J2,2,Pin_2*%
%TO.N,GND*%
X156210000Y-107081000D03*
D12*
%TO.P,J2,1,Pin_1*%
%TO.N,/Out*%
X153670000Y-107081000D03*
%TD*%
D17*
%TO.P,C4,2*%
%TO.N,Net-(R6-Pad2)*%
X149225000Y-117905000D03*
%TO.P,C4,1*%
%TO.N,GND*%
X149225000Y-120855000D03*
%TD*%
%TO.P,C3,2*%
%TO.N,Net-(R3-Pad2)*%
X141605000Y-109015000D03*
%TO.P,C3,1*%
%TO.N,GND*%
X141605000Y-111965000D03*
%TD*%
D18*
%TO.P,C2,2*%
%TO.N,GND*%
X123190000Y-113235000D03*
%TO.P,C2,1*%
%TO.N,-15V*%
X123190000Y-110285000D03*
%TD*%
%TO.P,C1,1*%
%TO.N,+15V*%
X123190000Y-105205000D03*
%TO.P,C1,2*%
%TO.N,GND*%
X123190000Y-108155000D03*
%TD*%
D19*
%TO.N,GND*%
X146685000Y-121285000D03*
X140335000Y-113665000D03*
X123190000Y-114935000D03*
X125095000Y-108585000D03*
%TD*%
D20*
%TO.N,+15V*%
X128925000Y-105390000D02*
X131699000Y-102616000D01*
X131699000Y-102616000D02*
X147890000Y-102616000D01*
X147890000Y-102616000D02*
X149795000Y-104521000D01*
%TO.N,/AOut*%
X140970000Y-103947500D02*
X144271500Y-103947500D01*
%TO.N,Net-(R1-Pad2)*%
X140970000Y-106872500D02*
X141797500Y-106045000D01*
X141797500Y-106045000D02*
X144591000Y-106045000D01*
X144591000Y-106045000D02*
X144845000Y-105791000D01*
X136717500Y-104775000D02*
X138872500Y-104775000D01*
%TO.N,/AOut*%
X144271500Y-103947500D02*
X144845000Y-104521000D01*
%TO.N,Net-(R1-Pad2)*%
X138872500Y-104775000D02*
X140970000Y-106872500D01*
%TO.N,-15V*%
X128925000Y-107950000D02*
X127000000Y-109875000D01*
X127000000Y-109875000D02*
X127000000Y-114300000D01*
X127000000Y-114300000D02*
X127635000Y-114935000D01*
X141097000Y-114935000D02*
X143256000Y-112776000D01*
X127635000Y-114935000D02*
X141097000Y-114935000D01*
X143256000Y-112776000D02*
X143256000Y-109920000D01*
X143256000Y-109920000D02*
X144845000Y-108331000D01*
%TO.N,GND*%
X147115000Y-120855000D02*
X146685000Y-121285000D01*
X149225000Y-120855000D02*
X147115000Y-120855000D01*
X141605000Y-112395000D02*
X140335000Y-113665000D01*
X123190000Y-113235000D02*
X123190000Y-114935000D01*
X124665000Y-108155000D02*
X125095000Y-108585000D01*
X123190000Y-108155000D02*
X124665000Y-108155000D01*
%TO.N,+15V*%
X123190000Y-105205000D02*
X128720000Y-105205000D01*
%TO.N,-15V*%
X123190000Y-110285000D02*
X124665000Y-110285000D01*
X124665000Y-110285000D02*
X127000000Y-107950000D01*
X127000000Y-107950000D02*
X128925000Y-107950000D01*
%TO.N,/In*%
X128925000Y-110490000D02*
X133965000Y-110490000D01*
%TO.N,Net-(R6-Pad2)*%
X149225000Y-117905000D02*
X146050000Y-114730000D01*
X146050000Y-111125000D02*
X148844000Y-108331000D01*
X146050000Y-114730000D02*
X146050000Y-111125000D01*
X148844000Y-108331000D02*
X149795000Y-108331000D01*
%TO.N,/AOut*%
X144845000Y-104521000D02*
X145826036Y-104521000D01*
X145826036Y-104521000D02*
X146685000Y-105379964D01*
X146685000Y-105379964D02*
X146685000Y-109123750D01*
X146685000Y-109123750D02*
X144587500Y-111221250D01*
%TO.N,Net-(R4-Pad2)*%
X149795000Y-107061000D02*
X151511000Y-107061000D01*
X151511000Y-107061000D02*
X151765000Y-107315000D01*
X148147500Y-111125000D02*
X147512500Y-111760000D01*
X151765000Y-107315000D02*
X151765000Y-109855000D01*
X151765000Y-109855000D02*
X150495000Y-111125000D01*
X150495000Y-111125000D02*
X148147500Y-111125000D01*
%TO.N,/Out*%
X150495000Y-112837500D02*
X153670000Y-109662500D01*
X153670000Y-109662500D02*
X153670000Y-107081000D01*
X149795000Y-105791000D02*
X152380000Y-105791000D01*
X152380000Y-105791000D02*
X153670000Y-107081000D01*
%TO.N,Net-(R4-Pad2)*%
X147512500Y-111760000D02*
X147512500Y-113318750D01*
X147512500Y-113318750D02*
X149956250Y-115762500D01*
%TO.N,Net-(R6-Pad2)*%
X144145000Y-118765000D02*
X144800000Y-118110000D01*
X144800000Y-118110000D02*
X149020000Y-118110000D01*
%TO.N,/AOut*%
X144587500Y-111760000D02*
X144587500Y-113857500D01*
X144587500Y-113857500D02*
X141605000Y-116840000D01*
X141605000Y-116840000D02*
X141605000Y-118765000D01*
%TO.N,Net-(R3-Pad2)*%
X141605000Y-109015000D02*
X143559000Y-107061000D01*
X143559000Y-107061000D02*
X144845000Y-107061000D01*
X137160000Y-111145000D02*
X139475000Y-111145000D01*
X139475000Y-111145000D02*
X141605000Y-109015000D01*
%TO.N,/In*%
X133792500Y-104775000D02*
X134620000Y-105602500D01*
X134620000Y-105602500D02*
X134620000Y-111145000D01*
%TD*%
M02*
